<?xml version="1.0" encoding="UTF-8" standalone="no"?>
<!DOCTYPE svg PUBLIC "-//W3C//DTD SVG 1.1//EN"
"http://www.w3.org/Graphics/SVG/1.1/DTD/svg11.dtd">
<svg version="1.1" xmlns="http://www.w3.org/2000/svg" xmlns:xlink="http://www.w3.org/1999/xlink">
<defs>
<style type="text/css"><![CDATA[
.g5_3{
fill: none;
stroke: #231F20;
stroke-width: 1;
stroke-linecap: butt;
stroke-linejoin: miter;
}
.g2_3{
fill: #FFFFFF;
}
.g4_3{
fill: none;
stroke: #BF2B37;
stroke-width: 2;
stroke-linecap: butt;
stroke-linejoin: miter;
}
.g3_3{
fill: none;
stroke: #BF2B37;
stroke-width: 1;
stroke-linecap: butt;
stroke-linejoin: miter;
}
.g1_3{
fill: #231F20;
}
]]></style>
</defs>
<path d="M103,289.1l106.1,0l0,24l-106.1,0l0,-24Zm0.7,23.6l-0.3,-0.3l105.3,0l-0.4,0.3l0,-23.2l0.4,0.3l-105.3,0l0.3,-0.3Z" class="g1_3" />
<path d="M276.4,289.1l107.6,0l0,28.7l-107.6,0l0,-28.7Zm0.7,28.4l-0.3,-0.4l106.8,0l-0.3,0.4l0,-28l0.3,0.3l-106.8,0l0.3,-0.3Z" class="g1_3" />
<path d="M78,246l59,0l0,23l-59,0l0,-23Z" class="g2_3" />
<path d="M77.9,246.3l60.3,0l0,23.9l-60.3,0l0,-23.9Zm0.6,23.5l-0.3,-0.3l59.6,0l-0.3,0.3l0,-23.2l0.3,0.4l-59.6,0l0.3,-0.4Z" class="g1_3" />
<path d="M97,194l135,0l0,37L97,231l0,-37Z" class="g2_3" />
<path d="M97.1,193.8l136.2,0l0,37.9l-136.2,0l0,-37.9Zm0.7,37.5l-0.4,-0.4l135.5,0l-0.3,0.4l0,-37.2l0.3,0.4l-135.5,0l0.4,-0.4Z" class="g1_3" />
<path d="M271,195l136,0l0,36l-136,0l0,-36Z" class="g2_3" />
<path d="M271.4,194.8l136.8,0l0,37.4l-136.8,0l0,-37.4Zm0.7,37l-0.4,-0.4l136.1,0l-0.3,0.4l0,-36.7l0.3,0.4l-136.1,0l0.4,-0.4Z" class="g1_3" />
<path d="M184,130l107,0l0,33l-107,0l0,-33Z" class="g2_3" />
<path d="M184.4,130l107.7,0l0,34.3l-107.7,0l0,-34.3Zm0.8,33.9l-0.4,-0.3l106.9,0l-0.4,0.3l0,-33.5l0.4,0.4l-106.9,0l0.4,-0.4Z" class="g1_3" />
<path d="M238.6,163.9l0,15.2c0,0.1,-0.2,0.3,-0.3,0.3l-73.1,0l0.3,-0.3l0,11.5l-0.7,0l0,-11.5c0,-0.3,0.2,-0.4,0.4,-0.4l73.1,0l-0.4,0.4l0,-15.2l0.7,0Zm-71.3,26l-2.1,4.2l-2.1,-4.2Z" class="g1_3" />
<path d="M238.3,178.6l101.5,0c0.2,0,0.4,0.2,0.4,0.4l0,12l-0.8,0l0,-12l0.4,0.4l-101.5,0l0,-0.8Zm103.6,11.7l-2.1,4.3l-2.2,-4.3Z" class="g1_3" />
<path d="M161,246l76,0l0,23l-76,0l0,-23Z" class="g2_3" />
<path d="M160.8,246.3l77.3,0l0,23.9l-77.3,0l0,-23.9Zm0.8,23.5l-0.4,-0.3l76.5,0l-0.3,0.3l0,-23.2l0.3,0.4l-76.5,0l0.4,-0.4Z" class="g1_3" />
<path d="M252,246l61,0l0,23l-61,0l0,-23Z" class="g2_3" />
<path d="M252.2,246.1l61.2,0l0,23.9l-61.2,0l0,-23.9Zm0.7,23.6l-0.4,-0.3l60.6,0l-0.4,0.3l0,-23.2l0.4,0.3l-60.6,0l0.4,-0.3Z" class="g1_3" />
<path d="M339,246l77,0l0,23l-77,0l0,-23Z" class="g2_3" />
<path d="M339.4,246.1l77.3,0l0,23.9l-77.3,0l0,-23.9Zm0.8,23.6l-0.4,-0.3l76.5,0l-0.3,0.3l0,-23.2l0.3,0.3l-76.5,0l0.4,-0.3Z" class="g1_3" />
<path d="M283.2,269.7l0,9.9l-0.4,-0.4l47.4,0c0.2,0,0.3,0.2,0.3,0.4l0,6.3l-0.6,0l0,-6.3l0.3,0.4l-47.4,0c-0.2,0,-0.3,-0.2,-0.3,-0.4l0,-9.9l0.7,0Zm49.1,15.5l-2.1,4.3l-2.1,-4.3Z" class="g1_3" />
<path d="M378.4,269.7l0,9.9c0,0.2,-0.2,0.4,-0.4,0.4l-47.8,0l0.3,-0.4l0,6.3l-0.6,0l0,-6.3c0,-0.2,0.1,-0.4,0.3,-0.4l47.8,0l-0.3,0.4l0,-9.9l0.7,0Zm-46.1,15.5l-2.1,4.3l-2.1,-4.3Z" class="g1_3" />
<path d="M340.2,231.8l0,7.3c0,0.2,-0.2,0.4,-0.4,0.4l-57,0l0.4,-0.4l0,3.8l-0.7,0l0,-3.8c0,-0.2,0.1,-0.3,0.3,-0.3l57,0l-0.4,0.3l0,-7.3l0.8,0Zm-55.3,10.4l-2.1,4.3l-2.1,-4.3Z" class="g1_3" />
<path d="M340.4,231.8l0,7.3l-0.3,-0.3l38.2,0c0.2,0,0.4,0.1,0.4,0.3l0,3.8l-0.7,0l0,-3.8l0.3,0.4l-38.2,0c-0.2,0,-0.4,-0.2,-0.4,-0.4l0,-7.3l0.7,0Zm40.1,10.4l-2.2,4.3l-2.1,-4.3Z" class="g1_3" />
<path d="M165.5,231.3l0,7.7c0,0.1,-0.1,0.3,-0.3,0.3l-57.2,0l0.4,-0.3l0,4.1l-0.7,0l0,-4.1c0,-0.2,0.1,-0.4,0.3,-0.4l57.2,0l-0.4,0.4l0,-7.7l0.7,0Zm-55.3,11.1l-2.2,4.2l-2.1,-4.2Z" class="g1_3" />
<path d="M165.5,231.3l0,7.7l-0.3,-0.4l34.3,0c0.2,0,0.3,0.2,0.3,0.4l0,4.1l-0.7,0l0,-4.1l0.4,0.3l-34.3,0c-0.2,0,-0.4,-0.2,-0.4,-0.3l0,-7.7l0.7,0Zm36.1,11.1l-2.1,4.2l-2.2,-4.2Z" class="g1_3" />
<path d="M108.4,269.8l0,9.9L108,279.3l48,0c0.2,0,0.4,0.2,0.4,0.4l0,6.2l-0.7,0l0,-6.2L156,280l-48,0c-0.2,0,-0.3,-0.1,-0.3,-0.3l0,-9.9l0.7,0Zm49.8,15.4l-2.2,4.3l-2.1,-4.3Z" class="g1_3" />
<path d="M199.8,269.8l0,9.9c0,0.2,-0.1,0.3,-0.3,0.3L156,280l0.4,-0.3l0,6.2l-0.7,0l0,-6.2c0,-0.2,0.1,-0.4,0.3,-0.4l43.5,0l-0.4,0.4l0,-9.9l0.7,0Zm-41.6,15.4l-2.2,4.3l-2.1,-4.3Z" class="g1_3" />
<path d="M68,337l60,0l0,23l-60,0l0,-23Z" class="g2_3" />
<path d="M68.2,336.7l60.5,0l0,24l-60.5,0l0,-24ZM69,360.3l-0.4,-0.4l59.7,0l-0.4,0.4l0,-23.2l0.4,0.3l-59.7,0L69,337.1Z" class="g1_3" />
<path d="M151,337l77,0l0,23l-77,0l0,-23Z" class="g2_3" />
<path d="M151.3,336.7l77.2,0l0,24l-77.2,0l0,-24Zm0.7,23.6l-0.4,-0.4l76.6,0l-0.4,0.4l0,-23.2l0.4,0.3l-76.6,0l0.4,-0.3Z" class="g1_3" />
<path d="M330,337l76,0l0,23l-76,0l0,-23Z" class="g2_3" />
<path d="M329.9,336.7l77.2,0l0,24l-77.2,0l0,-24Zm0.7,23.6l-0.4,-0.4l76.5,0l-0.3,0.4l0,-23.2l0.3,0.3l-76.5,0l0.4,-0.3Z" class="g1_3" />
<path d="M331.3,326.2l-45.7,0l0.3,-0.3l0,5l-0.7,0l0,-5c0,-0.2,0.2,-0.4,0.4,-0.4l45.7,0l0,0.7Zm-43.6,4l-2.1,4.3l-2.1,-4.3Z" class="g1_3" />
<path d="M330.6,318.7l0,7.3l-0.4,-0.3l38.3,0c0.2,0,0.4,0.1,0.4,0.3l0,3.8l-0.8,0l0,-3.8l0.4,0.4l-38.3,0c-0.2,0,-0.3,-0.2,-0.3,-0.4l0,-7.3l0.7,0Zm40,10.4l-2.1,4.3l-2.2,-4.3Z" class="g1_3" />
<path d="M156.4,312.7l0,12.2c0,0.2,-0.2,0.3,-0.4,0.3l-57.6,0l0.4,-0.3l0,8.6l-0.7,0l0,-8.6c0,-0.2,0.2,-0.4,0.3,-0.4l57.6,0l-0.3,0.4l0,-12.2l0.7,0Zm-55.8,20.1l-2.2,4.3l-2.1,-4.3Z" class="g1_3" />
<path d="M156.5,317.2l0,7.7l-0.4,-0.4l34.3,0c0.3,0,0.4,0.2,0.4,0.4l0,4.1l-0.7,0l0,-4.1l0.3,0.3l-34.3,0c-0.1,0,-0.3,-0.1,-0.3,-0.3l0,-7.7l0.7,0Zm36.1,11.1l-2.2,4.2l-2.1,-4.2Z" class="g1_3" />
<path d="M237.4,337.1c0,-0.2,0.2,-0.4,0.3,-0.4l89.3,0c0.2,0,0.4,0.2,0.4,0.4l0,77.3c0,0.2,-0.2,0.3,-0.4,0.3l-89.3,0c-0.1,0,-0.3,-0.1,-0.3,-0.3l0,-77.3Zm0.7,77.3L237.7,414l89.3,0l-0.3,0.4l0,-77.3l0.3,0.3l-89.3,0l0.4,-0.3Z" class="g1_3" />
<path d="M54.5,460.5l366,0" class="g3_3" />
<path d="M304.5,759.5l240,0m41,0l239,0m-770,25l770,0" class="g3_3" />
<path d="M54,731l770,0" class="g4_3" />
<path d="M54.5,1146.5l770,0" class="g3_3" />
<path d="M54.5,56.5l770,0" class="g5_3" />
</svg>