<?xml version="1.0" encoding="UTF-8" standalone="no"?>
<!DOCTYPE svg PUBLIC "-//W3C//DTD SVG 1.1//EN"
"http://www.w3.org/Graphics/SVG/1.1/DTD/svg11.dtd">
<svg version="1.1" xmlns="http://www.w3.org/2000/svg" xmlns:xlink="http://www.w3.org/1999/xlink">
<defs>
<clipPath id="c0_3"><path d="M192.5,499.5l0,-448l495,0l0,448Z" /></clipPath>
<style type="text/css"><![CDATA[
.g4_3{
fill: #231F20;
}
.g2_3{
fill: #4D4D4D;
stroke: #4D4D4D;
stroke-width: 1;
stroke-linecap: round;
stroke-linejoin: round;
}
.g3_3{
fill: #FFFFFF;
}
.g1_3{
stroke: #000000;
stroke-width: 1;
stroke-linecap: round;
stroke-linejoin: round;
}
]]></style>
</defs>
<path fill-rule="evenodd" d="M74.5,596.5l731,0l0,2l-731,0" class="g1_3" />
<path fill-rule="evenodd" d="M805.5,743.5l-731,0l0,-3l731,0" class="g2_3" />
<path fill-rule="evenodd" d="M409.5,619.5l-188,0l0,-1l188,0" class="g1_3" />
<path fill-rule="evenodd" d="M615.5,619.5l-185,0l0,-1l185,0" class="g1_3" />
<path fill-rule="evenodd" d="M805.5,550.5l-731,0l0,-3l731,0l0,3Z" class="g2_3" />
<path d="M249,116l157,0l0,-54L249,62l0,54Z" class="g3_3" />
<path d="M249,116l157,0l0,-54L248,62l0,54l1,0l0,-53l157,0l0,53l-157,0Z" class="g4_3" />
<path d="M192,261l21,0l0,-96l-21,0l0,96Z" class="g3_3" />
<path d="M192,261l0,-96l21,0l0,96l-21,0l0,1l21,0l0,-98l-21,0l0,98l0,-1Z" class="g4_3" />
<image x="192" y="168" width="22" height="91" xlink:href="img/1.png" />
<image x="192" y="168" width="22" height="91" xlink:href="img/2.png" />
<path d="M192,487l21,0l0,-97l-21,0l0,97Z" class="g3_3" />
<path d="M192,487l0,-96l21,0l0,96l-21,0l0,1l21,0l0,-98l-21,0l0,98l0,-1Z" class="g4_3" />
<image x="192" y="394" width="22" height="91" xlink:href="img/3.png" />
<image x="192" y="394" width="22" height="91" xlink:href="img/4.png" />
<path d="M192,374l21,0l0,-96l-21,0l0,96Z" class="g3_3" />
<path d="M192,374l0,-96l21,0l0,96l-21,0l0,1l21,0l0,-98l-21,0l0,98l0,-1Z" class="g4_3" />
<image x="192" y="281" width="22" height="91" xlink:href="img/5.png" />
<image x="192" y="281" width="22" height="91" xlink:href="img/6.png" />
<path d="M338.1,116.6l0,27.8l-0.6,0l0,-27.8l0.6,0Zm2.4,26.9l-2.7,5.4l-2.7,-5.4l5.4,0Z" class="g4_3" />
<path d="M498.8,116.6l0.7,0l0,27.8l-0.7,0l0,-27.8ZM501.9,143.5l-2.7,5.4l-2.7,-5.4l5.4,0Z" class="g4_3" />
<path d="M192,148l0,-96l21,0l0,96l-21,0l0,1l21,0l0,-98l-21,0l0,98l0,-1Z" class="g4_3" />
<image x="192" y="55" width="22" height="91" xlink:href="img/7.png" />
<image x="192" y="55" width="22" height="91" xlink:href="img/8.png" />
<path d="M430,116l157,0l0,-54L430,62l0,54Z" class="g3_3" />
<path d="M430,116l158,0l0,-54L430,62l0,54l0,-53l157,0l0,52l-157,0l0,1Z" class="g4_3" />
<path d="M320,189l196,0l0,-41l-196,0l0,41Z" class="g3_3" />
<path d="M320,189l196,0l0,-41l-196,0l0,41l0,-40l195,0l0,39l-195,0l0,1Z" class="g4_3" />
<path d="M358,261l121,0l0,-40l-121,0l0,40Z" class="g3_3" />
<path d="M358,261l0,1l121,0l0,-41l-122,0l0,41l1,0l0,-1l0,-40l121,0l0,40l-121,0Z" class="g4_3" />
<path d="M523,261l121,0l0,-40l-121,0l0,40Z" class="g3_3" />
<path d="M523,261l0,1l121,0l0,-41l-121,0l0,41l0,-1l0,-40l121,0l0,40l-121,0Z" class="g4_3" />
<path d="M357,339l122,0l0,-53l-122,0l0,53Z" class="g3_3" />
<path d="M357,339l0,1l122,0l0,-55l-122,0l0,55l0,-1l1,0l0,-53l120,0l0,53l-121,0l1,0l-1,0Z" class="g4_3" />
<path d="M523,390l164,0l0,-104l-164,0l0,104Z" class="g3_3" />
<g clip-path="url(#c0_3)">
<path d="M523,390l0,1l164,0l0,-105l-165,0l0,105l1,0l0,-1l0,-104l164,0l0,104l-164,0Z" class="g4_3" />
</g>
<path d="M357,414l122,0l0,-53l-122,0l0,53Z" class="g3_3" />
<path d="M357,414l0,1l122,0l0,-54l-122,0l0,54l0,-1l1,0l0,-52l120,0l0,52l-121,0l1,0l-1,0Z" class="g4_3" />
<path d="M357,499l122,0l0,-64l-122,0l0,64Z" class="g3_3" />
<g clip-path="url(#c0_3)">
<path d="M357,499l0,1l122,0l0,-66l-122,0l0,66l0,-1l1,0l0,-64l120,0l0,64l-121,0l1,0l-1,0Z" class="g4_3" />
</g>
<path d="M418.8,189.2L419,217l-0.7,0l-0.2,-27.8l0.7,0Zm2.6,26.9l-2.7,5.4L416,216.2l5.4,-0.1Z" class="g4_3" />
<path d="M418.4,261.9l-0.2,19.7l0.7,0L419,261.9l-0.6,0Zm-2.5,18.8l2.6,5.4l2.7,-5.4l-5.3,0Z" class="g4_3" />
<path d="M418.1,339.7l0.7,0l0,17.6l-0.7,0l0,-17.6ZM421.2,356.4l-2.7,5.4l-2.7,-5.4l5.4,0Z" class="g4_3" />
<path d="M418.1,414.8l0.7,0l0,15.9l-0.7,0l0,-15.9ZM421.2,429.8l-2.7,5.3l-2.7,-5.3l5.4,0Z" class="g4_3" />
<path d="M479.4,241.3l39.5,0l0,0.7l-39.5,0l0,-0.7ZM518,239l5.4,2.7l-5.4,2.7l0,-5.4Z" class="g4_3" />
<path d="M479,312.5l39.9,0.1l0,0.6l-39.9,0l0,-0.7Zm39,-2.3l5.4,2.7l-5.4,2.7l0,-5.4Z" class="g4_3" />
</svg>