<?xml version="1.0" encoding="UTF-8" standalone="no"?>
<!DOCTYPE svg PUBLIC "-//W3C//DTD SVG 1.1//EN"
"http://www.w3.org/Graphics/SVG/1.1/DTD/svg11.dtd">
<svg version="1.1" xmlns="http://www.w3.org/2000/svg" xmlns:xlink="http://www.w3.org/1999/xlink">
<defs>
<clipPath id="c0_1"><path d="M762.5,1149.5l0,-24l66,0l0,24Z" /></clipPath>
<style type="text/css"><![CDATA[
.g6_1{
fill: #231F20;
}
.g7_1{
fill: #8A8786;
}
.g2_1{
fill: none;
stroke: #000000;
stroke-width: 1;
stroke-linecap: butt;
stroke-linejoin: miter;
}
.g5_1{
fill: none;
stroke: #231F20;
stroke-width: 1;
stroke-linecap: butt;
stroke-linejoin: miter;
}
.g3_1{
fill: #E7E8E9;
}
.g4_1{
fill: #FFFFFF;
}
.g1_1{
}
]]></style>
</defs>
<image x="721" y="78" width="110" height="137" xlink:href="img/1.png" />
<path d="M72,233l758,0l0,-8L72,225l0,8Z" class="g1_1" />
<path d="M72.5,77.5l628,0" class="g2_1" />
<image x="72" y="164" width="179" height="50" xlink:href="img/2.png" />
<image x="464" y="693" width="367" height="29" xlink:href="img/3.png" />
<image x="464" y="842" width="367" height="40" xlink:href="img/4.png" />
<path d="M464,752l366,0l0,-14l-366,0l0,14Z" class="g3_1" />
<path d="M464,780l366,0l0,-14l-366,0l0,14Z" class="g3_1" />
<path d="M464,822l366,0l0,-14l-366,0l0,14Z" class="g3_1" />
<path d="M464,844l366,0l0,-2l-366,0l0,2Z" class="g1_1" />
<path d="M464,695l366,0l0,-2l-366,0l0,2Z" class="g1_1" />
<path d="M464,720l366,0l0,-2l-366,0l0,2Z" class="g1_1" />
<path d="M464,688l366,0l0,-28l-366,0l0,28Z" class="g4_1" />
<path d="M464.5,646.5l366,0" class="g2_1" />
<path d="M464,662l366,0l0,-16l-366,0l0,16Z" class="g4_1" />
<path d="M464,881l366,0l0,-2l-366,0l0,2Z" class="g1_1" />
<image x="464" y="949" width="367" height="28" xlink:href="img/5.png" />
<image x="464" y="1055" width="367" height="40" xlink:href="img/6.png" />
<path d="M464,1007l366,0l0,-14l-366,0l0,14Z" class="g3_1" />
<path d="M464,1035l366,0l0,-14l-366,0l0,14Z" class="g3_1" />
<path d="M464,1057l366,0l0,-2l-366,0l0,2Z" class="g1_1" />
<path d="M464,950l366,0l0,-1l-366,0l0,1Z" class="g1_1" />
<path d="M464,975l366,0l0,-1l-366,0l0,1Z" class="g1_1" />
<path d="M464,943l366,0l0,-28l-366,0l0,28Z" class="g4_1" />
<path d="M464,1094l366,0l0,-2l-366,0l0,2Z" class="g1_1" />
<path d="M72.5,1118.5l758,0" class="g5_1" />
<path d="M794,1141.5c-1.8,0,-3.1,-1.3,-3.1,-3c0,-1.7,1.3,-3,3,-3c0.5,0,1,0.1,1.5,0.3l0,-0.4l0.4,0l0,1.5l-0.4,0l0,-0.4c-0.6,-0.4,-0.9,-0.6,-1.5,-0.6c-1.3,0,-2.2,1.1,-2.2,2.5c0,1.5,1,2.6,2.3,2.6c0.5,0,0.8,-0.1,1.4,-0.4l0,-0.7l0.4,0l0,1.2c-0.7,0.3,-1.2,0.4,-1.8,0.4Z" class="g6_1" />
<path d="M798.7,1138.2c-0.2,-0.1,-0.3,-0.2,-0.4,-0.2c-0.1,0,-0.3,0.1,-0.8,0.7l0,2.3l0.9,0l0,0.3l-2.2,0l0,-0.3l0.7,0l0,-3.1l-0.8,0l0,-0.2l1.3,-0.4l0.1,0l0,1c0.6,-0.8,0.9,-1,1.2,-1l0.2,0.1l0.3,0.2l-0.5,0.6Z" class="g6_1" />
<path d="M801.1,1137.7c-0.6,0,-1.1,0.7,-1.1,1.7c0,0.9,0.5,1.7,1.1,1.7c0.7,0,1.2,-0.8,1.2,-1.7c0,-1,-0.5,-1.7,-1.2,-1.7Zm0,3.8c-1,0,-1.9,-1,-1.9,-2.1c0,-1.2,0.9,-2.1,1.9,-2.1c1.1,0,1.9,0.9,1.9,2.1c0,1.1,-0.8,2.1,-1.9,2.1Z" class="g6_1" />
<path d="M805.1,1141.5c-0.4,0,-0.8,-0.2,-1.1,-0.4l0,0.3l-0.3,0l0,-1.2l0.4,0l0,0.2c0,0.4,0.5,0.7,1,0.7c0.5,0,0.9,-0.2,0.9,-0.6c0,-0.3,-0.3,-0.5,-1.2,-0.9c-0.8,-0.3,-1.1,-0.6,-1.1,-1.2c0,-0.6,0.5,-1.1,1.3,-1.1c0.4,0,0.7,0.1,0.9,0.3l0.1,-0.3l0.4,0l-0.2,1.2l-0.4,0l0,-0.2c0,-0.4,-0.4,-0.7,-0.8,-0.7c-0.5,0,-0.8,0.3,-0.8,0.7c0,0.3,0.1,0.4,1.1,0.8c0.9,0.3,1.2,0.6,1.2,1.2c0,0.7,-0.6,1.2,-1.4,1.2Z" class="g6_1" />
<path d="M808.7,1141.5c-0.5,0,-0.9,-0.2,-1.1,-0.4l0,0.3l-0.4,0l0,-1.2l0.4,0l0,0.2c0,0.4,0.5,0.7,1,0.7c0.5,0,0.9,-0.2,0.9,-0.6c0,-0.3,-0.3,-0.5,-1.2,-0.9c-0.8,-0.3,-1.1,-0.6,-1.1,-1.2c0,-0.6,0.5,-1.1,1.3,-1.1c0.4,0,0.7,0.1,1,0.3l0,-0.3l0.4,0l-0.2,1.2l-0.4,0l0,-0.2c0,-0.4,-0.3,-0.7,-0.8,-0.7c-0.5,0,-0.8,0.3,-0.8,0.7c0,0.3,0.1,0.4,1.1,0.8c0.9,0.3,1.2,0.6,1.2,1.2c0,0.7,-0.6,1.2,-1.3,1.2Z" class="g6_1" />
<path d="M815.4,1141.3l0,-0.3l0.6,0l0,-4.3l-2.1,4.7l-2.1,-4.8l0,4.4l0.6,0l0,0.3l-1.7,0l0,-0.3l0.6,0l0,-5.1l-0.6,0l0,-0.3l1.4,0l1.9,4.4l2.1,-4.4l1.3,0l0,0.3l-0.6,0l0,5.1l0.6,0l0,0.3l-2,0Z" class="g6_1" />
<path d="M820.1,1139.6l-1.5,0.3l0,0.4c0,0.4,0.2,0.6,0.6,0.6c0.3,0,0.5,-0.1,0.9,-0.4l0,-0.9Zm0.7,1.8l-0.3,0c-0.2,0,-0.4,-0.2,-0.4,-0.5l0,-0.1c-0.4,0.5,-0.7,0.7,-1.2,0.7c-0.6,0,-1,-0.5,-1,-1c0,-0.5,0.3,-0.8,0.7,-0.9l1.5,-0.4l0,-1c0,-0.3,-0.3,-0.6,-0.6,-0.6c-0.2,0,-0.3,0.1,-0.6,0.2l0,0.4l-0.7,0.2l-0.1,-0.2c0,-0.5,0.6,-0.9,1.4,-0.9c0.7,0,1.2,0.4,1.2,1l0,2.6l0.7,0l0,0.3l-0.6,0.2Z" class="g6_1" />
<path d="M824.2,1138.2c-0.1,-0.1,-0.2,-0.2,-0.3,-0.2c-0.2,0,-0.3,0.1,-0.8,0.7l0,2.3l0.8,0l0,0.3l-2.1,0l0,-0.3l0.6,0l0,-3.1l-0.7,0l0,-0.2l1.2,-0.4l0.2,0l0,1c0.6,-0.8,0.8,-1,1.1,-1l0.3,0.1l0.3,0.2l-0.6,0.6Z" class="g6_1" />
<path d="M827.9,1141.3l-1.8,-2.1l1.5,-1.5l-0.5,0l0,-0.3l1.7,0l0,0.3l-0.7,0l-1.3,1.3l1.7,2l0.5,0l0,0.3l-1.1,0Zm-3.2,0l0,-0.3l0.7,0l0,-5.5l-0.8,0l0,-0.2l1.3,-0.4l0.1,0l0,6.1l0.7,0l0,0.3l-2,0Z" class="g6_1" />
<g clip-path="url(#c0_1)">
<path fill-rule="evenodd" d="M775.4,1149.8c-6.8,0,-12.2,-5.5,-12.2,-12.3c0,-6.7,5.4,-12.2,12.2,-12.2c6.8,0,12.2,5.5,12.2,12.2c0,6.8,-5.4,12.3,-12.2,12.3Zm0,-24.7c-6.9,0,-12.4,5.6,-12.4,12.5c0,6.8,5.5,12.4,12.4,12.4c6.8,0,12.4,-5.6,12.4,-12.4c0,-6.9,-5.6,-12.5,-12.4,-12.5Z" class="g7_1" />
</g>
<image x="762" y="1124" width="27" height="27" xlink:href="img/7.png" />
</svg>