<?xml version="1.0" encoding="UTF-8" standalone="no"?>
<!DOCTYPE svg PUBLIC "-//W3C//DTD SVG 1.1//EN"
"http://www.w3.org/Graphics/SVG/1.1/DTD/svg11.dtd">
<svg version="1.1" xmlns="http://www.w3.org/2000/svg" xmlns:xlink="http://www.w3.org/1999/xlink">
<defs>
<style type="text/css"><![CDATA[
.g5_5{
fill: none;
stroke: #000000;
stroke-width: 1;
stroke-linecap: round;
stroke-linejoin: round;
}
.g2_5{
fill: #CD151D;
}
.g3_5{
fill: #CD151D;
stroke: #CD151D;
stroke-width: 1;
stroke-linecap: round;
stroke-linejoin: round;
}
.g4_5{
stroke: #000000;
stroke-width: 1;
stroke-linecap: round;
stroke-linejoin: round;
}
.g1_5{
fill: #E7E8E9;
}
]]></style>
</defs>
<path d="M65,1085l361,0l0,-189L65,896l0,189Z" class="g1_5" />
<path d="M65,853l361,0l0,-27L65,826l0,27Z" class="g2_5" />
<path d="M65,896l361,0l0,-34L65,862l0,34Z" class="g1_5" />
<path d="M65,1120l361,0l0,-35l-361,0l0,35Z" class="g1_5" />
<path fill-rule="evenodd" d="M426.5,853.5l-361,0l0,-9l361,0l0,9Z" class="g3_5" />
<path d="M65,286l361,0l0,-134L65,152l0,134Z" class="g1_5" />
<path d="M65,123l361,0l0,-28L65,95l0,28Z" class="g2_5" />
<path d="M65,152l361,0l0,-20L65,132l0,20Z" class="g1_5" />
<path d="M65,321l361,0l0,-35L65,286l0,35Z" class="g1_5" />
<path fill-rule="evenodd" d="M426.5,123.5l-361,0l0,-9l361,0l0,9Z" class="g3_5" />
<path fill-rule="evenodd" d="M65.5,1134.5l749,0l0,1l-749,0l0,-1Z" class="g4_5" />
<path d="M106.5,1158.5l0,-24" class="g5_5" />
</svg>