<?xml version="1.0" encoding="UTF-8" standalone="no"?>
<!DOCTYPE svg PUBLIC "-//W3C//DTD SVG 1.1//EN"
"http://www.w3.org/Graphics/SVG/1.1/DTD/svg11.dtd">
<svg version="1.1" xmlns="http://www.w3.org/2000/svg" xmlns:xlink="http://www.w3.org/1999/xlink">
<defs>
<clipPath id="c0_1"><path d="M21.5,1257.5l0,-34l925,0l0,34Z" /></clipPath>
<clipPath id="c1_1"><path d="M33.5,228.5l0,-2l0,-1l144,0l0,1l0,2Z" /></clipPath>
<clipPath id="c2_1"><path d="M177.5,228.5l0,-2l0,-1l649,0l0,1l0,2Z" /></clipPath>
<clipPath id="c3_1"><path d="M826.5,228.5l0,-2l0,-1l110,0l0,1l0,2Z" /></clipPath>
<clipPath id="c4_1"><path d="M153.5,566.5l0,-1l327,0l0,1Z" /></clipPath>
<clipPath id="c5_1"><path d="M153.5,632.5l0,-1l327,0l0,1Z" /></clipPath>
<clipPath id="c6_1"><path d="M153.5,698.5l0,-2l327,0l0,2Z" /></clipPath>
<clipPath id="c7_1"><path d="M153.5,763.5l0,-1l327,0l0,1Z" /></clipPath>
<clipPath id="c8_1"><path d="M153.5,829.5l0,-2l327,0l0,2Z" /></clipPath>
<style type="text/css"><![CDATA[
.g2_1{
fill: #020202;
}
.g5_1{
fill: none;
stroke: #000000;
stroke-width: 2;
stroke-linecap: butt;
stroke-linejoin: miter;
}
.g4_1{
fill: none;
stroke: #000000;
stroke-width: 1;
stroke-linecap: butt;
stroke-linejoin: miter;
}
.g3_1{
fill: none;
stroke: #132575;
stroke-width: 4;
stroke-linecap: butt;
stroke-linejoin: miter;
}
.g1_1{
fill: #FFFFFF;
}
]]></style>
</defs>
<path d="M22,1224l14.6,0c-7.3,1,-13,6.8,-14.6,14l0,-3.2L22,1224Z" class="g1_1" />
<path d="M36.6,1224l898.8,0l-3.1,0c7.1,1.5,12.9,7.2,14,14.5l0,8.3l0,-3.2c-1.6,7.2,-7.3,12.9,-14.6,14l-899,0l3.3,0C28.8,1256,23.1,1250.3,22,1243l0,-8.2l0,3.2c1.6,-7.2,7.3,-13,14.6,-14Z" class="g2_1" />
<path d="M935.4,1224l10.9,0l0,14.5c-1.1,-7.3,-6.9,-13,-14,-14.5l3.1,0Z" class="g1_1" />
<g clip-path="url(#c0_1)">
<path d="M35.9,1225.8c4,-0.5,8,-0.3,12,-0.3c293.4,0,586.8,0,880.1,0c7.3,-0.6,14.5,4.2,16.3,11.4c3,9.8,-6.1,20.3,-16.3,19.1c-295.9,0,-591.7,0,-887.6,0c-7,0.6,-14,-3.7,-16.1,-10.4c-3.1,-8.4,2.8,-18.4,11.6,-19.8Z" class="g1_1" />
</g>
<path d="M22,1243c1.1,7.3,6.8,13,14,14.6l-3.3,0l-10.7,0L22,1243Z" class="g1_1" />
<path d="M946.3,1243.6l0,3.2l0,10.8l-14.6,0c7.3,-1.1,13,-6.8,14.6,-14Z" class="g1_1" />
<g clip-path="url(#c1_1)">
<path d="M33,226l144,0" class="g3_1" />
</g>
<image x="33" y="28" width="142" height="192" xlink:href="img/1.png" />
<g clip-path="url(#c2_1)">
<path d="M177,226l649,0" class="g3_1" />
</g>
<path d="M558.5,219.5l235,0" class="g4_1" />
<g clip-path="url(#c3_1)">
<path d="M826,226l110,0" class="g3_1" />
</g>
<image x="826" y="28" width="111" height="27" xlink:href="img/2.png" />
<path d="M309.5,449.5l357,0" class="g4_1" />
<g clip-path="url(#c4_1)">
<path d="M153,566l327,0" class="g5_1" />
</g>
<image x="162" y="512" width="27" height="28" xlink:href="img/3.png" />
<g clip-path="url(#c5_1)">
<path d="M153,631l327,0" class="g5_1" />
</g>
<image x="162" y="577" width="28" height="22" xlink:href="img/4.png" />
<image x="418" y="586" width="21" height="14" xlink:href="img/5.png" />
<g clip-path="url(#c6_1)">
<path d="M153,697l327,0" class="g5_1" />
</g>
<image x="162" y="643" width="32" height="24" xlink:href="img/6.png" />
<g clip-path="url(#c7_1)">
<path d="M153,762l327,0" class="g5_1" />
</g>
<image x="162" y="708" width="25" height="29" xlink:href="img/7.png" />
<image x="332" y="717" width="21" height="14" xlink:href="img/8.png" />
<g clip-path="url(#c8_1)">
<path d="M153,828l327,0" class="g5_1" />
</g>
<image x="162" y="774" width="30" height="33" xlink:href="img/9.png" />
<image x="335" y="782" width="21" height="15" xlink:href="img/10.png" />
</svg>