<?xml version="1.0" encoding="UTF-8" standalone="no"?>
<!DOCTYPE svg PUBLIC "-//W3C//DTD SVG 1.1//EN"
"http://www.w3.org/Graphics/SVG/1.1/DTD/svg11.dtd">
<svg version="1.1" xmlns="http://www.w3.org/2000/svg" xmlns:xlink="http://www.w3.org/1999/xlink">
<defs>
<clipPath id="c0_1"><path d="M0.5,1182.5L0.5,0.5l880,0l0,1182Z" /></clipPath>
<clipPath id="c1_1"><path d="M730.5,77.5l0,-35l84,0l0,35Z" /></clipPath>
<style type="text/css"><![CDATA[
.g5_1{
fill: none;
stroke: #000000;
stroke-width: 1;
stroke-linecap: round;
stroke-linejoin: round;
}
.g3_1{
stroke: #000000;
stroke-width: 1;
stroke-linecap: round;
stroke-linejoin: round;
}
.g4_1{
fill: #231F20;
}
.g2_1{
fill: #E7E8E9;
stroke: #E7E8E9;
stroke-width: 1;
stroke-linecap: round;
stroke-linejoin: round;
}
.g1_1{
fill: #E7E8E9;
}
]]></style>
</defs>
<path d="M0,797l880,0l0,-431L0,366L0,797Z" class="g1_1" />
<g clip-path="url(#c0_1)">
<path fill-rule="evenodd" d="M65.5,797.5l-78,0l0,-431l78,0l0,431Z" class="g2_1" />
<path fill-rule="evenodd" d="M-12.5,797.5l0,-431l78,0l0,431" class="g2_1" />
<path fill-rule="evenodd" d="M897.5,797.5l-832,0l0,-21l832,0l0,21Z" class="g2_1" />
</g>
<path fill-rule="evenodd" d="M65.5,725.5l530,0l0,1l-530,0l0,-1Z" class="g3_1" />
<image x="618" y="666" width="88" height="88" xlink:href="img/1.png" />
<path fill-rule="evenodd" d="M65.5,1077.5l320,0l-320,0" class="g3_1" />
<path d="M771.4,64.6c-2.2,0,-3.8,-1.5,-3.8,-3.6c0,-2.1,1.6,-3.7,3.7,-3.7c0.7,0,1.2,0.1,1.8,0.4l0,-0.5l0.5,0l0,1.8l-0.5,0l0,-0.5C772.5,58,772,57.8,771.3,57.8c-1.6,0,-2.7,1.3,-2.7,3.1c0,1.8,1.3,3.2,2.9,3.2c0.5,0,0.9,-0.2,1.6,-0.6l0,-0.8l0.5,0l0,1.5c-0.9,0.3,-1.5,0.4,-2.2,0.4Z" class="g4_1" />
<path d="M777.2,60.6c-0.2,-0.2,-0.4,-0.3,-0.5,-0.3c-0.2,0,-0.3,0.2,-0.9,0.9l0,2.9l1,0l0,0.4l-2.7,0l0,-0.4l0.9,0l0,-3.9l-1,0l0,-0.3l1.6,-0.4l0.2,0l0,1.2c0.7,-1,1,-1.2,1.4,-1.2l0.3,0.1l0.3,0.3l-0.6,0.7Z" class="g4_1" />
<path d="M780.2,59.9c-0.8,0,-1.4,1,-1.4,2.1c0,1.2,0.6,2.2,1.4,2.2c0.8,0,1.4,-1,1.4,-2.2c0,-1.1,-0.6,-2.1,-1.4,-2.1m0,4.7c-1.3,0,-2.3,-1.1,-2.3,-2.6c0,-1.4,1,-2.5,2.3,-2.5c1.3,0,2.3,1.1,2.3,2.5c0,1.5,-1,2.6,-2.3,2.6Z" class="g4_1" />
<path d="M785.1,64.6c-0.6,0,-1,-0.1,-1.3,-0.4l0,0.4l-0.5,0l0,-1.6l0.5,0l0,0.3c0,0.5,0.6,0.9,1.3,0.9c0.6,0,1,-0.3,1,-0.7c0,-0.5,-0.3,-0.7,-1.4,-1.1c-1,-0.4,-1.4,-0.8,-1.4,-1.5c0,-0.8,0.7,-1.4,1.7,-1.4c0.4,0,0.8,0.1,1.1,0.4l0.1,-0.4l0.4,0L786.4,61l-0.5,0L786,60.7c0,-0.5,-0.5,-0.8,-1.1,-0.8c-0.5,0,-0.9,0.3,-0.9,0.8c0,0.4,0.1,0.5,1.4,1c1,0.4,1.3,0.8,1.3,1.5c0,0.8,-0.6,1.4,-1.6,1.4Z" class="g4_1" />
<path d="M789.5,64.6c-0.6,0,-1.1,-0.1,-1.4,-0.4l0,0.4l-0.4,0l0,-1.6l0.5,0l0,0.3c0,0.5,0.6,0.9,1.2,0.9c0.6,0,1,-0.3,1,-0.7c0,-0.5,-0.3,-0.7,-1.4,-1.1c-1,-0.4,-1.4,-0.8,-1.4,-1.5c0,-0.8,0.7,-1.4,1.7,-1.4c0.5,0,0.8,0.1,1.1,0.4l0.1,-0.4l0.5,0L790.7,61l-0.5,0l0.1,-0.3c0,-0.5,-0.5,-0.8,-1.1,-0.8c-0.5,0,-0.9,0.3,-0.9,0.8c0,0.4,0.1,0.5,1.4,1c1,0.4,1.4,0.8,1.4,1.5c0,0.8,-0.7,1.4,-1.6,1.4Z" class="g4_1" />
<path d="M797.7,64.5l0,-0.4l0.8,0l0,-5.3l-2.6,5.8l-2.6,-5.9l0,5.4l0.8,0l0,0.4l-2.2,0l0,-0.4l0.8,0l0,-6.3l-0.8,0l0,-0.4l1.7,0l2.5,5.5l2.5,-5.5l1.7,0l0,0.4l-0.8,0l0,6.3l0.8,0l0,0.4l-2.6,0Z" class="g4_1" />
<path d="M803.5,62.3l-1.8,0.4l0,0.5c0,0.5,0.3,0.8,0.7,0.8c0.4,0,0.6,-0.2,1.1,-0.6l0,-1.1Zm0.9,2.2c-0.1,0,-0.3,0.1,-0.4,0.1c-0.3,0,-0.5,-0.3,-0.5,-0.7l0,-0.1c-0.4,0.6,-0.8,0.8,-1.4,0.8c-0.7,0,-1.3,-0.5,-1.3,-1.2c0,-0.6,0.4,-1,0.9,-1.1l1.8,-0.5l0,-1.2c0,-0.4,-0.3,-0.7,-0.7,-0.7c-0.3,0,-0.4,0,-0.7,0.2l0,0.5l-1,0.3l0,-0.3c0,-0.6,0.7,-1.1,1.6,-1.1c1,0,1.6,0.5,1.6,1.2l0,3.3l0.8,0l0,0.3l-0.7,0.2Z" class="g4_1" />
<path d="M808.6,60.6c-0.2,-0.2,-0.3,-0.3,-0.4,-0.3c-0.2,0,-0.4,0.2,-1,0.9l0,2.9l1,0l0,0.4l-2.6,0l0,-0.4l0.8,0l0,-3.9l-1,0l0,-0.3L807,59.5l0.2,0l0,1.2c0.8,-1,1,-1.2,1.4,-1.2l0.3,0.1l0.3,0.3l-0.6,0.7Z" class="g4_1" />
<g clip-path="url(#c1_1)">
<path d="M813.1,64.5l-2.2,-2.7L812.8,60l-0.7,0l0,-0.4l2.1,0l0,0.4l-0.8,0l-1.6,1.6l2,2.5l0.6,0l0,0.4l-1.3,0Zm-3.9,0l0,-0.4l0.8,0l0,-6.8l-0.9,0l0,-0.3l1.5,-0.4l0.2,0l0,7.5l0.8,0l0,0.4l-2.4,0Z" class="g4_1" />
</g>
<image x="730" y="41" width="38" height="38" xlink:href="img/2.png" />
<path fill-rule="evenodd" d="M65.5,1134.5l749,0l0,1l-749,0l0,-1Z" class="g3_1" />
<path d="M106.5,1158.5l0,-24" class="g5_1" />
</svg>