<?xml version="1.0" encoding="UTF-8" standalone="no"?>
<!DOCTYPE svg PUBLIC "-//W3C//DTD SVG 1.1//EN"
"http://www.w3.org/Graphics/SVG/1.1/DTD/svg11.dtd">
<svg version="1.1" xmlns="http://www.w3.org/2000/svg" xmlns:xlink="http://www.w3.org/1999/xlink">
<defs>
<clipPath id="c0_3"><path d="M35.5,63.5l0,-23l23,0l0,23Z" /></clipPath>
<style type="text/css"><![CDATA[
.g2_3{
fill: #231F20;
}
.g1_3{
fill: none;
stroke: #231F20;
stroke-width: 1;
stroke-linecap: butt;
stroke-linejoin: miter;
}
]]></style>
</defs>
<path d="M69.5,91.5l785,0" class="g1_3" />
<path d="M69.5,566.5l785,0" class="g1_3" />
<path d="M69.5,566.5l0,-476" class="g1_3" />
<path d="M853.5,566.5l0,-476" class="g1_3" />
<path d="M73.5,117.5l777,0" class="g1_3" />
<path d="M73.5,145.5l777,0" class="g1_3" />
<path d="M73.5,512.5l777,0" class="g1_3" />
<path d="M69.5,593.5l379,0" class="g1_3" />
<path d="M69.5,1121.5l379,0" class="g1_3" />
<path d="M69.5,1121.5l0,-529" class="g1_3" />
<path d="M447.5,1121.5l0,-529" class="g1_3" />
<path d="M73.5,634.5l370,0" class="g1_3" />
<path d="M73.5,675.5l370,0" class="g1_3" />
<path d="M73,1070l370,0l0,-2l-370,0l0,2Z" class="g2_3" />
<path d="M35.5,68.5l412,0" class="g1_3" />
<path d="M47.4,48.7c-0.7,0,-1.2,0.2,-1.4,0.4c-0.1,0.2,-0.2,0.4,-0.2,0.9l0,2.7c0,0.5,0.2,0.7,0.5,1c0.3,0.2,0.8,0.3,1.2,0.3c1.3,0,2.1,-1.2,2.1,-2.8c0,-1.3,-0.8,-2.5,-2.2,-2.5Z" class="g2_3" />
<path d="M54.2,52c0.9,0,1.4,-0.7,1.4,-1.7c0,-1,-0.5,-1.9,-1.5,-1.9c-0.8,0,-1.3,0.7,-1.3,1.7c0,1.1,0.7,1.9,1.4,1.9Z" class="g2_3" />
<g clip-path="url(#c0_3)">
<path d="M46.9,54.5c-0.2,0,-0.7,0,-0.8,0c-0.2,0,-0.3,0.1,-0.3,0.4l0,1.7c0,1.1,0.1,1.2,0.6,1.3L47.1,58c0.1,0,0.1,0.3,-0.1,0.4C46.3,58.3,45.8,58.3,45.2,58.3c-0.6,0,-1,0,-1.5,0.1C43.6,58.3,43.6,58,43.7,58L44,57.9c0.6,-0.1,0.6,-0.2,0.6,-1.3l0,-6.8c0,-0.6,0,-0.7,-0.4,-1L44.1,48.7c-0.1,0,-0.1,-0.2,0,-0.2c0.4,-0.2,1.1,-0.6,1.6,-0.9c0.1,0,0.1,0,0.2,0.1c-0.1,0.3,-0.1,0.5,-0.1,0.7c0,0.2,0,0.2,0.1,0.2c0.3,0,1.3,-0.7,2.3,-0.7c1.6,0,2.7,1.3,2.7,2.9c0,2.2,-1.7,3.7,-4,3.7m7,4c-2,0,-2.7,-1,-2.7,-1.8c0,-0.2,0,-0.4,0.2,-0.6c0.2,-0.3,0.7,-0.7,1.1,-1c0.1,-0.2,0.2,-0.3,0.1,-0.4C52,54.5,51.4,54,51.4,53.5c0,-0.1,0.1,-0.2,0.2,-0.3c0.3,-0.2,0.6,-0.4,0.9,-0.7c0.1,-0.1,0.2,-0.2,0.2,-0.3C52.1,51.9,51.4,51.3,51.4,50.3c0,-1.4,1.2,-2.4,2.7,-2.4c0.6,0,1.2,0.2,1.5,0.3c0.6,0.2,0.7,0.3,1,0.3l1.3,0c0.2,0.1,0.2,0.6,-0.1,0.6l-1.1,0c0,0.3,0,0.6,0,0.8C56.7,51,56,52.4,54,52.4c-0.3,0,-0.5,0,-0.7,0c-0.2,0.1,-0.7,0.4,-0.7,0.8c0,0.4,0.3,0.7,1.1,0.7c0.5,0,1.2,-0.1,1.9,-0.1c0.9,0,2.3,0.2,2.3,1.8c0,0,0,0.1,0,0.2c0.5,-1.3,0.7,-2.6,0.7,-4C58.6,45.7,53.5,40.7,47.2,40.7c-6.2,0,-11.3,5,-11.3,11.1c0,0.8,0,1.5,0.2,2.2l0.4,-0.1c0.6,-0.1,0.6,-0.2,0.6,-1.3l0,-2.8c0,-0.6,0,-0.7,-0.4,-1L36.5,48.7c-0.1,0,-0.1,-0.2,0,-0.2c0.4,-0.2,1.3,-0.6,1.6,-0.8c0.1,0,0.2,0,0.2,0.1c0,0.4,0,0.6,0,0.7c0,0.1,0,0.2,0.2,0.2c0.6,-0.4,1.4,-0.8,2.2,-0.8c1.4,0,1.9,0.9,1.9,2l0,2.7c0,1.1,0,1.2,0.6,1.3L43.6,54c0.1,0,0.1,0.3,0,0.4C43.1,54.3,42.6,54.3,42,54.3c-0.5,0,-1,0,-1.5,0.1C40.4,54.3,40.4,54,40.5,54l0.3,-0.1c0.6,-0.1,0.6,-0.2,0.6,-1.3l0,-2.4c0,-0.9,-0.4,-1.5,-1.5,-1.5c-0.6,0,-1.1,0.2,-1.4,0.5c-0.2,0.3,-0.2,0.5,-0.2,1l0,2.4c0,1.1,0,1.2,0.6,1.3L39.2,54c0.1,0,0.1,0.3,0,0.4C38.7,54.3,38.3,54.3,37.7,54.3c-0.6,0,-1.1,0,-1.5,0.1c1.2,4.8,5.7,8.4,11,8.4c4.3,0,7.9,-2.2,9.9,-5.5c-0.8,0.8,-2,1.2,-3.2,1.2Z" class="g2_3" />
</g>
<path d="M54.6,54.8c-0.6,0,-1.2,0,-1.4,0.2c-0.4,0.2,-0.8,0.7,-0.8,1.3c0,0.8,0.7,1.6,2.2,1.6c1.4,0,2.3,-0.8,2.3,-1.7c0,-1,-0.6,-1.4,-1.8,-1.4l-0.5,0Z" class="g2_3" />
</svg>