<?xml version="1.0" encoding="UTF-8" standalone="no"?>
<!DOCTYPE svg PUBLIC "-//W3C//DTD SVG 1.1//EN"
"http://www.w3.org/Graphics/SVG/1.1/DTD/svg11.dtd">
<svg version="1.1" xmlns="http://www.w3.org/2000/svg" xmlns:xlink="http://www.w3.org/1999/xlink">
<defs>
<clipPath id="c0_6"><path d="M850.5,63.5l0,-23l23,0l0,23Z" /></clipPath>
<style type="text/css"><![CDATA[
.g2_6{
fill: #231F20;
}
.g1_6{
fill: none;
stroke: #231F20;
stroke-width: 1;
stroke-linecap: butt;
stroke-linejoin: miter;
}
]]></style>
</defs>
<path d="M461.5,68.5l412,0" class="g1_6" />
<path d="M862.1,48.7c-0.7,0,-1.2,0.2,-1.4,0.4c-0.1,0.2,-0.2,0.4,-0.2,0.9l0,2.7c0,0.5,0.2,0.7,0.5,1c0.3,0.2,0.8,0.3,1.2,0.3c1.3,0,2.1,-1.2,2.1,-2.8c0,-1.3,-0.8,-2.5,-2.2,-2.5Z" class="g2_6" />
<path d="M868.9,52c0.9,0,1.3,-0.7,1.3,-1.7c0,-1,-0.4,-1.9,-1.4,-1.9c-0.8,0,-1.3,0.7,-1.3,1.7c0,1.1,0.6,1.9,1.4,1.9Z" class="g2_6" />
<g clip-path="url(#c0_6)">
<path d="M861.6,54.5c-0.3,0,-0.7,0,-0.9,0c-0.1,0,-0.2,0.1,-0.2,0.4l0,1.7c0,1.1,0.1,1.2,0.6,1.3l0.7,0.1c0.1,0,0,0.3,-0.1,0.4c-0.7,-0.1,-1.2,-0.1,-1.8,-0.1c-0.6,0,-1,0,-1.5,0.1c-0.1,-0.1,-0.1,-0.4,0,-0.4l0.3,-0.1c0.6,-0.1,0.6,-0.2,0.6,-1.3l0,-6.8c0,-0.6,0,-0.7,-0.4,-1l-0.2,-0.1c0,0,0,-0.2,0.1,-0.2c0.4,-0.2,1.1,-0.6,1.6,-0.9c0.1,0,0.1,0,0.2,0.1c-0.1,0.3,-0.1,0.5,-0.1,0.7c0,0.2,0,0.2,0.1,0.2c0.2,0,1.3,-0.7,2.3,-0.7c1.6,0,2.7,1.3,2.7,2.9c0,2.2,-1.7,3.7,-4,3.7m7,4c-2,0,-2.7,-1,-2.7,-1.8c0,-0.2,0,-0.4,0.1,-0.6c0.3,-0.3,0.8,-0.7,1.1,-1c0.2,-0.2,0.3,-0.3,0.2,-0.4c-0.7,-0.2,-1.2,-0.7,-1.2,-1.2c0,-0.1,0.1,-0.2,0.2,-0.3c0.3,-0.2,0.6,-0.4,0.9,-0.7c0.1,-0.1,0.2,-0.2,0.2,-0.3c-0.6,-0.3,-1.3,-0.9,-1.3,-1.9c0,-1.4,1.2,-2.4,2.7,-2.4c0.6,0,1.2,0.2,1.5,0.3c0.5,0.2,0.7,0.3,1,0.3l1.3,0c0.2,0.1,0.2,0.6,-0.1,0.6l-1.1,0c0,0.3,0,0.6,0,0.8c0,1.1,-0.7,2.5,-2.7,2.5c-0.3,0,-0.5,0,-0.7,0c-0.2,0.1,-0.7,0.4,-0.7,0.8c0,0.4,0.3,0.7,1.1,0.7c0.5,0,1.2,-0.1,1.9,-0.1c0.9,0,2.3,0.2,2.3,1.8c0,0,0,0.1,0,0.2c0.5,-1.3,0.7,-2.6,0.7,-4c0,-6.1,-5.1,-11.1,-11.4,-11.1c-6.3,0,-11.3,5,-11.3,11.1c0,0.8,0,1.5,0.2,2.2l0.4,-0.1c0.6,-0.1,0.6,-0.2,0.6,-1.3l0,-2.8c0,-0.6,0,-0.7,-0.5,-1l-0.1,-0.1c-0.1,0,-0.1,-0.2,0,-0.2c0.4,-0.2,1.3,-0.6,1.6,-0.8c0.1,0,0.2,0,0.2,0.1c0,0.4,0,0.6,0,0.7c0,0.1,0,0.2,0.2,0.2c0.6,-0.4,1.4,-0.8,2.2,-0.8c1.4,0,1.9,0.9,1.9,2l0,2.7c0,1.1,0,1.2,0.6,1.3l0.4,0.1c0.1,0,0.1,0.3,-0.1,0.4c-0.4,-0.1,-0.9,-0.1,-1.5,-0.1c-0.6,0,-1,0,-1.5,0.1c-0.1,-0.1,-0.1,-0.4,0,-0.4l0.3,-0.1c0.6,-0.1,0.6,-0.2,0.6,-1.3l0,-2.4c0,-0.9,-0.4,-1.5,-1.5,-1.5c-0.6,0,-1.2,0.2,-1.4,0.5c-0.2,0.3,-0.2,0.5,-0.2,1l0,2.4c0,1.1,0,1.2,0.6,1.3l0.3,0.1c0.1,0,0.1,0.3,-0.1,0.4c-0.4,-0.1,-0.9,-0.1,-1.4,-0.1c-0.6,0,-1.1,0,-1.5,0.1c1.2,4.8,5.7,8.4,11,8.4c4.2,0,7.9,-2.2,9.9,-5.5c-0.8,0.8,-2,1.2,-3.2,1.2Z" class="g2_6" />
</g>
<path d="M869.2,54.8c-0.5,0,-1.1,0,-1.3,0.2c-0.4,0.2,-0.8,0.7,-0.8,1.3c0,0.8,0.7,1.6,2.1,1.6c1.5,0,2.4,-0.8,2.4,-1.7c0,-1,-0.6,-1.4,-1.8,-1.4l-0.6,0Z" class="g2_6" />
</svg>