<?xml version="1.0" encoding="UTF-8" standalone="no"?>
<!DOCTYPE svg PUBLIC "-//W3C//DTD SVG 1.1//EN"
"http://www.w3.org/Graphics/SVG/1.1/DTD/svg11.dtd">
<svg version="1.1" xmlns="http://www.w3.org/2000/svg" xmlns:xlink="http://www.w3.org/1999/xlink">
<defs>
<clipPath id="c0_1"><path d="M764.5,154.5l0,-44l41,0l0,44Z" /></clipPath>
<clipPath id="c1_1"><path d="M74.5,1103.5l0,-194l352,0l0,194Z" /></clipPath>
<style type="text/css"><![CDATA[
.g2_1{
fill: none;
stroke: #231F20;
stroke-width: 1;
stroke-linecap: round;
stroke-linejoin: round;
}
.g4_1{
fill: #4D4D4D;
}
.g3_1{
fill: #231F20;
}
.g1_1{
fill: #4D4D4D;
stroke: #4D4D4D;
stroke-width: 1;
stroke-linecap: round;
stroke-linejoin: round;
}
]]></style>
</defs>
<path fill-rule="evenodd" d="M74.5,267.5l731,0l0,3l-731,0" class="g1_1" />
<path fill-rule="evenodd" d="M74.5,89.5l731,0l0,4l-731,0" class="g1_1" />
<path fill-rule="evenodd" d="M74.5,637.5l731,0l0,3l-731,0" class="g1_1" />
<path d="M792.5,139.5l0,-1" class="g2_1" />
<path d="M790,115.9c-0.5,-0.2,-1.1,-0.4,-1.7,-0.6c-1,-0.2,-2.1,-0.4,-3.2,-0.4c-1.6,0,-3.2,0.4,-4.7,0.9c-0.2,0.1,-0.5,0.2,-0.8,0.4c-0.6,0.3,-1.2,0.6,-1.8,1l0,22.4l7.3,-6c0,0,7.5,6.1,7.5,6.1l0,-22.4c-0.8,-0.5,-1.7,-1,-2.6,-1.4Z" class="g3_1" />
<path fill-rule="evenodd" d="M793.8,138.9l0,3.4l-2.4,-2c-1.9,1,-4,1.5,-6.2,1.5c-2.3,0,-4.5,-0.5,-6.4,-1.5l-2.2,1.8l0,-3.2c-3.3,-2.5,-5.5,-6.5,-5.5,-11.1c0,-5.6,3.3,-10.5,8,-12.7c2.9,-1.4,6.3,-1.7,9.5,-0.9c6.1,1.5,10.6,7,10.6,13.6c0,4.5,-2.1,8.5,-5.4,11.1Zm-8.6,-28.5c-9.6,0,-17.4,7.8,-17.4,17.4c0,9.6,7.8,17.4,17.4,17.4c9.6,0,17.3,-7.8,17.3,-17.4c0,-9.6,-7.7,-17.4,-17.3,-17.4Z" class="g3_1" />
<g clip-path="url(#c0_1)">
<path d="M767.7,154.1c-2,0,-3.4,-1.3,-3.4,-3.2c0,-1.9,1.4,-3.3,3.3,-3.3c0.6,0,1.1,0.1,1.6,0.4l0,-0.5l0.5,0l0,1.6l-0.5,0l0,-0.4c-0.6,-0.4,-1,-0.6,-1.6,-0.6c-1.4,0,-2.4,1.1,-2.4,2.7c0,1.6,1.1,2.8,2.5,2.8c0.5,0,0.9,-0.1,1.5,-0.4l0,-0.7l0.5,0l0,1.2c-0.8,0.3,-1.3,0.4,-2,0.4Z" class="g3_1" />
</g>
<path d="M772.8,150.6c-0.1,-0.2,-0.3,-0.3,-0.4,-0.3c-0.1,0,-0.3,0.2,-0.8,0.8l0,2.5l0.9,0l0,0.4l-2.4,0l0,-0.4l0.8,0l0,-3.4l-0.9,0l0,-0.2l1.4,-0.4l0.2,0l0,1.1c0.7,-0.9,0.9,-1.1,1.2,-1.1c0.2,0,0.2,0,0.3,0.1l0.3,0.2l-0.6,0.7Z" class="g3_1" />
<g clip-path="url(#c0_1)">
<path d="M775.5,150c-0.7,0,-1.3,0.8,-1.3,1.9c0,1,0.6,1.8,1.3,1.8c0.7,0,1.3,-0.8,1.3,-1.8c0,-1.1,-0.6,-1.9,-1.3,-1.9Zm0,4.1c-1.1,0,-2.1,-1,-2.1,-2.2c0,-1.3,1,-2.3,2.1,-2.3c1.2,0,2.1,1,2.1,2.3c0,1.2,-0.9,2.2,-2.1,2.2Z" class="g3_1" />
<path d="M779.9,154.1c-0.5,0,-0.9,-0.1,-1.2,-0.4l0,0.4l-0.4,0l0,-1.4l0.4,0l0,0.3c0,0.4,0.6,0.8,1.2,0.8c0.5,0,0.9,-0.3,0.9,-0.7c0,-0.4,-0.3,-0.6,-1.3,-1c-0.9,-0.3,-1.2,-0.7,-1.2,-1.3c0,-0.7,0.6,-1.2,1.4,-1.2c0.5,0,0.8,0.1,1.1,0.3l0,-0.3l0.4,0l-0.2,1.3l-0.4,0c0,-0.1,0,-0.2,0,-0.3c0,-0.4,-0.4,-0.7,-0.9,-0.7c-0.5,0,-0.8,0.3,-0.8,0.7c0,0.4,0,0.5,1.2,0.9c0.9,0.4,1.2,0.7,1.2,1.3c0,0.8,-0.6,1.3,-1.4,1.3Z" class="g3_1" />
<path d="M783.7,154.1c-0.5,0,-0.9,-0.1,-1.2,-0.4l0,0.4l-0.4,0l0,-1.4l0.5,0l0,0.3c0,0.4,0.5,0.8,1.1,0.8c0.5,0,0.9,-0.3,0.9,-0.7c0,-0.4,-0.2,-0.6,-1.2,-1c-1,-0.3,-1.3,-0.7,-1.3,-1.3c0,-0.7,0.6,-1.2,1.5,-1.2c0.4,0,0.7,0.1,1,0.3l0.1,-0.3l0.4,0l-0.3,1.3l-0.4,0c0.1,-0.1,0.1,-0.2,0.1,-0.3c0,-0.4,-0.4,-0.7,-1,-0.7c-0.5,0,-0.8,0.3,-0.8,0.7c0,0.4,0.1,0.5,1.2,0.9c1,0.4,1.3,0.7,1.3,1.3c0,0.8,-0.6,1.3,-1.5,1.3Z" class="g3_1" />
</g>
<path d="M791.1,154l0,-0.4l0.7,0l0,-4.6l-2.3,5.1l-2.4,-5.2l0,4.7l0.7,0l0,0.4l-1.9,0l0,-0.4l0.7,0l0,-5.5l-0.7,0l0,-0.4l1.5,0l2.2,4.9l2.2,-4.9l1.5,0l0,0.4l-0.7,0l0,5.5l0.7,0l0,0.4l-2.2,0Z" class="g3_1" />
<g clip-path="url(#c0_1)">
<path d="M796.2,152l-1.6,0.4l0,0.5c0,0.4,0.3,0.7,0.6,0.7c0.4,0,0.6,-0.2,1,-0.5l0,-1.1Zm0.8,2c-0.1,0.1,-0.2,0.1,-0.3,0.1c-0.3,0,-0.5,-0.2,-0.5,-0.6l0,-0.1c-0.4,0.5,-0.7,0.7,-1.2,0.7c-0.7,0,-1.2,-0.4,-1.2,-1.1c0,-0.5,0.3,-0.9,0.8,-1l1.6,-0.3l0,-1.1c0,-0.4,-0.3,-0.7,-0.6,-0.7c-0.2,0,-0.4,0.1,-0.6,0.2l0,0.5l-0.9,0.2c0,-0.1,-0.1,-0.2,-0.1,-0.3c0,-0.5,0.7,-0.9,1.5,-0.9c0.9,0,1.4,0.4,1.4,1l0,3l0.8,0l0,0.2L797,154Z" class="g3_1" />
</g>
<path d="M800.8,150.6c-0.2,-0.2,-0.4,-0.3,-0.4,-0.3c-0.2,0,-0.4,0.2,-0.9,0.8l0,2.5l0.9,0l0,0.4l-2.4,0l0,-0.4l0.8,0l0,-3.4l-0.9,0l0,-0.2l1.4,-0.4l0.2,0l0,1.1c0.7,-0.9,0.9,-1.1,1.3,-1.1c0.1,0,0.2,0,0.2,0.1l0.3,0.2l-0.5,0.7Z" class="g3_1" />
<g clip-path="url(#c0_1)">
<path d="M804.7,154l-1.9,-2.3l1.7,-1.7l-0.6,0l0,-0.3l1.9,0l0,0.3l-0.8,0l-1.4,1.5l1.8,2.1l0.5,0l0,0.4l-1.2,0Zm-3.4,0l0,-0.4l0.7,0l0,-6l-0.8,0l0,-0.2l1.3,-0.4l0.2,0l0,6.6l0.7,0l0,0.4l-2.1,0Z" class="g3_1" />
</g>
<g clip-path="url(#c1_1)">
<path fill-rule="evenodd" d="M74.7,909.4l351.5,0l0.6,0.1l0.5,0.4l0.3,0.4l0.1,0.6l-0.1,0.6l-0.3,0.5l-0.5,0.3l-0.6,0.2l-351.5,0l-0.6,-0.2L73.5,912l-0.3,-0.5l-0.1,-0.6l0.1,-0.6l0.3,-0.4l0.6,-0.4Z" class="g4_1" />
</g>
</svg>