<?xml version="1.0" encoding="UTF-8" standalone="no"?>
<!DOCTYPE svg PUBLIC "-//W3C//DTD SVG 1.1//EN"
"http://www.w3.org/Graphics/SVG/1.1/DTD/svg11.dtd">
<svg version="1.1" xmlns="http://www.w3.org/2000/svg" xmlns:xlink="http://www.w3.org/1999/xlink">
<defs>
<clipPath id="c0_1"><path d="M0.5,1195.5L0.5,0.5l909,0l0,1195Z" /></clipPath>
<clipPath id="c1_1"><path d="M749.5,68.5l0,-56l105,0l0,56Z" /></clipPath>
<style type="text/css"><![CDATA[
.g3_1{
fill: #231F20;
}
.g2_1{
fill: #8077B7;
}
.g1_1{
fill: #8077B7;
stroke: #8077B7;
stroke-width: 1;
stroke-linecap: round;
stroke-linejoin: round;
}
]]></style>
</defs>
<path fill-rule="evenodd" d="M854.5,399.5l-795,0l0,-1l795,0" class="g1_1" />
<path fill-rule="evenodd" d="M854.5,859.5l-795,0l0,-2l795,0" class="g1_1" />
<g clip-path="url(#c0_1)">
<path fill-rule="evenodd" d="M-34.5,831.8l0.3,-4l1,-3.9l1.8,-3.8c4.3,-7.3,11.7,-11.6,20.2,-11.6l22.5,0l4,0.3c8.2,1.4,15.2,7.3,18,15.1l1,3.9l0.3,4l0,31.2l-0.3,4.1C32.9,875.2,27,882.3,19.2,885l-3.9,1.1l-4,0.3C-5.9,885.2,-21,891.3,-31.4,874.7L-33.2,871l-1,-3.9L-34.5,863Z" class="g2_1" />
<path fill-rule="evenodd" d="M-10.5,808.5l22,0l0,13l-22,0" class="g1_1" />
</g>
<path fill-rule="evenodd" d="M11.3,808.5l4,0.3c9.7,1.7,17.3,9.3,19,19l0.3,4l-12.9,0L21.5,830c-0.6,-4.1,-4.3,-7.8,-8.4,-8.4l-1.8,-0.2" class="g1_1" />
<path fill-rule="evenodd" d="M34.5,831.5l0,32l-13,0l0,-32" class="g1_1" />
<path fill-rule="evenodd" d="M34.6,863l-0.3,4.1c-1.7,9.6,-9.3,17.3,-19,19l-4,0.3l0,-13l1.8,-0.2c4.1,-0.6,7.8,-4.2,8.4,-8.4L21.7,863" class="g1_1" />
<g clip-path="url(#c0_1)">
<path fill-rule="evenodd" d="M11.5,886.5l-22,0l0,-13l22,0" class="g1_1" />
<path d="M85,17l824,0L909,0L85,0l0,17Z" class="g2_1" />
<path fill-rule="evenodd" d="M59.8,19.1L60,15.8c1.8,-9.3,9.8,-16.2,19.3,-16l847.8,0l0,82.3l-847.8,0C69.7,82.2,61.8,75.3,60,66L59.8,62.6Z" class="g2_1" />
</g>
<path d="M749.2,55.3l11.7,0c4.2,0,6.7,-0.3,9.2,-1.9c3.6,-1.9,5.8,-5.3,5.8,-9.9c0,-2,-0.5,-8.5,-8.2,-10.9c2.9,-1.5,5.7,-4,5.7,-9c0,-3.4,-1.1,-7,-4.6,-8.9c-1.9,-1.4,-4.5,-2.1,-8.4,-2.1l-11.2,0l0,42.7Zm4.7,-38.4l6.2,0c2.7,0,4.2,0.4,5.3,0.9c1.8,0.8,3.4,3,3.4,6.1c0,2.6,-0.7,4.8,-3.4,6.3c-1.4,0.7,-3.1,0.9,-5.1,0.9l-6.4,0l0,-14.2Zm0,18.2l6.9,0c2.6,0,4,0.1,6,0.9c2.7,1.2,4.5,3.8,4.5,7.2c0,3.8,-2,6,-4.5,7.1c-1.5,0.7,-3.5,0.8,-5.2,0.8l-7.7,0l0,-16ZM802.4,12.6l-4.8,0l0,29.9c0,2,-0.2,3.7,-0.8,5.4c-0.7,2,-2.8,3.9,-6.3,4c-1.9,0,-5.6,-1.1,-6.8,-5.7c-0.1,-0.3,-0.2,-0.6,-0.2,-0.8l-5.1,0c0.1,0.7,0.2,1.3,0.4,2c1.6,7,8.3,8.7,11.5,8.7c2.4,0,5.1,-0.7,7.4,-2.3c1.5,-1.1,2.7,-2.6,3.5,-4.2c1,-2.3,1.2,-4.9,1.2,-8l0,-29Zm8.3,0l0,27.1c0,4.7,0.4,9.5,4.9,13.2c2.6,2.3,6.4,3.2,9.4,3.2c3.7,0,6.8,-1.2,9.2,-3.2c4.3,-3.3,4.9,-8.2,4.8,-13.2l0,-27.1l-4.7,0l0,27.1c0,3.4,0,5.8,-2,8.7c-1.4,2.1,-4.3,3.5,-7.3,3.5c-3.1,0,-6,-1.5,-7.5,-3.6c-2,-2.9,-2,-5.4,-2,-8.6l0,-27.1l-4.8,0Zm36.8,42.7l4.8,0l0,-42.7l-4.8,0l0,42.7Z" class="g3_1" />
<g clip-path="url(#c1_1)">
<path d="M749.1,68.7l2.8,0c1.2,0,1.7,0,2.4,-0.5C755,67.8,755.4,67,755.4,66c0,-0.4,-0.1,-1.8,-1.7,-2.3c0.7,-0.4,1.2,-1,1.2,-2c0,-0.7,-0.3,-1.5,-0.9,-1.9c-0.5,-0.3,-1.2,-0.5,-2.1,-0.5l-2.8,0l0,9.4Zm1.5,-8.1l1.2,0c0.5,0,0.8,0.1,1,0.2c0.4,0.1,0.7,0.5,0.7,1.1c0,0.5,-0.2,0.9,-0.7,1.2c-0.2,0.1,-0.6,0.1,-0.9,0.1l-1.3,0l0,-2.6Zm0,3.9l1.4,0c0.5,0,0.8,0,1.2,0.1c0.4,0.2,0.8,0.7,0.8,1.3c0,0.8,-0.4,1.2,-0.8,1.4c-0.4,0.1,-0.7,0.1,-1,0.1l-1.6,0l0,-2.9Zm11,-5.2l-1.5,0l0,6.5c0,0.4,0,0.7,-0.1,1.1c-0.2,0.3,-0.5,0.7,-1.2,0.7c-0.4,0,-1,-0.3,-1.2,-1.1c0,-0.1,0,-0.2,0,-0.2l-1.7,0c0.1,0.1,0.1,0.3,0.1,0.5c0.4,1.9,2.2,2.1,2.8,2.1c0.5,0,1.2,-0.1,1.7,-0.5c0.3,-0.2,0.7,-0.6,0.8,-1c0.3,-0.5,0.3,-1.1,0.3,-1.9l0,-6.2Zm1.8,0l0,5.9c0,1.1,0.1,2.1,1.1,2.9c0.6,0.6,1.6,0.8,2.2,0.8c1,0,1.7,-0.3,2.3,-0.8c0.8,-0.7,1,-1.7,1,-2.9l0,-5.9l-1.5,0l0,5.9c0,0.6,0,1.1,-0.3,1.7c-0.3,0.4,-0.8,0.7,-1.5,0.7c-0.6,0,-1.1,-0.3,-1.4,-0.8c-0.4,-0.5,-0.4,-1,-0.4,-1.6l0,-5.9l-1.5,0Zm12.2,9.4l1.5,0l0,-9.4l-1.5,0l0,9.4Zm3.3,0l1.3,0l0,-3.8c0,-1.2,0.6,-2,1.9,-2.1c1.4,0,1.8,0.9,1.8,2.2l0,3.7l1.4,0l0,-4c0,-1.5,-0.6,-3.1,-2.8,-3.1c-1.3,0,-2,0.6,-2.4,1.3l0,-1.1l-1.2,0l0,6.9Zm8.6,0l1.3,0l0,-5.9l1.4,0l0,-1l-1.4,0l0,-2.5l-1.3,0l0,2.5l-1.3,0l0,1l1.3,0l0,5.9Zm10.1,-3c0.1,-1.2,-0.2,-2.3,-1.1,-3.1c-0.6,-0.6,-1.5,-1,-2.5,-1c-2.1,0,-3.7,1.7,-3.7,3.7c0,1.8,1.4,3.6,3.7,3.6c0.7,0,1.4,-0.1,2,-0.5c0.6,-0.4,1,-1,1.4,-1.8l-1.4,0c-0.4,0.8,-1.1,1.2,-2,1.2c-1.1,0,-2.3,-0.7,-2.3,-2.1l5.9,0Zm-5.9,-1c0,-1,0.9,-2,2.3,-2c1.3,0,2.2,1,2.3,2l-4.6,0Zm7.2,4l1.3,0l0,-3.7c0,-1.4,0.7,-2.1,1.9,-2.1l0.1,0l0,-1.3c-0.9,0,-1.7,0.4,-2.1,1.2l0,-1l-1.2,0l0,6.9Zm4.4,0l1.3,0l0,-3.8c0,-1.2,0.6,-2,1.9,-2.1c1.3,0,1.8,0.9,1.8,2.2l0,3.7l1.4,0l0,-4c0,-1.5,-0.6,-3.1,-2.8,-3.1c-1.3,0,-2.1,0.6,-2.4,1.3l0,-1.1l-1.2,0l0,6.9Zm15.2,-6.9l-1.4,0l0,1.2c-0.3,-0.6,-1.2,-1.4,-2.6,-1.4c-2,0,-3.5,1.5,-3.5,3.7c0,1.9,1.3,3.6,3.5,3.6c1.1,0,2.1,-0.4,2.6,-1.4l0,1.2l1.4,0l0,-6.9Zm-6.2,3.5c0,-1.3,1,-2.5,2.4,-2.5c1.1,0,1.9,0.7,2.2,1.5c0.2,0.3,0.3,0.6,0.2,1c0,0.4,-0.1,0.7,-0.2,1c-0.3,0.8,-1.1,1.4,-2.2,1.4c-1.6,0,-2.4,-1.4,-2.4,-2.4Zm8.4,3.4l1.3,0l0,-5.9l1.4,0l0,-1l-1.4,0l0,-2.5l-1.3,0l0,2.5l-1.3,0l0,1l1.3,0l0,5.9Zm3.7,-8l1.3,0l0,-1.4l-1.3,0l0,1.4Zm0,8l1.3,0l0,-6.9l-1.3,0l0,6.9ZM827,65.3c0,1.8,1.4,3.6,3.7,3.6c2.4,0,3.7,-1.8,3.7,-3.6c0,-1.9,-1.3,-3.7,-3.7,-3.7c-2.3,0,-3.7,1.8,-3.7,3.7Zm1.4,0c0,-1.4,1,-2.5,2.3,-2.5c1.4,0,2.4,1.1,2.4,2.5c0,1.4,-1,2.4,-2.4,2.4c-1.3,0,-2.3,-1,-2.3,-2.4Zm7.4,3.4l1.3,0l0,-3.8c0,-1.2,0.6,-2,1.9,-2.1c1.4,0,1.9,0.9,1.9,2.2l0,3.7l1.3,0l0,-4c0,-1.5,-0.6,-3.1,-2.8,-3.1c-1.3,0,-2,0.6,-2.4,1.3l0,-1.1l-1.2,0l0,6.9ZM851,61.8l-1.3,0l0,1.2c-0.4,-0.6,-1.2,-1.4,-2.6,-1.4c-2,0,-3.6,1.5,-3.6,3.7c0,1.9,1.3,3.6,3.6,3.6c1.1,0,2.1,-0.4,2.6,-1.4l0,1.2l1.3,0l0,-6.9Zm-6.2,3.5c0,-1.3,1,-2.5,2.4,-2.5c1.1,0,1.9,0.7,2.3,1.5c0.1,0.3,0.2,0.6,0.2,1c0,0.4,-0.1,0.7,-0.3,1c-0.3,0.8,-1.1,1.4,-2.1,1.4c-1.7,0,-2.4,-1.4,-2.5,-2.4Zm7.9,3.4l1.4,0l0,-9.4l-1.4,0l0,9.4Z" class="g3_1" />
</g>
</svg>