<?xml version="1.0" encoding="UTF-8" standalone="no"?>
<!DOCTYPE svg PUBLIC "-//W3C//DTD SVG 1.1//EN"
"http://www.w3.org/Graphics/SVG/1.1/DTD/svg11.dtd">
<svg version="1.1" xmlns="http://www.w3.org/2000/svg" xmlns:xlink="http://www.w3.org/1999/xlink">
<defs>
<style type="text/css"><![CDATA[
.g5_5{
stroke: #000000;
stroke-width: 1;
stroke-linecap: round;
stroke-linejoin: round;
}
.g6_5{
fill: none;
stroke: #000000;
stroke-width: 1;
stroke-linecap: round;
stroke-linejoin: round;
}
.g2_5{
fill: #FFFFFF;
stroke: #FFFFFF;
stroke-width: 1;
stroke-linecap: round;
stroke-linejoin: round;
}
.g3_5{
fill: #CD151D;
}
.g4_5{
fill: #CD151D;
stroke: #CD151D;
stroke-width: 1;
stroke-linecap: round;
stroke-linejoin: round;
}
.g1_5{
fill: #E7E8E9;
}
]]></style>
</defs>
<path d="M65,1120l749,0l0,-403L65,717l0,403Z" class="g1_5" />
<path fill-rule="evenodd" d="M814.5,753.5l-749,0l0,-9l749,0l0,9Z" class="g2_5" />
<path d="M65,744l749,0l0,-27L65,717l0,27Z" class="g3_5" />
<path d="M65,1120l749,0l0,-23l-749,0l0,23Z" class="g1_5" />
<path fill-rule="evenodd" d="M814.5,744.5l-749,0l0,-9l749,0l0,9Z" class="g4_5" />
<image x="147" y="760" width="586" height="307" xlink:href="img/1.png" />
<path fill-rule="evenodd" d="M65.5,1134.5l749,0l0,1l-749,0l0,-1Z" class="g5_5" />
<path d="M772.5,1159.5l0,-25" class="g6_5" />
</svg>