<?xml version="1.0" encoding="UTF-8" standalone="no"?>
<!DOCTYPE svg PUBLIC "-//W3C//DTD SVG 1.1//EN"
"http://www.w3.org/Graphics/SVG/1.1/DTD/svg11.dtd">
<svg version="1.1" xmlns="http://www.w3.org/2000/svg" xmlns:xlink="http://www.w3.org/1999/xlink">
<defs>
<style type="text/css"><![CDATA[
.g2_1{
fill: #FFFFFF;
}
.g3_1{
fill: none;
stroke: #FFFFFF;
stroke-width: 4;
stroke-linecap: butt;
stroke-linejoin: miter;
stroke-miterlimit: 4;
}
.g4_1{
fill: none;
stroke: #231F20;
stroke-width: 1;
stroke-linecap: butt;
stroke-linejoin: miter;
}
.g1_1{
fill: #231F20;
}
]]></style>
</defs>
<path d="M662.7,184.9c3.7,0,6.8,3.9,6.8,8.7c0,4.7,-3.1,8.6,-6.8,8.6c-3.8,0,-6.8,-3.9,-6.8,-8.6c0,-4.8,3,-8.7,6.8,-8.7m0,0.5c-3,0,-5.5,3.7,-5.5,8.1c0,4.6,2.5,8.2,5.5,8.2c3,0,5.5,-3.6,5.5,-8.2c0,-4.4,-2.5,-8.1,-5.5,-8.1Z" class="g1_1" />
<path d="M666.9,191.2c0,-1.6,-1.7,-4.1,-4,-4.2l0,4.4l3.8,0c0,0,0.2,0,0.2,-0.2Z" class="g1_1" />
<path d="M666.9,195.9c0,-0.1,-0.1,-0.2,-0.1,-0.2l-4.3,-4.4l0,-4.3c-2.3,0.1,-4,2.6,-4.1,4.2c0,0.1,0.1,0.2,0.1,0.2l4.4,4.5l0,4.3c2.3,-0.1,4,-2.7,4,-4.3Z" class="g1_1" />
<path d="M658.4,196c0.1,1.6,1.8,4.1,4.1,4.2l0,-4.4l-3.9,0c0,0,-0.2,0,-0.2,0.2Z" class="g1_1" />
<path d="M678.9,190.8c-0.1,-2,-1.8,-2.6,-3.3,-2.6c-1.1,0,-3,0.3,-3,2.3c0,1.1,0.8,1.5,1.6,1.6L678,193c1.7,0.4,3,1.4,3,3.5c0,3.2,-2.9,4,-5.2,4c-2.5,0,-3.4,-0.7,-4,-1.2c-1.1,-1.1,-1.3,-2.2,-1.3,-3.4l1.6,0c0,2.4,2,3.1,3.7,3.1c1.3,0,3.4,-0.3,3.4,-2.2c0,-1.4,-0.6,-1.8,-2.8,-2.4l-2.7,-0.6c-0.9,-0.2,-2.8,-0.8,-2.8,-3.1c0,-2.1,1.3,-4.1,4.5,-4.1c4.7,0,5.1,2.8,5.2,4.2Z" class="g1_1" />
<path d="M684.5,194.8l2.1,-5.9l2,5.9Zm4.7,1.5l1.3,3.9l2,0L687.7,187l-2,0l-5,13.2l1.8,0l1.4,-3.9Z" class="g1_1" />
<path d="M698,193.1l5.8,0l0,7.1l-1.5,0l-0.1,-1.7c-0.9,1.2,-2.5,2,-4.3,2c-2.3,0,-3.4,-0.8,-4.1,-1.5c-2,-1.9,-2.1,-4.1,-2.1,-5.5c0,-3.3,2,-6.9,6.3,-6.9c2.5,0,5.2,1.4,5.6,4.4l-1.7,0c-0.6,-2.3,-2.5,-2.8,-4,-2.8c-2.4,0,-4.3,1.9,-4.3,5.4c0,2.6,0.9,5.4,4.4,5.4c0.6,0,1.7,-0.1,2.7,-0.8c1.1,-1,1.4,-2.1,1.4,-3.6l-4.1,0Z" class="g1_1" />
<path d="M714,200l-9,0l0,-14l9,0l0,2l-8,0l0,4l8,0l0,2l-8,0l0,4l8,0Z" class="g1_1" />
<path d="M12,25l440,0l0,-12L12,13l0,12Z" class="g2_1" />
<path d="M61.9,14l0.2,-0.2c0,-0.1,0,-0.1,0.1,-0.1c0,0,0,-0.1,0,-0.1c0.1,0,0.1,0,0.1,0l-0.4,0c0.1,0,0.1,0,0.1,0c0,0,0.1,0.1,0.1,0.1c0,0,-0.1,0,-0.1,0.1L61.8,14L61.7,13.7c-0.1,0,-0.1,0,-0.1,0c0,-0.1,0.1,-0.1,0.1,-0.1l-0.4,0c0,0,0.1,0,0.1,0.1c0,0,0.1,0,0.1,0.1l0.2,0.3l-0.2,0.3c-0.1,0.1,-0.1,0.1,-0.2,0.2l0.3,0c-0.1,0,-0.1,-0.1,-0.1,-0.1l0.1,-0.1l0.2,-0.2l0.1,0.2c0.1,0,0.1,0.1,0.1,0.1c0,0,0,0.1,0,0.1c-0.1,0,-0.1,0,-0.1,0l0.4,0c0,0,-0.1,0,-0.1,-0.1c0,0,-0.1,-0.1,-0.1,-0.1Z" class="g3_1" />
<path d="M63,14l0.2,-0.2c0,-0.1,0,-0.1,0.1,-0.1c0,0,0,-0.1,0,-0.1c0.1,0,0.1,0,0.1,0l-0.4,0c0.1,0,0.1,0,0.1,0c0.1,0,0.1,0.1,0.1,0.1l-0.1,0.1L62.9,14L62.8,13.7c0,0,-0.1,0,-0.1,0c0,-0.1,0.1,-0.1,0.1,-0.1l-0.4,0c0,0,0.1,0,0.1,0.1c0,0,0.1,0,0.1,0.1l0.2,0.3l-0.2,0.3c-0.1,0.1,-0.1,0.1,-0.2,0.2l0.3,0c-0.1,0,-0.1,-0.1,-0.1,-0.1l0.1,-0.1l0.2,-0.2L63,14.4c0.1,0,0.1,0.1,0.1,0.1c0,0,0,0.1,0,0.1c-0.1,0,-0.1,0,-0.1,0l0.4,0c0,0,-0.1,0,-0.1,-0.1c0,0,-0.1,-0.1,-0.1,-0.1Z" class="g3_1" />
<path d="M64.1,14l0.2,-0.2c0,-0.1,0,-0.1,0.1,-0.1c0,0,0,-0.1,0,-0.1c0.1,0,0.1,0,0.1,0l-0.4,0c0.1,0,0.1,0,0.1,0c0.1,0,0.1,0.1,0.1,0.1l-0.1,0.1L64,14L63.9,13.7c0,0,-0.1,0,-0.1,0c0,-0.1,0.1,-0.1,0.1,-0.1l-0.4,0c0,0,0.1,0,0.1,0.1c0,0,0.1,0,0.1,0.1l0.2,0.3l-0.2,0.3c-0.1,0.1,-0.1,0.1,-0.2,0.2l0.3,0c-0.1,0,-0.1,-0.1,-0.1,-0.1l0.1,-0.1L64,14.2l0.1,0.2c0.1,0,0.1,0.1,0.1,0.1c0,0,0,0.1,0,0.1c-0.1,0,-0.1,0,-0.1,0l0.4,0L64.4,14.5c0,0,-0.1,-0.1,-0.1,-0.1Z" class="g3_1" />
<path d="M64.7,13.7l0,0c0.1,0,0.1,0,0.1,0c0,0,0.1,0,0.1,0c0,0.1,0,0.1,0,0.2l0,0.5c0,0.1,0,0.1,0,0.1c0,0.1,-0.1,0.1,-0.2,0.1l0.4,0l-0.1,0c0,-0.1,0,-0.1,0,-0.1l0,-0.1l0,-0.8Z" class="g3_1" />
<path d="M65.4,14.1c0,0.1,0,0.2,0,0.3c0.1,0.2,0.2,0.2,0.3,0.2c0.1,0,0.3,-0.2,0.3,-0.5c0,-0.2,0,-0.3,-0.1,-0.4C65.8,13.6,65.8,13.6,65.7,13.6c0,0,-0.1,0,-0.1,0c-0.2,0.1,-0.2,0.3,-0.2,0.5Zm0.1,0c0,-0.1,0,-0.2,0,-0.2c0,-0.1,0.1,-0.2,0.1,-0.2c0,-0.1,0.1,-0.1,0.1,-0.1c0,0,0.1,0,0.1,0c0,0.1,0,0.1,0,0.2c0.1,0,0.1,0.1,0.1,0.2c0,0.2,0,0.3,-0.1,0.4c0,0.1,-0.1,0.2,-0.1,0.2c-0.1,0,-0.1,-0.1,-0.1,-0.1C65.5,14.4,65.5,14.3,65.5,14.1Z" class="g3_1" />
<path d="M66.3,14.5c-0.1,0,-0.1,0,-0.1,0c0,0.1,0,0.1,0.1,0.1c0,0,0.1,0,0.1,-0.1c0,0,-0.1,0,-0.1,0Z" class="g3_1" />
<path d="M66.6,13.7l0.1,0c0.1,0,0.1,0,0.1,0c0,0.1,0,0.1,0,0.2l0,0.5c0,0.1,0,0.1,0,0.1c0,0.1,0,0.1,-0.1,0.1l0.3,0l-0.1,0c0,-0.1,0,-0.1,0,-0.1l0,-0.1l0,-0.8Z" class="g3_1" />
<path d="M67.3,13.7l0.1,0c0.1,0,0.1,0,0.1,0c0,0.1,0,0.1,0,0.2l0,0.5c0,0.1,0,0.1,0,0.1c0,0.1,0,0.1,-0.1,0.1l0.3,0C67.6,14.5,67.6,14.5,67.6,14.5l0,-0.1l0,-0.8Z" class="g3_1" />
<path d="M68.1,13.6L68,13.8c0,0,0.1,-0.1,0.1,-0.1c0,0,0.1,0,0.1,0l0.3,0l-0.3,0.9l0.1,0l0.3,-1Z" class="g3_1" />
<path d="M68.8,13.6l0,0.2c0,0,0,-0.1,0.1,-0.1l0.1,0l0.3,0L69,14.6l0.1,0l0.3,-1Z" class="g3_1" />
<path d="M69.9,13.5l-0.1,0l-0.3,1.1Z" class="g3_1" />
<path d="M70.1,13.7l0,0l0.1,0c0,0.1,0,0.1,0,0.2l0,0.5c0,0.1,0,0.1,0,0.1c0,0.1,0,0.1,-0.1,0.1l0.4,0c-0.1,0,-0.1,0,-0.1,0c0,-0.1,-0.1,-0.1,-0.1,-0.1l0,-0.1l0,-0.8Z" class="g3_1" />
<path d="M71.3,13.6l-0.4,0L70.8,14c0,0,0.1,0,0.2,0c0.1,0.1,0.2,0.2,0.2,0.3c0,0.1,0,0.1,-0.1,0.2c0,0,-0.1,0,-0.1,0c-0.1,0,-0.1,0,-0.1,0c-0.1,0,-0.1,0,-0.1,0c-0.1,0,-0.1,0,-0.1,0c0,0.1,0.1,0.1,0.2,0.1c0.1,0,0.1,0,0.2,0c0.1,-0.1,0.2,-0.2,0.2,-0.4c0,-0.1,0,-0.1,-0.1,-0.2C71.1,13.9,71,13.9,70.9,13.8l0,-0.1l0.4,0Z" class="g3_1" />
<path d="M72.1,13.6l-0.4,0L71.5,14c0.1,0,0.2,0,0.2,0c0.2,0.1,0.3,0.2,0.3,0.3c0,0.1,-0.1,0.1,-0.1,0.2c-0.1,0,-0.1,0,-0.2,0l-0.1,0l-0.1,0c0,0.1,0,0.1,0.2,0.1c0,0,0.1,0,0.1,0c0.2,-0.1,0.3,-0.2,0.3,-0.4C72.1,14.1,72,14.1,72,14C71.9,13.9,71.8,13.9,71.6,13.8l0.1,-0.1l0.3,0Z" class="g3_1" />
<path d="M72.3,13.6l-0.1,0.2l0.1,0c0,0,0,-0.1,0.1,-0.1l0.1,0l0.3,0l-0.3,0.9l0.4,-1Z" class="g3_1" />
<path d="M73,14.6l0.1,0c0.1,0,0.1,0,0.2,-0.1c0.2,-0.1,0.3,-0.3,0.3,-0.5c0,-0.1,0,-0.2,-0.1,-0.3c0,-0.1,-0.1,-0.1,-0.2,-0.1c-0.1,0,-0.2,0,-0.2,0.1C73,13.8,73,13.8,73,13.9c0,0.1,0,0.2,0.1,0.2c0,0.1,0.1,0.1,0.2,0.1c0,0,0.1,0,0.2,0c0,0,-0.1,0.1,-0.1,0.2c-0.1,0.1,-0.3,0.2,-0.4,0.2Zm0.5,-0.5c-0.1,0,-0.1,0.1,-0.2,0.1c0,0,-0.1,-0.1,-0.1,-0.1C73.2,14,73.1,14,73.1,13.8c0,-0.1,0.1,-0.2,0.2,-0.2c0,0,0.1,0,0.1,0.1c0,0,0.1,0,0.1,0.1c0,0,0,0.1,0,0.1c0,0.1,0,0.1,0,0.2Z" class="g3_1" />
<path d="M74,14.1c-0.2,0.1,-0.2,0.2,-0.2,0.3c0,0,0,0.1,0.1,0.1c0,0.1,0.1,0.1,0.2,0.1c0.1,0,0.1,0,0.2,-0.1c0.1,0,0.1,-0.1,0.1,-0.1c0,-0.1,0,-0.2,-0.1,-0.2c0,0,-0.1,-0.1,-0.2,-0.2c0.1,0,0.2,-0.1,0.2,-0.1c0,0,0.1,-0.1,0.1,-0.1c0,-0.1,-0.1,-0.1,-0.1,-0.2c-0.1,0,-0.1,0,-0.2,0c-0.1,0,-0.2,0,-0.2,0c-0.1,0.1,-0.1,0.1,-0.1,0.2c0,0,0,0.1,0,0.1C73.9,14,73.9,14,74,14.1ZM74.1,14L74,13.9c-0.1,0,-0.1,-0.1,-0.1,-0.1c0,-0.1,0.1,-0.2,0.2,-0.2c0.1,0,0.1,0.1,0.1,0.2l0,0.1c0,0,0,0.1,-0.1,0.1ZM74,14.1c0.1,0.1,0.2,0.2,0.2,0.2c0.1,0,0.1,0.1,0.1,0.1c0,0.1,-0.1,0.2,-0.2,0.2c-0.1,0,-0.2,-0.1,-0.2,-0.2c0,-0.1,0,-0.2,0.1,-0.3Z" class="g3_1" />
<path d="M74.8,14.1c-0.2,0.1,-0.2,0.2,-0.2,0.3c0,0,0,0.1,0,0.1c0.1,0.1,0.2,0.1,0.2,0.1c0.1,0,0.2,0,0.3,-0.1c0,0,0,-0.1,0,-0.1c0,-0.1,0,-0.2,0,-0.2c0,0,-0.1,-0.1,-0.2,-0.2c0.1,0,0.2,-0.1,0.2,-0.1c0,0,0,-0.1,0,-0.1c0,-0.1,0,-0.1,-0.1,-0.2c0,0,-0.1,0,-0.2,0c0,0,-0.1,0,-0.2,0c0,0.1,0,0.1,0,0.2c0,0,0,0.1,0,0.1c0,0.1,0.1,0.1,0.2,0.2ZM74.9,14L74.8,13.9c-0.1,0,-0.1,-0.1,-0.1,-0.1c0,-0.1,0,-0.2,0.2,-0.2c0.1,0,0.1,0.1,0.1,0.2l0,0.1c0,0,-0.1,0.1,-0.1,0.1Zm-0.1,0.1c0.1,0.1,0.2,0.2,0.2,0.2c0,0,0,0.1,0,0.1c0,0.1,0,0.2,-0.1,0.2c-0.1,0,-0.2,-0.1,-0.2,-0.2c0,-0.1,0,-0.2,0.1,-0.3Z" class="g3_1" />
<path d="M75.3,13.8l0,0c0.1,-0.1,0.1,-0.1,0.2,-0.1c0.1,0,0.2,0,0.2,0.1c0,0.1,0,0.1,0,0.1c-0.1,0.1,-0.2,0.2,-0.2,0.2c0.1,0,0.1,0,0.2,0.1c0,0.1,0.1,0.1,0.1,0.1c0,0.1,-0.1,0.2,-0.1,0.2c0,0,-0.1,0,-0.1,0c-0.1,0,-0.1,0,-0.1,0l-0.1,0c-0.1,0,-0.1,0,-0.1,0c0,0.1,0,0.1,0.2,0.1c0.1,0,0.2,0,0.3,-0.1c0,-0.1,0.1,-0.2,0.1,-0.2C75.9,14.1,75.8,14,75.7,14c0.1,-0.1,0.1,-0.2,0.1,-0.2c0,-0.1,0,-0.1,0,-0.2c-0.1,0,-0.1,0,-0.2,0c-0.1,0,-0.2,0,-0.3,0.2Z" class="g3_1" />
<path d="M76.2,13.7l0,0l0.1,0c0,0.1,0,0.1,0,0.2l0,0.5c0,0.1,0,0.1,0,0.1c0,0.1,0,0.1,-0.1,0.1l0.4,0c-0.1,0,-0.1,0,-0.1,0c0,-0.1,0,-0.1,0,-0.1c-0.1,0,-0.1,0,-0.1,-0.1l0,-0.8Z" class="g3_1" />
<path d="M77.4,13.6l-0.3,0L76.9,14c0.1,0,0.1,0,0.2,0c0.1,0.1,0.2,0.2,0.2,0.3c0,0.1,0,0.1,-0.1,0.2c0,0,-0.1,0,-0.1,0c0,0,-0.1,0,-0.1,0c-0.1,0,-0.1,0,-0.1,0c0,0,-0.1,0,-0.1,0c0,0.1,0.1,0.1,0.2,0.1c0.1,0,0.1,0,0.2,0c0.1,-0.1,0.2,-0.2,0.2,-0.4c0,-0.1,0,-0.1,-0.1,-0.2C77.2,13.9,77.1,13.9,77,13.8l0.1,-0.1l0.3,0Z" class="g3_1" />
<path d="M78.2,13.6l-0.4,0L77.6,14c0.1,0,0.2,0,0.3,0c0.1,0.1,0.2,0.2,0.2,0.3c0,0.1,-0.1,0.1,-0.1,0.2c0,0,-0.1,0,-0.1,0c-0.1,0,-0.1,0,-0.2,0c-0.1,0,-0.1,0,-0.1,0c0,0.1,0,0.1,0.2,0.1c0,0,0.1,0,0.1,0c0.2,-0.1,0.3,-0.2,0.3,-0.4c0,-0.1,-0.1,-0.1,-0.1,-0.2C78,13.9,77.9,13.9,77.8,13.8l0,-0.1l0.3,0Z" class="g3_1" />
<path d="M78.4,14.6l0,0c0.1,0,0.2,0,0.3,-0.1C78.9,14.4,79,14.2,79,14c0,-0.1,-0.1,-0.2,-0.1,-0.3C78.8,13.6,78.7,13.6,78.7,13.6c-0.1,0,-0.2,0,-0.3,0.1c0,0.1,-0.1,0.1,-0.1,0.2c0,0.1,0.1,0.2,0.1,0.2c0.1,0.1,0.1,0.1,0.2,0.1c0.1,0,0.1,0,0.2,0c0,0,0,0.1,-0.1,0.2c-0.1,0.1,-0.2,0.2,-0.3,0.2Zm0.4,-0.5c0,0,-0.1,0.1,-0.1,0.1c-0.1,0,-0.1,-0.1,-0.2,-0.1c0,-0.1,0,-0.1,0,-0.3c0,-0.1,0.1,-0.2,0.1,-0.2c0.1,0,0.1,0,0.1,0.1c0.1,0,0.1,0,0.1,0.1c0,0,0,0.1,0,0.1c0,0.1,0,0.1,0,0.2Z" class="g3_1" />
<path d="M79.3,14.1c-0.1,0.1,-0.2,0.2,-0.2,0.3c0,0,0.1,0.1,0.1,0.1c0.1,0.1,0.1,0.1,0.2,0.1c0.1,0,0.2,0,0.2,-0.1c0.1,0,0.1,-0.1,0.1,-0.1c0,-0.1,0,-0.2,0,-0.2c-0.1,0,-0.1,-0.1,-0.2,-0.2c0.1,0,0.1,-0.1,0.2,-0.1c0,0,0,-0.1,0,-0.1c0,-0.1,0,-0.1,-0.1,-0.2c0,0,-0.1,0,-0.2,0c-0.1,0,-0.1,0,-0.2,0c0,0.1,0,0.1,0,0.2c0,0,0,0.1,0,0.1c0,0.1,0.1,0.1,0.1,0.2ZM79.5,14L79.3,13.9c0,0,0,-0.1,0,-0.1c0,-0.1,0,-0.2,0.1,-0.2c0.1,0,0.2,0.1,0.2,0.2l0,0.1c0,0,-0.1,0.1,-0.1,0.1Zm-0.1,0.1c0.1,0.1,0.2,0.2,0.2,0.2c0,0,0,0.1,0,0.1c0,0.1,0,0.2,-0.2,0.2c-0.1,0,-0.1,-0.1,-0.1,-0.2c0,-0.1,0,-0.2,0.1,-0.3Z" class="g3_1" />
<path d="M80.5,13.6l-0.4,0L79.9,14c0.1,0,0.2,0,0.2,0c0.2,0.1,0.3,0.2,0.3,0.3c0,0.1,-0.1,0.1,-0.1,0.2c0,0,-0.1,0,-0.2,0l-0.1,0l-0.1,0c0,0.1,0,0.1,0.2,0.1c0,0,0.1,0,0.1,0c0.2,-0.1,0.3,-0.2,0.3,-0.4c0,-0.1,-0.1,-0.1,-0.1,-0.2C80.3,13.9,80.2,13.9,80,13.8l0.1,-0.1l0.3,0Z" class="g3_1" />
<path d="M81.2,13.6l-0.3,0L80.7,14c0.1,0,0.2,0,0.2,0c0.1,0.1,0.2,0.2,0.2,0.3c0,0.1,0,0.1,0,0.2c-0.1,0,-0.1,0,-0.2,0c0,0,-0.1,0,-0.1,0c-0.1,0,-0.1,0,-0.1,0c0,0.1,0,0.1,0.1,0.1c0.1,0,0.1,0,0.2,0c0.1,-0.1,0.2,-0.2,0.2,-0.4c0,-0.1,0,-0.1,-0.1,-0.2C81,13.9,80.9,13.9,80.8,13.8l0.1,-0.1l0.3,0Z" class="g3_1" />
<path d="M82.1,14.2l-0.2,0l0,-0.6l-0.1,0l-0.4,0.6l0,0.1l0.4,0l0,0.3l0.1,0l0,-0.3l0.2,0Zm-0.3,0l-0.4,0l0.4,-0.5Z" class="g3_1" />
<path d="M23.3,15.9l-0.1,0c0,0.1,0,0.1,0,0.1c0,0,-0.1,0,-0.2,0l-0.2,0c0,0,0.1,-0.1,0.2,-0.2c0.1,-0.1,0.1,-0.2,0.2,-0.3c0,0,0,-0.1,0,-0.1c0,-0.1,0,-0.2,-0.1,-0.2c0,-0.1,-0.1,-0.1,-0.2,-0.1c-0.1,0,-0.2,0.1,-0.3,0.3l0.1,0c0,-0.1,0.1,-0.2,0.2,-0.2c0,0,0.1,0,0.1,0.1c0.1,0,0.1,0.1,0.1,0.1c0,0.1,-0.1,0.2,-0.1,0.3c-0.1,0.1,-0.2,0.2,-0.4,0.4l0.6,0Z" class="g3_1" />
<path d="M23.4,15.6c0,0.2,0,0.3,0.1,0.4c0,0.1,0.1,0.1,0.2,0.1C23.9,16.1,24,16,24,15.6c0,-0.2,0,-0.3,-0.1,-0.4c0,-0.1,-0.1,-0.1,-0.2,-0.1c0,0,-0.1,0,-0.1,0c-0.1,0.1,-0.2,0.3,-0.2,0.5Zm0.1,0c0,0,0,-0.1,0,-0.2c0.1,-0.1,0.1,-0.2,0.1,-0.2c0,0,0.1,-0.1,0.1,-0.1c0,0,0.1,0,0.1,0.1l0.1,0.1c0,0.1,0,0.2,0,0.3c0,0.1,0,0.3,0,0.3c-0.1,0.2,-0.1,0.2,-0.2,0.2c0,0,-0.1,0,-0.1,-0.1C23.5,15.9,23.5,15.8,23.5,15.6Z" class="g3_1" />
<path d="M24.3,15.2l0,0l0.1,0l0,0.1l0,0.1l0,0.5c0,0.1,0,0.1,0,0.2l-0.1,0l0.4,0c-0.1,0,-0.1,0,-0.1,0l-0.1,0c0,-0.1,0,-0.1,0,-0.2l0,-0.8Z" class="g3_1" />
<path d="M25.5,15.1l-0.3,0L25,15.5c0.1,0,0.1,0,0.2,0c0.1,0.1,0.2,0.2,0.2,0.3c0,0.1,0,0.2,-0.1,0.2c0,0,-0.1,0.1,-0.1,0.1c-0.1,0,-0.1,0,-0.1,-0.1C25,16,25,16,25,16c0,0,-0.1,0,-0.1,0c0,0.1,0.1,0.1,0.2,0.1c0.1,0,0.1,0,0.2,0c0.1,-0.1,0.2,-0.2,0.2,-0.3c0,-0.1,0,-0.2,-0.1,-0.3C25.3,15.4,25.2,15.4,25.1,15.4l0.1,-0.2l0.3,0Z" class="g3_1" />
<path d="M472.5,987.5l348,0" class="g4_1" />
<path d="M96.5,81.5l724,0" class="g4_1" />
</svg>