<?xml version="1.0" encoding="UTF-8" standalone="no"?>
<!DOCTYPE svg PUBLIC "-//W3C//DTD SVG 1.1//EN"
"http://www.w3.org/Graphics/SVG/1.1/DTD/svg11.dtd">
<svg version="1.1" xmlns="http://www.w3.org/2000/svg" xmlns:xlink="http://www.w3.org/1999/xlink">
<defs>
<clipPath id="c0_4"><path d="M77.5,1135.5l0,-15l59,0l0,15Z" /></clipPath>
<style type="text/css"><![CDATA[
.g2_4{
fill: none;
stroke: #131413;
stroke-width: 1;
stroke-linecap: butt;
stroke-linejoin: miter;
}
.g1_4{
fill: #131413;
}
]]></style>
</defs>
<image x="78" y="82" width="753" height="807" xlink:href="img/1.png" />
<path d="M150.5,100l-0.1,-0.3l-0.1,-0.1l-0.1,0l-5.5,0l-0.5,0.1c-0.1,0.1,-0.2,0.3,-0.2,0.5l0,11.4l0.1,0.2l0.1,0.1l0.3,0c0.1,0,0.2,0,0.4,0c0.1,0,0.3,0,0.4,0l0.2,0l0.1,-0.1l0.1,-0.2l0,-5.1l4.2,0l0.2,0l0.1,-0.2l0,-0.2l0.1,-0.3l-0.1,-0.3l0,-0.2l-0.1,-0.1l-0.2,0l-4.2,0l0,-4.2l4.5,0l0.1,-0.1l0.1,-0.1l0.1,-0.2l0,-0.3l0,-0.3Zm8.8,5.9c0,-0.6,-0.1,-1,-0.2,-1.4c-0.1,-0.4,-0.3,-0.7,-0.6,-1c-0.3,-0.3,-0.6,-0.5,-1.1,-0.6c-0.4,-0.2,-0.9,-0.2,-1.5,-0.2c-0.3,0,-0.7,0,-1,0.1c-0.3,0,-0.6,0.1,-0.9,0.2c-0.3,0.1,-0.5,0.2,-0.7,0.3c-0.2,0.1,-0.4,0.2,-0.5,0.3l-0.1,0.2c0,0.1,-0.1,0.3,-0.1,0.4l0.1,0.3l0,0.2l0.1,0.1l0.2,0c0,0,0.2,0,0.3,-0.1c0.2,-0.1,0.4,-0.2,0.6,-0.3c0.2,-0.1,0.5,-0.2,0.8,-0.3c0.3,-0.1,0.7,-0.2,1,-0.2c0.4,0,0.7,0.1,1,0.2c0.2,0,0.4,0.2,0.6,0.3c0.1,0.2,0.2,0.4,0.3,0.7c0.1,0.2,0.1,0.5,0.1,0.8l0,0.7l-1.2,0c-0.6,0,-1.2,0.1,-1.8,0.2c-0.5,0.1,-1,0.3,-1.3,0.5c-0.4,0.3,-0.7,0.5,-0.9,0.9c-0.2,0.4,-0.3,0.8,-0.3,1.3c0,0.4,0.1,0.7,0.2,1.1c0.2,0.3,0.4,0.6,0.6,0.8c0.3,0.2,0.6,0.4,1,0.5c0.3,0.1,0.7,0.2,1.2,0.2c0.5,0,1,-0.1,1.5,-0.4c0.4,-0.2,0.8,-0.5,1.2,-0.9l0,0.9l0.1,0.1l0.2,0.1c0.1,0,0.2,0,0.4,0c0.2,0,0.3,0,0.4,0l0.2,-0.1l0.1,-0.1l0,-5.8Zm-1.6,3.7c-0.4,0.4,-0.8,0.7,-1.1,0.9c-0.4,0.2,-0.7,0.3,-1.2,0.3c-0.5,0,-0.9,-0.1,-1.1,-0.4c-0.3,-0.2,-0.5,-0.6,-0.5,-1c0,-0.3,0.1,-0.5,0.2,-0.7c0.1,-0.2,0.2,-0.4,0.4,-0.5c0.3,-0.2,0.5,-0.3,0.8,-0.3c0.4,-0.1,0.7,-0.2,1.2,-0.2l1.3,0l0,1.9Zm8.9,1.1l-0.1,-0.1l0,-0.1l-0.1,-0.1l-0.2,0.1l-0.2,0.1l-0.3,0.1l-0.4,0c-0.5,0,-0.8,-0.1,-1,-0.4c-0.1,-0.3,-0.2,-0.8,-0.2,-1.4l0,-4.8l2.2,0l0.2,-0.1c0.1,-0.1,0.1,-0.3,0.1,-0.5l0,-0.3L166.5,103l-0.1,-0.1l-0.1,-0.1l-2.2,0l0,-2L164,100.7l-0.1,-0.1l-0.2,-0.1c-0.1,0,-0.3,0,-0.4,0c-0.2,0,-0.3,0,-0.4,0l-0.2,0.1l-0.2,0.1l0,0.1l0,2l-1.2,0l-0.1,0.1l-0.1,0.1l-0.1,0.2l0,0.3c0,0.2,0,0.4,0.1,0.5l0.2,0.1l1.2,0l0,5c0,0.5,0.1,1,0.1,1.3c0.1,0.4,0.3,0.7,0.5,0.9c0.2,0.3,0.5,0.5,0.8,0.6c0.3,0.1,0.7,0.1,1.1,0.1l0.4,0l0.5,-0.1l0.3,-0.1l0.2,-0.1l0.2,-0.2c0,-0.2,0,-0.3,0,-0.5l0,-0.3Zm9.4,-4.3c0,-0.6,0,-1.1,-0.1,-1.5c-0.1,-0.5,-0.3,-0.9,-0.5,-1.2c-0.3,-0.3,-0.6,-0.6,-1,-0.8c-0.4,-0.1,-0.9,-0.2,-1.4,-0.2c-0.5,0,-1,0.1,-1.4,0.3c-0.5,0.2,-0.9,0.6,-1.4,1.1l0,-5.2l0,-0.1l-0.1,-0.1l-0.3,0c-0.1,-0.1,-0.2,-0.1,-0.4,-0.1c-0.1,0,-0.2,0,-0.3,0.1l-0.3,0l-0.1,0.1l0,0.1l0,12.7l0,0.2l0.1,0.1l0.3,0c0.1,0,0.2,0,0.3,0c0.2,0,0.3,0,0.4,0l0.3,0l0.1,-0.1l0,-0.2l0,-5.9c0.5,-0.6,0.9,-1,1.3,-1.3c0.4,-0.2,0.8,-0.4,1.1,-0.4c0.4,0,0.6,0.1,0.9,0.2c0.2,0.1,0.4,0.3,0.5,0.5c0.2,0.2,0.3,0.5,0.3,0.8c0.1,0.3,0.2,0.6,0.2,1.1l0,5l0,0.2l0.1,0.1l0.3,0c0.1,0,0.2,0,0.4,0c0.1,0,0.2,0,0.3,0l0.3,0l0.1,-0.1l0,-0.2l0,-5.2Zm10.2,0.3c0,-0.5,-0.1,-1.1,-0.2,-1.6c-0.2,-0.5,-0.4,-0.9,-0.7,-1.2c-0.3,-0.4,-0.7,-0.7,-1.2,-0.9c-0.4,-0.2,-1,-0.3,-1.7,-0.3c-0.6,0,-1.2,0.1,-1.7,0.3c-0.5,0.2,-0.9,0.5,-1.3,0.9c-0.3,0.4,-0.6,0.9,-0.8,1.5c-0.2,0.6,-0.3,1.3,-0.3,2c0,0.8,0.1,1.5,0.3,2c0.2,0.6,0.5,1.1,0.8,1.5c0.4,0.4,0.8,0.7,1.4,0.9c0.5,0.2,1.1,0.3,1.8,0.3c0.4,0,0.8,-0.1,1.1,-0.1c0.4,-0.1,0.7,-0.2,1,-0.2c0.3,-0.1,0.5,-0.2,0.7,-0.3c0.1,0,0.2,-0.1,0.3,-0.1l0.1,-0.1l0,-0.2l0,-0.1l0,-0.2l0,-0.3l0,-0.2l-0.1,-0.1l-0.1,-0.1c-0.1,0,-0.2,0.1,-0.4,0.1c-0.1,0.1,-0.3,0.2,-0.5,0.3c-0.3,0,-0.5,0.1,-0.9,0.2c-0.3,0.1,-0.6,0.1,-1.1,0.1c-0.5,0,-0.9,-0.1,-1.3,-0.2c-0.3,-0.2,-0.6,-0.4,-0.8,-0.7c-0.3,-0.2,-0.4,-0.6,-0.5,-0.9c-0.1,-0.4,-0.2,-0.8,-0.2,-1.3l5.7,0c0.1,0,0.3,-0.1,0.4,-0.2c0.1,-0.1,0.2,-0.3,0.2,-0.5l0,-0.3Zm-6.3,-0.2c0.1,-0.3,0.1,-0.7,0.2,-1c0.1,-0.3,0.3,-0.6,0.5,-0.8c0.2,-0.3,0.4,-0.4,0.7,-0.6c0.3,-0.1,0.7,-0.2,1,-0.2c0.8,0,1.4,0.2,1.8,0.7c0.4,0.5,0.5,1.1,0.5,1.9l-4.7,0Zm13.7,-3.2l0,-0.2L193.5,103l0,-0.1l-0.2,-0.1l-0.4,-0.1l-0.3,0l-0.3,0c-0.1,0,-0.3,0,-0.5,0c-0.2,0.1,-0.4,0.2,-0.6,0.3c-0.1,0.1,-0.3,0.3,-0.5,0.5c-0.2,0.2,-0.5,0.5,-0.7,0.8l0,-1.2l0,-0.1l-0.1,-0.1l-0.3,-0.1l-0.3,0l-0.4,0l-0.2,0.1l-0.1,0.1l0,0.1l0,8.5l0,0.2l0.1,0.1l0.3,0c0.1,0,0.2,0,0.4,0c0.1,0,0.3,0,0.4,0l0.2,0l0.1,-0.1l0.1,-0.2l0,-5.6c0.2,-0.3,0.4,-0.6,0.6,-0.9c0.1,-0.2,0.3,-0.4,0.5,-0.5c0.2,-0.2,0.3,-0.3,0.5,-0.4c0.1,0,0.3,-0.1,0.4,-0.1l0.4,0.1c0.8,0.1,1,0.6,1,-0.6l0,-0.3Zm9.1,3.1c0,-0.6,0,-1.1,-0.1,-1.5c-0.1,-0.5,-0.3,-0.9,-0.5,-1.2c-0.3,-0.3,-0.6,-0.6,-1,-0.8c-0.4,-0.1,-0.8,-0.2,-1.4,-0.2c-0.5,0,-0.9,0.1,-1.4,0.3c-0.5,0.2,-0.9,0.6,-1.4,1.1l0,-5.2l0,-0.1l-0.1,-0.1l-0.3,0c-0.1,-0.1,-0.2,-0.1,-0.3,-0.1c-0.2,0,-0.3,0,-0.4,0.1l-0.3,0l-0.1,0.1l0,0.1l0,12.7l0,0.2l0.1,0.1l0.3,0c0.1,0,0.2,0,0.4,0c0.1,0,0.2,0,0.3,0l0.3,0l0.1,-0.1l0,-0.2l0,-5.9c0.5,-0.6,0.9,-1,1.3,-1.3c0.4,-0.2,0.8,-0.4,1.2,-0.4c0.3,0,0.5,0.1,0.8,0.2c0.2,0.1,0.4,0.3,0.5,0.5c0.2,0.2,0.3,0.5,0.4,0.8c0,0.3,0.1,0.6,0.1,1.1l0,5l0,0.2l0.1,0.1l0.3,0c0.1,0,0.2,0,0.4,0c0.1,0,0.2,0,0.3,0l0.3,0l0.1,-0.1l0,-0.2l0,-5.2Zm10.6,-1.1c-0.2,-0.5,-0.4,-1,-0.8,-1.4c-0.3,-0.4,-0.8,-0.7,-1.3,-0.9c-0.5,-0.2,-1.1,-0.3,-1.8,-0.3c-0.8,0,-1.4,0.1,-1.9,0.3c-0.6,0.2,-1,0.6,-1.4,1c-0.4,0.4,-0.6,0.9,-0.8,1.5c-0.2,0.6,-0.3,1.2,-0.3,1.9c0,0.8,0.1,1.4,0.3,2c0.1,0.6,0.4,1,0.7,1.4c0.4,0.4,0.8,0.7,1.3,0.9c0.6,0.3,1.2,0.4,1.9,0.4c0.7,0,1.3,-0.2,1.9,-0.4c0.5,-0.2,1,-0.6,1.4,-1c0.3,-0.4,0.6,-0.9,0.8,-1.5c0.2,-0.6,0.3,-1.2,0.3,-1.9c0,-0.7,-0.1,-1.4,-0.3,-2Zm-1.5,3.4c-0.1,0.4,-0.3,0.8,-0.5,1.1c-0.2,0.3,-0.5,0.5,-0.8,0.7c-0.4,0.2,-0.8,0.2,-1.2,0.2c-0.5,0,-1,0,-1.3,-0.2c-0.3,-0.2,-0.6,-0.5,-0.8,-0.8c-0.2,-0.3,-0.4,-0.6,-0.4,-1c-0.1,-0.5,-0.2,-0.9,-0.2,-1.4c0,-0.5,0.1,-0.9,0.2,-1.3c0.1,-0.4,0.3,-0.8,0.5,-1.1c0.2,-0.3,0.5,-0.5,0.8,-0.7c0.3,-0.1,0.7,-0.2,1.2,-0.2c0.5,0,0.9,0.1,1.3,0.2c0.3,0.2,0.6,0.5,0.8,0.8c0.2,0.3,0.3,0.7,0.4,1.1c0.1,0.4,0.1,0.8,0.1,1.3c0,0.5,0,0.9,-0.1,1.3Zm11.8,-3.4c-0.2,-0.5,-0.5,-1,-0.8,-1.4c-0.4,-0.4,-0.8,-0.7,-1.3,-0.9c-0.5,-0.2,-1.2,-0.3,-1.9,-0.3c-0.7,0,-1.3,0.1,-1.9,0.3c-0.5,0.2,-1,0.6,-1.3,1c-0.4,0.4,-0.7,0.9,-0.9,1.5c-0.1,0.6,-0.2,1.2,-0.2,1.9c0,0.8,0.1,1.4,0.2,2c0.2,0.6,0.5,1,0.8,1.4c0.4,0.4,0.8,0.7,1.3,0.9c0.5,0.3,1.2,0.4,1.9,0.4c0.7,0,1.3,-0.2,1.9,-0.4c0.5,-0.2,1,-0.6,1.3,-1c0.4,-0.4,0.7,-0.9,0.9,-1.5c0.1,-0.6,0.2,-1.2,0.2,-1.9c0,-0.7,-0.1,-1.4,-0.2,-2Zm-1.5,3.4c-0.2,0.4,-0.3,0.8,-0.5,1.1c-0.2,0.3,-0.5,0.5,-0.9,0.7c-0.3,0.2,-0.7,0.2,-1.2,0.2c-0.5,0,-0.9,0,-1.2,-0.2c-0.4,-0.2,-0.6,-0.5,-0.8,-0.8c-0.2,-0.3,-0.4,-0.6,-0.5,-1c-0.1,-0.5,-0.1,-0.9,-0.1,-1.4c0,-0.5,0.1,-0.9,0.2,-1.3c0.1,-0.4,0.2,-0.8,0.4,-1.1c0.3,-0.3,0.5,-0.5,0.9,-0.7c0.3,-0.1,0.7,-0.2,1.2,-0.2c0.5,0,0.9,0.1,1.2,0.2c0.4,0.2,0.6,0.5,0.8,0.8c0.2,0.3,0.4,0.7,0.5,1.1c0.1,0.4,0.1,0.8,0.1,1.3c0,0.5,0,0.9,-0.1,1.3ZM233.5,99l-0.1,-0.1l-0.1,-0.1l-0.2,-0.1c-0.1,0,-0.3,0,-0.4,0c-0.2,0,-0.3,0,-0.4,0l-0.2,0.1l-0.2,0.1l0,0.1l0,5c-0.4,-0.5,-0.8,-0.8,-1.2,-1c-0.5,-0.2,-0.9,-0.3,-1.4,-0.3c-0.6,0,-1.1,0.1,-1.6,0.3c-0.5,0.2,-0.9,0.5,-1.2,1c-0.3,0.4,-0.5,0.9,-0.7,1.5c-0.1,0.6,-0.2,1.2,-0.2,2c0,0.6,0.1,1.2,0.2,1.7c0.1,0.6,0.3,1.1,0.6,1.5c0.3,0.4,0.6,0.8,1.1,1c0.4,0.2,0.9,0.4,1.6,0.4c0.6,0,1.1,-0.2,1.6,-0.4c0.5,-0.3,0.9,-0.7,1.4,-1.2l0,1.1l0,0.2l0.1,0.1l0.3,0l0.3,0l0.3,0l0.2,0l0.1,-0.1l0.1,-0.2l0,-12.6Zm-1.6,10c-0.3,0.4,-0.5,0.6,-0.7,0.8c-0.2,0.2,-0.4,0.4,-0.6,0.6c-0.3,0.1,-0.4,0.2,-0.6,0.2c-0.2,0.1,-0.4,0.1,-0.6,0.1c-0.5,0,-0.8,-0.1,-1.1,-0.3c-0.2,-0.2,-0.5,-0.4,-0.6,-0.7c-0.2,-0.4,-0.3,-0.7,-0.4,-1.1c0,-0.4,-0.1,-0.9,-0.1,-1.3c0,-0.4,0.1,-0.8,0.1,-1.2c0.1,-0.4,0.2,-0.7,0.4,-1.1c0.2,-0.3,0.4,-0.5,0.7,-0.7c0.3,-0.2,0.6,-0.3,1,-0.3c0.5,0,0.9,0.1,1.3,0.4c0.4,0.3,0.8,0.7,1.2,1.2l0,3.4ZM246,108.4c-0.2,-0.3,-0.3,-0.5,-0.5,-0.7c-0.2,-0.2,-0.5,-0.4,-0.7,-0.5c-0.3,-0.1,-0.6,-0.3,-0.8,-0.4c-0.3,-0.1,-0.6,-0.2,-0.8,-0.3c-0.3,-0.1,-0.5,-0.2,-0.7,-0.3c-0.2,-0.1,-0.4,-0.3,-0.5,-0.5c-0.1,-0.1,-0.2,-0.3,-0.2,-0.6c0,-0.2,0,-0.3,0.1,-0.5c0.1,-0.1,0.2,-0.3,0.3,-0.4c0.1,-0.1,0.3,-0.2,0.5,-0.2c0.2,-0.1,0.4,-0.1,0.7,-0.1c0.3,0,0.6,0,0.8,0.1c0.2,0.1,0.4,0.1,0.6,0.2c0.2,0.1,0.3,0.2,0.4,0.2l0.3,0.1l0.1,0l0,-0.1l0.1,-0.2l0,-0.3l0,-0.2l0,-0.2l-0.1,-0.1l-0.1,-0.2L245.2,103c-0.1,0,-0.3,-0.1,-0.5,-0.1c-0.2,-0.1,-0.4,-0.1,-0.6,-0.2c-0.2,0,-0.5,0,-0.7,0c-0.5,0,-1,0,-1.3,0.2c-0.4,0.1,-0.8,0.3,-1,0.5c-0.3,0.3,-0.5,0.5,-0.6,0.8c-0.1,0.3,-0.2,0.7,-0.2,1c0,0.4,0.1,0.7,0.2,1c0.1,0.3,0.3,0.5,0.5,0.7c0.2,0.2,0.4,0.3,0.7,0.5c0.2,0.1,0.5,0.2,0.8,0.3c0.2,0.2,0.5,0.3,0.7,0.4c0.3,0.1,0.5,0.2,0.7,0.3c0.2,0.1,0.4,0.3,0.5,0.4c0.1,0.2,0.2,0.4,0.2,0.6c0,0.3,0,0.5,-0.1,0.6c-0.1,0.2,-0.2,0.4,-0.4,0.5c-0.2,0.1,-0.3,0.2,-0.6,0.2c-0.2,0.1,-0.4,0.1,-0.7,0.1c-0.3,0,-0.7,0,-0.9,-0.1c-0.3,-0.1,-0.5,-0.2,-0.7,-0.3c-0.2,-0.1,-0.4,-0.2,-0.5,-0.3L240.4,110l-0.2,0l0,0.1l-0.1,0.2l0,0.3c0,0.2,0,0.4,0,0.5l0.2,0.3c0.1,0,0.2,0.1,0.3,0.2c0.2,0.1,0.4,0.1,0.6,0.2c0.2,0.1,0.4,0.1,0.7,0.2c0.3,0,0.6,0.1,0.9,0.1c0.5,0,0.9,-0.1,1.3,-0.2c0.5,-0.1,0.8,-0.3,1.1,-0.5c0.3,-0.3,0.5,-0.6,0.7,-0.9c0.2,-0.4,0.2,-0.7,0.2,-1.2c0,-0.4,0,-0.7,-0.1,-0.9Zm6.8,2.3l0,-0.1l-0.1,-0.1l-0.1,-0.1l-0.2,0.1l-0.2,0.1l-0.3,0.1l-0.4,0c-0.4,0,-0.7,-0.1,-0.9,-0.4c-0.2,-0.3,-0.3,-0.8,-0.3,-1.4l0,-4.8l2.2,0l0.3,-0.1c0,-0.1,0,-0.3,0,-0.5l0,-0.3l0,-0.2l-0.1,-0.1l-0.2,-0.1l-2.2,0l0,-2l0,-0.1l-0.1,-0.1l-0.3,-0.1c-0.1,0,-0.2,0,-0.4,0c-0.1,0,-0.2,0,-0.3,0l-0.3,0.1l-0.1,0.1l0,0.1l0,2l-1.2,0l-0.2,0.1l-0.1,0.1l0,0.2l-0.1,0.3c0,0.2,0.1,0.4,0.1,0.5l0.3,0.1l1.2,0l0,5c0,0.5,0,1,0.1,1.3c0.1,0.4,0.2,0.7,0.4,0.9c0.2,0.3,0.5,0.5,0.8,0.6c0.3,0.1,0.7,0.1,1.2,0.1l0.4,0l0.4,-0.1l0.4,-0.1l0.2,-0.1l0.1,-0.2c0,-0.2,0,-0.3,0,-0.5l0,-0.3Zm8.6,-4.8c0,-0.6,-0.1,-1,-0.2,-1.4c-0.1,-0.4,-0.3,-0.7,-0.6,-1c-0.3,-0.3,-0.6,-0.5,-1,-0.6c-0.5,-0.2,-1,-0.2,-1.6,-0.2c-0.3,0,-0.7,0,-1,0.1c-0.3,0,-0.6,0.1,-0.9,0.2c-0.3,0.1,-0.5,0.2,-0.7,0.3c-0.2,0.1,-0.4,0.2,-0.5,0.3l-0.1,0.2c0,0.1,0,0.3,0,0.4l0,0.3l0,0.2l0.1,0.1l0.2,0c0,0,0.2,0,0.3,-0.1c0.2,-0.1,0.4,-0.2,0.6,-0.3c0.2,-0.1,0.5,-0.2,0.8,-0.3c0.3,-0.1,0.7,-0.2,1,-0.2c0.4,0,0.7,0.1,1,0.2c0.2,0,0.4,0.2,0.6,0.3c0.1,0.2,0.2,0.4,0.3,0.7c0.1,0.2,0.1,0.5,0.1,0.8l0,0.7l-1.2,0c-0.6,0,-1.2,0.1,-1.8,0.2c-0.5,0.1,-1,0.3,-1.3,0.5c-0.4,0.3,-0.7,0.5,-0.9,0.9c-0.2,0.4,-0.3,0.8,-0.3,1.3c0,0.4,0.1,0.7,0.2,1.1c0.2,0.3,0.4,0.6,0.6,0.8c0.3,0.2,0.6,0.4,1,0.5c0.3,0.1,0.8,0.2,1.2,0.2c0.5,0,1,-0.1,1.5,-0.4c0.4,-0.2,0.8,-0.5,1.2,-0.9l0,0.9l0.1,0.1l0.2,0.1c0.1,0,0.2,0,0.4,0c0.2,0,0.3,0,0.4,0l0.2,-0.1l0.1,-0.1l0,-5.8Zm-1.6,3.7c-0.4,0.4,-0.8,0.7,-1.1,0.9c-0.4,0.2,-0.7,0.3,-1.2,0.3c-0.5,0,-0.9,-0.1,-1.1,-0.4c-0.3,-0.2,-0.5,-0.6,-0.5,-1c0,-0.3,0.1,-0.5,0.2,-0.7c0.1,-0.2,0.2,-0.4,0.4,-0.5c0.3,-0.2,0.5,-0.3,0.8,-0.3c0.4,-0.1,0.7,-0.2,1.2,-0.2l1.3,0l0,1.9Zm8.9,1.1l-0.1,-0.1l0,-0.1l-0.1,-0.1l-0.2,0.1l-0.2,0.1l-0.3,0.1l-0.4,0c-0.5,0,-0.8,-0.1,-1,-0.4c-0.1,-0.3,-0.2,-0.8,-0.2,-1.4l0,-4.8l2.2,0l0.2,-0.1c0.1,-0.1,0.1,-0.3,0.1,-0.5l0,-0.3L268.6,103l-0.1,-0.1l-0.1,-0.1l-2.2,0l0,-2l-0.1,-0.1L266,100.6l-0.2,-0.1c-0.1,0,-0.2,0,-0.4,0c-0.2,0,-0.3,0,-0.4,0l-0.2,0.1l-0.2,0.1l0,0.1l0,2l-1.2,0l-0.1,0.1l-0.1,0.1l-0.1,0.2l0,0.3c0,0.2,0,0.4,0.1,0.5l0.2,0.1l1.2,0l0,5c0,0.5,0.1,1,0.2,1.3c0,0.4,0.2,0.7,0.4,0.9c0.2,0.3,0.5,0.5,0.8,0.6c0.3,0.1,0.7,0.1,1.1,0.1l0.5,0l0.4,-0.1l0.3,-0.1l0.2,-0.1l0.2,-0.2c0,-0.2,0,-0.3,0,-0.5l0,-0.3Zm9.4,-7.6l0,-0.1l-0.2,-0.1l-0.2,-0.1c-0.1,0,-0.2,0,-0.4,0c-0.2,0,-0.3,0,-0.4,0l-0.2,0.1l-0.1,0.1l-0.1,0.1l0,6c-0.4,0.5,-0.8,0.9,-1.2,1.2c-0.4,0.3,-0.8,0.4,-1.2,0.4c-0.3,0,-0.6,0,-0.8,-0.2c-0.2,-0.1,-0.4,-0.2,-0.6,-0.5c-0.1,-0.2,-0.2,-0.4,-0.3,-0.7c-0.1,-0.3,-0.1,-0.7,-0.1,-1.2l0,-5l0,-0.1l-0.2,-0.1l-0.2,-0.1c-0.1,0,-0.2,0,-0.4,0c-0.1,0,-0.3,0,-0.4,0l-0.2,0.1l-0.1,0.1l-0.1,0.1l0,5.2c0,0.6,0.1,1.1,0.2,1.6c0.1,0.4,0.2,0.8,0.5,1.1c0.2,0.3,0.5,0.6,0.9,0.8c0.4,0.2,0.9,0.3,1.5,0.3c0.5,0,0.9,-0.2,1.4,-0.4c0.5,-0.3,1,-0.6,1.5,-1.2l0,1.1l0,0.2l0.1,0.1l0.2,0l0.4,0l0.3,0l0.2,0l0.2,-0.1l0,-0.2l0,-8.5Zm8.1,5.3c-0.1,-0.3,-0.3,-0.5,-0.5,-0.7c-0.2,-0.2,-0.4,-0.4,-0.7,-0.5c-0.3,-0.1,-0.5,-0.3,-0.8,-0.4c-0.3,-0.1,-0.5,-0.2,-0.8,-0.3c-0.3,-0.1,-0.5,-0.2,-0.7,-0.3c-0.2,-0.1,-0.4,-0.3,-0.5,-0.5c-0.1,-0.1,-0.2,-0.3,-0.2,-0.6c0,-0.2,0.1,-0.3,0.1,-0.5c0.1,-0.1,0.2,-0.3,0.3,-0.4c0.1,-0.1,0.3,-0.2,0.5,-0.2c0.2,-0.1,0.5,-0.1,0.7,-0.1c0.3,0,0.6,0,0.8,0.1c0.2,0.1,0.4,0.1,0.6,0.2c0.2,0.1,0.3,0.2,0.4,0.2l0.3,0.1l0.1,0l0.1,-0.1l0,-0.2l0,-0.3l0,-0.2l0,-0.2l-0.1,-0.1l-0.1,-0.2L285.4,103c-0.1,0,-0.3,-0.1,-0.5,-0.1c-0.1,-0.1,-0.3,-0.1,-0.6,-0.2c-0.2,0,-0.4,0,-0.7,0c-0.5,0,-0.9,0,-1.3,0.2c-0.4,0.1,-0.7,0.3,-1,0.5c-0.3,0.3,-0.5,0.5,-0.6,0.8c-0.1,0.3,-0.2,0.7,-0.2,1c0,0.4,0.1,0.7,0.2,1c0.1,0.3,0.3,0.5,0.5,0.7c0.2,0.2,0.4,0.3,0.7,0.5c0.2,0.1,0.5,0.2,0.8,0.3c0.2,0.2,0.5,0.3,0.8,0.4c0.2,0.1,0.4,0.2,0.6,0.3c0.2,0.1,0.4,0.3,0.5,0.4c0.2,0.2,0.2,0.4,0.2,0.6c0,0.3,0,0.5,-0.1,0.6c-0.1,0.2,-0.2,0.4,-0.4,0.5c-0.1,0.1,-0.3,0.2,-0.5,0.2c-0.3,0.1,-0.5,0.1,-0.8,0.1c-0.3,0,-0.6,0,-0.9,-0.1c-0.3,-0.1,-0.5,-0.2,-0.7,-0.3c-0.2,-0.1,-0.4,-0.2,-0.5,-0.3L280.6,110l-0.1,0l-0.1,0.1l-0.1,0.2l0,0.3c0,0.2,0,0.4,0.1,0.5l0.1,0.3c0.1,0,0.2,0.1,0.3,0.2c0.2,0.1,0.4,0.1,0.6,0.2c0.2,0.1,0.5,0.1,0.7,0.2c0.3,0,0.6,0.1,0.9,0.1c0.5,0,1,-0.1,1.4,-0.2c0.4,-0.1,0.7,-0.3,1,-0.5c0.3,-0.3,0.6,-0.6,0.7,-0.9c0.2,-0.4,0.3,-0.7,0.3,-1.2c0,-0.4,-0.1,-0.7,-0.2,-0.9Z" class="g1_4" />
<path d="M538.9,111.2l-0.1,-0.3l-0.1,-0.1l-0.1,0l-4.9,0l0,-4.4l4.1,0l0.2,0l0.1,-0.2l0,-0.2l0.1,-0.3l-0.1,-0.3l0,-0.2L538,105.1l-0.2,0l-4.1,0l0,-3.9l4.8,0l0.2,0l0.1,-0.2l0,-0.2l0,-0.3l0,-0.3l0,-0.2l-0.1,-0.1l-0.2,-0.1l-5.8,0l-0.4,0.2c-0.2,0.1,-0.2,0.3,-0.2,0.5l0,11c0,0.2,0,0.4,0.2,0.5l0.4,0.1l5.9,0l0.1,0l0.1,-0.1l0.1,-0.2l0,-0.3l0,-0.3Zm4.3,-7.8l-0.1,-0.2L543,103.1l-0.3,0c-0.1,0,-0.2,0,-0.3,0c-0.2,0,-0.3,0,-0.4,0l-0.3,0l-0.1,0.1l0,0.2l0,8.9c0,0.4,-0.1,0.8,-0.1,1c0,0.2,-0.1,0.4,-0.2,0.6c-0.1,0.1,-0.2,0.2,-0.4,0.3c-0.1,0,-0.3,0.1,-0.5,0.1l-0.4,0l-0.2,-0.1l-0.1,0.1l-0.1,0.1l-0.1,0.2l0,0.3l0,0.2l0.1,0.1l0,0.2l0.2,0.1l0.3,0.1c0.2,0,0.3,0,0.5,0c0.5,0,0.9,-0.1,1.2,-0.2c0.3,-0.1,0.6,-0.3,0.8,-0.6c0.2,-0.3,0.3,-0.6,0.4,-1c0.1,-0.4,0.2,-0.9,0.2,-1.5l0,-8.9Zm-0.1,-3.7c-0.1,-0.1,-0.4,-0.2,-0.7,-0.2c-0.4,0,-0.7,0.1,-0.8,0.2c-0.1,0.2,-0.2,0.4,-0.2,0.8c0,0.3,0.1,0.6,0.2,0.7c0.1,0.1,0.4,0.2,0.8,0.2c0.3,0,0.6,-0.1,0.7,-0.2c0.2,-0.1,0.2,-0.4,0.2,-0.7c0,-0.4,0,-0.6,-0.2,-0.8Zm9.4,6.4c0,-0.5,-0.1,-1,-0.2,-1.3c-0.1,-0.4,-0.3,-0.8,-0.6,-1.1c-0.2,-0.2,-0.6,-0.4,-1,-0.6c-0.4,-0.1,-1,-0.2,-1.6,-0.2c-0.3,0,-0.6,0.1,-0.9,0.1c-0.4,0.1,-0.7,0.2,-0.9,0.2c-0.3,0.1,-0.6,0.2,-0.8,0.3c-0.2,0.2,-0.3,0.3,-0.4,0.3l-0.2,0.3c0,0.1,0,0.2,0,0.4l0,0.2l0.1,0.2l0.1,0.1l0.1,0.1c0.1,0,0.2,-0.1,0.4,-0.2c0.1,0,0.3,-0.1,0.5,-0.3c0.3,-0.1,0.5,-0.2,0.8,-0.3c0.4,-0.1,0.7,-0.1,1.1,-0.1c0.3,0,0.7,0,0.9,0.1c0.2,0.1,0.4,0.2,0.6,0.4c0.2,0.2,0.3,0.4,0.3,0.6c0.1,0.3,0.1,0.6,0.1,0.9l0,0.7l-1.1,0c-0.7,0,-1.3,0,-1.8,0.2c-0.6,0.1,-1,0.2,-1.4,0.5c-0.3,0.2,-0.6,0.5,-0.8,0.9c-0.2,0.3,-0.3,0.7,-0.3,1.2c0,0.4,0.1,0.8,0.2,1.1c0.1,0.4,0.3,0.6,0.6,0.8c0.3,0.3,0.6,0.4,0.9,0.6c0.4,0.1,0.8,0.1,1.2,0.1c0.6,0,1,-0.1,1.5,-0.3c0.5,-0.2,0.9,-0.5,1.3,-0.9l0,0.8l0,0.2l0.2,0.1c0.1,0,0.3,0,0.4,0c0.2,0,0.3,0,0.4,0l0.2,-0.1l0.1,-0.2l0,-5.8Zm-1.6,3.7c-0.3,0.5,-0.7,0.8,-1.1,1c-0.3,0.2,-0.7,0.3,-1.1,0.3c-0.5,0,-0.9,-0.1,-1.2,-0.4c-0.3,-0.3,-0.4,-0.6,-0.4,-1.1c0,-0.2,0,-0.4,0.1,-0.6c0.1,-0.2,0.3,-0.4,0.5,-0.6c0.2,-0.1,0.5,-0.2,0.8,-0.3c0.3,-0.1,0.7,-0.1,1.1,-0.1l1.3,0l0,1.8Zm10.6,0.5l0,-0.2l-0.1,-0.2l-0.1,0l-0.3,0.2c-0.2,0.1,-0.3,0.2,-0.5,0.3c-0.2,0.2,-0.5,0.3,-0.7,0.4c-0.3,0.1,-0.6,0.2,-1,0.2c-0.4,0,-0.7,-0.1,-1,-0.2c-0.3,-0.2,-0.6,-0.4,-0.8,-0.7c-0.2,-0.2,-0.3,-0.6,-0.4,-1c-0.1,-0.4,-0.2,-0.9,-0.2,-1.4c0,-1.2,0.2,-2,0.6,-2.6c0.4,-0.6,1,-0.8,1.8,-0.8c0.3,0,0.6,0,0.9,0.1c0.3,0.1,0.5,0.2,0.7,0.4c0.2,0.1,0.4,0.2,0.5,0.3l0.3,0.2l0.2,-0.2c0.1,-0.1,0.1,-0.3,0.1,-0.5l0,-0.3l0,-0.2L561.4,104l-0.2,-0.2c-0.1,-0.1,-0.2,-0.2,-0.3,-0.3c-0.2,-0.1,-0.4,-0.2,-0.6,-0.3c-0.2,-0.1,-0.5,-0.1,-0.7,-0.2c-0.3,0,-0.5,-0.1,-0.8,-0.1c-0.6,0,-1.1,0.1,-1.6,0.3c-0.5,0.2,-0.9,0.5,-1.3,0.9c-0.3,0.4,-0.6,0.9,-0.8,1.5c-0.2,0.6,-0.3,1.3,-0.3,2.1c0,0.8,0.1,1.4,0.2,2c0.2,0.6,0.5,1,0.8,1.4c0.3,0.4,0.7,0.7,1.2,0.9c0.4,0.2,1,0.3,1.6,0.3c0.3,0,0.6,0,0.9,-0.1c0.2,0,0.5,-0.1,0.7,-0.2c0.3,-0.1,0.5,-0.2,0.7,-0.3c0.2,-0.1,0.3,-0.2,0.4,-0.3l0.1,-0.2l0.1,-0.1l0,-0.2l0,-0.3l0,-0.3Zm9.5,-6.9l-0.1,-0.2l-0.1,-0.1l-0.3,0c-0.1,0,-0.2,0,-0.3,0c-0.2,0,-0.3,0,-0.4,0l-0.3,0l-0.1,0.1l0,0.2l0,5.9c-0.5,0.6,-0.9,1,-1.3,1.3c-0.4,0.2,-0.7,0.4,-1.1,0.4c-0.3,0,-0.6,-0.1,-0.8,-0.2c-0.3,-0.1,-0.5,-0.3,-0.6,-0.5c-0.2,-0.2,-0.3,-0.5,-0.3,-0.8c-0.1,-0.3,-0.1,-0.7,-0.1,-1.2l0,-4.9l-0.1,-0.2L565,103.1l-0.3,0c-0.1,0,-0.2,0,-0.3,0c-0.2,0,-0.3,0,-0.4,0l-0.3,0l-0.1,0.1l0,0.2l0,5.1c0,0.7,0,1.2,0.1,1.6c0.1,0.5,0.3,0.8,0.5,1.2c0.3,0.3,0.6,0.6,1,0.7c0.4,0.2,0.9,0.3,1.4,0.3c0.5,0,1,-0.1,1.5,-0.3c0.5,-0.3,0.9,-0.7,1.4,-1.2l0,1.1l0.1,0.1l0.1,0.1l0.2,0.1l0.3,0l0.4,0l0.2,-0.1l0.1,-0.1l0.1,-0.1l0,-8.5Zm4.4,-4.2l0,-0.1L575.3,99L575,98.9c-0.1,0,-0.2,0,-0.4,0c-0.1,0,-0.2,0,-0.3,0L574,99l-0.1,0.1l0,0.1l0,12.7l0,0.1l0.1,0.1l0.3,0.1c0.1,0,0.2,0,0.3,0c0.2,0,0.3,0,0.4,0l0.3,-0.1l0.1,-0.1l0,-0.1l0,-12.7Zm9.4,6.9c0,-0.5,-0.1,-1,-0.2,-1.3c-0.1,-0.4,-0.3,-0.8,-0.6,-1.1c-0.3,-0.2,-0.6,-0.4,-1,-0.6c-0.5,-0.1,-1,-0.2,-1.6,-0.2c-0.3,0,-0.7,0.1,-1,0.1c-0.3,0.1,-0.6,0.2,-0.9,0.2c-0.3,0.1,-0.5,0.2,-0.7,0.3c-0.2,0.2,-0.4,0.3,-0.4,0.3l-0.2,0.3c0,0.1,0,0.2,0,0.4l0,0.2l0,0.2l0.1,0.1l0.2,0.1c0.1,0,0.2,-0.1,0.3,-0.2c0.2,0,0.4,-0.1,0.6,-0.3c0.2,-0.1,0.5,-0.2,0.8,-0.3c0.3,-0.1,0.7,-0.1,1.1,-0.1c0.3,0,0.6,0,0.9,0.1c0.2,0.1,0.4,0.2,0.6,0.4c0.1,0.2,0.2,0.4,0.3,0.6c0.1,0.3,0.1,0.6,0.1,0.9l0,0.7l-1.2,0c-0.6,0,-1.2,0,-1.8,0.2c-0.5,0.1,-0.9,0.2,-1.3,0.5c-0.4,0.2,-0.7,0.5,-0.9,0.9c-0.2,0.3,-0.3,0.7,-0.3,1.2c0,0.4,0.1,0.8,0.3,1.1c0.1,0.4,0.3,0.6,0.6,0.8c0.2,0.3,0.5,0.4,0.9,0.6c0.4,0.1,0.8,0.1,1.2,0.1c0.5,0,1,-0.1,1.5,-0.3c0.4,-0.2,0.8,-0.5,1.2,-0.9l0,0.8l0.1,0.2l0.2,0.1c0.1,0,0.2,0,0.4,0c0.2,0,0.3,0,0.4,0l0.2,-0.1l0.1,-0.2l0,-5.8Zm-1.6,3.7c-0.4,0.5,-0.7,0.8,-1.1,1c-0.3,0.2,-0.7,0.3,-1.1,0.3c-0.5,0,-0.9,-0.1,-1.2,-0.4c-0.3,-0.3,-0.4,-0.6,-0.4,-1.1c0,-0.2,0,-0.4,0.1,-0.6c0.1,-0.2,0.3,-0.4,0.5,-0.6c0.2,-0.1,0.4,-0.2,0.7,-0.3c0.4,-0.1,0.7,-0.1,1.2,-0.1l1.3,0l0,1.8Zm8.9,1.2L592,110.8l0,-0.1l-0.1,0l-0.2,0l-0.2,0.1l-0.3,0.1l-0.4,0.1c-0.5,0,-0.8,-0.2,-0.9,-0.5c-0.2,-0.3,-0.3,-0.7,-0.3,-1.3l0,-4.8l2.2,0l0.2,-0.1c0.1,-0.1,0.1,-0.3,0.1,-0.5l0,-0.3L592,103.3l-0.1,-0.2l-0.1,0l-2.2,0l0,-2l0,-0.2l-0.2,-0.1l-0.2,0c-0.1,0,-0.2,0,-0.4,0c-0.1,0,-0.3,0,-0.4,0l-0.2,0l-0.1,0.1l-0.1,0.2l0,2l-1.2,0l-0.1,0l-0.1,0.2l-0.1,0.2l0,0.3c0,0.2,0,0.4,0.1,0.5l0.2,0.1l1.2,0l0,5c0,0.5,0.1,0.9,0.2,1.3c0.1,0.4,0.2,0.7,0.4,0.9c0.2,0.2,0.5,0.4,0.8,0.5c0.3,0.2,0.7,0.2,1.1,0.2l0.5,0l0.4,-0.1l0.3,-0.1L592,112l0.1,-0.3c0,-0.1,0,-0.2,0,-0.4l0,-0.3Zm9.4,-4c0,-0.6,-0.1,-1.1,-0.2,-1.6c-0.2,-0.5,-0.4,-0.9,-0.7,-1.3c-0.3,-0.3,-0.7,-0.6,-1.2,-0.9c-0.4,-0.2,-1,-0.3,-1.7,-0.3c-0.6,0,-1.2,0.1,-1.7,0.4c-0.5,0.2,-0.9,0.5,-1.3,0.9c-0.3,0.4,-0.6,0.9,-0.8,1.5c-0.2,0.6,-0.3,1.2,-0.3,2c0,0.7,0.1,1.4,0.3,2c0.2,0.6,0.4,1.1,0.8,1.5c0.4,0.3,0.8,0.6,1.3,0.8c0.6,0.2,1.2,0.3,1.9,0.3c0.4,0,0.8,0,1.1,-0.1c0.4,0,0.7,-0.1,1,-0.2c0.3,0,0.5,-0.1,0.6,-0.2c0.2,-0.1,0.3,-0.1,0.3,-0.2l0.1,-0.1l0.1,-0.1l0,-0.2l0,-0.2l0,-0.3l0,-0.2L601,110.4l-0.1,0c-0.1,0,-0.2,0,-0.4,0.1c-0.1,0.1,-0.3,0.1,-0.6,0.2c-0.2,0.1,-0.5,0.2,-0.8,0.3c-0.3,0,-0.7,0.1,-1.1,0.1c-0.5,0,-0.9,-0.1,-1.3,-0.3c-0.3,-0.1,-0.6,-0.3,-0.8,-0.6c-0.3,-0.3,-0.4,-0.6,-0.5,-1c-0.1,-0.4,-0.2,-0.8,-0.2,-1.3l5.7,0c0.1,0,0.3,0,0.4,-0.1c0.1,-0.1,0.2,-0.3,0.2,-0.5l0,-0.3Zm-6.3,-0.2c0,-0.4,0.1,-0.7,0.2,-1c0.1,-0.3,0.3,-0.6,0.5,-0.8c0.2,-0.3,0.4,-0.5,0.7,-0.6c0.3,-0.2,0.6,-0.2,1,-0.2c0.8,0,1.4,0.2,1.8,0.7c0.3,0.4,0.5,1.1,0.5,1.9l-4.7,0Zm20.1,-3.6l-0.2,-0.1l-0.2,0l-0.3,0c-0.2,0,-0.4,0,-0.5,0l-0.2,0l-0.1,0.1l-0.1,0.2l-2.4,7l0,0.1l-0.1,-0.1l-2.4,-7l-0.1,-0.2l-0.1,-0.1l-0.3,0c-0.1,0,-0.2,0,-0.4,0l-0.4,0l-0.2,0l-0.1,0.1l-0.1,0.1l0,0.1l0.1,0.1l0,0.2l2.9,8.2l0.1,0.1l0.2,0.1l0.3,0.1c0.2,0,0.3,0,0.5,0c0.2,0,0.4,0,0.5,0l0.3,-0.1l0.2,-0.1l0.1,-0.1l2.9,-8.2l0,-0.1l0.1,-0.1l0,-0.1l0,-0.1l0,-0.1Zm9.5,2.4c-0.2,-0.6,-0.5,-1,-0.8,-1.4c-0.4,-0.4,-0.8,-0.8,-1.3,-1c-0.6,-0.2,-1.2,-0.3,-1.9,-0.3c-0.7,0,-1.3,0.1,-1.9,0.4c-0.5,0.2,-1,0.5,-1.3,1c-0.4,0.4,-0.7,0.9,-0.9,1.5c-0.1,0.6,-0.2,1.2,-0.2,1.9c0,0.7,0.1,1.4,0.2,1.9c0.2,0.6,0.5,1.1,0.8,1.5c0.4,0.4,0.8,0.7,1.3,0.9c0.5,0.2,1.1,0.3,1.8,0.3c0.8,0,1.4,-0.1,2,-0.3c0.5,-0.3,1,-0.6,1.3,-1c0.4,-0.4,0.7,-1,0.8,-1.5c0.2,-0.6,0.3,-1.3,0.3,-2c0,-0.7,-0.1,-1.3,-0.2,-1.9Zm-1.6,3.4c-0.1,0.4,-0.2,0.8,-0.4,1.1c-0.3,0.3,-0.5,0.5,-0.9,0.7c-0.3,0.1,-0.7,0.2,-1.2,0.2c-0.5,0,-0.9,-0.1,-1.2,-0.3c-0.4,-0.1,-0.6,-0.4,-0.8,-0.7c-0.2,-0.3,-0.4,-0.7,-0.5,-1.1c-0.1,-0.4,-0.1,-0.8,-0.1,-1.3c0,-0.5,0,-0.9,0.1,-1.3c0.2,-0.5,0.3,-0.8,0.5,-1.1c0.3,-0.3,0.5,-0.6,0.9,-0.7c0.3,-0.2,0.7,-0.3,1.2,-0.3c0.5,0,0.9,0.1,1.2,0.3c0.4,0.2,0.6,0.4,0.8,0.7c0.2,0.4,0.4,0.7,0.5,1.1c0.1,0.4,0.1,0.9,0.1,1.3c0,0.5,-0.1,1,-0.2,1.4Zm5.7,-9.8l0,-0.1L628.7,99l-0.2,-0.1c-0.1,0,-0.2,0,-0.4,0c-0.1,0,-0.3,0,-0.4,0L627.5,99l-0.1,0.1l-0.1,0.1l0,12.7l0.1,0.1l0.1,0.1l0.2,0.1c0.1,0,0.3,0,0.4,0c0.2,0,0.3,0,0.4,0l0.2,-0.1l0.2,-0.1l0,-0.1l0,-12.7Zm10.2,4.2l0,-0.2L639,103.1l-0.3,0c-0.1,0,-0.2,0,-0.4,0c-0.1,0,-0.2,0,-0.3,0l-0.3,0l-0.1,0.1l0,0.2l0,5.9c-0.5,0.6,-0.9,1,-1.3,1.3c-0.4,0.2,-0.8,0.4,-1.2,0.4c-0.3,0,-0.5,-0.1,-0.8,-0.2c-0.2,-0.1,-0.4,-0.3,-0.5,-0.5c-0.2,-0.2,-0.3,-0.5,-0.4,-0.8c0,-0.3,-0.1,-0.7,-0.1,-1.2l0,-4.9l0,-0.2l-0.1,-0.1l-0.3,0c-0.1,0,-0.2,0,-0.4,0c-0.1,0,-0.2,0,-0.3,0l-0.3,0l-0.1,0.1l0,0.2l0,5.1c0,0.7,0,1.2,0.1,1.6c0.1,0.5,0.3,0.8,0.5,1.2c0.3,0.3,0.6,0.6,1,0.7c0.4,0.2,0.8,0.3,1.4,0.3c0.5,0,1,-0.1,1.5,-0.3c0.4,-0.3,0.9,-0.7,1.4,-1.2l0,1.1l0,0.1l0.1,0.1l0.3,0.1l0.3,0l0.4,0l0.2,-0.1l0.1,-0.1l0,-0.1l0,-8.5Zm15.6,3.1c0,-0.5,0,-0.9,-0.1,-1.4c-0.1,-0.4,-0.3,-0.8,-0.5,-1.1c-0.2,-0.3,-0.6,-0.6,-0.9,-0.8c-0.4,-0.2,-0.9,-0.3,-1.4,-0.3c-0.2,0,-0.5,0.1,-0.7,0.1c-0.2,0.1,-0.4,0.2,-0.7,0.3c-0.2,0.1,-0.5,0.3,-0.7,0.5c-0.3,0.2,-0.6,0.5,-0.8,0.8c-0.1,-0.2,-0.3,-0.5,-0.4,-0.7c-0.2,-0.2,-0.4,-0.4,-0.6,-0.5c-0.2,-0.2,-0.4,-0.3,-0.7,-0.4c-0.3,0,-0.6,-0.1,-1,-0.1c-0.4,0,-0.9,0.2,-1.3,0.4c-0.5,0.2,-1,0.6,-1.4,1.2l0,-1.1l-0.1,-0.2l-0.1,-0.1l-0.2,0l-0.4,0l-0.3,0l-0.2,0l-0.1,0.1l-0.1,0.2l0,8.5l0.1,0.1l0.1,0.1l0.2,0.1c0.1,0,0.3,0,0.4,0c0.2,0,0.3,0,0.4,0l0.2,-0.1l0.2,-0.1l0,-0.1l0,-6c0.4,-0.5,0.8,-0.9,1.2,-1.2c0.4,-0.3,0.7,-0.4,1.1,-0.4c0.3,0,0.5,0,0.8,0.2c0.2,0.1,0.3,0.2,0.5,0.5c0.1,0.2,0.2,0.4,0.3,0.7c0.1,0.3,0.1,0.6,0.1,1l0,5.2l0,0.1l0.2,0.1l0.2,0.1l0.4,0c0.1,0,0.3,0,0.4,0l0.2,-0.1l0.1,-0.1l0.1,-0.1l0,-6c0.4,-0.5,0.8,-0.9,1.2,-1.2c0.3,-0.3,0.7,-0.4,1.1,-0.4c0.3,0,0.5,0,0.7,0.2c0.2,0.1,0.4,0.2,0.6,0.5c0.1,0.2,0.2,0.4,0.3,0.7c0,0.3,0,0.6,0,1l0,5.2l0.1,0.1l0.1,0.1l0.3,0.1c0.1,0,0.2,0,0.3,0c0.2,0,0.3,0,0.4,0l0.3,-0.1l0.1,-0.1l0,-0.1l0,-5.4Zm10.2,0.5c0,-0.6,-0.1,-1.1,-0.2,-1.6c-0.2,-0.5,-0.4,-0.9,-0.7,-1.3c-0.3,-0.3,-0.7,-0.6,-1.2,-0.9c-0.4,-0.2,-1,-0.3,-1.7,-0.3c-0.6,0,-1.2,0.1,-1.7,0.4c-0.5,0.2,-0.9,0.5,-1.3,0.9c-0.3,0.4,-0.6,0.9,-0.8,1.5c-0.2,0.6,-0.3,1.2,-0.3,2c0,0.7,0.1,1.4,0.3,2c0.2,0.6,0.4,1.1,0.8,1.5c0.4,0.3,0.8,0.6,1.3,0.8c0.6,0.2,1.2,0.3,1.9,0.3c0.4,0,0.8,0,1.1,-0.1c0.4,0,0.7,-0.1,1,-0.2c0.3,0,0.5,-0.1,0.7,-0.2c0.1,-0.1,0.2,-0.1,0.3,-0.2l0,-0.1l0.1,-0.1l0,-0.2l0,-0.2l0,-0.3l0,-0.2l-0.1,-0.1l-0.1,0c-0.1,0,-0.2,0,-0.4,0.1c-0.1,0.1,-0.3,0.1,-0.5,0.2c-0.3,0.1,-0.5,0.2,-0.9,0.3c-0.3,0,-0.6,0.1,-1.1,0.1c-0.5,0,-0.9,-0.1,-1.3,-0.3c-0.3,-0.1,-0.6,-0.3,-0.8,-0.6c-0.3,-0.3,-0.4,-0.6,-0.5,-1c-0.1,-0.4,-0.2,-0.8,-0.2,-1.3l5.7,0c0.1,0,0.3,0,0.4,-0.1c0.1,-0.1,0.2,-0.3,0.2,-0.5l0,-0.3Zm-6.3,-0.2c0.1,-0.4,0.1,-0.7,0.2,-1c0.1,-0.3,0.3,-0.6,0.5,-0.8c0.2,-0.3,0.4,-0.5,0.7,-0.6c0.3,-0.2,0.7,-0.2,1,-0.2c0.8,0,1.4,0.2,1.8,0.7c0.4,0.4,0.5,1.1,0.5,1.9l-4.7,0Z" class="g1_4" />
<path d="M149.5,385.3c-0.1,-0.3,-0.4,-0.7,-0.6,-0.9c-0.3,-0.3,-0.6,-0.5,-0.9,-0.7c-0.3,-0.2,-0.7,-0.4,-1,-0.5c-0.4,-0.2,-0.7,-0.4,-1.1,-0.5c-0.3,-0.2,-0.6,-0.3,-0.9,-0.5c-0.2,-0.2,-0.4,-0.4,-0.6,-0.7c-0.2,-0.2,-0.2,-0.5,-0.2,-0.9c0,-0.2,0,-0.4,0.1,-0.6c0.1,-0.3,0.2,-0.4,0.4,-0.6c0.1,-0.1,0.3,-0.3,0.6,-0.4c0.2,0,0.5,-0.1,0.9,-0.1c0.3,0,0.7,0.1,1,0.1c0.3,0.1,0.5,0.2,0.7,0.4c0.3,0.1,0.4,0.2,0.6,0.3c0.1,0,0.2,0.1,0.3,0.1l0.1,-0.1l0.1,-0.1l0.1,-0.2l0,-0.3l0,-0.3L149,378.6l0,-0.1l-0.1,-0.2c-0.1,0,-0.2,-0.1,-0.4,-0.2c-0.2,-0.1,-0.4,-0.2,-0.7,-0.3c-0.2,-0.1,-0.5,-0.1,-0.7,-0.2c-0.3,0,-0.6,0,-0.9,0c-0.5,0,-1,0,-1.4,0.2c-0.5,0.1,-0.9,0.3,-1.2,0.6c-0.4,0.3,-0.6,0.6,-0.8,1c-0.2,0.4,-0.3,0.9,-0.3,1.4c0,0.5,0.1,0.9,0.2,1.3c0.2,0.3,0.4,0.6,0.7,0.9c0.2,0.3,0.5,0.5,0.9,0.7c0.3,0.2,0.6,0.4,1,0.5c0.3,0.2,0.7,0.4,1,0.5c0.3,0.2,0.6,0.3,0.9,0.5c0.3,0.2,0.5,0.4,0.6,0.7c0.2,0.2,0.3,0.5,0.3,0.9c0,0.3,-0.1,0.6,-0.2,0.8c-0.1,0.3,-0.3,0.5,-0.5,0.7c-0.2,0.1,-0.5,0.3,-0.8,0.4c-0.3,0.1,-0.6,0.1,-0.9,0.1c-0.5,0,-0.9,0,-1.3,-0.1c-0.3,-0.2,-0.6,-0.3,-0.9,-0.4c-0.3,-0.1,-0.5,-0.2,-0.6,-0.4c-0.2,-0.1,-0.3,-0.1,-0.4,-0.1l-0.1,0l-0.1,0.1l-0.1,0.3l0,0.3c0,0.2,0,0.4,0,0.5l0.2,0.3c0.1,0,0.2,0.1,0.4,0.2c0.2,0.1,0.4,0.3,0.7,0.4c0.3,0.1,0.6,0.1,0.9,0.2c0.4,0.1,0.8,0.1,1.2,0.1c0.6,0,1.1,-0.1,1.6,-0.2c0.5,-0.2,1,-0.4,1.4,-0.7c0.3,-0.3,0.6,-0.7,0.8,-1.2c0.3,-0.4,0.4,-0.9,0.4,-1.5c0,-0.5,-0.1,-0.9,-0.3,-1.3Zm10.1,-1.7c-0.1,-0.5,-0.3,-1,-0.6,-1.4c-0.3,-0.5,-0.6,-0.8,-1.1,-1c-0.4,-0.3,-0.9,-0.4,-1.6,-0.4c-0.2,0,-0.5,0,-0.8,0.1c-0.2,0.1,-0.5,0.2,-0.7,0.3c-0.3,0.1,-0.5,0.3,-0.7,0.5c-0.3,0.2,-0.5,0.4,-0.8,0.7l0,-1.2l0,-0.1L153.2,381l-0.3,0l-0.3,-0.1l-0.3,0.1l-0.2,0l-0.1,0.1l-0.1,0.1l0,12l0.1,0.1l0.1,0.1l0.2,0.1c0.1,0,0.3,0,0.4,0c0.2,0,0.3,0,0.4,0l0.2,-0.1l0.2,-0.1l0,-0.1l0,-4.3c0.2,0.2,0.4,0.4,0.6,0.6c0.2,0.2,0.4,0.3,0.7,0.4c0.2,0.1,0.4,0.2,0.6,0.2c0.2,0.1,0.4,0.1,0.7,0.1c0.6,0,1.1,-0.1,1.6,-0.3c0.4,-0.2,0.8,-0.6,1.1,-1c0.4,-0.4,0.6,-0.9,0.8,-1.5c0.1,-0.6,0.2,-1.3,0.2,-2c0,-0.6,-0.1,-1.2,-0.2,-1.8Zm-1.6,3.2c0,0.3,-0.2,0.7,-0.3,1c-0.2,0.3,-0.4,0.6,-0.7,0.8c-0.3,0.2,-0.7,0.3,-1,0.3c-0.5,0,-0.9,-0.2,-1.3,-0.5c-0.4,-0.2,-0.8,-0.6,-1.2,-1.2l0,-3.4c0.2,-0.3,0.5,-0.5,0.7,-0.7c0.2,-0.3,0.4,-0.4,0.6,-0.6c0.2,-0.1,0.4,-0.2,0.6,-0.2c0.2,-0.1,0.4,-0.1,0.6,-0.1c0.5,0,0.8,0.1,1.1,0.2c0.2,0.2,0.5,0.5,0.6,0.8c0.2,0.3,0.3,0.7,0.4,1.1c0,0.4,0.1,0.8,0.1,1.3c0,0.4,-0.1,0.8,-0.2,1.2Zm11.5,-1.9c0,-0.6,-0.1,-1.1,-0.3,-1.6c-0.1,-0.5,-0.3,-0.9,-0.6,-1.3c-0.3,-0.4,-0.7,-0.6,-1.2,-0.9c-0.5,-0.2,-1,-0.3,-1.7,-0.3c-0.6,0,-1.2,0.1,-1.7,0.3c-0.5,0.3,-0.9,0.6,-1.3,1c-0.4,0.4,-0.6,0.9,-0.8,1.5c-0.2,0.6,-0.3,1.2,-0.3,2c0,0.7,0.1,1.4,0.3,2c0.1,0.6,0.4,1.1,0.8,1.4c0.3,0.4,0.8,0.7,1.3,0.9c0.5,0.2,1.2,0.3,1.9,0.3c0.4,0,0.8,0,1.1,-0.1c0.4,0,0.7,-0.1,1,-0.2c0.2,-0.1,0.5,-0.1,0.6,-0.2c0.2,-0.1,0.3,-0.1,0.3,-0.2l0.1,-0.1l0.1,-0.1l0,-0.2l0,-0.2l0,-0.3L169,388.4l0,-0.1l-0.2,0c0,0,-0.2,0,-0.3,0.1c-0.1,0.1,-0.3,0.1,-0.6,0.2c-0.2,0.1,-0.5,0.2,-0.8,0.2c-0.3,0.1,-0.7,0.1,-1.1,0.1c-0.5,0,-0.9,0,-1.3,-0.2c-0.4,-0.1,-0.6,-0.3,-0.9,-0.6c-0.2,-0.3,-0.3,-0.6,-0.4,-1c-0.1,-0.4,-0.2,-0.8,-0.2,-1.3l5.6,0c0.2,0,0.3,0,0.5,-0.1c0.1,-0.1,0.2,-0.3,0.2,-0.6l0,-0.2Zm-6.3,-0.2c0,-0.4,0.1,-0.7,0.2,-1c0.1,-0.3,0.3,-0.6,0.5,-0.9c0.2,-0.2,0.4,-0.4,0.7,-0.5c0.3,-0.2,0.6,-0.3,1,-0.3c0.8,0,1.3,0.3,1.7,0.7c0.4,0.5,0.6,1.2,0.6,2l-4.7,0Zm13.6,-3.2l0,-0.2l0,-0.1l-0.1,-0.1L176.5,381l-0.3,-0.1l-0.3,-0.1l-0.3,0c-0.2,0,-0.4,0,-0.5,0.1c-0.2,0,-0.4,0.1,-0.6,0.2c-0.2,0.2,-0.4,0.3,-0.6,0.5c-0.2,0.3,-0.4,0.5,-0.6,0.9l0,-1.3l-0.1,-0.1L173.1,381l-0.2,0l-0.3,-0.1l-0.4,0.1l-0.2,0l-0.1,0.1l-0.1,0.1l0,8.6l0.1,0.1L172,390l0.2,0.1c0.1,0,0.3,0,0.4,0c0.2,0,0.3,0,0.4,0l0.3,-0.1l0.1,-0.1l0,-0.1l0,-5.6c0.2,-0.4,0.4,-0.7,0.6,-0.9c0.2,-0.3,0.4,-0.4,0.6,-0.6c0.1,-0.1,0.3,-0.2,0.4,-0.3c0.2,-0.1,0.3,-0.1,0.5,-0.1l0.4,0c0.7,0.2,1,0.6,0.9,-0.5l0,-0.3Zm14.5,2.9c0,-0.5,0,-1,-0.1,-1.4c-0.1,-0.4,-0.3,-0.8,-0.5,-1.1c-0.2,-0.3,-0.5,-0.6,-0.9,-0.8c-0.4,-0.2,-0.9,-0.3,-1.4,-0.3c-0.2,0,-0.5,0,-0.7,0.1c-0.2,0.1,-0.4,0.2,-0.7,0.3c-0.2,0.1,-0.5,0.3,-0.7,0.5c-0.3,0.2,-0.6,0.5,-0.8,0.8c-0.1,-0.2,-0.3,-0.5,-0.4,-0.7c-0.2,-0.2,-0.4,-0.4,-0.6,-0.5c-0.2,-0.2,-0.4,-0.3,-0.7,-0.4c-0.3,0,-0.6,-0.1,-1,-0.1c-0.4,0,-0.9,0.1,-1.3,0.4c-0.5,0.2,-1,0.6,-1.4,1.2l0,-1.2L180,381.1L179.9,381l-0.2,0l-0.4,-0.1L179,381l-0.2,0l-0.1,0.1l-0.1,0.1l0,8.6l0.1,0.1l0.1,0.1l0.2,0.1c0.1,0,0.3,0,0.4,0c0.2,0,0.3,0,0.4,0L180,390l0.2,-0.1l0,-0.1l0,-6c0.4,-0.5,0.8,-0.9,1.2,-1.2c0.4,-0.3,0.7,-0.4,1.1,-0.4c0.3,0,0.5,0,0.8,0.1c0.2,0.2,0.3,0.3,0.5,0.5c0.1,0.3,0.2,0.5,0.3,0.8c0.1,0.3,0.1,0.6,0.1,1l0,5.2l0,0.1l0.2,0.1l0.2,0.1l0.4,0c0.1,0,0.3,0,0.4,0l0.2,-0.1l0.1,-0.1l0.1,-0.1l0,-6c0.4,-0.5,0.8,-0.9,1.2,-1.2c0.3,-0.3,0.7,-0.4,1.1,-0.4c0.2,0,0.5,0,0.7,0.1c0.2,0.2,0.4,0.3,0.6,0.5c0.1,0.3,0.2,0.5,0.3,0.8c0,0.3,0,0.6,0,1l0,5.2l0.1,0.1l0.1,0.1l0.3,0.1c0.1,0,0.2,0,0.3,0c0.2,0,0.3,0,0.4,0l0.3,-0.1l0.1,-0.1l0,-0.1l0,-5.4Zm13.4,3.8l0,-0.3l-0.1,-0.1l-0.1,0l-0.3,0.1c-0.2,0.1,-0.3,0.3,-0.5,0.4c-0.2,0.1,-0.5,0.3,-0.7,0.4c-0.3,0.1,-0.6,0.2,-1,0.2c-0.4,0,-0.7,-0.1,-1,-0.2c-0.3,-0.2,-0.5,-0.4,-0.8,-0.7c-0.2,-0.2,-0.3,-0.6,-0.4,-1c-0.1,-0.4,-0.2,-0.9,-0.2,-1.5c0,-1.1,0.2,-1.9,0.6,-2.5c0.4,-0.6,1,-0.9,1.8,-0.9c0.3,0,0.7,0.1,0.9,0.2c0.3,0.1,0.5,0.2,0.7,0.3c0.2,0.2,0.4,0.3,0.5,0.4l0.3,0.2l0.2,-0.2c0.1,-0.1,0.1,-0.3,0.1,-0.5l0,-0.3l0,-0.2l-0.1,-0.2l-0.2,-0.1c0,-0.1,-0.2,-0.2,-0.3,-0.3c-0.2,-0.1,-0.4,-0.2,-0.6,-0.3c-0.2,-0.1,-0.5,-0.2,-0.7,-0.2c-0.3,-0.1,-0.5,-0.1,-0.8,-0.1c-0.6,0,-1.1,0.1,-1.6,0.3c-0.5,0.2,-0.9,0.5,-1.2,0.9c-0.4,0.3,-0.7,0.8,-0.9,1.5c-0.2,0.6,-0.3,1.3,-0.3,2.1c0,0.8,0.1,1.4,0.2,2c0.2,0.6,0.5,1,0.8,1.4c0.3,0.4,0.7,0.7,1.2,0.9c0.4,0.2,1,0.3,1.6,0.3c0.3,0,0.6,0,0.9,-0.1c0.3,0,0.5,-0.1,0.7,-0.2c0.3,-0.1,0.5,-0.2,0.7,-0.3c0.2,-0.1,0.3,-0.2,0.4,-0.3l0.1,-0.2l0.1,-0.1l0,-0.2l0,-0.3l0,-0.3Zm9.8,-4.7c-0.1,-0.6,-0.4,-1.1,-0.8,-1.5c-0.3,-0.4,-0.7,-0.7,-1.3,-0.9c-0.5,-0.2,-1.1,-0.3,-1.8,-0.3c-0.7,0,-1.4,0.1,-1.9,0.4c-0.6,0.2,-1,0.5,-1.4,1c-0.3,0.4,-0.6,0.9,-0.8,1.5c-0.2,0.6,-0.3,1.2,-0.3,1.9c0,0.7,0.1,1.4,0.3,1.9c0.2,0.6,0.4,1.1,0.8,1.5c0.3,0.4,0.7,0.7,1.3,0.9c0.5,0.2,1.1,0.3,1.8,0.3c0.7,0,1.4,-0.1,1.9,-0.3c0.6,-0.3,1,-0.6,1.4,-1c0.4,-0.5,0.6,-1,0.8,-1.6c0.2,-0.5,0.3,-1.2,0.3,-1.9c0,-0.7,-0.1,-1.3,-0.3,-1.9Zm-1.5,3.4c-0.1,0.4,-0.3,0.8,-0.5,1.1c-0.2,0.3,-0.5,0.5,-0.8,0.6c-0.3,0.2,-0.7,0.3,-1.2,0.3c-0.5,0,-0.9,-0.1,-1.3,-0.3c-0.3,-0.2,-0.6,-0.4,-0.8,-0.7c-0.2,-0.3,-0.3,-0.7,-0.4,-1.1c-0.1,-0.4,-0.1,-0.8,-0.1,-1.3c0,-0.5,0,-0.9,0.1,-1.4c0.1,-0.4,0.3,-0.7,0.5,-1c0.2,-0.3,0.5,-0.6,0.8,-0.7c0.4,-0.2,0.8,-0.3,1.2,-0.3c0.5,0,1,0.1,1.3,0.3c0.3,0.2,0.6,0.4,0.8,0.7c0.2,0.3,0.3,0.7,0.4,1.1c0.1,0.4,0.2,0.9,0.2,1.3c0,0.5,-0.1,1,-0.2,1.4Zm11.5,-2.3c0,-0.6,-0.1,-1.2,-0.2,-1.6c-0.1,-0.4,-0.3,-0.8,-0.5,-1.1c-0.2,-0.3,-0.6,-0.6,-1,-0.8c-0.3,-0.2,-0.8,-0.3,-1.4,-0.3c-0.5,0,-1,0.1,-1.4,0.4c-0.5,0.2,-1,0.6,-1.5,1.2l0,-1.2l0,-0.1L218.4,381l-0.2,0l-0.4,-0.1l-0.3,0.1l-0.3,0l-0.1,0.1l0,0.1l0,8.6l0,0.1l0.2,0.1l0.2,0.1c0.1,0,0.2,0,0.4,0c0.1,0,0.3,0,0.4,0l0.2,-0.1l0.1,-0.1l0.1,-0.1l0,-6c0.4,-0.5,0.8,-0.9,1.2,-1.2c0.4,-0.3,0.8,-0.4,1.2,-0.4c0.3,0,0.6,0,0.8,0.1c0.2,0.2,0.4,0.3,0.6,0.5c0.1,0.3,0.2,0.5,0.3,0.8c0.1,0.3,0.1,0.7,0.1,1.2l0,5l0,0.1l0.2,0.1l0.2,0.1c0.1,0,0.2,0,0.4,0c0.1,0,0.3,0,0.4,0l0.2,-0.1l0.1,-0.1l0.1,-0.1l0,-5.2Zm9,3.6l-0.1,-0.3l-0.1,-0.1l-0.1,0l-0.3,0.1c-0.1,0.1,-0.3,0.3,-0.5,0.4c-0.2,0.1,-0.4,0.3,-0.7,0.4c-0.3,0.1,-0.6,0.2,-1,0.2c-0.3,0,-0.7,-0.1,-1,-0.2c-0.3,-0.2,-0.5,-0.4,-0.7,-0.7c-0.2,-0.2,-0.4,-0.6,-0.5,-1c-0.1,-0.4,-0.1,-0.9,-0.1,-1.5c0,-1.1,0.2,-1.9,0.6,-2.5c0.4,-0.6,1,-0.9,1.7,-0.9c0.4,0,0.7,0.1,1,0.2c0.2,0.1,0.5,0.2,0.6,0.3c0.2,0.2,0.4,0.3,0.5,0.4l0.3,0.2l0.3,-0.2c0,-0.1,0,-0.3,0,-0.5l0,-0.3l0,-0.2l-0.1,-0.2l-0.1,-0.1c-0.1,-0.1,-0.2,-0.2,-0.4,-0.3c-0.2,-0.1,-0.4,-0.2,-0.6,-0.3c-0.2,-0.1,-0.4,-0.2,-0.7,-0.2c-0.2,-0.1,-0.5,-0.1,-0.8,-0.1c-0.5,0,-1.1,0.1,-1.6,0.3c-0.4,0.2,-0.9,0.5,-1.2,0.9c-0.4,0.3,-0.7,0.8,-0.9,1.5c-0.2,0.6,-0.3,1.3,-0.3,2.1c0,0.8,0.1,1.4,0.3,2c0.2,0.6,0.4,1,0.7,1.4c0.3,0.4,0.7,0.7,1.2,0.9c0.5,0.2,1,0.3,1.6,0.3c0.3,0,0.6,0,0.9,-0.1c0.3,0,0.5,-0.1,0.8,-0.2c0.2,-0.1,0.4,-0.2,0.6,-0.3c0.2,-0.1,0.3,-0.2,0.4,-0.3l0.2,-0.2l0,-0.1l0.1,-0.2l0,-0.3l0,-0.3Zm9.4,-3.3c0,-0.6,-0.1,-1.1,-0.2,-1.6c-0.2,-0.5,-0.4,-0.9,-0.7,-1.3c-0.3,-0.4,-0.7,-0.6,-1.2,-0.9c-0.5,-0.2,-1,-0.3,-1.7,-0.3c-0.6,0,-1.2,0.1,-1.7,0.3c-0.5,0.3,-0.9,0.6,-1.3,1c-0.4,0.4,-0.6,0.9,-0.8,1.5c-0.2,0.6,-0.3,1.2,-0.3,2c0,0.7,0.1,1.4,0.3,2c0.2,0.6,0.4,1.1,0.8,1.4c0.3,0.4,0.8,0.7,1.3,0.9c0.6,0.2,1.2,0.3,1.9,0.3c0.4,0,0.8,0,1.1,-0.1c0.4,0,0.7,-0.1,1,-0.2c0.2,-0.1,0.5,-0.1,0.6,-0.2c0.2,-0.1,0.3,-0.1,0.3,-0.2l0.1,-0.1l0.1,-0.1l0,-0.2l0,-0.2l0,-0.3l-0.1,-0.2l0,-0.1l-0.2,0c0,0,-0.1,0,-0.3,0.1c-0.1,0.1,-0.3,0.1,-0.6,0.2c-0.2,0.1,-0.5,0.2,-0.8,0.2c-0.3,0.1,-0.7,0.1,-1.1,0.1c-0.5,0,-0.9,0,-1.3,-0.2c-0.3,-0.1,-0.6,-0.3,-0.9,-0.6c-0.2,-0.3,-0.3,-0.6,-0.4,-1c-0.1,-0.4,-0.2,-0.8,-0.2,-1.3l5.7,0c0.1,0,0.3,0,0.4,-0.1c0.1,-0.1,0.2,-0.3,0.2,-0.6l0,-0.2Zm-6.3,-0.2c0,-0.4,0.1,-0.7,0.2,-1c0.1,-0.3,0.3,-0.6,0.5,-0.9c0.2,-0.2,0.4,-0.4,0.7,-0.5c0.3,-0.2,0.6,-0.3,1,-0.3c0.8,0,1.4,0.3,1.7,0.7c0.4,0.5,0.6,1.2,0.6,2l-4.7,0Zm16,-0.1c0,-0.6,0,-1.2,-0.1,-1.6c-0.1,-0.4,-0.3,-0.8,-0.6,-1.1c-0.2,-0.3,-0.5,-0.6,-0.9,-0.8c-0.4,-0.2,-0.9,-0.3,-1.4,-0.3c-0.5,0,-1,0.1,-1.5,0.4c-0.5,0.2,-0.9,0.6,-1.4,1.2l0,-1.2l-0.1,-0.1L246.5,381l-0.2,0L246,380.9l-0.4,0.1l-0.2,0l-0.1,0.1l0,0.1l0,8.6l0,0.1l0.1,0.1l0.3,0.1c0.1,0,0.2,0,0.3,0c0.2,0,0.3,0,0.4,0l0.3,-0.1l0.1,-0.1l0,-0.1l0,-6c0.5,-0.5,0.9,-0.9,1.3,-1.2c0.4,-0.3,0.7,-0.4,1.1,-0.4c0.3,0,0.6,0,0.8,0.1c0.3,0.2,0.5,0.3,0.6,0.5c0.2,0.3,0.3,0.5,0.3,0.8c0.1,0.3,0.2,0.7,0.2,1.2l0,5l0,0.1l0.1,0.1l0.3,0.1c0.1,0,0.2,0,0.3,0c0.2,0,0.3,0,0.4,0l0.3,-0.1l0.1,-0.1l0,-0.1l0,-5.2Zm7.3,4.3l0,-0.2l-0.1,-0.1l-0.1,0l-0.2,0l-0.2,0.1l-0.3,0.1l-0.4,0.1c-0.4,0,-0.7,-0.2,-0.9,-0.5c-0.2,-0.3,-0.3,-0.7,-0.3,-1.3l0,-4.8l2.2,0l0.2,-0.2c0.1,-0.1,0.1,-0.2,0.1,-0.5l0,-0.3l0,-0.2L259.8,381l-0.2,0l-2.2,0l0,-2l0,-0.2l-0.1,-0.1l-0.3,0c-0.1,0,-0.2,0,-0.4,0c-0.1,0,-0.2,0,-0.3,0l-0.3,0l-0.1,0.1l0,0.2l0,2l-1.2,0l-0.2,0l-0.1,0.1l0,0.2l-0.1,0.3c0,0.3,0.1,0.4,0.1,0.5l0.3,0.2l1.2,0l0,5c0,0.5,0,0.9,0.1,1.3c0.1,0.4,0.2,0.7,0.4,0.9c0.2,0.2,0.5,0.4,0.8,0.5c0.3,0.1,0.7,0.2,1.2,0.2l0.4,0l0.4,-0.1l0.4,-0.1l0.2,-0.2l0.1,-0.2c0,-0.1,0,-0.2,0,-0.4l0,-0.3Zm7.1,-7.4l0,-0.2l0,-0.1l-0.1,-0.1L266.7,381l-0.3,-0.1L266,380.8l-0.2,0c-0.2,0,-0.4,0,-0.6,0.1c-0.2,0,-0.3,0.1,-0.5,0.2c-0.2,0.2,-0.4,0.3,-0.6,0.5c-0.2,0.3,-0.4,0.5,-0.7,0.9l0,-1.3l0,-0.1L263.3,381l-0.2,0l-0.4,-0.1l-0.3,0.1l-0.2,0l-0.2,0.1l0,0.1l0,8.6l0,0.1l0.2,0.1l0.2,0.1c0.1,0,0.2,0,0.4,0c0.1,0,0.3,0,0.4,0l0.2,-0.1l0.1,-0.1l0.1,-0.1l0,-5.6c0.2,-0.4,0.4,-0.7,0.6,-0.9c0.2,-0.3,0.3,-0.4,0.5,-0.6c0.2,-0.1,0.3,-0.2,0.5,-0.3c0.1,-0.1,0.3,-0.1,0.5,-0.1l0.3,0c0.8,0.2,1,0.6,1,-0.5l0,-0.3Zm8.2,2.5c0,-0.5,0,-1,-0.1,-1.4c-0.2,-0.4,-0.4,-0.7,-0.6,-1c-0.3,-0.2,-0.6,-0.4,-1.1,-0.6c-0.4,-0.1,-0.9,-0.2,-1.5,-0.2c-0.4,0,-0.7,0,-1,0.1c-0.3,0.1,-0.6,0.1,-0.9,0.2c-0.3,0.1,-0.5,0.2,-0.7,0.3c-0.2,0.1,-0.4,0.2,-0.5,0.3l-0.1,0.3c-0.1,0.1,-0.1,0.2,-0.1,0.4l0.1,0.2l0,0.2l0.1,0.1l0.1,0.1c0.1,0,0.2,-0.1,0.4,-0.2c0.2,-0.1,0.3,-0.2,0.6,-0.3c0.2,-0.1,0.5,-0.2,0.8,-0.3c0.3,-0.1,0.6,-0.1,1,-0.1c0.4,0,0.7,0,0.9,0.1c0.3,0.1,0.5,0.2,0.6,0.4c0.2,0.2,0.3,0.4,0.4,0.6c0,0.3,0.1,0.6,0.1,0.9l0,0.7l-1.2,0c-0.7,0,-1.3,0,-1.8,0.1c-0.5,0.2,-1,0.3,-1.3,0.6c-0.4,0.2,-0.7,0.5,-0.9,0.9c-0.2,0.3,-0.3,0.7,-0.3,1.2c0,0.4,0.1,0.8,0.2,1.1c0.2,0.3,0.4,0.6,0.6,0.8c0.3,0.3,0.6,0.4,1,0.5c0.3,0.2,0.7,0.2,1.2,0.2c0.5,0,1,-0.1,1.4,-0.3c0.5,-0.2,0.9,-0.5,1.3,-0.9l0,0.8L274,390l0.2,0.1c0.1,0,0.2,0,0.4,0c0.1,0,0.3,0,0.4,0l0.2,-0.1l0,-0.2l0,-5.8Zm-1.5,3.7c-0.4,0.4,-0.8,0.8,-1.1,1c-0.4,0.2,-0.8,0.3,-1.2,0.3c-0.5,0,-0.9,-0.1,-1.2,-0.4c-0.2,-0.3,-0.4,-0.6,-0.4,-1.1c0,-0.2,0.1,-0.5,0.2,-0.7c0.1,-0.2,0.2,-0.3,0.4,-0.5c0.2,-0.1,0.5,-0.2,0.8,-0.3c0.3,-0.1,0.7,-0.1,1.1,-0.1l1.4,0l0,1.8Zm6.4,-6.7l0,-2L280,378.8l-0.1,-0.1l-0.2,0c-0.1,0,-0.3,0,-0.4,0c-0.2,0,-0.3,0,-0.4,0l-0.2,0l-0.2,0.1l0,0.2l0,2l-1.2,0l-0.1,0l-0.1,0.1l-0.1,0.2l0,0.3c0,0.3,0,0.4,0.1,0.5l0.2,0.2l1.2,0l0,5c0,0.5,0,0.9,0.1,1.3c0.1,0.4,0.3,0.7,0.5,0.9c0.2,0.2,0.4,0.4,0.8,0.5c0.3,0.1,0.7,0.2,1.1,0.2l0.4,0l0.4,-0.1l0.4,-0.1l0.2,-0.2l0.1,-0.2c0.1,-0.1,0.1,-0.2,0.1,-0.4l0,-0.3l-0.1,-0.2l-0.1,-0.1l-0.2,0l-0.2,0.1l-0.3,0.1l-0.4,0.1c-0.5,0,-0.8,-0.2,-1,-0.5c-0.1,-0.3,-0.2,-0.7,-0.2,-1.3l0,-4.8l4.4,0l0,7.5l0,0.1l0.2,0.1l0.2,0.1c0.1,0,0.2,0,0.4,0l0.4,0l0.2,-0.1l0.1,-0.1l0.1,-0.1l0,-8.3c0,-0.2,-0.1,-0.3,-0.1,-0.4C285.9,381,285.8,381,285.6,381l-5.5,0Zm5.9,-3.4c-0.1,-0.1,-0.3,-0.2,-0.7,-0.2c-0.4,0,-0.6,0.1,-0.8,0.2c-0.1,0.2,-0.2,0.4,-0.2,0.8c0,0.3,0.1,0.6,0.2,0.7c0.1,0.1,0.4,0.2,0.8,0.2c0.3,0,0.6,-0.1,0.7,-0.2c0.2,-0.1,0.2,-0.4,0.2,-0.8c0,-0.3,0,-0.6,-0.2,-0.7Zm10.7,5.9c-0.2,-0.6,-0.5,-1.1,-0.8,-1.5c-0.4,-0.4,-0.8,-0.7,-1.3,-0.9c-0.5,-0.2,-1.2,-0.3,-1.9,-0.3c-0.7,0,-1.3,0.1,-1.9,0.4c-0.5,0.2,-1,0.5,-1.3,1c-0.4,0.4,-0.7,0.9,-0.9,1.5c-0.1,0.6,-0.2,1.2,-0.2,1.9c0,0.7,0.1,1.4,0.2,1.9c0.2,0.6,0.5,1.1,0.8,1.5c0.4,0.4,0.8,0.7,1.3,0.9c0.5,0.2,1.2,0.3,1.9,0.3c0.7,0,1.3,-0.1,1.9,-0.3c0.5,-0.3,1,-0.6,1.3,-1c0.4,-0.5,0.7,-1,0.9,-1.6c0.1,-0.5,0.2,-1.2,0.2,-1.9c0,-0.7,-0.1,-1.3,-0.2,-1.9Zm-1.5,3.4c-0.1,0.4,-0.3,0.8,-0.5,1.1c-0.2,0.3,-0.5,0.5,-0.9,0.6c-0.3,0.2,-0.7,0.3,-1.2,0.3c-0.5,0,-0.9,-0.1,-1.2,-0.3c-0.4,-0.2,-0.6,-0.4,-0.8,-0.7c-0.2,-0.3,-0.4,-0.7,-0.5,-1.1C290,386.4,290,386,290,385.5c0,-0.5,0.1,-0.9,0.2,-1.4c0.1,-0.4,0.2,-0.7,0.4,-1c0.3,-0.3,0.5,-0.6,0.9,-0.7c0.3,-0.2,0.7,-0.3,1.2,-0.3c0.5,0,0.9,0.1,1.2,0.3c0.4,0.2,0.7,0.4,0.8,0.7c0.2,0.3,0.4,0.7,0.5,1.1c0.1,0.4,0.1,0.9,0.1,1.3c0,0.5,0,1,-0.1,1.4Zm11.4,-2.3c0,-0.6,0,-1.2,-0.1,-1.6c-0.1,-0.4,-0.3,-0.8,-0.6,-1.1c-0.2,-0.3,-0.5,-0.6,-0.9,-0.8c-0.4,-0.2,-0.9,-0.3,-1.5,-0.3c-0.4,0,-0.9,0.1,-1.4,0.4c-0.5,0.2,-1,0.6,-1.4,1.2l0,-1.2l-0.1,-0.1L300.5,381l-0.2,0L300,380.9l-0.4,0.1l-0.2,0l-0.1,0.1l-0.1,0.1l0,8.6l0.1,0.1l0.1,0.1l0.2,0.1c0.1,0,0.3,0,0.4,0c0.2,0,0.3,0,0.4,0l0.2,-0.1l0.2,-0.1l0,-0.1l0,-6c0.4,-0.5,0.9,-0.9,1.2,-1.2c0.4,-0.3,0.8,-0.4,1.2,-0.4c0.3,0,0.6,0,0.8,0.1c0.3,0.2,0.4,0.3,0.6,0.5c0.1,0.3,0.3,0.5,0.3,0.8c0.1,0.3,0.1,0.7,0.1,1.2l0,5l0.1,0.1l0.1,0.1l0.2,0.1c0.1,0,0.3,0,0.4,0c0.2,0,0.3,0,0.4,0l0.3,-0.1l0.1,-0.1l0,-0.1l0,-5.2Z" class="g1_4" />
<path d="M539.8,383.8c-0.1,-0.4,-0.3,-0.7,-0.6,-1c-0.3,-0.2,-0.6,-0.5,-0.9,-0.7c-0.3,-0.1,-0.7,-0.3,-1,-0.5c-0.4,-0.1,-0.7,-0.3,-1.1,-0.5c-0.3,-0.1,-0.6,-0.3,-0.9,-0.5c-0.2,-0.2,-0.4,-0.4,-0.6,-0.6c-0.2,-0.3,-0.2,-0.6,-0.2,-0.9c0,-0.3,0,-0.5,0.1,-0.7c0.1,-0.2,0.2,-0.4,0.4,-0.5c0.1,-0.2,0.3,-0.3,0.6,-0.4c0.2,-0.1,0.5,-0.1,0.9,-0.1c0.4,0,0.7,0,1,0.1c0.3,0.1,0.5,0.2,0.7,0.3c0.3,0.1,0.4,0.2,0.6,0.3c0.1,0.1,0.2,0.1,0.3,0.1l0.1,0l0.1,-0.1l0.1,-0.3l0,-0.3l0,-0.3L539.3,377l0,-0.1l-0.1,-0.1c-0.1,-0.1,-0.2,-0.2,-0.4,-0.3c-0.2,-0.1,-0.4,-0.2,-0.7,-0.2c-0.2,-0.1,-0.5,-0.2,-0.7,-0.2C537.1,376,536.8,376,536.5,376c-0.5,0,-1,0.1,-1.4,0.2c-0.5,0.2,-0.9,0.4,-1.2,0.6c-0.4,0.3,-0.6,0.6,-0.8,1c-0.2,0.5,-0.3,0.9,-0.3,1.4c0,0.5,0.1,1,0.2,1.3c0.2,0.4,0.4,0.7,0.7,0.9c0.2,0.3,0.5,0.5,0.9,0.7c0.3,0.2,0.6,0.4,1,0.6c0.3,0.1,0.7,0.3,1,0.5c0.3,0.1,0.6,0.3,0.9,0.5c0.3,0.2,0.5,0.4,0.6,0.6c0.2,0.3,0.3,0.6,0.3,0.9c0,0.3,-0.1,0.6,-0.2,0.9c-0.1,0.2,-0.3,0.4,-0.5,0.6c-0.2,0.2,-0.5,0.3,-0.8,0.4c-0.3,0.1,-0.6,0.2,-0.9,0.2c-0.5,0,-0.9,-0.1,-1.3,-0.2c-0.3,-0.1,-0.6,-0.2,-0.9,-0.4c-0.3,-0.1,-0.5,-0.2,-0.6,-0.3c-0.2,-0.1,-0.3,-0.2,-0.4,-0.2l-0.1,0.1l-0.1,0.1l-0.1,0.2l0,0.4c0,0.1,0,0.3,0.1,0.4l0.1,0.3c0.1,0.1,0.2,0.2,0.4,0.3c0.2,0.1,0.4,0.2,0.7,0.3c0.3,0.1,0.6,0.2,0.9,0.3c0.4,0,0.8,0.1,1.2,0.1c0.6,0,1.1,-0.1,1.6,-0.3c0.5,-0.1,1,-0.4,1.4,-0.7c0.3,-0.3,0.6,-0.7,0.8,-1.1c0.3,-0.5,0.4,-1,0.4,-1.6c0,-0.5,-0.1,-0.9,-0.3,-1.2Zm10.1,-1.7c-0.1,-0.6,-0.3,-1.1,-0.6,-1.5c-0.3,-0.4,-0.6,-0.7,-1.1,-1c-0.4,-0.2,-0.9,-0.3,-1.6,-0.3c-0.2,0,-0.5,0,-0.8,0.1c-0.2,0,-0.5,0.1,-0.7,0.3c-0.3,0.1,-0.5,0.2,-0.7,0.4c-0.3,0.2,-0.5,0.5,-0.8,0.7l0,-1.1l0,-0.1l-0.1,-0.1l-0.3,-0.1l-0.3,0l-0.3,0l-0.2,0.1l-0.1,0.1l-0.1,0.1l0,11.9l0.1,0.2l0.1,0.1l0.2,0c0.1,0,0.3,0,0.4,0c0.2,0,0.3,0,0.4,0l0.2,0l0.2,-0.1l0,-0.2l0,-4.2c0.2,0.2,0.4,0.4,0.6,0.5c0.2,0.2,0.4,0.3,0.7,0.5c0.2,0.1,0.4,0.1,0.6,0.2c0.2,0,0.4,0.1,0.7,0.1c0.6,0,1.1,-0.1,1.6,-0.4c0.4,-0.2,0.8,-0.5,1.1,-0.9c0.4,-0.4,0.6,-1,0.8,-1.5c0.1,-0.6,0.2,-1.3,0.2,-2.1c0,-0.6,-0.1,-1.2,-0.2,-1.7Zm-1.6,3.1c0,0.4,-0.2,0.8,-0.3,1.1c-0.2,0.3,-0.4,0.5,-0.7,0.7c-0.3,0.2,-0.6,0.3,-1,0.3c-0.5,0,-0.9,-0.1,-1.3,-0.4c-0.4,-0.3,-0.8,-0.7,-1.2,-1.2l0,-3.4c0.2,-0.3,0.5,-0.6,0.7,-0.8c0.2,-0.2,0.4,-0.4,0.6,-0.5c0.2,-0.1,0.5,-0.2,0.6,-0.3c0.2,-0.1,0.4,-0.1,0.7,-0.1c0.4,0,0.7,0.1,1,0.3c0.2,0.2,0.5,0.4,0.6,0.8c0.2,0.3,0.3,0.6,0.4,1c0,0.5,0.1,0.9,0.1,1.3c0,0.4,-0.1,0.8,-0.2,1.2Zm11.5,-1.9c0,-0.5,-0.1,-1.1,-0.3,-1.6c-0.1,-0.5,-0.3,-0.9,-0.6,-1.2c-0.3,-0.4,-0.7,-0.7,-1.2,-0.9c-0.5,-0.2,-1,-0.3,-1.7,-0.3c-0.6,0,-1.2,0.1,-1.7,0.3c-0.5,0.2,-0.9,0.5,-1.3,0.9c-0.4,0.4,-0.6,0.9,-0.8,1.5c-0.2,0.6,-0.3,1.3,-0.3,2c0,0.8,0.1,1.5,0.3,2c0.1,0.6,0.4,1.1,0.8,1.5c0.3,0.4,0.8,0.7,1.3,0.9c0.5,0.2,1.2,0.3,1.9,0.3c0.4,0,0.8,-0.1,1.1,-0.1c0.4,-0.1,0.7,-0.2,1,-0.2c0.2,-0.1,0.5,-0.2,0.6,-0.3c0.2,0,0.3,-0.1,0.3,-0.1l0.1,-0.1l0.1,-0.2l0,-0.1l0,-0.2l0,-0.3l-0.1,-0.2l0,-0.1l-0.2,-0.1c0,0,-0.1,0.1,-0.3,0.1c-0.1,0.1,-0.3,0.2,-0.6,0.3c-0.2,0,-0.5,0.1,-0.8,0.2c-0.3,0.1,-0.7,0.1,-1.1,0.1c-0.5,0,-0.9,-0.1,-1.3,-0.2c-0.4,-0.2,-0.6,-0.4,-0.9,-0.7c-0.2,-0.2,-0.3,-0.6,-0.4,-0.9c-0.1,-0.4,-0.2,-0.8,-0.2,-1.3l5.6,0c0.2,0,0.3,-0.1,0.5,-0.2c0.1,-0.1,0.2,-0.3,0.2,-0.5l0,-0.3Zm-6.3,-0.2c0,-0.3,0.1,-0.7,0.2,-1c0.1,-0.3,0.3,-0.6,0.5,-0.8c0.2,-0.3,0.4,-0.4,0.7,-0.6c0.3,-0.1,0.6,-0.2,1,-0.2c0.8,0,1.3,0.2,1.7,0.7c0.4,0.5,0.6,1.1,0.6,1.9l-4.7,0Zm13.6,-3.2l0,-0.2l0,-0.1L567,379.5l-0.2,-0.1l-0.3,-0.1l-0.3,0l-0.3,0c-0.2,0,-0.4,0,-0.5,0c-0.2,0.1,-0.4,0.2,-0.6,0.3c-0.2,0.1,-0.4,0.3,-0.6,0.5c-0.2,0.2,-0.4,0.5,-0.6,0.8l0,-1.2l-0.1,-0.1l-0.1,-0.1l-0.2,-0.1l-0.3,0l-0.4,0l-0.2,0.1l-0.1,0.1l-0.1,0.1l0,8.5l0.1,0.2l0.1,0.1l0.2,0c0.1,0,0.3,0,0.4,0c0.2,0,0.3,0,0.4,0l0.3,0l0.1,-0.1l0,-0.2l0,-5.6c0.2,-0.3,0.4,-0.6,0.6,-0.9c0.2,-0.2,0.4,-0.4,0.6,-0.5c0.1,-0.2,0.3,-0.3,0.4,-0.4c0.2,0,0.3,-0.1,0.5,-0.1l0.4,0.1c0.7,0.1,1,0.6,1,-0.5l-0.1,-0.4Zm14.5,2.9c0,-0.4,0,-0.9,-0.1,-1.3c-0.1,-0.5,-0.3,-0.9,-0.5,-1.2c-0.2,-0.3,-0.5,-0.6,-0.9,-0.7c-0.4,-0.2,-0.9,-0.3,-1.4,-0.3c-0.2,0,-0.5,0,-0.7,0.1c-0.2,0,-0.4,0.1,-0.7,0.2c-0.2,0.2,-0.5,0.3,-0.7,0.6c-0.3,0.2,-0.5,0.4,-0.8,0.8c-0.1,-0.3,-0.3,-0.5,-0.4,-0.7c-0.2,-0.2,-0.4,-0.4,-0.6,-0.6c-0.2,-0.1,-0.4,-0.2,-0.7,-0.3c-0.3,-0.1,-0.6,-0.1,-1,-0.1c-0.4,0,-0.9,0.1,-1.3,0.3c-0.5,0.3,-1,0.7,-1.4,1.2l0,-1.1l-0.1,-0.1l-0.1,-0.1L570,379.4l-0.3,0l-0.4,0l-0.2,0.1l-0.1,0.1l-0.1,0.1l0,8.5l0.1,0.2l0.1,0.1l0.2,0c0.1,0,0.3,0,0.4,0c0.2,0,0.3,0,0.4,0l0.2,0l0.2,-0.1l0,-0.2l0,-5.9c0.4,-0.6,0.8,-1,1.2,-1.3c0.4,-0.2,0.7,-0.4,1.1,-0.4c0.3,0,0.5,0.1,0.8,0.2c0.2,0.1,0.3,0.3,0.5,0.5c0.1,0.2,0.2,0.5,0.3,0.8c0.1,0.3,0.1,0.6,0.1,0.9l0,5.2l0,0.2l0.2,0.1l0.2,0l0.4,0c0.1,0,0.3,0,0.4,0l0.2,0l0.1,-0.1l0.1,-0.2l0,-5.9c0.4,-0.6,0.8,-1,1.2,-1.3c0.3,-0.2,0.7,-0.4,1.1,-0.4c0.3,0,0.5,0.1,0.7,0.2c0.2,0.1,0.4,0.3,0.6,0.5c0.1,0.2,0.2,0.5,0.3,0.8c0,0.3,0.1,0.6,0.1,0.9l0,5.2l0,0.2l0.1,0.1l0.3,0c0.1,0,0.2,0,0.4,0c0.1,0,0.2,0,0.3,0l0.3,0l0.1,-0.1l0,-0.2l0,-5.4Zm20,0c0,-0.4,-0.1,-0.9,-0.2,-1.3c-0.1,-0.5,-0.2,-0.9,-0.5,-1.2c-0.2,-0.3,-0.5,-0.6,-0.9,-0.7c-0.3,-0.2,-0.8,-0.3,-1.3,-0.3c-0.3,0,-0.5,0,-0.7,0.1c-0.3,0,-0.5,0.1,-0.7,0.2c-0.3,0.2,-0.5,0.3,-0.8,0.6c-0.2,0.2,-0.5,0.4,-0.8,0.8c-0.1,-0.3,-0.2,-0.5,-0.4,-0.7c-0.1,-0.2,-0.3,-0.4,-0.5,-0.6c-0.2,-0.1,-0.5,-0.2,-0.8,-0.3c-0.2,-0.1,-0.6,-0.1,-0.9,-0.1c-0.5,0,-0.9,0.1,-1.4,0.3c-0.4,0.3,-0.9,0.7,-1.4,1.2l0,-1.1l0,-0.1l-0.1,-0.1L590,379.4l-0.4,0l-0.3,0l-0.3,0.1l-0.1,0.1l0,0.1l0,8.5l0,0.2l0.2,0.1l0.2,0c0.1,0,0.2,0,0.4,0c0.1,0,0.3,0,0.4,0l0.2,0l0.1,-0.1l0.1,-0.2l0,-5.9c0.4,-0.6,0.8,-1,1.2,-1.3c0.3,-0.2,0.7,-0.4,1.1,-0.4c0.2,0,0.5,0.1,0.7,0.2c0.2,0.1,0.4,0.3,0.5,0.5c0.2,0.2,0.3,0.5,0.4,0.8c0,0.3,0.1,0.6,0.1,0.9l0,5.2l0,0.2l0.1,0.1l0.3,0l0.3,0c0.2,0,0.3,0,0.4,0l0.3,0l0.1,-0.1l0,-0.2l0,-5.9c0.5,-0.6,0.9,-1,1.2,-1.3c0.4,-0.2,0.8,-0.4,1.1,-0.4c0.3,0,0.6,0.1,0.8,0.2c0.2,0.1,0.4,0.3,0.5,0.5c0.2,0.2,0.3,0.5,0.3,0.8c0.1,0.3,0.1,0.6,0.1,0.9l0,5.2l0,0.2l0.2,0.1l0.2,0c0.1,0,0.3,0,0.4,0c0.2,0,0.3,0,0.4,0l0.2,0l0.2,-0.1l0,-0.2l0,-5.4Zm10.5,-0.9c-0.1,-0.5,-0.4,-1,-0.7,-1.4c-0.4,-0.4,-0.8,-0.7,-1.3,-0.9c-0.6,-0.2,-1.2,-0.3,-1.9,-0.3c-0.7,0,-1.3,0.1,-1.9,0.3c-0.5,0.2,-1,0.6,-1.4,1c-0.3,0.4,-0.6,0.9,-0.8,1.5c-0.2,0.6,-0.2,1.2,-0.2,1.9c0,0.8,0,1.4,0.2,2c0.2,0.6,0.4,1,0.8,1.4c0.3,0.4,0.8,0.7,1.3,1c0.5,0.2,1.1,0.3,1.8,0.3c0.8,0,1.4,-0.2,1.9,-0.4c0.6,-0.2,1,-0.6,1.4,-1c0.4,-0.4,0.7,-0.9,0.8,-1.5c0.2,-0.6,0.3,-1.2,0.3,-1.9c0,-0.7,-0.1,-1.4,-0.3,-2Zm-1.5,3.4c-0.1,0.4,-0.2,0.8,-0.5,1.1c-0.2,0.3,-0.4,0.5,-0.8,0.7c-0.3,0.2,-0.7,0.2,-1.2,0.2c-0.5,0,-0.9,0,-1.2,-0.2c-0.4,-0.2,-0.7,-0.5,-0.9,-0.8c-0.2,-0.3,-0.3,-0.6,-0.4,-1c-0.1,-0.5,-0.1,-0.9,-0.1,-1.4c0,-0.4,0,-0.9,0.1,-1.3c0.1,-0.4,0.3,-0.8,0.5,-1.1c0.2,-0.3,0.5,-0.5,0.9,-0.7c0.3,-0.1,0.7,-0.2,1.2,-0.2c0.5,0,0.9,0.1,1.2,0.2c0.4,0.2,0.6,0.5,0.8,0.8c0.2,0.3,0.4,0.7,0.5,1.1c0,0.4,0.1,0.8,0.1,1.3c0,0.5,-0.1,0.9,-0.2,1.3Zm6.1,-5.9l0,-2l-0.1,-0.1l-0.1,-0.1l-0.2,-0.1c-0.1,0,-0.3,0,-0.4,0c-0.2,0,-0.3,0,-0.4,0l-0.3,0.1l-0.1,0.1l0,0.1l0,2l-1.2,0l-0.1,0.1l-0.1,0.1l-0.1,0.2l0,0.3c0,0.2,0,0.4,0.1,0.5l0.2,0.1l1.2,0l0,5c0,0.5,0,1,0.1,1.3c0.1,0.4,0.3,0.7,0.5,0.9c0.2,0.3,0.4,0.5,0.7,0.6c0.4,0.1,0.7,0.1,1.2,0.1l0.4,0l0.4,-0.1l0.4,-0.1l0.2,-0.1l0.1,-0.2c0.1,-0.2,0.1,-0.3,0.1,-0.5l0,-0.3l-0.1,-0.1L619,387.1l0,-0.1l-0.2,0.1l-0.3,0.1l-0.3,0.1l-0.3,0c-0.5,0,-0.8,-0.1,-1,-0.4c-0.2,-0.3,-0.2,-0.8,-0.2,-1.4l0,-4.8l4.4,0l0,7.5l0,0.2l0.1,0.1l0.3,0c0.1,0,0.2,0,0.4,0l0.3,0l0.3,0l0.1,-0.1l0.1,-0.2l0,-8.3c0,-0.1,-0.1,-0.2,-0.1,-0.3c-0.1,-0.1,-0.2,-0.2,-0.4,-0.2l-5.5,0Zm5.9,-3.3c-0.1,-0.2,-0.4,-0.2,-0.7,-0.2c-0.4,0,-0.7,0,-0.8,0.2c-0.1,0.1,-0.2,0.3,-0.2,0.7c0,0.4,0.1,0.6,0.2,0.8c0.1,0.1,0.4,0.1,0.8,0.1c0.3,0,0.6,0,0.7,-0.2c0.2,-0.1,0.2,-0.3,0.2,-0.7c0,-0.4,0,-0.6,-0.2,-0.7Zm4.5,-0.6l0,-0.1L627,375.3l-0.3,0c-0.1,-0.1,-0.2,-0.1,-0.4,-0.1c-0.1,0,-0.2,0,-0.3,0.1l-0.3,0l-0.1,0.1l0,0.1l0,12.7l0,0.2l0.1,0.1l0.3,0c0.1,0,0.2,0,0.3,0c0.2,0,0.3,0,0.4,0l0.3,0l0.1,-0.1l0,-0.2l0,-12.7Zm4.5,4.2l0,-0.1l-0.2,-0.1l-0.2,-0.1c-0.1,0,-0.2,0,-0.4,0c-0.1,0,-0.3,0,-0.4,0l-0.2,0.1l-0.1,0.1l-0.1,0.1l0,8.5l0.1,0.2l0.1,0.1l0.2,0c0.1,0,0.3,0,0.4,0c0.2,0,0.3,0,0.4,0l0.2,0l0.2,-0.1l0,-0.2l0,-8.5Zm0,-3.6c-0.2,-0.2,-0.4,-0.2,-0.8,-0.2c-0.3,0,-0.6,0,-0.7,0.2c-0.2,0.1,-0.3,0.3,-0.3,0.7c0,0.4,0.1,0.6,0.2,0.8c0.2,0.1,0.4,0.1,0.8,0.1c0.4,0,0.6,0,0.8,-0.2c0.1,-0.1,0.2,-0.3,0.2,-0.7c0,-0.4,-0.1,-0.6,-0.2,-0.7Zm7.3,11.2l0,-0.1l-0.1,-0.1L638.7,387l-0.1,0.1l-0.3,0.1l-0.3,0.1l-0.4,0c-0.4,0,-0.7,-0.1,-0.9,-0.4c-0.2,-0.3,-0.3,-0.8,-0.3,-1.4l0,-4.8l2.2,0l0.3,-0.1c0,-0.1,0.1,-0.3,0.1,-0.5l-0.1,-0.3l0,-0.2l-0.1,-0.1l-0.2,-0.1l-2.2,0l0,-2l0,-0.1l-0.1,-0.1L636,377.1c-0.1,0,-0.2,0,-0.3,0c-0.2,0,-0.3,0,-0.4,0l-0.3,0.1l-0.1,0.1l0,0.1l0,2l-1.2,0l-0.1,0.1l-0.1,0.1l-0.1,0.2l0,0.3c0,0.2,0,0.4,0.1,0.5l0.2,0.1l1.2,0l0,5c0,0.5,0,1,0.1,1.3c0.1,0.4,0.3,0.7,0.5,0.9c0.2,0.3,0.4,0.5,0.7,0.6c0.4,0.1,0.7,0.1,1.2,0.1l0.4,0l0.4,-0.1l0.4,-0.1l0.2,-0.1l0.1,-0.2c0,-0.2,0.1,-0.3,0.1,-0.5l-0.1,-0.3ZM648,380l0.1,-0.3L648,379.5l-0.3,-0.1c-0.1,0,-0.2,0,-0.4,0c-0.2,0,-0.4,0,-0.5,0l-0.2,0.1l-0.2,0.2l-2.3,6.9l-2.5,-6.8l-0.1,-0.2l-0.1,-0.1l-0.3,-0.1c-0.1,0,-0.2,0,-0.4,0c-0.2,0,-0.4,0,-0.5,0l-0.2,0.1l-0.1,0.2L640,380l3,8.2l0.1,0.2l0.2,0.1l-1.2,3l0,0.2l0.1,0.1l0.2,0.1c0.1,0,0.2,0,0.4,0c0.3,0,0.5,0,0.7,0c0.2,-0.1,0.3,-0.2,0.3,-0.3l1.1,-3.1L648,380Z" class="g1_4" />
<path d="M148.9,651.5l-0.1,-0.2l-0.1,-0.1l-0.1,0l-8.6,0l-0.1,0l-0.1,0.1l-0.1,0.2l0,0.4l0,0.3l0.1,0.2l0.1,0.1l0.1,0l3.5,0l0,10.7l0,0.1l0.2,0.1l0.2,0.1c0.1,0,0.3,0,0.4,0c0.2,0,0.3,0,0.4,0l0.3,-0.1l0.1,-0.1l0,-0.1l0,-10.7l3.5,0l0.1,0l0.1,-0.1l0.1,-0.2l0,-0.3l0,-0.4Zm9.3,5.4c-0.2,-0.5,-0.4,-1,-0.8,-1.4c-0.3,-0.4,-0.8,-0.7,-1.3,-0.9c-0.5,-0.3,-1.1,-0.4,-1.8,-0.4c-0.8,0,-1.4,0.2,-1.9,0.4c-0.6,0.2,-1,0.6,-1.4,1c-0.4,0.4,-0.6,0.9,-0.8,1.5c-0.2,0.6,-0.3,1.2,-0.3,1.9c0,0.7,0.1,1.4,0.3,2c0.1,0.5,0.4,1,0.8,1.4c0.3,0.4,0.7,0.7,1.3,0.9c0.5,0.2,1.1,0.3,1.8,0.3c0.7,0,1.4,-0.1,1.9,-0.3c0.6,-0.3,1,-0.6,1.4,-1c0.3,-0.4,0.6,-0.9,0.8,-1.5c0.2,-0.6,0.3,-1.3,0.3,-2c0,-0.7,-0.1,-1.3,-0.3,-1.9Zm-1.5,3.4c-0.1,0.4,-0.3,0.8,-0.5,1.1c-0.2,0.3,-0.5,0.5,-0.8,0.7c-0.4,0.1,-0.8,0.2,-1.2,0.2c-0.5,0,-0.9,-0.1,-1.3,-0.2c-0.3,-0.2,-0.6,-0.5,-0.8,-0.8c-0.2,-0.3,-0.3,-0.6,-0.4,-1.1c-0.1,-0.4,-0.2,-0.8,-0.2,-1.3c0,-0.5,0.1,-0.9,0.2,-1.3c0.1,-0.4,0.3,-0.8,0.5,-1.1c0.2,-0.3,0.5,-0.5,0.8,-0.7c0.3,-0.2,0.7,-0.3,1.2,-0.3c0.5,0,0.9,0.1,1.3,0.3c0.3,0.2,0.6,0.4,0.8,0.8c0.2,0.3,0.3,0.6,0.4,1c0.1,0.5,0.1,0.9,0.1,1.4c0,0.5,0,0.9,-0.1,1.3Zm8.5,2l0,-0.2L165.1,662l-0.1,0l-0.2,0.1l-0.2,0.1l-0.3,0l-0.4,0.1c-0.4,0,-0.7,-0.2,-0.9,-0.5c-0.2,-0.3,-0.3,-0.7,-0.3,-1.3l0,-4.8l2.2,0l0.2,-0.1c0.1,-0.1,0.1,-0.3,0.1,-0.5l0,-0.3l-0.1,-0.2l0,-0.1l-0.2,-0.1l-2.2,0l0,-2l0,-0.1l-0.1,-0.1l-0.3,-0.1c-0.1,0,-0.2,0,-0.4,0c-0.1,0,-0.2,0,-0.3,0l-0.3,0.1l-0.1,0.1l0,0.1l0,2l-1.2,0l-0.2,0.1l-0.1,0.1l0,0.2l-0.1,0.3c0,0.2,0.1,0.4,0.1,0.5l0.3,0.1l1.2,0l0,5c0,0.5,0,0.9,0.1,1.3c0.1,0.4,0.2,0.7,0.4,0.9c0.2,0.3,0.5,0.4,0.8,0.5c0.3,0.2,0.7,0.2,1.2,0.2l0.4,0l0.4,-0.1l0.4,-0.1l0.2,-0.1l0.1,-0.3c0,-0.1,0,-0.2,0,-0.4l0,-0.3Zm8.6,-4.8c0,-0.6,-0.1,-1,-0.2,-1.4c-0.1,-0.4,-0.3,-0.8,-0.6,-1c-0.3,-0.3,-0.6,-0.5,-1.1,-0.7c-0.4,-0.1,-0.9,-0.2,-1.5,-0.2c-0.4,0,-0.7,0.1,-1,0.1c-0.3,0.1,-0.6,0.2,-0.9,0.3c-0.3,0,-0.5,0.1,-0.7,0.3c-0.2,0.1,-0.4,0.2,-0.5,0.3l-0.1,0.2c0,0.1,-0.1,0.2,-0.1,0.4l0.1,0.3l0,0.1l0.1,0.2l0.2,0c0,0,0.1,0,0.3,-0.1c0.2,-0.1,0.4,-0.2,0.6,-0.3c0.2,-0.2,0.5,-0.3,0.8,-0.3c0.3,-0.1,0.6,-0.2,1,-0.2c0.4,0,0.7,0.1,0.9,0.1c0.3,0.1,0.5,0.3,0.6,0.4c0.2,0.2,0.3,0.4,0.4,0.7c0.1,0.2,0.1,0.5,0.1,0.8l0,0.7l-1.2,0c-0.7,0,-1.3,0.1,-1.8,0.2c-0.5,0.1,-1,0.3,-1.3,0.5c-0.4,0.2,-0.7,0.5,-0.9,0.9c-0.2,0.3,-0.3,0.8,-0.3,1.2c0,0.4,0.1,0.8,0.2,1.1c0.2,0.4,0.4,0.6,0.6,0.9c0.3,0.2,0.6,0.4,1,0.5c0.3,0.1,0.7,0.1,1.2,0.1c0.5,0,1,-0.1,1.5,-0.3c0.4,-0.2,0.8,-0.5,1.2,-0.9l0,0.8l0.1,0.2l0.2,0.1c0.1,0,0.2,0,0.4,0c0.1,0,0.3,0,0.4,0l0.2,-0.1l0.1,-0.2l0,-5.7Zm-1.6,3.6c-0.4,0.5,-0.8,0.8,-1.1,1c-0.4,0.2,-0.7,0.3,-1.2,0.3c-0.5,0,-0.9,-0.1,-1.1,-0.4c-0.3,-0.2,-0.5,-0.6,-0.5,-1c0,-0.3,0.1,-0.5,0.2,-0.7c0.1,-0.2,0.2,-0.4,0.4,-0.5c0.2,-0.2,0.5,-0.3,0.8,-0.4c0.3,0,0.7,-0.1,1.2,-0.1l1.3,0l0,1.8Zm6,-10.6l0,-0.1L178,650.3l-0.2,-0.1c-0.1,0,-0.2,0,-0.4,0c-0.1,0,-0.3,0,-0.4,0l-0.2,0.1l-0.1,0.1l-0.1,0.1l0,12.7l0.1,0.2l0.1,0l0.2,0.1c0.1,0,0.3,0,0.4,0c0.2,0,0.3,0,0.4,0l0.2,-0.1l0.2,0l0,-0.2l0,-12.7Zm12.5,9.4c-0.1,-0.2,-0.3,-0.4,-0.5,-0.6c-0.2,-0.2,-0.4,-0.4,-0.7,-0.5c-0.3,-0.2,-0.5,-0.3,-0.8,-0.4c-0.3,-0.1,-0.5,-0.2,-0.8,-0.3c-0.2,-0.1,-0.5,-0.2,-0.7,-0.3c-0.2,-0.2,-0.4,-0.3,-0.5,-0.5c-0.1,-0.2,-0.2,-0.4,-0.2,-0.6c0,-0.2,0.1,-0.3,0.1,-0.5c0.1,-0.2,0.2,-0.3,0.3,-0.4c0.2,-0.1,0.3,-0.2,0.5,-0.3c0.2,0,0.5,0,0.7,0c0.3,0,0.6,0,0.8,0.1c0.3,0,0.5,0.1,0.6,0.2c0.2,0.1,0.3,0.1,0.4,0.2l0.3,0.1l0.1,0l0.1,-0.1l0,-0.2l0,-0.3l0,-0.3l0,-0.1l0,-0.2l-0.2,-0.1l-0.3,-0.2c-0.1,0,-0.3,-0.1,-0.4,-0.2c-0.2,0,-0.4,-0.1,-0.7,-0.1c-0.2,0,-0.4,-0.1,-0.7,-0.1c-0.5,0,-0.9,0.1,-1.3,0.2c-0.4,0.2,-0.7,0.4,-1,0.6c-0.3,0.2,-0.4,0.5,-0.6,0.8c-0.1,0.3,-0.2,0.6,-0.2,1c0,0.4,0.1,0.7,0.2,1c0.1,0.2,0.3,0.5,0.5,0.7c0.2,0.2,0.4,0.3,0.7,0.5c0.3,0.1,0.5,0.2,0.8,0.3c0.3,0.1,0.5,0.2,0.8,0.3c0.2,0.1,0.4,0.2,0.7,0.4c0.2,0.1,0.3,0.2,0.4,0.4c0.2,0.2,0.2,0.4,0.2,0.6c0,0.3,0,0.5,-0.1,0.6c-0.1,0.2,-0.2,0.3,-0.4,0.5c-0.1,0.1,-0.3,0.1,-0.5,0.2c-0.2,0.1,-0.5,0.1,-0.8,0.1c-0.3,0,-0.6,-0.1,-0.9,-0.1c-0.3,-0.1,-0.5,-0.2,-0.7,-0.3c-0.2,-0.1,-0.4,-0.2,-0.5,-0.3l-0.3,-0.1l-0.1,0l-0.1,0.1l-0.1,0.2l0,0.3c0,0.2,0,0.4,0.1,0.5l0.1,0.2c0.1,0.1,0.2,0.2,0.4,0.3c0.1,0,0.3,0.1,0.5,0.2c0.2,0.1,0.5,0.1,0.8,0.2c0.2,0,0.5,0,0.8,0c0.5,0,1,0,1.4,-0.1c0.4,-0.2,0.7,-0.3,1,-0.6c0.3,-0.2,0.6,-0.5,0.7,-0.8c0.2,-0.4,0.3,-0.8,0.3,-1.2c0,-0.4,-0.1,-0.7,-0.2,-1ZM200.8,657c-0.1,-0.5,-0.3,-1,-0.6,-1.4c-0.3,-0.4,-0.6,-0.8,-1.1,-1c-0.4,-0.2,-0.9,-0.4,-1.6,-0.4c-0.2,0,-0.5,0.1,-0.8,0.1c-0.2,0.1,-0.5,0.2,-0.7,0.3c-0.3,0.2,-0.5,0.3,-0.7,0.5c-0.3,0.2,-0.5,0.4,-0.8,0.7l0,-1.1l0,-0.2l-0.2,-0.1l-0.2,0l-0.3,0l-0.3,0l-0.2,0l-0.2,0.1l0,0.2l0,11.9l0.1,0.2l0.1,0l0.2,0.1c0.1,0,0.2,0,0.4,0c0.2,0,0.3,0,0.4,0l0.2,-0.1l0.2,0l0,-0.2l0,-4.3c0.2,0.3,0.4,0.5,0.6,0.6c0.2,0.2,0.4,0.3,0.7,0.4c0.2,0.1,0.4,0.2,0.6,0.3c0.2,0,0.4,0,0.7,0c0.6,0,1.1,-0.1,1.6,-0.3c0.4,-0.2,0.8,-0.5,1.1,-1c0.4,-0.4,0.6,-0.9,0.8,-1.5c0.1,-0.6,0.2,-1.2,0.2,-2c0,-0.6,-0.1,-1.2,-0.2,-1.8Zm-1.6,3.2c0,0.4,-0.2,0.7,-0.3,1c-0.2,0.4,-0.4,0.6,-0.7,0.8c-0.3,0.2,-0.7,0.3,-1.1,0.3c-0.4,0,-0.8,-0.1,-1.2,-0.4c-0.4,-0.3,-0.8,-0.7,-1.2,-1.2l0,-3.4c0.2,-0.3,0.5,-0.6,0.7,-0.8c0.2,-0.2,0.4,-0.4,0.6,-0.5c0.2,-0.2,0.4,-0.3,0.6,-0.3c0.2,-0.1,0.4,-0.1,0.6,-0.1c0.5,0,0.8,0.1,1.1,0.3c0.2,0.2,0.5,0.4,0.6,0.7c0.2,0.4,0.3,0.7,0.4,1.1c0,0.4,0.1,0.9,0.1,1.3c0,0.4,-0.1,0.8,-0.2,1.2Zm11.5,-1.9c0,-0.6,-0.1,-1.1,-0.3,-1.6c-0.1,-0.5,-0.3,-0.9,-0.6,-1.3c-0.3,-0.3,-0.7,-0.6,-1.2,-0.8c-0.5,-0.3,-1,-0.4,-1.7,-0.4c-0.6,0,-1.2,0.1,-1.7,0.4c-0.5,0.2,-1,0.5,-1.3,0.9c-0.4,0.4,-0.6,0.9,-0.8,1.5c-0.2,0.6,-0.3,1.2,-0.3,2c0,0.8,0.1,1.4,0.3,2c0.1,0.6,0.4,1.1,0.8,1.5c0.3,0.4,0.8,0.7,1.3,0.8c0.5,0.2,1.2,0.3,1.9,0.3c0.4,0,0.7,0,1.1,0c0.4,-0.1,0.7,-0.2,1,-0.3c0.2,0,0.4,-0.1,0.6,-0.2c0.2,-0.1,0.3,-0.1,0.3,-0.2l0.1,-0.1l0.1,-0.1l0,-0.2l0,-0.2l0,-0.3l-0.1,-0.1l0,-0.1L210,661.7c0,0,-0.2,0.1,-0.3,0.1c-0.2,0.1,-0.3,0.2,-0.6,0.2c-0.2,0.1,-0.5,0.2,-0.8,0.3c-0.3,0,-0.7,0.1,-1.1,0.1c-0.5,0,-0.9,-0.1,-1.3,-0.2c-0.4,-0.2,-0.6,-0.4,-0.9,-0.7c-0.2,-0.3,-0.4,-0.6,-0.4,-1c-0.1,-0.3,-0.2,-0.8,-0.2,-1.2l5.6,0c0.2,0,0.3,-0.1,0.5,-0.2c0.1,-0.1,0.2,-0.3,0.2,-0.5l0,-0.3Zm-6.3,-0.2c0,-0.3,0.1,-0.7,0.2,-1c0.1,-0.3,0.3,-0.6,0.4,-0.8c0.2,-0.3,0.5,-0.5,0.8,-0.6c0.3,-0.2,0.6,-0.2,1,-0.2c0.8,0,1.3,0.2,1.7,0.7c0.4,0.4,0.6,1.1,0.6,1.9l-4.7,0ZM218,654.9l0,-0.2l0,-0.1l-0.1,-0.1l-0.2,-0.1l-0.3,-0.1l-0.3,0l-0.3,-0.1c-0.2,0,-0.4,0.1,-0.5,0.1c-0.2,0.1,-0.4,0.1,-0.6,0.3c-0.2,0.1,-0.4,0.3,-0.6,0.5c-0.2,0.2,-0.4,0.5,-0.6,0.8l0,-1.2l-0.1,-0.2l-0.1,-0.1l-0.2,0l-0.3,0l-0.4,0l-0.2,0l-0.1,0.1l-0.1,0.2l0,8.5l0.1,0.2l0.1,0l0.2,0.1c0.1,0,0.3,0,0.4,0c0.2,0,0.3,0,0.4,0l0.2,-0.1l0.2,0l0,-0.2l0,-5.6c0.2,-0.4,0.4,-0.6,0.6,-0.9c0.2,-0.2,0.4,-0.4,0.5,-0.6c0.2,-0.1,0.4,-0.2,0.5,-0.3c0.2,0,0.3,-0.1,0.5,-0.1l0.4,0.1c0.7,0.1,0.9,0.5,0.9,-0.6l0,-0.3Zm14.5,2.9c0,-0.5,0,-0.9,-0.1,-1.4c-0.1,-0.4,-0.3,-0.8,-0.5,-1.1c-0.2,-0.3,-0.6,-0.6,-0.9,-0.8c-0.4,-0.2,-0.9,-0.3,-1.4,-0.3c-0.2,0,-0.5,0.1,-0.7,0.1c-0.2,0.1,-0.4,0.2,-0.7,0.3c-0.2,0.2,-0.5,0.3,-0.7,0.5c-0.3,0.3,-0.6,0.5,-0.8,0.8c-0.1,-0.2,-0.3,-0.5,-0.4,-0.7c-0.2,-0.2,-0.4,-0.3,-0.6,-0.5c-0.2,-0.1,-0.4,-0.3,-0.7,-0.3c-0.3,-0.1,-0.6,-0.2,-1,-0.2c-0.4,0,-0.9,0.2,-1.3,0.4c-0.5,0.3,-1,0.7,-1.5,1.2l0,-1.1l0,-0.2l-0.1,-0.1l-0.2,0l-0.4,0l-0.3,0l-0.2,0l-0.1,0.1l-0.1,0.2l0,8.5l0.1,0.2l0.1,0l0.2,0.1c0.1,0,0.3,0,0.4,0c0.2,0,0.3,0,0.4,0l0.2,-0.1l0.2,0l0,-0.2l0,-6c0.4,-0.5,0.8,-0.9,1.2,-1.2c0.4,-0.3,0.7,-0.4,1.1,-0.4c0.3,0,0.5,0.1,0.7,0.2c0.3,0.1,0.4,0.2,0.6,0.5c0.1,0.2,0.2,0.4,0.3,0.7c0.1,0.3,0.1,0.7,0.1,1l0,5.2l0,0.2l0.2,0l0.2,0.1l0.4,0c0.1,0,0.3,0,0.4,0l0.2,-0.1l0.1,0l0.1,-0.2l0,-6c0.4,-0.5,0.8,-0.9,1.2,-1.2c0.3,-0.3,0.7,-0.4,1.1,-0.4c0.2,0,0.5,0.1,0.7,0.2c0.2,0.1,0.4,0.2,0.5,0.5c0.2,0.2,0.3,0.4,0.4,0.7c0,0.3,0,0.7,0,1l0,5.2l0.1,0.2l0.1,0l0.3,0.1c0.1,0,0.2,0,0.3,0c0.2,0,0.3,0,0.4,0l0.3,-0.1l0.1,0l0,-0.2l0,-5.4Zm13.4,3.8l0,-0.2l-0.1,-0.2l-0.1,0l-0.3,0.2c-0.2,0.1,-0.3,0.2,-0.5,0.3c-0.2,0.2,-0.5,0.3,-0.7,0.4c-0.3,0.1,-0.6,0.2,-1,0.2c-0.4,0,-0.7,-0.1,-1,-0.2c-0.3,-0.2,-0.6,-0.4,-0.8,-0.6c-0.2,-0.3,-0.3,-0.7,-0.4,-1.1c-0.1,-0.4,-0.2,-0.9,-0.2,-1.4c0,-1.1,0.2,-2,0.6,-2.6c0.4,-0.5,1,-0.8,1.8,-0.8c0.3,0,0.7,0,0.9,0.1c0.3,0.1,0.5,0.2,0.7,0.4c0.2,0.1,0.4,0.2,0.5,0.3l0.3,0.2l0.2,-0.2c0.1,-0.1,0.1,-0.2,0.1,-0.5l0,-0.3l0,-0.2l-0.1,-0.1l-0.2,-0.2c0,-0.1,-0.2,-0.2,-0.3,-0.3c-0.2,-0.1,-0.4,-0.2,-0.6,-0.3c-0.2,-0.1,-0.5,-0.1,-0.7,-0.2c-0.3,0,-0.5,-0.1,-0.8,-0.1c-0.6,0,-1.1,0.1,-1.6,0.3c-0.5,0.2,-0.9,0.5,-1.3,0.9c-0.3,0.4,-0.6,0.9,-0.8,1.5c-0.2,0.6,-0.3,1.3,-0.3,2.2c0,0.7,0.1,1.3,0.2,1.9c0.2,0.6,0.5,1.1,0.8,1.4c0.3,0.4,0.7,0.7,1.2,0.9c0.4,0.2,1,0.3,1.6,0.3c0.3,0,0.6,0,0.9,0c0.2,-0.1,0.5,-0.2,0.7,-0.3c0.3,-0.1,0.5,-0.2,0.7,-0.3c0.2,-0.1,0.3,-0.2,0.4,-0.3l0.1,-0.2l0.1,-0.1l0,-0.2l0,-0.3l0,-0.3Zm9.8,-4.7c-0.2,-0.5,-0.4,-1,-0.8,-1.4c-0.3,-0.4,-0.7,-0.7,-1.3,-0.9c-0.5,-0.3,-1.1,-0.4,-1.8,-0.4c-0.7,0,-1.4,0.2,-1.9,0.4c-0.6,0.2,-1,0.6,-1.4,1c-0.4,0.4,-0.6,0.9,-0.8,1.5c-0.2,0.6,-0.3,1.2,-0.3,1.9c0,0.7,0.1,1.4,0.3,2c0.2,0.5,0.4,1,0.8,1.4c0.3,0.4,0.7,0.7,1.3,0.9c0.5,0.2,1.1,0.3,1.8,0.3c0.7,0,1.4,-0.1,1.9,-0.3c0.6,-0.3,1,-0.6,1.4,-1c0.3,-0.4,0.6,-0.9,0.8,-1.5c0.2,-0.6,0.3,-1.3,0.3,-2c0,-0.7,-0.1,-1.3,-0.3,-1.9Zm-1.5,3.4c-0.1,0.4,-0.3,0.8,-0.5,1.1c-0.2,0.3,-0.5,0.5,-0.8,0.7c-0.3,0.1,-0.7,0.2,-1.2,0.2c-0.5,0,-0.9,-0.1,-1.3,-0.2c-0.3,-0.2,-0.6,-0.5,-0.8,-0.8c-0.2,-0.3,-0.3,-0.6,-0.4,-1.1c-0.1,-0.4,-0.1,-0.8,-0.1,-1.3c0,-0.5,0,-0.9,0.1,-1.3c0.1,-0.4,0.3,-0.8,0.5,-1.1c0.2,-0.3,0.5,-0.5,0.8,-0.7c0.4,-0.2,0.8,-0.3,1.2,-0.3c0.5,0,1,0.1,1.3,0.3c0.3,0.2,0.6,0.4,0.8,0.8c0.2,0.3,0.3,0.6,0.4,1c0.1,0.5,0.2,0.9,0.2,1.4c0,0.5,-0.1,0.9,-0.2,1.3Zm11.4,-5.6l0,-0.2l-0.1,-0.1l-0.3,0c-0.1,0,-0.2,0,-0.4,0c-0.1,0,-0.3,0,-0.4,0l-0.2,0l-0.1,0.1l-0.1,0.2l0,5.9c-0.4,0.6,-0.8,1,-1.2,1.3c-0.4,0.3,-0.8,0.4,-1.2,0.4c-0.3,0,-0.5,-0.1,-0.8,-0.2c-0.2,-0.1,-0.4,-0.3,-0.5,-0.5c-0.2,-0.2,-0.3,-0.4,-0.4,-0.7c0,-0.3,-0.1,-0.8,-0.1,-1.3l0,-4.9l0,-0.2l-0.1,-0.1l-0.3,0c-0.1,0,-0.2,0,-0.4,0c-0.1,0,-0.2,0,-0.3,0l-0.3,0l-0.1,0.1l-0.1,0.2l0,5.2c0,0.6,0.1,1.1,0.2,1.5c0.1,0.5,0.3,0.9,0.5,1.2c0.3,0.3,0.6,0.6,1,0.8c0.4,0.1,0.8,0.2,1.4,0.2c0.5,0,1,-0.1,1.5,-0.3c0.4,-0.3,0.9,-0.7,1.4,-1.2l0,1.1l0,0.2l0.1,0l0.3,0.1l0.3,0l0.3,0l0.3,-0.1l0.1,0l0,-0.2l0,-8.5Zm10.3,3.3c0,-0.6,-0.1,-1.1,-0.2,-1.6c-0.1,-0.4,-0.2,-0.8,-0.5,-1.1c-0.2,-0.3,-0.5,-0.6,-0.9,-0.8c-0.4,-0.2,-0.9,-0.3,-1.5,-0.3c-0.5,0,-0.9,0.2,-1.4,0.4c-0.5,0.3,-1,0.7,-1.5,1.2l0,-1.1l0,-0.2l-0.1,-0.1l-0.2,0l-0.4,0l-0.3,0l-0.2,0l-0.1,0.1l-0.1,0.2l0,8.5l0.1,0.2l0.1,0l0.2,0.1c0.1,0,0.3,0,0.4,0c0.2,0,0.3,0,0.4,0l0.2,-0.1l0.2,0l0,-0.2l0,-6c0.4,-0.5,0.8,-0.9,1.2,-1.2c0.4,-0.3,0.8,-0.4,1.2,-0.4c0.3,0,0.6,0.1,0.8,0.2c0.2,0.1,0.4,0.2,0.6,0.5c0.1,0.2,0.2,0.4,0.3,0.7c0.1,0.3,0.1,0.7,0.1,1.2l0,5l0.1,0.2l0.1,0l0.2,0.1c0.1,0,0.3,0,0.4,0c0.2,0,0.3,0,0.4,0l0.2,-0.1l0.2,0l0,-0.2l0,-5.2Zm7.3,4.3l-0.1,-0.2l0,-0.1l-0.1,0l-0.2,0.1l-0.2,0.1l-0.3,0l-0.4,0.1c-0.5,0,-0.8,-0.2,-0.9,-0.5c-0.2,-0.3,-0.3,-0.7,-0.3,-1.3l0,-4.8l2.2,0l0.2,-0.1c0.1,-0.1,0.1,-0.3,0.1,-0.5l0,-0.3l-0.1,-0.2L283,654.5l-0.1,-0.1l-2.2,0l0,-2l0,-0.1l-0.2,-0.1l-0.2,-0.1c-0.1,0,-0.2,0,-0.4,0c-0.1,0,-0.3,0,-0.4,0l-0.2,0.1l-0.1,0.1l-0.1,0.1l0,2l-1.2,0l-0.1,0.1l-0.1,0.1l-0.1,0.2l0,0.3c0,0.2,0,0.4,0.1,0.5l0.2,0.1l1.2,0l0,5c0,0.5,0.1,0.9,0.2,1.3c0.1,0.4,0.2,0.7,0.4,0.9c0.2,0.3,0.5,0.4,0.8,0.5c0.3,0.2,0.7,0.2,1.1,0.2l0.5,0l0.4,-0.1l0.3,-0.1l0.3,-0.1l0.1,-0.3c0,-0.1,0,-0.2,0,-0.4l0,-0.3Z" class="g1_4" />
<path d="M538.1,651.5l0,-0.2L538,651.2l-0.2,0l-8.5,0l-0.2,0l-0.1,0.1l0,0.2l-0.1,0.4l0.1,0.3l0,0.2l0.1,0.1l0.2,0l3.4,0l0,10.7l0.1,0.1l0.1,0.1l0.2,0.1c0.2,0,0.3,0,0.4,0c0.2,0,0.3,0,0.4,0l0.3,-0.1l0.1,-0.1l0.1,-0.1l0,-10.7l3.4,0l0.2,0l0.1,-0.1l0,-0.2l0,-0.3l0,-0.4Zm9.3,5.4c-0.1,-0.5,-0.4,-1,-0.7,-1.4c-0.4,-0.4,-0.8,-0.7,-1.4,-0.9c-0.5,-0.3,-1.1,-0.4,-1.8,-0.4c-0.7,0,-1.4,0.2,-1.9,0.4c-0.6,0.2,-1,0.6,-1.4,1c-0.3,0.4,-0.6,0.9,-0.8,1.5c-0.2,0.6,-0.3,1.2,-0.3,1.9c0,0.7,0.1,1.4,0.3,2c0.2,0.5,0.4,1,0.8,1.4c0.3,0.4,0.8,0.7,1.3,0.9c0.5,0.2,1.1,0.3,1.8,0.3c0.7,0,1.4,-0.1,1.9,-0.3c0.6,-0.3,1,-0.6,1.4,-1c0.4,-0.4,0.6,-0.9,0.8,-1.5c0.2,-0.6,0.3,-1.3,0.3,-2c0,-0.7,-0.1,-1.3,-0.3,-1.9Zm-1.5,3.4c-0.1,0.4,-0.2,0.8,-0.5,1.1c-0.2,0.3,-0.5,0.5,-0.8,0.7c-0.3,0.1,-0.7,0.2,-1.2,0.2c-0.5,0,-0.9,-0.1,-1.3,-0.2c-0.3,-0.2,-0.6,-0.5,-0.8,-0.8c-0.2,-0.3,-0.3,-0.6,-0.4,-1.1c-0.1,-0.4,-0.1,-0.8,-0.1,-1.3c0,-0.5,0,-0.9,0.1,-1.3c0.1,-0.4,0.3,-0.8,0.5,-1.1c0.2,-0.3,0.5,-0.5,0.8,-0.7c0.4,-0.2,0.8,-0.3,1.2,-0.3c0.5,0,1,0.1,1.3,0.3c0.3,0.2,0.6,0.4,0.8,0.8c0.2,0.3,0.4,0.6,0.4,1c0.1,0.5,0.2,0.9,0.2,1.4c0,0.5,-0.1,0.9,-0.2,1.3Zm8.5,2l0,-0.2L554.3,662l-0.1,0l-0.1,0.1l-0.3,0.1l-0.3,0l-0.4,0.1c-0.4,0,-0.7,-0.2,-0.9,-0.5c-0.2,-0.3,-0.3,-0.7,-0.3,-1.3l0,-4.8l2.2,0l0.3,-0.1c0,-0.1,0.1,-0.3,0.1,-0.5l-0.1,-0.3l0,-0.2l-0.1,-0.1l-0.2,-0.1l-2.2,0l0,-2l0,-0.1l-0.1,-0.1l-0.3,-0.1c-0.1,0,-0.2,0,-0.3,0c-0.2,0,-0.3,0,-0.4,0l-0.3,0.1l-0.1,0.1l0,0.1l0,2l-1.2,0l-0.2,0.1l0,0.1l-0.1,0.2l0,0.3c0,0.2,0,0.4,0.1,0.5l0.2,0.1l1.2,0l0,5c0,0.5,0,0.9,0.1,1.3c0.1,0.4,0.3,0.7,0.5,0.9c0.2,0.3,0.4,0.4,0.7,0.5c0.4,0.2,0.7,0.2,1.2,0.2l0.4,0l0.4,-0.1l0.4,-0.1l0.2,-0.1l0.1,-0.3c0,-0.1,0.1,-0.2,0.1,-0.4l-0.1,-0.3Zm8.6,-4.8c0,-0.6,-0.1,-1,-0.2,-1.4c-0.1,-0.4,-0.3,-0.8,-0.6,-1c-0.3,-0.3,-0.6,-0.5,-1,-0.7c-0.5,-0.1,-1,-0.2,-1.6,-0.2c-0.3,0,-0.7,0.1,-1,0.1c-0.3,0.1,-0.6,0.2,-0.9,0.3c-0.2,0,-0.5,0.1,-0.7,0.3c-0.2,0.1,-0.4,0.2,-0.4,0.3l-0.2,0.2c0,0.1,0,0.2,0,0.4l0,0.3l0.1,0.1l0,0.2l0.2,0c0.1,0,0.2,0,0.3,-0.1c0.2,-0.1,0.4,-0.2,0.6,-0.3c0.2,-0.2,0.5,-0.3,0.8,-0.3c0.3,-0.1,0.7,-0.2,1.1,-0.2c0.3,0,0.6,0.1,0.9,0.1c0.2,0.1,0.4,0.3,0.6,0.4c0.1,0.2,0.2,0.4,0.3,0.7c0.1,0.2,0.1,0.5,0.1,0.8l0,0.7l-1.2,0c-0.6,0,-1.2,0.1,-1.8,0.2c-0.5,0.1,-0.9,0.3,-1.3,0.5c-0.4,0.2,-0.7,0.5,-0.9,0.9c-0.2,0.3,-0.3,0.8,-0.3,1.2c0,0.4,0.1,0.8,0.3,1.1c0.1,0.4,0.3,0.6,0.6,0.9c0.2,0.2,0.5,0.4,0.9,0.5c0.4,0.1,0.8,0.1,1.2,0.1c0.5,0,1,-0.1,1.5,-0.3c0.4,-0.2,0.9,-0.5,1.2,-0.9l0,0.8l0.1,0.2l0.2,0.1c0.1,0,0.2,0,0.4,0c0.2,0,0.3,0,0.4,0l0.2,-0.1l0.1,-0.2l0,-5.7Zm-1.6,3.6c-0.4,0.5,-0.7,0.8,-1.1,1c-0.3,0.2,-0.7,0.3,-1.1,0.3c-0.5,0,-0.9,-0.1,-1.2,-0.4c-0.3,-0.2,-0.4,-0.6,-0.4,-1c0,-0.3,0,-0.5,0.1,-0.7c0.1,-0.2,0.3,-0.4,0.5,-0.5c0.2,-0.2,0.4,-0.3,0.8,-0.4c0.3,0,0.6,-0.1,1.1,-0.1l1.3,0l0,1.8Zm6,-10.6l0,-0.1l-0.1,-0.1L567,650.2c-0.1,0,-0.2,0,-0.4,0c-0.1,0,-0.2,0,-0.3,0l-0.3,0.1l-0.1,0.1l0,0.1l0,12.7l0,0.2l0.1,0l0.3,0.1c0.1,0,0.2,0,0.3,0c0.2,0,0.3,0,0.4,0l0.3,-0.1l0.1,0l0,-0.2l0,-12.7Zm20,7.3c0,-0.5,0,-0.9,-0.1,-1.4c-0.1,-0.4,-0.3,-0.8,-0.5,-1.1c-0.3,-0.3,-0.6,-0.6,-0.9,-0.8c-0.4,-0.2,-0.9,-0.3,-1.4,-0.3c-0.2,0,-0.5,0.1,-0.7,0.1c-0.2,0.1,-0.5,0.2,-0.7,0.3c-0.2,0.2,-0.5,0.3,-0.7,0.5c-0.3,0.3,-0.6,0.5,-0.8,0.8c-0.1,-0.2,-0.3,-0.5,-0.4,-0.7c-0.2,-0.2,-0.4,-0.3,-0.6,-0.5c-0.2,-0.1,-0.4,-0.3,-0.7,-0.3c-0.3,-0.1,-0.6,-0.2,-1,-0.2c-0.4,0,-0.9,0.2,-1.4,0.4c-0.4,0.3,-0.9,0.7,-1.4,1.2l0,-1.1l0,-0.2L576,654.4l-0.2,0l-0.4,0l-0.3,0l-0.2,0l-0.1,0.1l-0.1,0.2l0,8.5l0.1,0.2l0.1,0l0.2,0.1c0.1,0,0.3,0,0.4,0c0.2,0,0.3,0,0.4,0l0.2,-0.1l0.2,0l0,-0.2l0,-6c0.4,-0.5,0.8,-0.9,1.2,-1.2c0.4,-0.3,0.7,-0.4,1.1,-0.4c0.3,0,0.5,0.1,0.7,0.2c0.3,0.1,0.4,0.2,0.6,0.5c0.1,0.2,0.2,0.4,0.3,0.7c0.1,0.3,0.1,0.7,0.1,1l0,5.2l0,0.2l0.2,0l0.2,0.1l0.4,0c0.1,0,0.3,0,0.4,0l0.2,-0.1l0.1,0l0.1,-0.2l0,-6c0.4,-0.5,0.8,-0.9,1.2,-1.2c0.3,-0.3,0.7,-0.4,1.1,-0.4c0.2,0,0.5,0.1,0.7,0.2c0.2,0.1,0.4,0.2,0.5,0.5c0.2,0.2,0.3,0.4,0.3,0.7c0.1,0.3,0.1,0.7,0.1,1l0,5.2l0.1,0.2l0.1,0l0.3,0.1c0.1,0,0.2,0,0.3,0c0.2,0,0.3,0,0.4,0l0.3,-0.1l0.1,0l0,-0.2l0,-5.4ZM598,656.9c-0.2,-0.5,-0.5,-1,-0.8,-1.4c-0.4,-0.4,-0.8,-0.7,-1.3,-0.9c-0.5,-0.3,-1.1,-0.4,-1.8,-0.4c-0.8,0,-1.4,0.2,-2,0.4c-0.5,0.2,-1,0.6,-1.3,1c-0.4,0.4,-0.7,0.9,-0.8,1.5c-0.2,0.6,-0.3,1.2,-0.3,1.9c0,0.7,0.1,1.4,0.2,2c0.2,0.5,0.5,1,0.8,1.4c0.4,0.4,0.8,0.7,1.3,0.9c0.6,0.2,1.2,0.3,1.9,0.3c0.7,0,1.3,-0.1,1.9,-0.3c0.5,-0.3,1,-0.6,1.3,-1c0.4,-0.4,0.7,-0.9,0.9,-1.5c0.2,-0.6,0.2,-1.3,0.2,-2c0,-0.7,0,-1.3,-0.2,-1.9Zm-1.5,3.4c-0.1,0.4,-0.3,0.8,-0.5,1.1c-0.2,0.3,-0.5,0.5,-0.9,0.7c-0.3,0.1,-0.7,0.2,-1.2,0.2c-0.5,0,-0.9,-0.1,-1.2,-0.2c-0.4,-0.2,-0.6,-0.5,-0.8,-0.8c-0.2,-0.3,-0.4,-0.6,-0.5,-1.1c0,-0.4,-0.1,-0.8,-0.1,-1.3c0,-0.5,0.1,-0.9,0.2,-1.3c0.1,-0.4,0.2,-0.8,0.5,-1.1c0.2,-0.3,0.4,-0.5,0.8,-0.7c0.3,-0.2,0.7,-0.3,1.2,-0.3c0.5,0,0.9,0.1,1.3,0.3c0.3,0.2,0.6,0.4,0.8,0.8c0.2,0.3,0.3,0.6,0.4,1c0.1,0.5,0.1,0.9,0.1,1.4c0,0.5,0,0.9,-0.1,1.3Zm6,-5.9l0,-2l0,-0.1l-0.2,-0.1l-0.2,-0.1c-0.1,0,-0.2,0,-0.4,0c-0.1,0,-0.3,0,-0.4,0l-0.2,0.1l-0.1,0.1l-0.1,0.1l0,2l-1.2,0l-0.1,0.1l-0.1,0.1l-0.1,0.2l0,0.3c0,0.2,0,0.4,0.1,0.5l0.2,0.1l1.2,0l0,5c0,0.5,0.1,0.9,0.2,1.3c0.1,0.4,0.2,0.7,0.4,0.9c0.2,0.3,0.5,0.4,0.8,0.5c0.3,0.2,0.7,0.2,1.1,0.2l0.5,0l0.4,-0.1l0.3,-0.1l0.3,-0.1L605,663c0,-0.1,0,-0.2,0,-0.4l0,-0.3l-0.1,-0.2l0,-0.1l-0.1,0l-0.2,0.1l-0.2,0.1l-0.3,0l-0.4,0.1c-0.5,0,-0.8,-0.2,-0.9,-0.5c-0.2,-0.3,-0.3,-0.7,-0.3,-1.3l0,-4.8l4.4,0l0,7.5l0.1,0.2l0.1,0l0.2,0.1c0.1,0,0.3,0,0.4,0l0.4,0l0.2,-0.1l0.2,0l0,-0.2l0,-8.3c0,-0.1,0,-0.3,-0.1,-0.4c-0.1,0,-0.2,-0.1,-0.4,-0.1l-5.5,0Zm6,-3.4c-0.2,-0.1,-0.4,-0.2,-0.8,-0.2c-0.4,0,-0.6,0.1,-0.8,0.2c-0.1,0.2,-0.2,0.4,-0.2,0.8c0,0.4,0.1,0.6,0.2,0.7c0.2,0.2,0.4,0.2,0.8,0.2c0.4,0,0.6,0,0.8,-0.2c0.1,-0.1,0.2,-0.4,0.2,-0.7c0,-0.4,-0.1,-0.6,-0.2,-0.8Zm4.5,-0.5l-0.1,-0.1l-0.1,-0.1l-0.2,-0.1c-0.1,0,-0.3,0,-0.4,0c-0.2,0,-0.3,0,-0.4,0l-0.2,0.1l-0.2,0.1l0,0.1l0,12.7l0,0.2l0.2,0l0.2,0.1c0.1,0,0.2,0,0.4,0c0.1,0,0.3,0,0.4,0l0.2,-0.1l0.1,0l0.1,-0.2l0,-12.7Zm10.2,7.8c0,-0.6,-0.1,-1.1,-0.2,-1.6c-0.2,-0.5,-0.4,-0.9,-0.7,-1.3c-0.3,-0.3,-0.7,-0.6,-1.2,-0.8c-0.4,-0.3,-1,-0.4,-1.7,-0.4c-0.6,0,-1.2,0.1,-1.7,0.4c-0.5,0.2,-0.9,0.5,-1.3,0.9c-0.3,0.4,-0.6,0.9,-0.8,1.5c-0.2,0.6,-0.3,1.2,-0.3,2c0,0.8,0.1,1.4,0.3,2c0.2,0.6,0.4,1.1,0.8,1.5c0.4,0.4,0.8,0.7,1.3,0.8c0.6,0.2,1.2,0.3,1.9,0.3c0.4,0,0.8,0,1.1,0c0.4,-0.1,0.7,-0.2,1,-0.3c0.2,0,0.5,-0.1,0.6,-0.2c0.2,-0.1,0.3,-0.1,0.3,-0.2l0.1,-0.1l0.1,-0.1l0,-0.2l0,-0.2l0,-0.3l0,-0.1l-0.1,-0.1l-0.1,-0.1c-0.1,0,-0.2,0.1,-0.4,0.1c-0.1,0.1,-0.3,0.2,-0.6,0.2c-0.2,0.1,-0.5,0.2,-0.8,0.3c-0.3,0,-0.7,0.1,-1.1,0.1c-0.5,0,-0.9,-0.1,-1.3,-0.2c-0.3,-0.2,-0.6,-0.4,-0.9,-0.7c-0.2,-0.3,-0.3,-0.6,-0.4,-1c-0.1,-0.3,-0.2,-0.8,-0.2,-1.2l5.7,0c0.1,0,0.3,-0.1,0.4,-0.2c0.1,-0.1,0.2,-0.3,0.2,-0.5l0,-0.3Zm-6.3,-0.2c0,-0.3,0.1,-0.7,0.2,-1c0.1,-0.3,0.3,-0.6,0.5,-0.8c0.2,-0.3,0.4,-0.5,0.7,-0.6c0.3,-0.2,0.6,-0.2,1,-0.2c0.8,0,1.4,0.2,1.7,0.7c0.4,0.4,0.6,1.1,0.6,1.9l-4.7,0Zm18.3,1.8c-0.2,-0.2,-0.3,-0.4,-0.5,-0.6c-0.2,-0.2,-0.5,-0.4,-0.7,-0.5c-0.3,-0.2,-0.6,-0.3,-0.8,-0.4c-0.3,-0.1,-0.6,-0.2,-0.8,-0.3c-0.3,-0.1,-0.5,-0.2,-0.7,-0.3c-0.2,-0.2,-0.4,-0.3,-0.5,-0.5c-0.1,-0.2,-0.2,-0.4,-0.2,-0.6c0,-0.2,0,-0.3,0.1,-0.5c0.1,-0.2,0.2,-0.3,0.3,-0.4c0.1,-0.1,0.3,-0.2,0.5,-0.3c0.2,0,0.4,0,0.7,0c0.3,0,0.6,0,0.8,0.1c0.2,0,0.4,0.1,0.6,0.2c0.2,0.1,0.3,0.1,0.4,0.2l0.3,0.1l0.1,0l0,-0.1l0.1,-0.2l0,-0.3l0,-0.3l0,-0.1l-0.1,-0.2l-0.1,-0.1l-0.3,-0.2c-0.1,0,-0.3,-0.1,-0.5,-0.2c-0.2,0,-0.4,-0.1,-0.6,-0.1c-0.2,0,-0.5,-0.1,-0.7,-0.1c-0.5,0,-1,0.1,-1.4,0.2c-0.3,0.2,-0.7,0.4,-0.9,0.6c-0.3,0.2,-0.5,0.5,-0.6,0.8c-0.1,0.3,-0.2,0.6,-0.2,1c0,0.4,0,0.7,0.2,1c0.1,0.2,0.3,0.5,0.5,0.7c0.2,0.2,0.4,0.3,0.7,0.5c0.2,0.1,0.5,0.2,0.7,0.3c0.3,0.1,0.6,0.2,0.8,0.3c0.3,0.1,0.5,0.2,0.7,0.4c0.2,0.1,0.4,0.2,0.5,0.4c0.1,0.2,0.2,0.4,0.2,0.6c0,0.3,-0.1,0.5,-0.1,0.6c-0.1,0.2,-0.2,0.3,-0.4,0.5c-0.2,0.1,-0.4,0.1,-0.6,0.2c-0.2,0.1,-0.4,0.1,-0.7,0.1c-0.3,0,-0.7,-0.1,-0.9,-0.1c-0.3,-0.1,-0.5,-0.2,-0.7,-0.3c-0.2,-0.1,-0.4,-0.2,-0.5,-0.3l-0.4,-0.1l-0.1,0l-0.1,0.1l0,0.2l0,0.3c0,0.2,0,0.4,0,0.5l0.2,0.2c0,0.1,0.2,0.2,0.3,0.3c0.2,0,0.3,0.1,0.6,0.2c0.2,0.1,0.4,0.1,0.7,0.2c0.3,0,0.6,0,0.9,0c0.5,0,0.9,0,1.3,-0.1c0.5,-0.2,0.8,-0.3,1.1,-0.6c0.3,-0.2,0.5,-0.5,0.7,-0.8c0.2,-0.4,0.2,-0.8,0.2,-1.2c0,-0.4,0,-0.7,-0.1,-1ZM645.3,657c-0.2,-0.5,-0.4,-1,-0.6,-1.4c-0.3,-0.4,-0.7,-0.8,-1.1,-1c-0.4,-0.2,-1,-0.4,-1.6,-0.4c-0.3,0,-0.6,0.1,-0.8,0.1c-0.3,0.1,-0.5,0.2,-0.8,0.3c-0.2,0.2,-0.4,0.3,-0.7,0.5c-0.2,0.2,-0.5,0.4,-0.7,0.7l0,-1.1l-0.1,-0.2l-0.1,-0.1l-0.2,0l-0.3,0l-0.4,0l-0.2,0l-0.1,0.1l0,0.2l0,11.9l0,0.2l0.1,0l0.3,0.1c0.1,0,0.2,0,0.4,0c0.1,0,0.2,0,0.4,0l0.2,-0.1l0.1,0l0.1,-0.2l0,-4.3c0.2,0.3,0.4,0.5,0.6,0.6c0.2,0.2,0.4,0.3,0.6,0.4c0.2,0.1,0.4,0.2,0.6,0.3c0.3,0,0.5,0,0.7,0c0.6,0,1.2,-0.1,1.6,-0.3c0.5,-0.2,0.9,-0.5,1.2,-1c0.3,-0.4,0.6,-0.9,0.7,-1.5c0.2,-0.6,0.3,-1.2,0.3,-2c0,-0.6,-0.1,-1.2,-0.2,-1.8Zm-1.6,3.2c-0.1,0.4,-0.2,0.7,-0.4,1c-0.2,0.4,-0.4,0.6,-0.7,0.8c-0.3,0.2,-0.6,0.3,-1,0.3c-0.4,0,-0.8,-0.1,-1.2,-0.4c-0.4,-0.3,-0.8,-0.7,-1.2,-1.2l0,-3.4c0.2,-0.3,0.4,-0.6,0.7,-0.8c0.2,-0.2,0.4,-0.4,0.6,-0.5c0.2,-0.2,0.4,-0.3,0.6,-0.3c0.2,-0.1,0.4,-0.1,0.6,-0.1c0.4,0,0.8,0.1,1,0.3c0.3,0.2,0.5,0.4,0.7,0.7c0.1,0.4,0.3,0.7,0.3,1.1c0.1,0.4,0.1,0.9,0.1,1.3c0,0.4,0,0.8,-0.1,1.2Zm11.4,-1.9c0,-0.6,-0.1,-1.1,-0.2,-1.6c-0.1,-0.5,-0.4,-0.9,-0.7,-1.3c-0.3,-0.3,-0.7,-0.6,-1.1,-0.8c-0.5,-0.3,-1.1,-0.4,-1.8,-0.4c-0.6,0,-1.1,0.1,-1.7,0.4c-0.5,0.2,-0.9,0.5,-1.2,0.9c-0.4,0.4,-0.7,0.9,-0.9,1.5c-0.2,0.6,-0.3,1.2,-0.3,2c0,0.8,0.1,1.4,0.3,2c0.2,0.6,0.5,1.1,0.8,1.5c0.4,0.4,0.8,0.7,1.4,0.8c0.5,0.2,1.1,0.3,1.8,0.3c0.4,0,0.8,0,1.2,0c0.3,-0.1,0.6,-0.2,0.9,-0.3c0.3,0,0.5,-0.1,0.7,-0.2c0.1,-0.1,0.3,-0.1,0.3,-0.2l0.1,-0.1l0,-0.1l0,-0.2l0.1,-0.2L654.7,662l0,-0.1l-0.1,-0.1l-0.1,-0.1c-0.1,0,-0.2,0.1,-0.3,0.1c-0.2,0.1,-0.4,0.2,-0.6,0.2c-0.3,0.1,-0.5,0.2,-0.8,0.3c-0.4,0,-0.7,0.1,-1.1,0.1c-0.5,0,-1,-0.1,-1.3,-0.2c-0.4,-0.2,-0.7,-0.4,-0.9,-0.7c-0.2,-0.3,-0.4,-0.6,-0.5,-1c-0.1,-0.3,-0.1,-0.8,-0.1,-1.2l5.6,0c0.2,0,0.3,-0.1,0.4,-0.2c0.2,-0.1,0.2,-0.3,0.2,-0.5l0,-0.3Zm-6.2,-0.2c0,-0.3,0,-0.7,0.1,-1c0.2,-0.3,0.3,-0.6,0.5,-0.8c0.2,-0.3,0.5,-0.5,0.7,-0.6c0.3,-0.2,0.7,-0.2,1.1,-0.2c0.7,0,1.3,0.2,1.7,0.7c0.4,0.4,0.6,1.1,0.5,1.9l-4.6,0Zm13.6,-3.2l0,-0.2l-0.1,-0.1l0,-0.1l-0.2,-0.1l-0.3,-0.1l-0.4,0l-0.2,-0.1c-0.2,0,-0.4,0.1,-0.6,0.1c-0.2,0.1,-0.4,0.1,-0.5,0.3c-0.2,0.1,-0.4,0.3,-0.6,0.5c-0.2,0.2,-0.4,0.5,-0.7,0.8l0,-1.2l0,-0.2l-0.1,-0.1l-0.2,0l-0.4,0l-0.3,0l-0.3,0l-0.1,0.1l0,0.2l0,8.5l0,0.2l0.2,0l0.2,0.1c0.1,0,0.2,0,0.4,0c0.1,0,0.3,0,0.4,0l0.2,-0.1l0.1,0l0.1,-0.2l0,-5.6c0.2,-0.4,0.4,-0.6,0.6,-0.9c0.2,-0.2,0.3,-0.4,0.5,-0.6c0.2,-0.1,0.3,-0.2,0.5,-0.3c0.1,0,0.3,-0.1,0.5,-0.1l0.3,0.1c0.8,0.1,1,0.5,1,-0.6l0,-0.3Zm14.5,2.9c0,-0.5,-0.1,-0.9,-0.2,-1.4c-0.1,-0.4,-0.2,-0.8,-0.5,-1.1c-0.2,-0.3,-0.5,-0.6,-0.9,-0.8c-0.3,-0.2,-0.8,-0.3,-1.4,-0.3c-0.2,0,-0.4,0.1,-0.6,0.1c-0.3,0.1,-0.5,0.2,-0.7,0.3c-0.3,0.2,-0.5,0.3,-0.8,0.5c-0.2,0.3,-0.5,0.5,-0.8,0.8c-0.1,-0.2,-0.2,-0.5,-0.4,-0.7c-0.1,-0.2,-0.3,-0.3,-0.5,-0.5c-0.2,-0.1,-0.5,-0.3,-0.8,-0.3c-0.2,-0.1,-0.6,-0.2,-0.9,-0.2c-0.5,0,-0.9,0.2,-1.4,0.4c-0.4,0.3,-0.9,0.7,-1.4,1.2l0,-1.1l0,-0.2l-0.1,-0.1l-0.3,0l-0.3,0l-0.3,0l-0.3,0l-0.1,0.1l0,0.2l0,8.5l0,0.2l0.1,0l0.3,0.1c0.1,0,0.2,0,0.4,0c0.1,0,0.3,0,0.4,0l0.2,-0.1l0.1,0l0.1,-0.2l0,-6c0.4,-0.5,0.8,-0.9,1.2,-1.2c0.3,-0.3,0.7,-0.4,1.1,-0.4c0.2,0,0.5,0.1,0.7,0.2c0.2,0.1,0.4,0.2,0.5,0.5c0.2,0.2,0.3,0.4,0.3,0.7c0.1,0.3,0.2,0.7,0.2,1l0,5.2l0,0.2l0.1,0l0.3,0.1l0.3,0c0.2,0,0.3,0,0.4,0l0.3,-0.1l0.1,0l0,-0.2l0,-6c0.5,-0.5,0.9,-0.9,1.2,-1.2c0.4,-0.3,0.8,-0.4,1.1,-0.4c0.3,0,0.6,0.1,0.8,0.2c0.2,0.1,0.4,0.2,0.5,0.5c0.1,0.2,0.2,0.4,0.3,0.7c0.1,0.3,0.1,0.7,0.1,1l0,5.2l0,0.2l0.2,0l0.2,0.1c0.1,0,0.2,0,0.4,0c0.2,0,0.3,0,0.4,0l0.2,-0.1l0.1,0l0.1,-0.2l0,-5.4Zm13.4,3.8l-0.1,-0.2l0,-0.2l-0.2,0l-0.3,0.2c-0.1,0.1,-0.3,0.2,-0.5,0.3c-0.2,0.2,-0.4,0.3,-0.7,0.4c-0.3,0.1,-0.6,0.2,-0.9,0.2c-0.4,0,-0.8,-0.1,-1,-0.2c-0.3,-0.2,-0.6,-0.4,-0.8,-0.6c-0.2,-0.3,-0.4,-0.7,-0.5,-1.1c-0.1,-0.4,-0.1,-0.9,-0.1,-1.4c0,-1.1,0.2,-2,0.6,-2.6c0.4,-0.5,1,-0.8,1.7,-0.8c0.4,0,0.7,0,1,0.1c0.2,0.1,0.5,0.2,0.7,0.4c0.2,0.1,0.3,0.2,0.4,0.3l0.4,0.2l0.2,-0.2c0,-0.1,0.1,-0.2,0.1,-0.5l0,-0.3l-0.1,-0.2l-0.1,-0.1l-0.1,-0.2c-0.1,-0.1,-0.2,-0.2,-0.4,-0.3c-0.1,-0.1,-0.3,-0.2,-0.6,-0.3c-0.2,-0.1,-0.4,-0.1,-0.7,-0.2c-0.2,0,-0.5,-0.1,-0.8,-0.1c-0.5,0,-1,0.1,-1.5,0.3c-0.5,0.2,-0.9,0.5,-1.3,0.9c-0.4,0.4,-0.6,0.9,-0.8,1.5c-0.2,0.6,-0.4,1.3,-0.4,2.2c0,0.7,0.1,1.3,0.3,1.9c0.2,0.6,0.4,1.1,0.7,1.4c0.4,0.4,0.7,0.7,1.2,0.9c0.5,0.2,1,0.3,1.7,0.3c0.3,0,0.5,0,0.8,0c0.3,-0.1,0.6,-0.2,0.8,-0.3c0.2,-0.1,0.5,-0.2,0.6,-0.3c0.2,-0.1,0.4,-0.2,0.4,-0.3l0.2,-0.2l0.1,-0.1l0,-0.2l0,-0.3l0,-0.3Zm9.8,-4.7c-0.2,-0.5,-0.5,-1,-0.8,-1.4c-0.4,-0.4,-0.8,-0.7,-1.3,-0.9c-0.5,-0.3,-1.1,-0.4,-1.9,-0.4c-0.7,0,-1.3,0.2,-1.9,0.4c-0.5,0.2,-1,0.6,-1.3,1c-0.4,0.4,-0.7,0.9,-0.8,1.5c-0.2,0.6,-0.3,1.2,-0.3,1.9c0,0.7,0.1,1.4,0.2,2c0.2,0.5,0.5,1,0.8,1.4c0.4,0.4,0.8,0.7,1.3,0.9c0.5,0.2,1.2,0.3,1.9,0.3c0.7,0,1.3,-0.1,1.9,-0.3c0.5,-0.3,1,-0.6,1.3,-1c0.4,-0.4,0.7,-0.9,0.9,-1.5c0.1,-0.6,0.2,-1.3,0.2,-2c0,-0.7,0,-1.3,-0.2,-1.9Zm-1.5,3.4c-0.1,0.4,-0.3,0.8,-0.5,1.1c-0.2,0.3,-0.5,0.5,-0.9,0.7c-0.3,0.1,-0.7,0.2,-1.2,0.2c-0.5,0,-0.9,-0.1,-1.2,-0.2c-0.4,-0.2,-0.6,-0.5,-0.8,-0.8c-0.2,-0.3,-0.4,-0.6,-0.5,-1.1c0,-0.4,-0.1,-0.8,-0.1,-1.3c0,-0.5,0.1,-0.9,0.2,-1.3c0.1,-0.4,0.2,-0.8,0.5,-1.1c0.2,-0.3,0.4,-0.5,0.8,-0.7c0.3,-0.2,0.7,-0.3,1.2,-0.3c0.5,0,0.9,0.1,1.3,0.3c0.3,0.2,0.6,0.4,0.8,0.8c0.2,0.3,0.3,0.6,0.4,1c0.1,0.5,0.1,0.9,0.1,1.4c0,0.5,0,0.9,-0.1,1.3Zm11.4,-5.6L710,654.5l-0.1,-0.1l-0.2,0c-0.1,0,-0.3,0,-0.4,0c-0.2,0,-0.3,0,-0.4,0l-0.2,0l-0.2,0.1l0,0.2l0,5.9c-0.4,0.6,-0.8,1,-1.2,1.3c-0.4,0.3,-0.8,0.4,-1.2,0.4c-0.3,0,-0.6,-0.1,-0.8,-0.2c-0.2,-0.1,-0.4,-0.3,-0.6,-0.5c-0.1,-0.2,-0.2,-0.4,-0.3,-0.7c-0.1,-0.3,-0.1,-0.8,-0.1,-1.3l0,-4.9l-0.1,-0.2l-0.1,-0.1l-0.2,0c-0.1,0,-0.3,0,-0.4,0c-0.2,0,-0.3,0,-0.4,0l-0.2,0l-0.2,0.1l0,0.2l0,5.2c0,0.6,0.1,1.1,0.2,1.5c0.1,0.5,0.2,0.9,0.5,1.2c0.2,0.3,0.5,0.6,0.9,0.8c0.4,0.1,0.9,0.2,1.5,0.2c0.5,0,0.9,-0.1,1.4,-0.3c0.5,-0.3,1,-0.7,1.5,-1.2l0,1.1l0,0.2l0.1,0l0.2,0.1l0.4,0l0.3,0l0.2,-0.1l0.2,0l0,-0.2l0,-8.5Zm10.3,3.3c0,-0.6,-0.1,-1.1,-0.2,-1.6c-0.1,-0.4,-0.3,-0.8,-0.5,-1.1c-0.3,-0.3,-0.6,-0.6,-1,-0.8c-0.4,-0.2,-0.8,-0.3,-1.4,-0.3c-0.5,0,-1,0.2,-1.5,0.4c-0.4,0.3,-0.9,0.7,-1.4,1.2l0,-1.1l0,-0.2l-0.1,-0.1l-0.3,0l-0.3,0l-0.4,0l-0.2,0l-0.1,0.1l0,0.2l0,8.5l0,0.2l0.1,0l0.3,0.1c0.1,0,0.2,0,0.4,0c0.1,0,0.3,0,0.4,0l0.2,-0.1l0.1,0l0.1,-0.2l0,-6c0.4,-0.5,0.8,-0.9,1.2,-1.2c0.4,-0.3,0.8,-0.4,1.2,-0.4c0.3,0,0.5,0.1,0.8,0.2c0.2,0.1,0.4,0.2,0.5,0.5c0.2,0.2,0.3,0.4,0.4,0.7c0,0.3,0.1,0.7,0.1,1.2l0,5l0,0.2l0.1,0l0.3,0.1c0.1,0,0.2,0,0.4,0c0.1,0,0.3,0,0.4,0l0.2,-0.1l0.1,0l0.1,-0.2l0,-5.2Zm7.2,4.3l0,-0.2L727.5,662l-0.1,0l-0.1,0.1l-0.3,0.1l-0.3,0l-0.3,0.1c-0.5,0,-0.8,-0.2,-1,-0.5c-0.2,-0.3,-0.2,-0.7,-0.2,-1.3l0,-4.8l2.2,0l0.2,-0.1c0,-0.1,0.1,-0.3,0.1,-0.5l-0.1,-0.3l0,-0.2l-0.1,-0.1l-0.1,-0.1l-2.2,0l0,-2l-0.1,-0.1L725,652.2l-0.2,-0.1c-0.1,0,-0.3,0,-0.4,0c-0.2,0,-0.3,0,-0.4,0l-0.3,0.1l-0.1,0.1l0,0.1l0,2l-1.2,0l-0.1,0.1l-0.1,0.1l-0.1,0.2l0,0.3c0,0.2,0,0.4,0.1,0.5l0.2,0.1l1.2,0l0,5c0,0.5,0,0.9,0.1,1.3c0.1,0.4,0.3,0.7,0.5,0.9c0.2,0.3,0.4,0.4,0.7,0.5c0.4,0.2,0.7,0.2,1.2,0.2l0.4,0l0.4,-0.1l0.4,-0.1l0.2,-0.1l0.1,-0.3c0.1,-0.1,0.1,-0.2,0.1,-0.4l-0.1,-0.3Z" class="g1_4" />
<path d="M77,69l754,0l0,-2L77,67l0,2Z" class="g1_4" />
<path fill-rule="evenodd" d="M99.8,1129.9c0,-2.6,-3.7,-2.2,-3.7,-4.2c0,-0.7,0.4,-1.3,1.2,-1.3c1.1,0,1.4,1,1.6,1.7l0.5,0c-0.1,-0.9,-0.1,-1.4,-0.1,-1.9c-0.6,-0.2,-1.2,-0.3,-1.8,-0.3c-1.6,0,-2.6,1,-2.6,2.2c0,2.5,3.7,2,3.7,4.2c0,0.8,-0.6,1.4,-1.5,1.4c-1.2,0,-1.6,-1,-1.9,-2.1l-0.5,0.1c0,0.8,0.1,1.5,0.2,2.1c0.6,0.2,1.3,0.4,2.1,0.4c1.6,0,2.8,-1.1,2.8,-2.3Z" class="g1_4" />
<path fill-rule="evenodd" d="M104.8,1129.4c0,1.6,-0.8,2.1,-1.4,2.1c-0.5,0,-0.9,-0.2,-1.1,-0.5l0,-3.1c0.3,-0.2,0.7,-0.4,1.1,-0.4c0.8,0,1.4,0.6,1.4,1.9ZM106,1129c0,-1.1,-0.8,-2.3,-2.1,-2.3c-0.2,0,-0.3,0,-0.5,0.1l-1.1,0.6l0,-0.8c-0.6,0.2,-1.2,0.4,-1.9,0.5l0,0.4c0.7,0.1,0.8,0.1,0.8,0.8l0,5.7c0,0.7,-0.1,0.8,-0.9,0.9l0,0.4l3.1,0l0,-0.4c-1,-0.1,-1.1,-0.2,-1.1,-0.9l0,-2c0.2,0.1,0.4,0.1,0.8,0.2c1.6,-0.2,2.9,-1.5,2.9,-3.2Z" class="g1_4" />
<path fill-rule="evenodd" d="M110.8,1127.4c0,-0.4,-0.3,-0.7,-0.7,-0.7c-0.5,0,-1.1,0.6,-1.4,1.3l-0.1,-1.3c-0.5,0.2,-1.1,0.3,-1.8,0.4l0,0.4c0.7,0.1,0.7,0.1,0.7,0.9l0,2.4c0,0.7,0,0.8,-0.8,0.8l0,0.4l2.9,0l0,-0.4c-0.9,0,-1,-0.1,-1,-0.8l0,-2c0.3,-0.7,0.6,-1,0.9,-1c0.2,0,0.4,0,0.5,0.2c0.3,0.3,0.8,-0.2,0.8,-0.6Z" class="g1_4" />
<path fill-rule="evenodd" d="M114.1,1132l0,-0.4c-0.8,0,-0.8,-0.1,-0.8,-0.9l0,-4c-0.6,0.2,-1.2,0.3,-1.9,0.4l0,0.4c0.7,0.1,0.8,0.1,0.8,0.9l0,2.3c0,0.8,-0.1,0.9,-0.9,0.9l0,0.4l2.8,0Z" class="g1_4" />
<path fill-rule="evenodd" d="M113.4,1124.8c0,-0.4,-0.3,-0.7,-0.7,-0.7c-0.4,0,-0.8,0.3,-0.8,0.7c0,0.4,0.4,0.7,0.8,0.7c0.4,0,0.7,-0.3,0.7,-0.7Z" class="g1_4" />
<path fill-rule="evenodd" d="M120.6,1132l0,-0.4c-0.7,0,-0.8,-0.1,-0.8,-0.8l0,-2.5c0,-0.9,-0.6,-1.6,-1.5,-1.6c-0.6,0,-1.4,0.6,-1.7,0.8l0,-0.8c-0.6,0.2,-1.2,0.3,-1.8,0.4l0,0.4c0.6,0.1,0.7,0.1,0.7,0.9l0,2.4c0,0.7,-0.1,0.8,-0.9,0.8l0,0.4l2.6,0l0,-0.4c-0.6,0,-0.6,-0.1,-0.6,-0.8l0,-2.7c0.3,-0.3,0.8,-0.6,1.2,-0.6c0.6,0,1,0.5,1,1.2l0,2.1c0,0.7,-0.1,0.8,-0.7,0.8l0,0.4l2.5,0Z" class="g1_4" />
<path fill-rule="evenodd" d="M125.5,1133.6c0,0.7,-0.6,1.4,-1.6,1.4c-1,0,-1.6,-0.5,-1.6,-1.2c0,-0.6,0.4,-1.2,1.3,-1.2c0.7,0,1.1,0,1.4,0.1c0.3,0.1,0.5,0.5,0.5,0.9Zm-0.8,-4.9c0,1,-0.5,1.4,-0.9,1.4c-0.7,0,-1.2,-0.6,-1.2,-1.5c0,-0.9,0.6,-1.4,1,-1.4c0.7,0,1.1,0.7,1.1,1.5Zm2,-1.7l-0.1,-0.2c-0.5,0.1,-1.1,0.2,-1.7,0.2c-0.3,-0.2,-0.7,-0.3,-1.2,-0.3c-1,0,-2.2,0.7,-2.2,2.1c0,0.8,0.5,1.5,1.1,1.7c-0.2,0.2,-0.7,0.6,-1.2,0.8c0,0.7,0.6,1,1,1.2c-1,0.7,-1.2,1.1,-1.2,1.6c0,0.7,0.7,1.6,2.2,1.6c1.6,0,3.1,-1.2,3.1,-2.5c0,-1.2,-1,-1.6,-1.8,-1.6l-1.3,0c-0.5,0,-0.7,-0.2,-0.7,-0.4c0,-0.2,0.2,-0.5,0.5,-0.6c0.2,0,0.3,0,0.4,0c1,0,2.2,-0.7,2.2,-2c0,-0.3,-0.1,-0.8,-0.3,-1l0.6,0c0.2,-0.1,0.5,-0.4,0.6,-0.6Z" class="g1_4" />
<path fill-rule="evenodd" d="M130.3,1128.4c0,0.2,0,0.2,-0.3,0.2l-1.8,0.1c0.1,-0.9,0.6,-1.5,1.1,-1.5c0.6,0,1,0.6,1,1.2Zm1.1,0.2c0,-1,-0.8,-1.9,-1.9,-1.9c-1.2,0,-2.5,1.3,-2.5,3c0,1.3,0.9,2.5,2.4,2.5c0.4,0,1.2,-0.2,1.9,-1.1l-0.2,-0.4c-0.5,0.4,-0.8,0.6,-1.3,0.6c-0.8,0,-1.6,-0.6,-1.7,-2c1.4,-0.1,2.8,-0.2,3,-0.2c0.3,-0.1,0.3,-0.2,0.3,-0.5Z" class="g1_4" />
<path fill-rule="evenodd" d="M136.2,1127.4c0,-0.4,-0.3,-0.7,-0.7,-0.7c-0.5,0,-1,0.6,-1.4,1.3l0,-1.3c-0.6,0.2,-1.2,0.3,-1.9,0.4l0,0.4c0.7,0.1,0.8,0.1,0.8,0.9l0,2.4c0,0.7,-0.1,0.8,-0.9,0.8l0,0.4l3,0l0,-0.4c-0.9,0,-1,-0.1,-1,-0.8l0,-2c0.2,-0.7,0.6,-1,0.9,-1c0.1,0,0.3,0.1,0.5,0.2c0.2,0.3,0.7,-0.2,0.7,-0.6Z" class="g1_4" />
<path d="M80.5,1135.5l10,0" class="g2_4" />
<path d="M80.5,1135.5l10,0" class="g2_4" />
<g clip-path="url(#c0_4)">
<path fill-rule="evenodd" d="M82.3,1124.4L82.2,1124l-1,0.1l0.1,0.8l1,-0.5Zm6.4,7.1l-7,0c0,-0.8,0.5,-1.4,1.1,-2c1.5,-1.5,2.7,-2.4,2.7,-4.9l-0.6,0c0,0.8,-0.2,1.4,-0.4,1.9c0,0,-1.6,0,-1.6,0L82.4,1126l-0.4,0.4l0.3,0.3c-0.6,0.5,-1.2,1.3,-1.4,2.1l-0.4,0l0,-1.1l-0.2,-0.1l-0.9,0.7l-0.7,-0.9l2,-2.7l0.3,-0.9l1.1,-0.4L82,1122.9l0.3,-0.5l-0.1,-1.1c0.3,0.2,0.5,0.4,0.5,0.9l0.6,0.1c0.2,-0.7,0.2,-1.5,0.2,-1.5c0.5,0.3,0.4,1.8,0.4,2l0.6,0.1c0,0,0.1,-0.2,0.1,-0.5c0,-0.2,0,-0.3,-0.1,-0.5c4,0.4,5.4,4.5,4.2,9.6Zm1.5,0.6l0,-0.7l-0.9,0c0.1,-0.4,0.2,-0.9,0.3,-1.4c0.2,0,0.4,-0.1,0.4,-0.3c0,-0.2,-0.2,-0.3,-0.3,-0.3c0,-0.5,0,-1,0,-1.4c0.2,-0.1,0.4,-0.2,0.4,-0.4c0,-0.2,-0.2,-0.3,-0.4,-0.3c0,-0.5,-0.1,-0.9,-0.2,-1.4c0.1,0,0.3,-0.1,0.3,-0.3c0,-0.2,-0.2,-0.3,-0.4,-0.3c-0.2,-0.4,-0.4,-0.9,-0.6,-1.2c0.1,-0.1,0.2,-0.2,0.2,-0.3c0,-0.2,-0.1,-0.3,-0.3,-0.3c-0.1,0,-0.1,0,-0.2,0c-0.3,-0.4,-0.6,-0.7,-0.9,-1c0,-0.1,0,-0.1,0,-0.2c0,-0.2,-0.1,-0.3,-0.3,-0.3c-0.1,0,-0.2,0,-0.2,0.1c-0.4,-0.3,-0.8,-0.5,-1.3,-0.6c0,-0.3,-0.1,-0.4,-0.3,-0.4c-0.2,0,-0.3,0.1,-0.3,0.2c-0.3,0,-0.5,-0.1,-0.8,-0.1c-0.2,-0.6,-0.5,-1.2,-1.5,-1.1c0,0,0,0.5,0,0.9c-0.3,-0.3,-0.9,-0.5,-1.4,-0.2l0.2,1.4l-0.6,0.9l-0.6,0.2l-0.4,1.1l-2.1,2.9c0,0,0,0.1,0,0.1c0,0.1,0,0.2,0,0.2l1.4,1.6l0.5,-0.5l0,0.7l1.5,0c0,-0.8,0.9,-2.1,1.5,-2.3l1.3,0c-1.1,1.6,-3,2.3,-3.2,4.3l-0.8,0l0,0.7l10,0Zm-10.4,-5.3l-0.4,-0.1c0,0.3,-0.1,0.6,-0.2,0.8l0.4,0.2c0.2,-0.2,0.2,-0.7,0.2,-0.9Z" class="g1_4" />
</g>
<image x="633" y="899" width="7" height="13" xlink:href="img/2.png" />
</svg>