<?xml version="1.0" encoding="UTF-8" standalone="no"?>
<!DOCTYPE svg PUBLIC "-//W3C//DTD SVG 1.1//EN"
"http://www.w3.org/Graphics/SVG/1.1/DTD/svg11.dtd">
<svg version="1.1" xmlns="http://www.w3.org/2000/svg" xmlns:xlink="http://www.w3.org/1999/xlink">
<defs>
<clipPath id="c0_2"><path d="M0.5,1195.5L0.5,0.5l909,0l0,1195Z" /></clipPath>
<style type="text/css"><![CDATA[
.g2_2{
fill: #8077B7;
stroke: #8077B7;
stroke-width: 1;
stroke-linecap: round;
stroke-linejoin: round;
}
.g1_2{
fill: #8077B7;
}
]]></style>
</defs>
<g clip-path="url(#c0_2)">
<path fill-rule="evenodd" d="M874.8,831.8l0.3,-4l1.1,-3.9l1.7,-3.8c4.4,-7.3,11.8,-11.6,20.3,-11.6l22.5,0l4.1,0.3c8.1,1.4,15.2,7.3,17.9,15.1l1,3.9l0.4,4l0,31.2l-0.4,4.1c-1.3,8.1,-7.2,15.2,-15,17.9l-3.9,1.1l-4.1,0.3c-17.3,-1.2,-32.4,4.9,-42.8,-11.7L876.2,871l-1.1,-3.9L874.8,863Z" class="g1_2" />
<path fill-rule="evenodd" d="M898.5,808.5l22,0l0,13l-22,0" class="g2_2" />
<path fill-rule="evenodd" d="M920.5,886.5l-22,0l0,-13l22,0" class="g2_2" />
</g>
<path fill-rule="evenodd" d="M898.2,886.4l-4.1,-0.3c-9.6,-1.7,-17.3,-9.3,-19,-19L874.8,863l13,0l0.2,1.8c0.6,4.2,4.2,7.8,8.4,8.4l1.8,0.2" class="g2_2" />
<path fill-rule="evenodd" d="M874.5,863.5l0,-32l13,0l0,32" class="g2_2" />
<path fill-rule="evenodd" d="M874.8,831.8l0.3,-4c1.8,-9.7,9.3,-17.3,19,-19l4.1,-0.3l0,12.9l-1.8,0.2c-4.2,0.6,-7.8,4.3,-8.4,8.4l-0.2,1.8" class="g2_2" />
</svg>