<?xml version="1.0" encoding="UTF-8" standalone="no"?>
<!DOCTYPE svg PUBLIC "-//W3C//DTD SVG 1.1//EN"
"http://www.w3.org/Graphics/SVG/1.1/DTD/svg11.dtd">
<svg version="1.1" xmlns="http://www.w3.org/2000/svg" xmlns:xlink="http://www.w3.org/1999/xlink">
<defs>
<clipPath id="c0_1"><path d="M0.5,1182.5L0.5,0.5l880,0l0,1182Z" /></clipPath>
<style type="text/css"><![CDATA[
.g4_1{
fill: none;
stroke: #000000;
stroke-width: 1;
stroke-linecap: round;
stroke-linejoin: round;
}
.g3_1{
stroke: #000000;
stroke-width: 1;
stroke-linecap: round;
stroke-linejoin: round;
}
.g2_1{
fill: #E7E8E9;
stroke: #E7E8E9;
stroke-width: 1;
stroke-linecap: round;
stroke-linejoin: round;
}
.g1_1{
fill: #E7E8E9;
}
]]></style>
</defs>
<path d="M0,721l880,0l0,-355L0,366L0,721Z" class="g1_1" />
<g clip-path="url(#c0_1)">
<path fill-rule="evenodd" d="M65.5,721.5l-78,0l0,-355l78,0l0,355Z" class="g2_1" />
<path fill-rule="evenodd" d="M-12.5,721.5l0,-355l78,0l0,355" class="g2_1" />
<path fill-rule="evenodd" d="M897.5,721.5l-832,0l0,-22l832,0l0,22Z" class="g2_1" />
</g>
<path fill-rule="evenodd" d="M65.5,649.5l530,0l0,1l-530,0l0,-1Z" class="g3_1" />
<image x="618" y="590" width="88" height="88" xlink:href="img/1.png" />
<path fill-rule="evenodd" d="M65.5,1077.5l320,0l-320,0" class="g3_1" />
<path fill-rule="evenodd" d="M65.5,1134.5l749,0l0,1l-749,0l0,-1Z" class="g3_1" />
<path d="M772.5,1159.5l0,-25" class="g4_1" />
</svg>