<?xml version="1.0" encoding="UTF-8" standalone="no"?>
<!DOCTYPE svg PUBLIC "-//W3C//DTD SVG 1.1//EN"
"http://www.w3.org/Graphics/SVG/1.1/DTD/svg11.dtd">
<svg version="1.1" xmlns="http://www.w3.org/2000/svg" xmlns:xlink="http://www.w3.org/1999/xlink">
<defs>
<clipPath id="c0_5"><path d="M0.5,1195.5L0.5,0.5l909,0l0,1195Z" /></clipPath>
<style type="text/css"><![CDATA[
.g4_5{
fill: #231F20;
stroke: #231F20;
stroke-width: 1;
stroke-linecap: round;
stroke-linejoin: round;
}
.g2_5{
fill: #8077B7;
}
.g5_5{
fill: #8077B7;
stroke: #8077B7;
stroke-width: 1;
stroke-linecap: round;
stroke-linejoin: round;
}
.g3_5{
fill: #FFFFFF;
stroke: #FFFFFF;
stroke-width: 1;
stroke-linecap: round;
stroke-linejoin: round;
}
.g1_5{
fill: #F0EEF6;
}
]]></style>
</defs>
<path d="M59,355l795,0l0,-221L59,134l0,221Z" class="g1_5" />
<path d="M59,184l96,0l0,-36l-96,0l0,36Z" class="g2_5" />
<path d="M155,171l699,0l0,-23l-699,0l0,23Z" class="g2_5" />
<path d="M155,184l475,0l0,-13l-475,0l0,13Z" class="g2_5" />
<path fill-rule="evenodd" d="M630,171l116,0l0,13l-116,0Z" class="g2_5" />
<path d="M746,184l108,0l0,-13l-108,0l0,13Z" class="g2_5" />
<path fill-rule="evenodd" d="M59.5,134.5l795,0l0,5l-795,0l0,-5Z" class="g3_5" />
<path fill-rule="evenodd" d="M59.5,139.5l795,0l0,2l-795,0" class="g4_5" />
<path fill-rule="evenodd" d="M59.5,141.5l795,0l0,7l-795,0" class="g5_5" />
<path fill-rule="evenodd" d="M854.5,355.5l-795,0l0,-1l795,0" class="g4_5" />
<path fill-rule="evenodd" d="M359.5,164.5l-204,0l0,-1l204,0" class="g4_5" />
<path fill-rule="evenodd" d="M600.5,164.5l-211,0l0,-1l211,0" class="g4_5" />
<path fill-rule="evenodd" d="M854.5,164.5l-224,0l0,-1l224,0" class="g4_5" />
<path fill-rule="evenodd" d="M854.5,191.5l-795,0l0,-1l795,0" class="g4_5" />
<path fill-rule="evenodd" d="M854.5,190.5l-795,0l0,-6l795,0" class="g5_5" />
<path d="M59,392l795,0l0,-37L59,355l0,37Z" class="g1_5" />
<g clip-path="url(#c0_5)">
<path fill-rule="evenodd" d="M-34.5,831.8l0.3,-4l1,-3.9l1.8,-3.8c4.3,-7.3,11.7,-11.6,20.2,-11.6l22.5,0l4,0.3c8.2,1.4,15.2,7.3,18,15.1l1,3.9l0.3,4l0,31.2l-0.3,4.1C32.9,875.2,27,882.3,19.2,885l-3.9,1.1l-4,0.3C-5.9,885.2,-21,891.3,-31.4,874.7L-33.2,871l-1,-3.9L-34.5,863Z" class="g2_5" />
<path fill-rule="evenodd" d="M-10.5,808.5l22,0l0,13l-22,0" class="g5_5" />
</g>
<path fill-rule="evenodd" d="M11.3,808.5l4,0.3c9.7,1.7,17.3,9.3,19,19l0.3,4l-12.9,0L21.5,830c-0.6,-4.1,-4.3,-7.8,-8.4,-8.4l-1.8,-0.2" class="g5_5" />
<path fill-rule="evenodd" d="M34.5,831.5l0,32l-13,0l0,-32" class="g5_5" />
<path fill-rule="evenodd" d="M34.6,863l-0.3,4.1c-1.7,9.6,-9.3,17.3,-19,19l-4,0.3l0,-13l1.8,-0.2c4.1,-0.6,7.8,-4.2,8.4,-8.4L21.7,863" class="g5_5" />
<g clip-path="url(#c0_5)">
<path fill-rule="evenodd" d="M11.5,886.5l-22,0l0,-13l22,0" class="g5_5" />
</g>
</svg>