<?xml version="1.0" encoding="UTF-8" standalone="no"?>
<!DOCTYPE svg PUBLIC "-//W3C//DTD SVG 1.1//EN"
"http://www.w3.org/Graphics/SVG/1.1/DTD/svg11.dtd">
<svg version="1.1" xmlns="http://www.w3.org/2000/svg" xmlns:xlink="http://www.w3.org/1999/xlink">
<defs>
<clipPath id="c0_4"><path d="M442.5,1162.5l0,-27l411,0l0,27Z" /></clipPath>
<style type="text/css"><![CDATA[
.g2_4{
fill: #231F20;
}
.g5_4{
fill: none;
stroke: #000000;
stroke-width: 1;
stroke-linecap: round;
stroke-linejoin: round;
}
.g4_4{
fill: none;
stroke: #000000;
stroke-width: 1;
stroke-linecap: square;
stroke-linejoin: miter;
}
.g3_4{
}
.g1_4{
fill: none;
stroke: #231F20;
stroke-width: 1;
stroke-linecap: square;
stroke-linejoin: miter;
}
]]></style>
</defs>
<path d="M404.5,348.5l-316,0l0,-216" class="g1_4" />
<path d="M88.5,132.5l0,216" class="g1_4" />
<path d="M87.5,348.5l1,0" class="g1_4" />
<path d="M87.5,312.5l1,0" class="g1_4" />
<path d="M87.5,276.5l1,0" class="g1_4" />
<path d="M87.5,240.5l1,0" class="g1_4" />
<path d="M87.5,204.5l1,0" class="g1_4" />
<path d="M87.5,168.5l1,0" class="g1_4" />
<path d="M87.5,132.5l1,0" class="g1_4" />
<path d="M88.5,348.5l316,0" class="g1_4" />
<path d="M88.5,350.5l0,-2" class="g1_4" />
<path d="M141.5,350.5l0,-2" class="g1_4" />
<path d="M193.5,350.5l0,-2" class="g1_4" />
<path d="M246.5,350.5l0,-2" class="g1_4" />
<path d="M299.5,350.5l0,-2" class="g1_4" />
<path d="M351.5,350.5l0,-2" class="g1_4" />
<path d="M404.5,350.5l0,-2" class="g1_4" />
<path fill-rule="evenodd" d="M288.6,174.2c0.9,0,1.5,0.8,1.5,1.6c0,0.9,-0.6,1.6,-1.5,1.6c-0.8,0,-1.5,-0.7,-1.5,-1.6c0,-0.8,0.7,-1.6,1.5,-1.6Z" class="g2_4" />
<path fill-rule="evenodd" d="M288.6,174.1c0.9,0,1.6,0.8,1.6,1.7c0,1,-0.7,1.7,-1.6,1.7c-0.9,0,-1.6,-0.7,-1.6,-1.7c0,-0.9,0.7,-1.7,1.6,-1.7Zm0,0.5c-0.6,0,-1.1,0.6,-1.1,1.2c0,0.7,0.5,1.2,1.1,1.2c0.7,0,1.2,-0.5,1.2,-1.2c0,-0.6,-0.5,-1.2,-1.2,-1.2Z" class="g2_4" />
<path fill-rule="evenodd" d="M228.1,167.1c0.8,0,1.5,0.7,1.5,1.6c0,0.9,-0.7,1.6,-1.5,1.6c-0.9,0,-1.5,-0.7,-1.5,-1.6c0,-0.9,0.6,-1.6,1.5,-1.6Z" class="g2_4" />
<path fill-rule="evenodd" d="M228.1,167c0.9,0,1.6,0.8,1.6,1.7c0,1,-0.7,1.7,-1.6,1.7c-0.9,0,-1.7,-0.7,-1.7,-1.7c0,-0.9,0.8,-1.7,1.7,-1.7Zm0,0.5c-0.7,0,-1.2,0.6,-1.2,1.2c0,0.7,0.5,1.2,1.2,1.2c0.6,0,1.1,-0.5,1.1,-1.2c0,-0.6,-0.5,-1.2,-1.1,-1.2Z" class="g2_4" />
<path fill-rule="evenodd" d="M193.4,275.3c0.9,0,1.5,0.7,1.5,1.5c0,0.9,-0.6,1.6,-1.5,1.6c-0.8,0,-1.5,-0.7,-1.5,-1.6c0,-0.8,0.7,-1.5,1.5,-1.5Z" class="g2_4" />
<path fill-rule="evenodd" d="M193.4,275.1c0.9,0,1.6,0.8,1.6,1.7c0,1,-0.7,1.8,-1.6,1.8c-0.9,0,-1.6,-0.8,-1.6,-1.8c0,-0.9,0.7,-1.7,1.6,-1.7Zm0,0.6c-0.6,0,-1.1,0.5,-1.1,1.1c0,0.7,0.5,1.2,1.1,1.2c0.6,0,1.1,-0.5,1.1,-1.2c0,-0.6,-0.5,-1.1,-1.1,-1.1Z" class="g2_4" />
<path fill-rule="evenodd" d="M217.1,210.3c0.8,0,1.5,0.7,1.5,1.6c0,0.9,-0.7,1.6,-1.5,1.6c-0.8,0,-1.5,-0.7,-1.5,-1.6c0,-0.9,0.7,-1.6,1.5,-1.6Z" class="g2_4" />
<path fill-rule="evenodd" d="M217.1,210.2c0.9,0,1.6,0.8,1.6,1.7c0,1,-0.7,1.7,-1.6,1.7c-0.9,0,-1.6,-0.7,-1.6,-1.7c0,-0.9,0.7,-1.7,1.6,-1.7Zm0,0.5c-0.6,0,-1.1,0.6,-1.1,1.2c0,0.7,0.5,1.2,1.1,1.2c0.6,0,1.1,-0.5,1.1,-1.2c0,-0.6,-0.5,-1.2,-1.1,-1.2Z" class="g2_4" />
<path fill-rule="evenodd" d="M207.6,275.3c0.9,0,1.5,0.7,1.5,1.5c0,0.9,-0.6,1.6,-1.5,1.6c-0.8,0,-1.5,-0.7,-1.5,-1.6c0,-0.8,0.7,-1.5,1.5,-1.5Z" class="g2_4" />
<path fill-rule="evenodd" d="M207.6,275.1c0.9,0,1.7,0.8,1.7,1.7c0,1,-0.8,1.8,-1.7,1.8c-0.9,0,-1.6,-0.8,-1.6,-1.8c0,-0.9,0.7,-1.7,1.6,-1.7Zm0,0.6c-0.6,0,-1.1,0.5,-1.1,1.1c0,0.7,0.5,1.2,1.1,1.2c0.7,0,1.2,-0.5,1.2,-1.2c0,-0.6,-0.5,-1.1,-1.2,-1.1Z" class="g2_4" />
<path fill-rule="evenodd" d="M134.5,217.6c0.8,0,1.5,0.7,1.5,1.6c0,0.8,-0.7,1.5,-1.5,1.5c-0.9,0,-1.5,-0.7,-1.5,-1.5c0,-0.9,0.6,-1.6,1.5,-1.6Z" class="g2_4" />
<path fill-rule="evenodd" d="M134.5,217.4c0.9,0,1.6,0.8,1.6,1.8c0,0.9,-0.7,1.7,-1.6,1.7c-0.9,0,-1.6,-0.8,-1.6,-1.7c0,-1,0.7,-1.8,1.6,-1.8Zm0,0.6c-0.6,0,-1.1,0.5,-1.1,1.2c0,0.6,0.5,1.1,1.1,1.1c0.6,0,1.1,-0.5,1.1,-1.1c0,-0.7,-0.5,-1.2,-1.1,-1.2Z" class="g2_4" />
<path fill-rule="evenodd" d="M179.7,174.2c0.8,0,1.5,0.8,1.5,1.6c0,0.9,-0.7,1.6,-1.5,1.6c-0.8,0,-1.5,-0.7,-1.5,-1.6c0,-0.8,0.7,-1.6,1.5,-1.6Z" class="g2_4" />
<path fill-rule="evenodd" d="M179.7,174.1c0.9,0,1.6,0.8,1.6,1.7c0,1,-0.7,1.7,-1.6,1.7c-0.9,0,-1.6,-0.7,-1.6,-1.7c0,-0.9,0.7,-1.7,1.6,-1.7Zm0,0.5c-0.6,0,-1.1,0.6,-1.1,1.2c0,0.7,0.5,1.2,1.1,1.2c0.6,0,1.1,-0.5,1.1,-1.2c0,-0.6,-0.5,-1.2,-1.1,-1.2Z" class="g2_4" />
<path fill-rule="evenodd" d="M181.8,318.5c0.9,0,1.5,0.7,1.5,1.5c0,0.9,-0.6,1.6,-1.5,1.6c-0.8,0,-1.5,-0.7,-1.5,-1.6c0,-0.8,0.7,-1.5,1.5,-1.5Z" class="g2_4" />
<path fill-rule="evenodd" d="M181.8,318.3c0.9,0,1.7,0.8,1.7,1.7c0,1,-0.8,1.7,-1.7,1.7c-0.9,0,-1.6,-0.7,-1.6,-1.7c0,-0.9,0.7,-1.7,1.6,-1.7Zm0,0.6c-0.6,0,-1.1,0.5,-1.1,1.1c0,0.7,0.5,1.2,1.1,1.2c0.7,0,1.2,-0.5,1.2,-1.2c0,-0.6,-0.5,-1.1,-1.2,-1.1Z" class="g2_4" />
<path fill-rule="evenodd" d="M255,296.9c0.8,0,1.5,0.7,1.5,1.5c0,0.9,-0.7,1.6,-1.5,1.6c-0.8,0,-1.5,-0.7,-1.5,-1.6c0,-0.8,0.7,-1.5,1.5,-1.5Z" class="g2_4" />
<path fill-rule="evenodd" d="M255,296.7c0.9,0,1.6,0.8,1.6,1.7c0,1,-0.7,1.8,-1.6,1.8c-0.9,0,-1.6,-0.8,-1.6,-1.8c0,-0.9,0.7,-1.7,1.6,-1.7Zm0,0.6c-0.6,0,-1.1,0.5,-1.1,1.1c0,0.7,0.5,1.2,1.1,1.2c0.6,0,1.1,-0.5,1.1,-1.2c0,-0.6,-0.5,-1.1,-1.1,-1.1Z" class="g2_4" />
<path fill-rule="evenodd" d="M221.2,174.2c0.8,0,1.5,0.8,1.5,1.6c0,0.9,-0.7,1.6,-1.5,1.6c-0.8,0,-1.5,-0.7,-1.5,-1.6c0,-0.8,0.7,-1.6,1.5,-1.6Z" class="g2_4" />
<path fill-rule="evenodd" d="M221.2,174.1c0.9,0,1.6,0.8,1.6,1.7c0,1,-0.7,1.7,-1.6,1.7c-0.9,0,-1.6,-0.7,-1.6,-1.7c0,-0.9,0.7,-1.7,1.6,-1.7Zm0,0.5c-0.6,0,-1.1,0.6,-1.1,1.2c0,0.7,0.5,1.2,1.1,1.2c0.6,0,1.1,-0.5,1.1,-1.2c0,-0.6,-0.5,-1.2,-1.1,-1.2Z" class="g2_4" />
<path fill-rule="evenodd" d="M218.1,311.2c0.8,0,1.5,0.7,1.5,1.6c0,0.9,-0.7,1.6,-1.5,1.6c-0.8,0,-1.5,-0.7,-1.5,-1.6c0,-0.9,0.7,-1.6,1.5,-1.6Z" class="g2_4" />
<path fill-rule="evenodd" d="M218.1,311.1c0.9,0,1.6,0.7,1.6,1.7c0,0.9,-0.7,1.7,-1.6,1.7c-0.9,0,-1.6,-0.8,-1.6,-1.7c0,-1,0.7,-1.7,1.6,-1.7Zm0,0.5c-0.6,0,-1.1,0.5,-1.1,1.2c0,0.7,0.5,1.2,1.1,1.2c0.6,0,1.1,-0.5,1.1,-1.2c0,-0.7,-0.5,-1.2,-1.1,-1.2Z" class="g2_4" />
<path fill-rule="evenodd" d="M246,188.7c0.8,0,1.5,0.7,1.5,1.6c0,0.9,-0.7,1.6,-1.5,1.6c-0.8,0,-1.5,-0.7,-1.5,-1.6c0,-0.9,0.7,-1.6,1.5,-1.6Z" class="g2_4" />
<path fill-rule="evenodd" d="M246,188.6c0.9,0,1.6,0.8,1.6,1.7c0,1,-0.7,1.7,-1.6,1.7c-0.9,0,-1.6,-0.7,-1.6,-1.7c0,-0.9,0.7,-1.7,1.6,-1.7Zm0,0.5c-0.6,0,-1.1,0.6,-1.1,1.2c0,0.7,0.5,1.2,1.1,1.2c0.6,0,1.1,-0.5,1.1,-1.2c0,-0.6,-0.5,-1.2,-1.1,-1.2Z" class="g2_4" />
<path fill-rule="evenodd" d="M154.5,210.3c0.9,0,1.5,0.7,1.5,1.6c0,0.9,-0.6,1.6,-1.5,1.6c-0.8,0,-1.5,-0.7,-1.5,-1.6c0,-0.9,0.7,-1.6,1.5,-1.6Z" class="g2_4" />
<path fill-rule="evenodd" d="M154.5,210.2c0.9,0,1.7,0.8,1.7,1.7c0,1,-0.8,1.7,-1.7,1.7c-0.9,0,-1.6,-0.7,-1.6,-1.7c0,-0.9,0.7,-1.7,1.6,-1.7Zm0,0.5c-0.6,0,-1.1,0.6,-1.1,1.2c0,0.7,0.5,1.2,1.1,1.2c0.7,0,1.2,-0.5,1.2,-1.2c0,-0.6,-0.5,-1.2,-1.2,-1.2Z" class="g2_4" />
<path fill-rule="evenodd" d="M347.4,167.1c0.9,0,1.5,0.7,1.5,1.6c0,0.9,-0.6,1.6,-1.5,1.6c-0.8,0,-1.4,-0.7,-1.4,-1.6c0,-0.9,0.6,-1.6,1.4,-1.6Z" class="g2_4" />
<path fill-rule="evenodd" d="M347.4,167c0.9,0,1.7,0.8,1.7,1.7c0,1,-0.8,1.7,-1.7,1.7c-0.9,0,-1.6,-0.7,-1.6,-1.7c0,-0.9,0.7,-1.7,1.6,-1.7Zm0,0.5c-0.6,0,-1.1,0.6,-1.1,1.2c0,0.7,0.5,1.2,1.1,1.2c0.7,0,1.2,-0.5,1.2,-1.2c0,-0.6,-0.5,-1.2,-1.2,-1.2Z" class="g2_4" />
<path fill-rule="evenodd" d="M209.7,332.9c0.9,0,1.5,0.7,1.5,1.6c0,0.9,-0.6,1.6,-1.5,1.6c-0.8,0,-1.4,-0.7,-1.4,-1.6c0,-0.9,0.6,-1.6,1.4,-1.6Z" class="g2_4" />
<path fill-rule="evenodd" d="M209.7,332.8c0.9,0,1.7,0.8,1.7,1.7c0,1,-0.8,1.7,-1.7,1.7c-0.9,0,-1.6,-0.7,-1.6,-1.7c0,-0.9,0.7,-1.7,1.6,-1.7Zm0,0.5c-0.6,0,-1.1,0.6,-1.1,1.2c0,0.7,0.5,1.2,1.1,1.2c0.7,0,1.2,-0.5,1.2,-1.2c0,-0.6,-0.5,-1.2,-1.2,-1.2Z" class="g2_4" />
<path fill-rule="evenodd" d="M166.6,275.3c0.9,0,1.5,0.7,1.5,1.5c0,0.9,-0.6,1.6,-1.5,1.6c-0.8,0,-1.5,-0.7,-1.5,-1.6c0,-0.8,0.7,-1.5,1.5,-1.5Z" class="g2_4" />
<path fill-rule="evenodd" d="M166.6,275.1c0.9,0,1.6,0.8,1.6,1.7c0,1,-0.7,1.8,-1.6,1.8c-0.9,0,-1.6,-0.8,-1.6,-1.8c0,-0.9,0.7,-1.7,1.6,-1.7Zm0,0.6c-0.6,0,-1.1,0.5,-1.1,1.1c0,0.7,0.5,1.2,1.1,1.2c0.7,0,1.2,-0.5,1.2,-1.2c0,-0.6,-0.5,-1.1,-1.2,-1.1Z" class="g2_4" />
<path fill-rule="evenodd" d="M196,282.4c0.9,0,1.5,0.7,1.5,1.6c0,0.8,-0.6,1.5,-1.5,1.5c-0.8,0,-1.5,-0.7,-1.5,-1.5c0,-0.9,0.7,-1.6,1.5,-1.6Z" class="g2_4" />
<path fill-rule="evenodd" d="M196,282.2c0.9,0,1.7,0.8,1.7,1.8c0,0.9,-0.8,1.7,-1.7,1.7c-0.9,0,-1.6,-0.8,-1.6,-1.7c0,-1,0.7,-1.8,1.6,-1.8Zm0,0.6c-0.6,0,-1.1,0.5,-1.1,1.2c0,0.6,0.5,1.1,1.1,1.1c0.7,0,1.2,-0.5,1.2,-1.1c0,-0.7,-0.5,-1.2,-1.2,-1.2Z" class="g2_4" />
<path fill-rule="evenodd" d="M205.5,246.4c0.8,0,1.5,0.7,1.5,1.6c0,0.9,-0.7,1.6,-1.5,1.6c-0.8,0,-1.5,-0.7,-1.5,-1.6c0,-0.9,0.7,-1.6,1.5,-1.6Z" class="g2_4" />
<path fill-rule="evenodd" d="M205.5,246.3c0.9,0,1.6,0.7,1.6,1.7c0,0.9,-0.7,1.7,-1.6,1.7c-0.9,0,-1.6,-0.8,-1.6,-1.7c0,-1,0.7,-1.7,1.6,-1.7Zm0,0.5c-0.6,0,-1.1,0.5,-1.1,1.2c0,0.7,0.5,1.2,1.1,1.2c0.6,0,1.1,-0.5,1.1,-1.2c0,-0.7,-0.5,-1.2,-1.1,-1.2Z" class="g2_4" />
<path fill-rule="evenodd" d="M247,167.1c0.8,0,1.5,0.7,1.5,1.6c0,0.9,-0.7,1.6,-1.5,1.6c-0.8,0,-1.5,-0.7,-1.5,-1.6c0,-0.9,0.7,-1.6,1.5,-1.6Z" class="g2_4" />
<path fill-rule="evenodd" d="M247,167c0.9,0,1.6,0.8,1.6,1.7c0,1,-0.7,1.7,-1.6,1.7c-0.9,0,-1.6,-0.7,-1.6,-1.7c0,-0.9,0.7,-1.7,1.6,-1.7Zm0,0.5c-0.6,0,-1.1,0.6,-1.1,1.2c0,0.7,0.5,1.2,1.1,1.2c0.6,0,1.1,-0.5,1.1,-1.2c0,-0.6,-0.5,-1.2,-1.1,-1.2Z" class="g2_4" />
<path fill-rule="evenodd" d="M247,181.5c0.8,0,1.5,0.7,1.5,1.6c0,0.9,-0.7,1.6,-1.5,1.6c-0.8,0,-1.5,-0.7,-1.5,-1.6c0,-0.9,0.7,-1.6,1.5,-1.6Z" class="g2_4" />
<path fill-rule="evenodd" d="M247,181.4c0.9,0,1.6,0.7,1.6,1.7c0,0.9,-0.7,1.7,-1.6,1.7c-0.9,0,-1.6,-0.8,-1.6,-1.7c0,-1,0.7,-1.7,1.6,-1.7Zm0,0.5c-0.6,0,-1.1,0.5,-1.1,1.2c0,0.6,0.5,1.2,1.1,1.2c0.6,0,1.1,-0.6,1.1,-1.2c0,-0.7,-0.5,-1.2,-1.1,-1.2Z" class="g2_4" />
<path fill-rule="evenodd" d="M249.1,304.1c0.9,0,1.5,0.7,1.5,1.6c0,0.9,-0.6,1.6,-1.5,1.6c-0.8,0,-1.5,-0.7,-1.5,-1.6c0,-0.9,0.7,-1.6,1.5,-1.6Z" class="g2_4" />
<path fill-rule="evenodd" d="M249.1,304c0.9,0,1.6,0.7,1.6,1.7c0,0.9,-0.7,1.7,-1.6,1.7c-0.9,0,-1.6,-0.8,-1.6,-1.7c0,-1,0.7,-1.7,1.6,-1.7Zm0,0.5c-0.6,0,-1.1,0.5,-1.1,1.2c0,0.6,0.5,1.2,1.1,1.2c0.7,0,1.1,-0.6,1.1,-1.2c0,-0.7,-0.4,-1.2,-1.1,-1.2Z" class="g2_4" />
<path fill-rule="evenodd" d="M206.5,196c0.8,0,1.5,0.7,1.5,1.6c0,0.8,-0.7,1.5,-1.5,1.5c-0.8,0,-1.5,-0.7,-1.5,-1.5c0,-0.9,0.7,-1.6,1.5,-1.6Z" class="g2_4" />
<path fill-rule="evenodd" d="M206.5,195.8c0.9,0,1.6,0.8,1.6,1.8c0,0.9,-0.7,1.7,-1.6,1.7c-0.9,0,-1.6,-0.8,-1.6,-1.7c0,-1,0.7,-1.8,1.6,-1.8Zm0,0.6c-0.6,0,-1.1,0.5,-1.1,1.2c0,0.6,0.5,1.1,1.1,1.1c0.6,0,1.1,-0.5,1.1,-1.1c0,-0.7,-0.5,-1.2,-1.1,-1.2Z" class="g2_4" />
<path fill-rule="evenodd" d="M263.3,167.1c0.9,0,1.5,0.7,1.5,1.6c0,0.9,-0.6,1.6,-1.5,1.6c-0.8,0,-1.5,-0.7,-1.5,-1.6c0,-0.9,0.7,-1.6,1.5,-1.6Z" class="g2_4" />
<path fill-rule="evenodd" d="M263.3,167c0.9,0,1.7,0.8,1.7,1.7c0,1,-0.8,1.7,-1.7,1.7c-0.9,0,-1.6,-0.7,-1.6,-1.7c0,-0.9,0.7,-1.7,1.6,-1.7Zm0,0.5c-0.6,0,-1.1,0.6,-1.1,1.2c0,0.7,0.5,1.2,1.1,1.2c0.7,0,1.2,-0.5,1.2,-1.2c0,-0.6,-0.5,-1.2,-1.2,-1.2Z" class="g2_4" />
<path fill-rule="evenodd" d="M200.8,203.1c0.8,0,1.5,0.7,1.5,1.6c0,0.8,-0.7,1.6,-1.5,1.6c-0.9,0,-1.5,-0.8,-1.5,-1.6c0,-0.9,0.6,-1.6,1.5,-1.6Z" class="g2_4" />
<path fill-rule="evenodd" d="M200.8,203c0.9,0,1.6,0.7,1.6,1.7c0,0.9,-0.7,1.7,-1.6,1.7c-0.9,0,-1.6,-0.8,-1.6,-1.7c0,-1,0.7,-1.7,1.6,-1.7Zm0,0.5c-0.6,0,-1.1,0.5,-1.1,1.2c0,0.6,0.5,1.2,1.1,1.2c0.6,0,1.1,-0.6,1.1,-1.2c0,-0.7,-0.5,-1.2,-1.1,-1.2Z" class="g2_4" />
<path fill-rule="evenodd" d="M190.2,167.1c0.8,0,1.5,0.7,1.5,1.6c0,0.9,-0.7,1.6,-1.5,1.6c-0.8,0,-1.5,-0.7,-1.5,-1.6c0,-0.9,0.7,-1.6,1.5,-1.6Z" class="g2_4" />
<path fill-rule="evenodd" d="M190.2,167c0.9,0,1.6,0.8,1.6,1.7c0,1,-0.7,1.7,-1.6,1.7c-0.9,0,-1.6,-0.7,-1.6,-1.7c0,-0.9,0.7,-1.7,1.6,-1.7Zm0,0.5c-0.6,0,-1.1,0.6,-1.1,1.2c0,0.7,0.5,1.2,1.1,1.2c0.6,0,1.1,-0.5,1.1,-1.2c0,-0.6,-0.5,-1.2,-1.1,-1.2Z" class="g2_4" />
<path fill-rule="evenodd" d="M175,188.7c0.8,0,1.5,0.7,1.5,1.6c0,0.9,-0.7,1.6,-1.5,1.6c-0.9,0,-1.5,-0.7,-1.5,-1.6c0,-0.9,0.6,-1.6,1.5,-1.6Z" class="g2_4" />
<path fill-rule="evenodd" d="M175,188.6c0.9,0,1.6,0.8,1.6,1.7c0,1,-0.7,1.7,-1.6,1.7c-0.9,0,-1.6,-0.7,-1.6,-1.7c0,-0.9,0.7,-1.7,1.6,-1.7Zm0,0.5c-0.6,0,-1.1,0.6,-1.1,1.2c0,0.7,0.5,1.2,1.1,1.2c0.6,0,1.1,-0.5,1.1,-1.2c0,-0.6,-0.5,-1.2,-1.1,-1.2Z" class="g2_4" />
<path fill-rule="evenodd" d="M255.5,332.9c0.8,0,1.5,0.7,1.5,1.6c0,0.9,-0.7,1.6,-1.5,1.6c-0.8,0,-1.5,-0.7,-1.5,-1.6c0,-0.9,0.7,-1.6,1.5,-1.6Z" class="g2_4" />
<path fill-rule="evenodd" d="M255.5,332.8c0.9,0,1.6,0.8,1.6,1.7c0,1,-0.7,1.7,-1.6,1.7c-0.9,0,-1.6,-0.7,-1.6,-1.7c0,-0.9,0.7,-1.7,1.6,-1.7Zm0,0.5c-0.6,0,-1.1,0.6,-1.1,1.2c0,0.7,0.5,1.2,1.1,1.2c0.6,0,1.1,-0.5,1.1,-1.2c0,-0.6,-0.5,-1.2,-1.1,-1.2Z" class="g2_4" />
<path fill-rule="evenodd" d="M181.8,311.2c0.9,0,1.5,0.7,1.5,1.6c0,0.9,-0.6,1.6,-1.5,1.6c-0.8,0,-1.5,-0.7,-1.5,-1.6c0,-0.9,0.7,-1.6,1.5,-1.6Z" class="g2_4" />
<path fill-rule="evenodd" d="M181.8,311.1c0.9,0,1.7,0.7,1.7,1.7c0,0.9,-0.8,1.7,-1.7,1.7c-0.9,0,-1.6,-0.8,-1.6,-1.7c0,-1,0.7,-1.7,1.6,-1.7Zm0,0.5c-0.6,0,-1.1,0.5,-1.1,1.2c0,0.7,0.5,1.2,1.1,1.2c0.7,0,1.2,-0.5,1.2,-1.2c0,-0.7,-0.5,-1.2,-1.2,-1.2Z" class="g2_4" />
<path fill-rule="evenodd" d="M179.2,304.1c0.8,0,1.5,0.7,1.5,1.6c0,0.9,-0.7,1.6,-1.5,1.6c-0.8,0,-1.5,-0.7,-1.5,-1.6c0,-0.9,0.7,-1.6,1.5,-1.6Z" class="g2_4" />
<path fill-rule="evenodd" d="M179.2,304c0.9,0,1.6,0.7,1.6,1.7c0,0.9,-0.7,1.7,-1.6,1.7c-0.9,0,-1.6,-0.8,-1.6,-1.7c0,-1,0.7,-1.7,1.6,-1.7Zm0,0.5c-0.6,0,-1.1,0.5,-1.1,1.2c0,0.6,0.5,1.2,1.1,1.2c0.6,0,1.1,-0.6,1.1,-1.2c0,-0.7,-0.5,-1.2,-1.1,-1.2Z" class="g2_4" />
<path fill-rule="evenodd" d="M231.8,174.2c0.8,0,1.5,0.8,1.5,1.6c0,0.9,-0.7,1.6,-1.5,1.6c-0.8,0,-1.5,-0.7,-1.5,-1.6c0,-0.8,0.7,-1.6,1.5,-1.6Z" class="g2_4" />
<path fill-rule="evenodd" d="M231.8,174.1c0.9,0,1.6,0.8,1.6,1.7c0,1,-0.7,1.7,-1.6,1.7c-0.9,0,-1.6,-0.7,-1.6,-1.7c0,-0.9,0.7,-1.7,1.6,-1.7Zm0,0.5c-0.6,0,-1.1,0.6,-1.1,1.2c0,0.7,0.5,1.2,1.1,1.2c0.6,0,1.1,-0.5,1.1,-1.2c0,-0.6,-0.5,-1.2,-1.1,-1.2Z" class="g2_4" />
<path fill-rule="evenodd" d="M242.8,253.5c0.8,0,1.5,0.7,1.5,1.6c0,0.9,-0.7,1.6,-1.5,1.6c-0.9,0,-1.5,-0.7,-1.5,-1.6c0,-0.9,0.6,-1.6,1.5,-1.6Z" class="g2_4" />
<path fill-rule="evenodd" d="M242.8,253.4c0.9,0,1.6,0.8,1.6,1.7c0,1,-0.7,1.7,-1.6,1.7c-0.9,0,-1.6,-0.7,-1.6,-1.7c0,-0.9,0.7,-1.7,1.6,-1.7Zm0,0.5c-0.7,0,-1.1,0.6,-1.1,1.2c0,0.7,0.4,1.2,1.1,1.2c0.6,0,1.1,-0.5,1.1,-1.2c0,-0.6,-0.5,-1.2,-1.1,-1.2Z" class="g2_4" />
<path fill-rule="evenodd" d="M201.8,167.1c0.8,0,1.5,0.7,1.5,1.6c0,0.9,-0.7,1.6,-1.5,1.6c-0.9,0,-1.5,-0.7,-1.5,-1.6c0,-0.9,0.6,-1.6,1.5,-1.6Z" class="g2_4" />
<path fill-rule="evenodd" d="M201.8,167c0.9,0,1.6,0.8,1.6,1.7c0,1,-0.7,1.7,-1.6,1.7c-0.9,0,-1.6,-0.7,-1.6,-1.7c0,-0.9,0.7,-1.7,1.6,-1.7Zm0,0.5c-0.7,0,-1.1,0.6,-1.1,1.2c0,0.7,0.4,1.2,1.1,1.2c0.6,0,1.1,-0.5,1.1,-1.2c0,-0.6,-0.5,-1.2,-1.1,-1.2Z" class="g2_4" />
<path fill-rule="evenodd" d="M213.9,196c0.8,0,1.5,0.7,1.5,1.6c0,0.8,-0.7,1.5,-1.5,1.5c-0.9,0,-1.5,-0.7,-1.5,-1.5c0,-0.9,0.6,-1.6,1.5,-1.6Z" class="g2_4" />
<path fill-rule="evenodd" d="M213.9,195.8c0.9,0,1.6,0.8,1.6,1.8c0,0.9,-0.7,1.7,-1.6,1.7c-0.9,0,-1.7,-0.8,-1.7,-1.7c0,-1,0.8,-1.8,1.7,-1.8Zm0,0.6c-0.7,0,-1.2,0.5,-1.2,1.2c0,0.6,0.5,1.1,1.2,1.1c0.6,0,1.1,-0.5,1.1,-1.1c0,-0.7,-0.5,-1.2,-1.1,-1.2Z" class="g2_4" />
<path fill-rule="evenodd" d="M225.4,196c0.9,0,1.5,0.7,1.5,1.6c0,0.8,-0.6,1.5,-1.5,1.5c-0.8,0,-1.4,-0.7,-1.4,-1.5c0,-0.9,0.6,-1.6,1.4,-1.6Z" class="g2_4" />
<path fill-rule="evenodd" d="M225.4,195.8c0.9,0,1.7,0.8,1.7,1.8c0,0.9,-0.8,1.7,-1.7,1.7c-0.8,0,-1.6,-0.8,-1.6,-1.7c0,-1,0.8,-1.8,1.6,-1.8Zm0,0.6c-0.6,0,-1.1,0.5,-1.1,1.2c0,0.6,0.5,1.1,1.1,1.1c0.7,0,1.2,-0.5,1.2,-1.1c0,-0.7,-0.5,-1.2,-1.2,-1.2Z" class="g2_4" />
<path fill-rule="evenodd" d="M198.2,289.6c0.8,0,1.5,0.7,1.5,1.6c0,0.9,-0.7,1.6,-1.5,1.6c-0.9,0,-1.5,-0.7,-1.5,-1.6c0,-0.9,0.6,-1.6,1.5,-1.6Z" class="g2_4" />
<path fill-rule="evenodd" d="M198.2,289.5c0.9,0,1.6,0.7,1.6,1.7c0,0.9,-0.7,1.7,-1.6,1.7c-0.9,0,-1.7,-0.8,-1.7,-1.7c0,-1,0.8,-1.7,1.7,-1.7Zm0,0.5c-0.7,0,-1.2,0.5,-1.2,1.2c0,0.7,0.5,1.2,1.2,1.2c0.6,0,1.1,-0.5,1.1,-1.2c0,-0.7,-0.5,-1.2,-1.1,-1.2Z" class="g2_4" />
<path fill-rule="evenodd" d="M253.9,325.7c0.8,0,1.5,0.7,1.5,1.6c0,0.9,-0.7,1.6,-1.5,1.6c-0.9,0,-1.5,-0.7,-1.5,-1.6c0,-0.9,0.6,-1.6,1.5,-1.6Z" class="g2_4" />
<path fill-rule="evenodd" d="M253.9,325.6c0.9,0,1.6,0.7,1.6,1.7c0,0.9,-0.7,1.7,-1.6,1.7c-0.9,0,-1.7,-0.8,-1.7,-1.7c0,-1,0.8,-1.7,1.7,-1.7Zm0,0.5c-0.7,0,-1.2,0.5,-1.2,1.2c0,0.6,0.5,1.2,1.2,1.2c0.6,0,1.1,-0.6,1.1,-1.2c0,-0.7,-0.5,-1.2,-1.1,-1.2Z" class="g2_4" />
<path fill-rule="evenodd" d="M258.1,167.1c0.8,0,1.5,0.7,1.5,1.6c0,0.9,-0.7,1.6,-1.5,1.6c-0.8,0,-1.5,-0.7,-1.5,-1.6c0,-0.9,0.7,-1.6,1.5,-1.6Z" class="g2_4" />
<path fill-rule="evenodd" d="M258.1,167c0.9,0,1.6,0.8,1.6,1.7c0,1,-0.7,1.7,-1.6,1.7c-0.9,0,-1.6,-0.7,-1.6,-1.7c0,-0.9,0.7,-1.7,1.6,-1.7Zm0,0.5c-0.6,0,-1.1,0.6,-1.1,1.2c0,0.7,0.5,1.2,1.1,1.2c0.6,0,1.1,-0.5,1.1,-1.2c0,-0.6,-0.5,-1.2,-1.1,-1.2Z" class="g2_4" />
<path fill-rule="evenodd" d="M139.2,318.5c0.8,0,1.5,0.7,1.5,1.5c0,0.9,-0.7,1.6,-1.5,1.6c-0.8,0,-1.5,-0.7,-1.5,-1.6c0,-0.8,0.7,-1.5,1.5,-1.5Z" class="g2_4" />
<path fill-rule="evenodd" d="M139.2,318.3c0.9,0,1.6,0.8,1.6,1.7c0,1,-0.7,1.7,-1.6,1.7c-0.9,0,-1.6,-0.7,-1.6,-1.7c0,-0.9,0.7,-1.7,1.6,-1.7Zm0,0.6c-0.6,0,-1.1,0.5,-1.1,1.1c0,0.7,0.5,1.2,1.1,1.2c0.6,0,1.1,-0.5,1.1,-1.2c0,-0.6,-0.5,-1.1,-1.1,-1.1Z" class="g2_4" />
<path fill-rule="evenodd" d="M297,239.2c0.8,0,1.5,0.7,1.5,1.6c0,0.8,-0.7,1.5,-1.5,1.5c-0.9,0,-1.5,-0.7,-1.5,-1.5c0,-0.9,0.6,-1.6,1.5,-1.6Z" class="g2_4" />
<path fill-rule="evenodd" d="M297,239c0.9,0,1.6,0.8,1.6,1.8c0,0.9,-0.7,1.7,-1.6,1.7c-0.9,0,-1.6,-0.8,-1.6,-1.7c0,-1,0.7,-1.8,1.6,-1.8Zm0,0.6c-0.6,0,-1.1,0.5,-1.1,1.2c0,0.6,0.5,1.1,1.1,1.1c0.6,0,1.1,-0.5,1.1,-1.1c0,-0.7,-0.5,-1.2,-1.1,-1.2Z" class="g2_4" />
<path fill-rule="evenodd" d="M181.3,332.9c0.9,0,1.5,0.7,1.5,1.6c0,0.9,-0.6,1.6,-1.5,1.6c-0.8,0,-1.5,-0.7,-1.5,-1.6c0,-0.9,0.7,-1.6,1.5,-1.6Z" class="g2_4" />
<path fill-rule="evenodd" d="M181.3,332.8c0.9,0,1.7,0.8,1.7,1.7c0,1,-0.8,1.7,-1.7,1.7c-0.9,0,-1.6,-0.7,-1.6,-1.7c0,-0.9,0.7,-1.7,1.6,-1.7Zm0,0.5c-0.6,0,-1.1,0.6,-1.1,1.2c0,0.7,0.5,1.2,1.1,1.2c0.7,0,1.2,-0.5,1.2,-1.2c0,-0.6,-0.5,-1.2,-1.2,-1.2Z" class="g2_4" />
<path fill-rule="evenodd" d="M247.5,167.1c0.8,0,1.5,0.7,1.5,1.6c0,0.9,-0.7,1.6,-1.5,1.6c-0.8,0,-1.5,-0.7,-1.5,-1.6c0,-0.9,0.7,-1.6,1.5,-1.6Z" class="g2_4" />
<path fill-rule="evenodd" d="M247.5,167c0.9,0,1.6,0.8,1.6,1.7c0,1,-0.7,1.7,-1.6,1.7c-0.9,0,-1.6,-0.7,-1.6,-1.7c0,-0.9,0.7,-1.7,1.6,-1.7Zm0,0.5c-0.6,0,-1.1,0.6,-1.1,1.2c0,0.7,0.5,1.2,1.1,1.2c0.6,0,1.1,-0.5,1.1,-1.2c0,-0.6,-0.5,-1.2,-1.1,-1.2Z" class="g2_4" />
<path fill-rule="evenodd" d="M219.7,246.4c0.8,0,1.5,0.7,1.5,1.6c0,0.9,-0.7,1.6,-1.5,1.6c-0.8,0,-1.5,-0.7,-1.5,-1.6c0,-0.9,0.7,-1.6,1.5,-1.6Z" class="g2_4" />
<path fill-rule="evenodd" d="M219.7,246.3c0.9,0,1.6,0.7,1.6,1.7c0,0.9,-0.7,1.7,-1.6,1.7c-0.9,0,-1.6,-0.8,-1.6,-1.7c0,-1,0.7,-1.7,1.6,-1.7Zm0,0.5c-0.6,0,-1.1,0.5,-1.1,1.2c0,0.7,0.5,1.2,1.1,1.2c0.6,0,1.1,-0.5,1.1,-1.2c0,-0.7,-0.5,-1.2,-1.1,-1.2Z" class="g2_4" />
<path fill-rule="evenodd" d="M211.2,253.5c0.9,0,1.5,0.7,1.5,1.6c0,0.9,-0.6,1.6,-1.5,1.6c-0.8,0,-1.5,-0.7,-1.5,-1.6c0,-0.9,0.7,-1.6,1.5,-1.6Z" class="g2_4" />
<path fill-rule="evenodd" d="M211.2,253.4c0.9,0,1.7,0.8,1.7,1.7c0,1,-0.8,1.7,-1.7,1.7c-0.9,0,-1.6,-0.7,-1.6,-1.7c0,-0.9,0.7,-1.7,1.6,-1.7Zm0,0.5c-0.6,0,-1.1,0.6,-1.1,1.2c0,0.7,0.5,1.2,1.1,1.2c0.7,0,1.2,-0.5,1.2,-1.2c0,-0.6,-0.5,-1.2,-1.2,-1.2Z" class="g2_4" />
<path fill-rule="evenodd" d="M164.5,167.1c0.8,0,1.5,0.7,1.5,1.6c0,0.9,-0.7,1.6,-1.5,1.6c-0.8,0,-1.5,-0.7,-1.5,-1.6c0,-0.9,0.7,-1.6,1.5,-1.6Z" class="g2_4" />
<path fill-rule="evenodd" d="M164.5,167c0.9,0,1.6,0.8,1.6,1.7c0,1,-0.7,1.7,-1.6,1.7c-0.9,0,-1.6,-0.7,-1.6,-1.7c0,-0.9,0.7,-1.7,1.6,-1.7Zm0,0.5c-0.6,0,-1.1,0.6,-1.1,1.2c0,0.7,0.5,1.2,1.1,1.2c0.6,0,1.1,-0.5,1.1,-1.2c0,-0.6,-0.5,-1.2,-1.1,-1.2Z" class="g2_4" />
<path fill-rule="evenodd" d="M205,311.2c0.8,0,1.5,0.7,1.5,1.6c0,0.9,-0.7,1.6,-1.5,1.6c-0.8,0,-1.5,-0.7,-1.5,-1.6c0,-0.9,0.7,-1.6,1.5,-1.6Z" class="g2_4" />
<path fill-rule="evenodd" d="M205,311.1c0.9,0,1.6,0.7,1.6,1.7c0,0.9,-0.7,1.7,-1.6,1.7c-0.9,0,-1.6,-0.8,-1.6,-1.7c0,-1,0.7,-1.7,1.6,-1.7Zm0,0.5c-0.6,0,-1.1,0.5,-1.1,1.2c0,0.7,0.5,1.2,1.1,1.2c0.6,0,1.1,-0.5,1.1,-1.2c0,-0.7,-0.5,-1.2,-1.1,-1.2Z" class="g2_4" />
<path fill-rule="evenodd" d="M167.1,188.7c0.9,0,1.5,0.7,1.5,1.6c0,0.9,-0.6,1.6,-1.5,1.6c-0.8,0,-1.5,-0.7,-1.5,-1.6c0,-0.9,0.7,-1.6,1.5,-1.6Z" class="g2_4" />
<path fill-rule="evenodd" d="M167.1,188.6c0.9,0,1.6,0.8,1.6,1.7c0,1,-0.7,1.7,-1.6,1.7c-0.9,0,-1.6,-0.7,-1.6,-1.7c0,-0.9,0.7,-1.7,1.6,-1.7Zm0,0.5c-0.6,0,-1.1,0.6,-1.1,1.2c0,0.7,0.5,1.2,1.1,1.2c0.7,0,1.1,-0.5,1.1,-1.2c0,-0.6,-0.4,-1.2,-1.1,-1.2Z" class="g2_4" />
<path fill-rule="evenodd" d="M258.6,203.1c0.8,0,1.5,0.7,1.5,1.6c0,0.8,-0.7,1.6,-1.5,1.6c-0.8,0,-1.5,-0.8,-1.5,-1.6c0,-0.9,0.7,-1.6,1.5,-1.6Z" class="g2_4" />
<path fill-rule="evenodd" d="M258.6,203c0.9,0,1.6,0.7,1.6,1.7c0,0.9,-0.7,1.7,-1.6,1.7c-0.9,0,-1.6,-0.8,-1.6,-1.7c0,-1,0.7,-1.7,1.6,-1.7Zm0,0.5c-0.6,0,-1.1,0.5,-1.1,1.2c0,0.6,0.5,1.2,1.1,1.2c0.6,0,1.1,-0.6,1.1,-1.2c0,-0.7,-0.5,-1.2,-1.1,-1.2Z" class="g2_4" />
<path fill-rule="evenodd" d="M308.6,188.7c0.8,0,1.5,0.7,1.5,1.6c0,0.9,-0.7,1.6,-1.5,1.6c-0.9,0,-1.5,-0.7,-1.5,-1.6c0,-0.9,0.6,-1.6,1.5,-1.6Z" class="g2_4" />
<path fill-rule="evenodd" d="M308.6,188.6c0.9,0,1.6,0.8,1.6,1.7c0,1,-0.7,1.7,-1.6,1.7c-0.9,0,-1.7,-0.7,-1.7,-1.7c0,-0.9,0.8,-1.7,1.7,-1.7Zm0,0.5c-0.7,0,-1.2,0.6,-1.2,1.2c0,0.7,0.5,1.2,1.2,1.2c0.6,0,1.1,-0.5,1.1,-1.2c0,-0.6,-0.5,-1.2,-1.1,-1.2Z" class="g2_4" />
<path fill-rule="evenodd" d="M165,340.1c0.8,0,1.5,0.7,1.5,1.5c0,0.9,-0.7,1.6,-1.5,1.6c-0.8,0,-1.5,-0.7,-1.5,-1.6c0,-0.8,0.7,-1.5,1.5,-1.5Z" class="g2_4" />
<path fill-rule="evenodd" d="M165,339.9c0.9,0,1.6,0.8,1.6,1.7c0,1,-0.7,1.7,-1.6,1.7c-0.9,0,-1.6,-0.7,-1.6,-1.7c0,-0.9,0.7,-1.7,1.6,-1.7Zm0,0.6c-0.6,0,-1.1,0.5,-1.1,1.1c0,0.7,0.5,1.2,1.1,1.2c0.6,0,1.1,-0.5,1.1,-1.2c0,-0.6,-0.5,-1.1,-1.1,-1.1Z" class="g2_4" />
<path fill-rule="evenodd" d="M213.4,167.1c0.8,0,1.5,0.7,1.5,1.6c0,0.9,-0.7,1.6,-1.5,1.6c-0.9,0,-1.5,-0.7,-1.5,-1.6c0,-0.9,0.6,-1.6,1.5,-1.6Z" class="g2_4" />
<path fill-rule="evenodd" d="M213.4,167c0.9,0,1.6,0.8,1.6,1.7c0,1,-0.7,1.7,-1.6,1.7c-0.9,0,-1.7,-0.7,-1.7,-1.7c0,-0.9,0.8,-1.7,1.7,-1.7Zm0,0.5c-0.7,0,-1.2,0.6,-1.2,1.2c0,0.7,0.5,1.2,1.2,1.2c0.6,0,1.1,-0.5,1.1,-1.2c0,-0.6,-0.5,-1.2,-1.1,-1.2Z" class="g2_4" />
<path fill-rule="evenodd" d="M156.5,332.9c0.9,0,1.5,0.7,1.5,1.6c0,0.9,-0.6,1.6,-1.5,1.6c-0.8,0,-1.5,-0.7,-1.5,-1.6c0,-0.9,0.7,-1.6,1.5,-1.6Z" class="g2_4" />
<path fill-rule="evenodd" d="M156.5,332.8c0.9,0,1.7,0.8,1.7,1.7c0,1,-0.8,1.7,-1.7,1.7c-0.9,0,-1.6,-0.7,-1.6,-1.7c0,-0.9,0.7,-1.7,1.6,-1.7Zm0,0.5c-0.6,0,-1.1,0.6,-1.1,1.2c0,0.7,0.5,1.2,1.1,1.2c0.7,0,1.2,-0.5,1.2,-1.2c0,-0.6,-0.5,-1.2,-1.2,-1.2Z" class="g2_4" />
<path fill-rule="evenodd" d="M249.6,167.1c0.9,0,1.5,0.7,1.5,1.6c0,0.9,-0.6,1.6,-1.5,1.6c-0.8,0,-1.5,-0.7,-1.5,-1.6c0,-0.9,0.7,-1.6,1.5,-1.6Z" class="g2_4" />
<path fill-rule="evenodd" d="M249.6,167c0.9,0,1.6,0.8,1.6,1.7c0,1,-0.7,1.7,-1.6,1.7c-0.9,0,-1.6,-0.7,-1.6,-1.7c0,-0.9,0.7,-1.7,1.6,-1.7Zm0,0.5c-0.6,0,-1.1,0.6,-1.1,1.2c0,0.7,0.5,1.2,1.1,1.2c0.6,0,1.1,-0.5,1.1,-1.2c0,-0.6,-0.5,-1.2,-1.1,-1.2Z" class="g2_4" />
<path fill-rule="evenodd" d="M174,340.1c0.8,0,1.5,0.7,1.5,1.5c0,0.9,-0.7,1.6,-1.5,1.6c-0.8,0,-1.5,-0.7,-1.5,-1.6c0,-0.8,0.7,-1.5,1.5,-1.5Z" class="g2_4" />
<path fill-rule="evenodd" d="M174,339.9c0.9,0,1.6,0.8,1.6,1.7c0,1,-0.7,1.7,-1.6,1.7c-0.9,0,-1.6,-0.7,-1.6,-1.7c0,-0.9,0.7,-1.7,1.6,-1.7Zm0,0.6c-0.6,0,-1.1,0.5,-1.1,1.1c0,0.7,0.5,1.2,1.1,1.2c0.6,0,1.1,-0.5,1.1,-1.2c0,-0.6,-0.5,-1.1,-1.1,-1.1Z" class="g2_4" />
<path fill-rule="evenodd" d="M167.1,167.1c0.9,0,1.5,0.7,1.5,1.6c0,0.9,-0.6,1.6,-1.5,1.6c-0.8,0,-1.5,-0.7,-1.5,-1.6c0,-0.9,0.7,-1.6,1.5,-1.6Z" class="g2_4" />
<path fill-rule="evenodd" d="M167.1,167c0.9,0,1.6,0.8,1.6,1.7c0,1,-0.7,1.7,-1.6,1.7c-0.9,0,-1.6,-0.7,-1.6,-1.7c0,-0.9,0.7,-1.7,1.6,-1.7Zm0,0.5c-0.6,0,-1.1,0.6,-1.1,1.2c0,0.7,0.5,1.2,1.1,1.2c0.7,0,1.1,-0.5,1.1,-1.2c0,-0.6,-0.4,-1.2,-1.1,-1.2Z" class="g2_4" />
<path fill-rule="evenodd" d="M354.8,174.2c0.8,0,1.5,0.8,1.5,1.6c0,0.9,-0.7,1.6,-1.5,1.6c-0.8,0,-1.5,-0.7,-1.5,-1.6c0,-0.8,0.7,-1.6,1.5,-1.6Z" class="g2_4" />
<path fill-rule="evenodd" d="M354.8,174.1c0.9,0,1.6,0.8,1.6,1.7c0,1,-0.7,1.7,-1.6,1.7c-0.9,0,-1.6,-0.7,-1.6,-1.7c0,-0.9,0.7,-1.7,1.6,-1.7Zm0,0.5c-0.6,0,-1.1,0.6,-1.1,1.2c0,0.7,0.5,1.2,1.1,1.2c0.6,0,1.1,-0.5,1.1,-1.2c0,-0.6,-0.5,-1.2,-1.1,-1.2Z" class="g2_4" />
<path fill-rule="evenodd" d="M207.6,167.1c0.9,0,1.5,0.7,1.5,1.6c0,0.9,-0.6,1.6,-1.5,1.6c-0.8,0,-1.5,-0.7,-1.5,-1.6c0,-0.9,0.7,-1.6,1.5,-1.6Z" class="g2_4" />
<path fill-rule="evenodd" d="M207.6,167c0.9,0,1.7,0.8,1.7,1.7c0,1,-0.8,1.7,-1.7,1.7c-0.9,0,-1.6,-0.7,-1.6,-1.7c0,-0.9,0.7,-1.7,1.6,-1.7Zm0,0.5c-0.6,0,-1.1,0.6,-1.1,1.2c0,0.7,0.5,1.2,1.1,1.2c0.7,0,1.2,-0.5,1.2,-1.2c0,-0.6,-0.5,-1.2,-1.2,-1.2Z" class="g2_4" />
<path fill-rule="evenodd" d="M243.9,181.5c0.8,0,1.5,0.7,1.5,1.6c0,0.9,-0.7,1.6,-1.5,1.6c-0.8,0,-1.5,-0.7,-1.5,-1.6c0,-0.9,0.7,-1.6,1.5,-1.6Z" class="g2_4" />
<path fill-rule="evenodd" d="M243.9,181.4c0.9,0,1.6,0.7,1.6,1.7c0,0.9,-0.7,1.7,-1.6,1.7c-0.9,0,-1.6,-0.8,-1.6,-1.7c0,-1,0.7,-1.7,1.6,-1.7Zm0,0.5c-0.6,0,-1.1,0.5,-1.1,1.2c0,0.6,0.5,1.2,1.1,1.2c0.6,0,1.1,-0.6,1.1,-1.2c0,-0.7,-0.5,-1.2,-1.1,-1.2Z" class="g2_4" />
<path d="M91.5,727.5l0,-211" class="g1_4" />
<path d="M403.5,727.5l-312,0" class="g1_4" />
<path d="M403.5,729.5l0,-2" class="g1_4" />
<path d="M351.5,729.5l0,-2" class="g1_4" />
<path d="M299.5,729.5l0,-2" class="g1_4" />
<path d="M247.5,729.5l0,-2" class="g1_4" />
<path d="M195.5,729.5l0,-2" class="g1_4" />
<path d="M143.5,729.5l0,-2" class="g1_4" />
<path d="M92.5,729.5l0,-2l311,0" class="g1_4" />
<path d="M90.5,516.5l2,0" class="g1_4" />
<path d="M90.5,552.5l2,0" class="g1_4" />
<path d="M90.5,587.5l2,0" class="g1_4" />
<path d="M90.5,622.5l2,0" class="g1_4" />
<path d="M90.5,657.5l2,0" class="g1_4" />
<path d="M90.5,692.5l2,0" class="g1_4" />
<path d="M90.5,727.5l2,0" class="g1_4" />
<path d="M92.5,516.5l0,211" class="g1_4" />
<path fill-rule="evenodd" d="M289.2,577.6c0.8,0,1.5,0.7,1.5,1.5c0,0.9,-0.7,1.6,-1.5,1.6c-0.8,0,-1.5,-0.7,-1.5,-1.6c0,-0.8,0.7,-1.5,1.5,-1.5Z" class="g2_4" />
<path fill-rule="evenodd" d="M289.2,577.5c0.9,0,1.6,0.7,1.6,1.6c0,1,-0.7,1.7,-1.6,1.7c-0.9,0,-1.6,-0.7,-1.6,-1.7c0,-0.9,0.7,-1.6,1.6,-1.6Zm0,0.5c-0.6,0,-1.1,0.5,-1.1,1.1c0,0.7,0.5,1.2,1.1,1.2c0.6,0,1.1,-0.5,1.1,-1.2c0,-0.6,-0.5,-1.1,-1.1,-1.1Z" class="g2_4" />
<path fill-rule="evenodd" d="M229.6,557.3c0.8,0,1.5,0.7,1.5,1.5c0,0.9,-0.7,1.6,-1.5,1.6c-0.9,0,-1.5,-0.7,-1.5,-1.6c0,-0.8,0.6,-1.5,1.5,-1.5Z" class="g2_4" />
<path fill-rule="evenodd" d="M229.6,557.1c0.9,0,1.6,0.8,1.6,1.7c0,0.9,-0.7,1.7,-1.6,1.7c-0.9,0,-1.6,-0.8,-1.6,-1.7c0,-0.9,0.7,-1.7,1.6,-1.7Zm0,0.6c-0.7,0,-1.1,0.5,-1.1,1.1c0,0.7,0.4,1.2,1.1,1.2c0.6,0,1.1,-0.5,1.1,-1.2c0,-0.6,-0.5,-1.1,-1.1,-1.1Z" class="g2_4" />
<path fill-rule="evenodd" d="M195.3,690.9c0.8,0,1.5,0.7,1.5,1.6c0,0.8,-0.7,1.5,-1.5,1.5c-0.8,0,-1.5,-0.7,-1.5,-1.5c0,-0.9,0.7,-1.6,1.5,-1.6Z" class="g2_4" />
<path fill-rule="evenodd" d="M195.3,690.8c0.9,0,1.6,0.7,1.6,1.7c0,0.9,-0.7,1.6,-1.6,1.6c-0.9,0,-1.6,-0.7,-1.6,-1.6c0,-1,0.7,-1.7,1.6,-1.7Zm0,0.5c-0.6,0,-1.1,0.5,-1.1,1.2c0,0.6,0.5,1.1,1.1,1.1c0.6,0,1.1,-0.5,1.1,-1.1c0,-0.7,-0.5,-1.2,-1.1,-1.2Z" class="g2_4" />
<path fill-rule="evenodd" d="M218.6,675c0.9,0,1.5,0.7,1.5,1.5c0,0.9,-0.6,1.6,-1.5,1.6c-0.8,0,-1.5,-0.7,-1.5,-1.6c0,-0.8,0.7,-1.5,1.5,-1.5Z" class="g2_4" />
<path fill-rule="evenodd" d="M218.6,674.9c0.9,0,1.7,0.7,1.7,1.6c0,1,-0.8,1.7,-1.7,1.7c-0.9,0,-1.6,-0.7,-1.6,-1.7c0,-0.9,0.7,-1.6,1.6,-1.6Zm0,0.5c-0.6,0,-1.1,0.5,-1.1,1.1c0,0.7,0.5,1.2,1.1,1.2c0.7,0,1.2,-0.5,1.2,-1.2c0,-0.6,-0.5,-1.1,-1.2,-1.1Z" class="g2_4" />
<path fill-rule="evenodd" d="M209.3,703.1c0.8,0,1.5,0.7,1.5,1.6c0,0.8,-0.7,1.5,-1.5,1.5c-0.8,0,-1.5,-0.7,-1.5,-1.5c0,-0.9,0.7,-1.6,1.5,-1.6Z" class="g2_4" />
<path fill-rule="evenodd" d="M209.3,703c0.9,0,1.6,0.7,1.6,1.7c0,0.9,-0.7,1.6,-1.6,1.6c-0.9,0,-1.6,-0.7,-1.6,-1.6c0,-1,0.7,-1.7,1.6,-1.7Zm0,0.5c-0.6,0,-1.1,0.5,-1.1,1.2c0,0.6,0.5,1.1,1.1,1.1c0.6,0,1.1,-0.5,1.1,-1.1c0,-0.7,-0.5,-1.2,-1.1,-1.2Z" class="g2_4" />
<path fill-rule="evenodd" d="M137.1,627.2c0.9,0,1.5,0.7,1.5,1.5c0,0.9,-0.6,1.6,-1.5,1.6c-0.8,0,-1.5,-0.7,-1.5,-1.6c0,-0.8,0.7,-1.5,1.5,-1.5Z" class="g2_4" />
<path fill-rule="evenodd" d="M137.1,627.1c0.9,0,1.7,0.7,1.7,1.6c0,1,-0.8,1.7,-1.7,1.7c-0.9,0,-1.6,-0.7,-1.6,-1.7c0,-0.9,0.7,-1.6,1.6,-1.6Zm0,0.5c-0.6,0,-1.1,0.5,-1.1,1.1c0,0.7,0.5,1.2,1.1,1.2c0.7,0,1.2,-0.5,1.2,-1.2c0,-0.6,-0.5,-1.1,-1.2,-1.1Z" class="g2_4" />
<path fill-rule="evenodd" d="M181.9,601.2c0.8,0,1.5,0.7,1.5,1.6c0,0.8,-0.7,1.5,-1.5,1.5c-0.9,0,-1.5,-0.7,-1.5,-1.5c0,-0.9,0.6,-1.6,1.5,-1.6Z" class="g2_4" />
<path fill-rule="evenodd" d="M181.9,601.1c0.9,0,1.6,0.7,1.6,1.7c0,0.9,-0.7,1.6,-1.6,1.6c-0.9,0,-1.7,-0.7,-1.7,-1.6c0,-1,0.8,-1.7,1.7,-1.7Zm0,0.5c-0.7,0,-1.2,0.5,-1.2,1.2c0,0.6,0.5,1.1,1.2,1.1c0.6,0,1.1,-0.5,1.1,-1.1c0,-0.7,-0.5,-1.2,-1.1,-1.2Z" class="g2_4" />
<path fill-rule="evenodd" d="M183.9,694.9c0.8,0,1.4,0.7,1.4,1.5c0,0.9,-0.6,1.6,-1.4,1.6c-0.9,0,-1.5,-0.7,-1.5,-1.6c0,-0.8,0.6,-1.5,1.5,-1.5Z" class="g2_4" />
<path fill-rule="evenodd" d="M183.9,694.8c0.8,0,1.6,0.7,1.6,1.6c0,1,-0.8,1.7,-1.6,1.7c-0.9,0,-1.7,-0.7,-1.7,-1.7c0,-0.9,0.8,-1.6,1.7,-1.6Zm0,0.5c-0.7,0,-1.2,0.5,-1.2,1.1c0,0.7,0.5,1.2,1.2,1.2c0.6,0,1.1,-0.5,1.1,-1.2c0,-0.6,-0.5,-1.1,-1.1,-1.1Z" class="g2_4" />
<path fill-rule="evenodd" d="M256,688.1c0.9,0,1.5,0.7,1.5,1.5c0,0.9,-0.6,1.6,-1.5,1.6c-0.8,0,-1.5,-0.7,-1.5,-1.6c0,-0.8,0.7,-1.5,1.5,-1.5Z" class="g2_4" />
<path fill-rule="evenodd" d="M256,688c0.9,0,1.6,0.7,1.6,1.6c0,1,-0.7,1.7,-1.6,1.7c-0.9,0,-1.6,-0.7,-1.6,-1.7c0,-0.9,0.7,-1.6,1.6,-1.6Zm0,0.5c-0.6,0,-1.1,0.5,-1.1,1.1c0,0.7,0.5,1.2,1.1,1.2c0.6,0,1.1,-0.5,1.1,-1.2c0,-0.6,-0.5,-1.1,-1.1,-1.1Z" class="g2_4" />
<path fill-rule="evenodd" d="M222.9,621.5c0.8,0,1.4,0.7,1.4,1.6c0,0.8,-0.6,1.5,-1.4,1.5c-0.9,0,-1.5,-0.7,-1.5,-1.5c0,-0.9,0.6,-1.6,1.5,-1.6Z" class="g2_4" />
<path fill-rule="evenodd" d="M222.9,621.4c0.9,0,1.6,0.7,1.6,1.7c0,0.9,-0.7,1.6,-1.6,1.6c-0.9,0,-1.7,-0.7,-1.7,-1.6c0,-1,0.8,-1.7,1.7,-1.7Zm0,0.5c-0.7,0,-1.2,0.5,-1.2,1.2c0,0.6,0.5,1.1,1.2,1.1c0.6,0,1.1,-0.5,1.1,-1.1c0,-0.7,-0.5,-1.2,-1.1,-1.2Z" class="g2_4" />
<path fill-rule="evenodd" d="M219.6,711.7c0.9,0,1.5,0.7,1.5,1.6c0,0.8,-0.6,1.5,-1.5,1.5c-0.8,0,-1.5,-0.7,-1.5,-1.5c0,-0.9,0.7,-1.6,1.5,-1.6Z" class="g2_4" />
<path fill-rule="evenodd" d="M219.6,711.6c0.9,0,1.6,0.8,1.6,1.7c0,0.9,-0.7,1.7,-1.6,1.7c-0.9,0,-1.6,-0.8,-1.6,-1.7c0,-0.9,0.7,-1.7,1.6,-1.7Zm0,0.5c-0.6,0,-1.1,0.5,-1.1,1.2c0,0.6,0.5,1.1,1.1,1.1c0.7,0,1.1,-0.5,1.1,-1.1c0,-0.7,-0.4,-1.2,-1.1,-1.2Z" class="g2_4" />
<path fill-rule="evenodd" d="M247.2,642.9c0.8,0,1.5,0.6,1.5,1.5c0,0.9,-0.7,1.5,-1.5,1.5c-0.8,0,-1.5,-0.6,-1.5,-1.5c0,-0.9,0.7,-1.5,1.5,-1.5Z" class="g2_4" />
<path fill-rule="evenodd" d="M247.2,642.7c0.9,0,1.6,0.8,1.6,1.7c0,0.9,-0.7,1.7,-1.6,1.7c-0.9,0,-1.6,-0.8,-1.6,-1.7c0,-0.9,0.7,-1.7,1.6,-1.7Zm0,0.5c-0.6,0,-1.1,0.6,-1.1,1.2c0,0.6,0.5,1.2,1.1,1.2c0.6,0,1.1,-0.6,1.1,-1.2c0,-0.6,-0.5,-1.2,-1.1,-1.2Z" class="g2_4" />
<path fill-rule="evenodd" d="M156.9,671.1c0.8,0,1.5,0.7,1.5,1.6c0,0.8,-0.7,1.5,-1.5,1.5c-0.8,0,-1.5,-0.7,-1.5,-1.5c0,-0.9,0.7,-1.6,1.5,-1.6Z" class="g2_4" />
<path fill-rule="evenodd" d="M156.9,671c0.9,0,1.6,0.7,1.6,1.7c0,0.9,-0.7,1.6,-1.6,1.6c-0.9,0,-1.6,-0.7,-1.6,-1.6c0,-1,0.7,-1.7,1.6,-1.7Zm0,0.5c-0.6,0,-1.1,0.5,-1.1,1.2c0,0.6,0.5,1.1,1.1,1.1c0.6,0,1.1,-0.5,1.1,-1.1c0,-0.7,-0.5,-1.2,-1.1,-1.2Z" class="g2_4" />
<path fill-rule="evenodd" d="M347.3,557.3c0.9,0,1.5,0.7,1.5,1.5c0,0.9,-0.6,1.6,-1.5,1.6c-0.8,0,-1.5,-0.7,-1.5,-1.6c0,-0.8,0.7,-1.5,1.5,-1.5Z" class="g2_4" />
<path fill-rule="evenodd" d="M347.3,557.1c0.9,0,1.7,0.8,1.7,1.7c0,0.9,-0.8,1.7,-1.7,1.7c-0.9,0,-1.6,-0.8,-1.6,-1.7c0,-0.9,0.7,-1.7,1.6,-1.7Zm0,0.6c-0.6,0,-1.1,0.5,-1.1,1.1c0,0.7,0.5,1.2,1.1,1.2c0.7,0,1.2,-0.5,1.2,-1.2c0,-0.6,-0.5,-1.1,-1.2,-1.1Z" class="g2_4" />
<path fill-rule="evenodd" d="M211.4,709.6c0.9,0,1.5,0.6,1.5,1.5c0,0.9,-0.6,1.5,-1.5,1.5c-0.8,0,-1.5,-0.6,-1.5,-1.5c0,-0.9,0.7,-1.5,1.5,-1.5Z" class="g2_4" />
<path fill-rule="evenodd" d="M211.4,709.4c0.9,0,1.6,0.8,1.6,1.7c0,0.9,-0.7,1.7,-1.6,1.7c-0.9,0,-1.6,-0.8,-1.6,-1.7c0,-0.9,0.7,-1.7,1.6,-1.7Zm0,0.5c-0.6,0,-1.1,0.6,-1.1,1.2c0,0.6,0.5,1.2,1.1,1.2c0.7,0,1.1,-0.6,1.1,-1.2c0,-0.6,-0.4,-1.2,-1.1,-1.2Z" class="g2_4" />
<path fill-rule="evenodd" d="M168.8,676.8c0.8,0,1.5,0.7,1.5,1.5c0,0.9,-0.7,1.6,-1.5,1.6c-0.8,0,-1.5,-0.7,-1.5,-1.6c0,-0.8,0.7,-1.5,1.5,-1.5Z" class="g2_4" />
<path fill-rule="evenodd" d="M168.8,676.7c0.9,0,1.6,0.7,1.6,1.6c0,1,-0.7,1.7,-1.6,1.7c-0.9,0,-1.6,-0.7,-1.6,-1.7c0,-0.9,0.7,-1.6,1.6,-1.6Zm0,0.5c-0.6,0,-1.1,0.5,-1.1,1.1c0,0.7,0.5,1.2,1.1,1.2c0.6,0,1.1,-0.5,1.1,-1.2c0,-0.6,-0.5,-1.1,-1.1,-1.1Z" class="g2_4" />
<path fill-rule="evenodd" d="M197.9,597.9c0.8,0,1.5,0.7,1.5,1.5c0,0.9,-0.7,1.6,-1.5,1.6c-0.8,0,-1.5,-0.7,-1.5,-1.6c0,-0.8,0.7,-1.5,1.5,-1.5Z" class="g2_4" />
<path fill-rule="evenodd" d="M197.9,597.8c0.9,0,1.6,0.7,1.6,1.6c0,1,-0.7,1.7,-1.6,1.7c-0.9,0,-1.6,-0.7,-1.6,-1.7c0,-0.9,0.7,-1.6,1.6,-1.6Zm0,0.5c-0.6,0,-1.1,0.5,-1.1,1.1c0,0.7,0.5,1.2,1.1,1.2c0.6,0,1.1,-0.5,1.1,-1.2c0,-0.6,-0.5,-1.1,-1.1,-1.1Z" class="g2_4" />
<path fill-rule="evenodd" d="M207.2,653c0.8,0,1.5,0.7,1.5,1.6c0,0.8,-0.7,1.5,-1.5,1.5c-0.8,0,-1.5,-0.7,-1.5,-1.5c0,-0.9,0.7,-1.6,1.5,-1.6Z" class="g2_4" />
<path fill-rule="evenodd" d="M207.2,652.9c0.9,0,1.6,0.7,1.6,1.7c0,0.9,-0.7,1.6,-1.6,1.6c-0.9,0,-1.6,-0.7,-1.6,-1.6c0,-1,0.7,-1.7,1.6,-1.7Zm0,0.5c-0.6,0,-1.1,0.5,-1.1,1.2c0,0.6,0.5,1.1,1.1,1.1c0.6,0,1.1,-0.5,1.1,-1.1c0,-0.7,-0.5,-1.2,-1.1,-1.2Z" class="g2_4" />
<path fill-rule="evenodd" d="M248.2,580.9c0.8,0,1.5,0.7,1.5,1.6c0,0.8,-0.7,1.5,-1.5,1.5c-0.8,0,-1.5,-0.7,-1.5,-1.5c0,-0.9,0.7,-1.6,1.5,-1.6Z" class="g2_4" />
<path fill-rule="evenodd" d="M248.2,580.8c0.9,0,1.6,0.7,1.6,1.7c0,0.9,-0.7,1.6,-1.6,1.6c-0.9,0,-1.6,-0.7,-1.6,-1.6c0,-1,0.7,-1.7,1.6,-1.7Zm0,0.5c-0.6,0,-1.1,0.5,-1.1,1.2c0,0.6,0.5,1.1,1.1,1.1c0.6,0,1.1,-0.5,1.1,-1.1c0,-0.7,-0.5,-1.2,-1.1,-1.2Z" class="g2_4" />
<path fill-rule="evenodd" d="M248.2,641.8c0.8,0,1.5,0.7,1.5,1.6c0,0.8,-0.7,1.5,-1.5,1.5c-0.8,0,-1.5,-0.7,-1.5,-1.5c0,-0.9,0.7,-1.6,1.5,-1.6Z" class="g2_4" />
<path fill-rule="evenodd" d="M248.2,641.7c0.9,0,1.6,0.7,1.6,1.7c0,0.9,-0.7,1.6,-1.6,1.6c-0.9,0,-1.6,-0.7,-1.6,-1.6c0,-1,0.7,-1.7,1.6,-1.7Zm0,0.5c-0.6,0,-1.1,0.5,-1.1,1.2c0,0.6,0.5,1.1,1.1,1.1c0.6,0,1.1,-0.5,1.1,-1.1c0,-0.7,-0.5,-1.2,-1.1,-1.2Z" class="g2_4" />
<path fill-rule="evenodd" d="M250.3,624.9c0.8,0,1.5,0.7,1.5,1.5c0,0.9,-0.7,1.6,-1.5,1.6c-0.8,0,-1.5,-0.7,-1.5,-1.6c0,-0.8,0.7,-1.5,1.5,-1.5Z" class="g2_4" />
<path fill-rule="evenodd" d="M250.3,624.7c0.9,0,1.6,0.8,1.6,1.7c0,0.9,-0.7,1.7,-1.6,1.7c-0.9,0,-1.6,-0.8,-1.6,-1.7c0,-0.9,0.7,-1.7,1.6,-1.7Zm0,0.6c-0.6,0,-1.1,0.5,-1.1,1.1c0,0.7,0.5,1.2,1.1,1.2c0.6,0,1.1,-0.5,1.1,-1.2c0,-0.6,-0.5,-1.1,-1.1,-1.1Z" class="g2_4" />
<path fill-rule="evenodd" d="M208.3,612.8c0.9,0,1.5,0.7,1.5,1.5c0,0.9,-0.6,1.6,-1.5,1.6c-0.8,0,-1.5,-0.7,-1.5,-1.6c0,-0.8,0.7,-1.5,1.5,-1.5Z" class="g2_4" />
<path fill-rule="evenodd" d="M208.3,612.7c0.9,0,1.6,0.7,1.6,1.6c0,1,-0.7,1.7,-1.6,1.7c-0.9,0,-1.6,-0.7,-1.6,-1.7c0,-0.9,0.7,-1.6,1.6,-1.6Zm0,0.5c-0.6,0,-1.1,0.5,-1.1,1.1c0,0.7,0.5,1.2,1.1,1.2c0.6,0,1.1,-0.5,1.1,-1.2c0,-0.6,-0.5,-1.1,-1.1,-1.1Z" class="g2_4" />
<path fill-rule="evenodd" d="M264.4,583.5c0.8,0,1.4,0.7,1.4,1.5c0,0.9,-0.6,1.6,-1.4,1.6c-0.9,0,-1.5,-0.7,-1.5,-1.6c0,-0.8,0.6,-1.5,1.5,-1.5Z" class="g2_4" />
<path fill-rule="evenodd" d="M264.4,583.4c0.8,0,1.6,0.7,1.6,1.6c0,1,-0.8,1.7,-1.6,1.7c-0.9,0,-1.7,-0.7,-1.7,-1.7c0,-0.9,0.8,-1.6,1.7,-1.6Zm0,0.5c-0.7,0,-1.2,0.5,-1.2,1.1c0,0.7,0.5,1.2,1.2,1.2c0.6,0,1.1,-0.5,1.1,-1.2c0,-0.6,-0.5,-1.1,-1.1,-1.1Z" class="g2_4" />
<path fill-rule="evenodd" d="M202.6,642.2c0.8,0,1.5,0.7,1.5,1.6c0,0.8,-0.7,1.5,-1.5,1.5c-0.8,0,-1.5,-0.7,-1.5,-1.5c0,-0.9,0.7,-1.6,1.5,-1.6Z" class="g2_4" />
<path fill-rule="evenodd" d="M202.6,642.1c0.9,0,1.6,0.7,1.6,1.7c0,0.9,-0.7,1.6,-1.6,1.6c-0.9,0,-1.6,-0.7,-1.6,-1.6c0,-1,0.7,-1.7,1.6,-1.7Zm0,0.5c-0.6,0,-1.1,0.5,-1.1,1.2c0,0.6,0.5,1.1,1.1,1.1c0.6,0,1.1,-0.5,1.1,-1.1c0,-0.7,-0.5,-1.2,-1.1,-1.2Z" class="g2_4" />
<path fill-rule="evenodd" d="M192.2,576.2c0.8,0,1.5,0.7,1.5,1.5c0,0.9,-0.7,1.6,-1.5,1.6c-0.9,0,-1.5,-0.7,-1.5,-1.6c0,-0.8,0.6,-1.5,1.5,-1.5Z" class="g2_4" />
<path fill-rule="evenodd" d="M192.2,576c0.9,0,1.6,0.8,1.6,1.7c0,0.9,-0.7,1.7,-1.6,1.7c-0.9,0,-1.6,-0.8,-1.6,-1.7c0,-0.9,0.7,-1.7,1.6,-1.7Zm0,0.6c-0.6,0,-1.1,0.5,-1.1,1.1c0,0.7,0.5,1.2,1.1,1.2c0.6,0,1.1,-0.5,1.1,-1.2c0,-0.6,-0.5,-1.1,-1.1,-1.1Z" class="g2_4" />
<path fill-rule="evenodd" d="M236.8,715.3c0.8,0,1.5,0.7,1.5,1.6c0,0.8,-0.7,1.5,-1.5,1.5c-0.9,0,-1.5,-0.7,-1.5,-1.5c0,-0.9,0.6,-1.6,1.5,-1.6Z" class="g2_4" />
<path fill-rule="evenodd" d="M236.8,715.2c0.9,0,1.6,0.8,1.6,1.7c0,0.9,-0.7,1.7,-1.6,1.7c-0.9,0,-1.6,-0.8,-1.6,-1.7c0,-0.9,0.7,-1.7,1.6,-1.7Zm0,0.5c-0.6,0,-1.1,0.5,-1.1,1.2c0,0.6,0.5,1.1,1.1,1.1c0.6,0,1.1,-0.5,1.1,-1.1c0,-0.7,-0.5,-1.2,-1.1,-1.2Z" class="g2_4" />
<path fill-rule="evenodd" d="M177.1,611.4c0.9,0,1.5,0.7,1.5,1.5c0,0.9,-0.6,1.6,-1.5,1.6c-0.8,0,-1.4,-0.7,-1.4,-1.6c0,-0.8,0.6,-1.5,1.4,-1.5Z" class="g2_4" />
<path fill-rule="evenodd" d="M177.1,611.3c0.9,0,1.7,0.7,1.7,1.6c0,0.9,-0.8,1.7,-1.7,1.7c-0.9,0,-1.6,-0.8,-1.6,-1.7c0,-0.9,0.7,-1.6,1.6,-1.6Zm0,0.5c-0.6,0,-1.1,0.5,-1.1,1.1c0,0.7,0.5,1.2,1.1,1.2c0.7,0,1.2,-0.5,1.2,-1.2c0,-0.6,-0.5,-1.1,-1.2,-1.1Z" class="g2_4" />
<path fill-rule="evenodd" d="M256.5,689.1c0.9,0,1.5,0.7,1.5,1.6c0,0.8,-0.6,1.5,-1.5,1.5c-0.8,0,-1.5,-0.7,-1.5,-1.5c0,-0.9,0.7,-1.6,1.5,-1.6Z" class="g2_4" />
<path fill-rule="evenodd" d="M256.5,689c0.9,0,1.6,0.7,1.6,1.7c0,0.9,-0.7,1.6,-1.6,1.6c-0.9,0,-1.6,-0.7,-1.6,-1.6c0,-1,0.7,-1.7,1.6,-1.7Zm0,0.5c-0.6,0,-1.1,0.5,-1.1,1.2c0,0.6,0.5,1.1,1.1,1.1c0.6,0,1.1,-0.5,1.1,-1.1c0,-0.7,-0.5,-1.2,-1.1,-1.2Z" class="g2_4" />
<path fill-rule="evenodd" d="M183.9,686.8c0.8,0,1.4,0.7,1.4,1.6c0,0.8,-0.6,1.5,-1.4,1.5c-0.9,0,-1.5,-0.7,-1.5,-1.5c0,-0.9,0.6,-1.6,1.5,-1.6Z" class="g2_4" />
<path fill-rule="evenodd" d="M183.9,686.7c0.8,0,1.6,0.7,1.6,1.7c0,0.9,-0.8,1.6,-1.6,1.6c-0.9,0,-1.7,-0.7,-1.7,-1.6c0,-1,0.8,-1.7,1.7,-1.7Zm0,0.5c-0.7,0,-1.2,0.5,-1.2,1.2c0,0.6,0.5,1.1,1.2,1.1c0.6,0,1.1,-0.5,1.1,-1.1c0,-0.7,-0.5,-1.2,-1.1,-1.2Z" class="g2_4" />
<path fill-rule="evenodd" d="M181.2,629.4c0.9,0,1.5,0.7,1.5,1.5c0,0.9,-0.6,1.6,-1.5,1.6c-0.8,0,-1.4,-0.7,-1.4,-1.6c0,-0.8,0.6,-1.5,1.4,-1.5Z" class="g2_4" />
<path fill-rule="evenodd" d="M181.2,629.2c0.9,0,1.7,0.8,1.7,1.7c0,0.9,-0.8,1.7,-1.7,1.7c-0.9,0,-1.6,-0.8,-1.6,-1.7c0,-0.9,0.7,-1.7,1.6,-1.7Zm0,0.6c-0.6,0,-1.1,0.5,-1.1,1.1c0,0.7,0.5,1.2,1.1,1.2c0.7,0,1.2,-0.5,1.2,-1.2c0,-0.6,-0.5,-1.1,-1.2,-1.1Z" class="g2_4" />
<path fill-rule="evenodd" d="M233.2,580.9c0.8,0,1.5,0.7,1.5,1.6c0,0.8,-0.7,1.5,-1.5,1.5c-0.9,0,-1.5,-0.7,-1.5,-1.5c0,-0.9,0.6,-1.6,1.5,-1.6Z" class="g2_4" />
<path fill-rule="evenodd" d="M233.2,580.8c0.9,0,1.6,0.7,1.6,1.7c0,0.9,-0.7,1.6,-1.6,1.6c-0.9,0,-1.6,-0.7,-1.6,-1.6c0,-1,0.7,-1.7,1.6,-1.7Zm0,0.5c-0.6,0,-1.1,0.5,-1.1,1.2c0,0.6,0.5,1.1,1.1,1.1c0.6,0,1.1,-0.5,1.1,-1.1c0,-0.7,-0.5,-1.2,-1.1,-1.2Z" class="g2_4" />
<path fill-rule="evenodd" d="M244.1,601.2c0.8,0,1.5,0.7,1.5,1.6c0,0.8,-0.7,1.5,-1.5,1.5c-0.8,0,-1.5,-0.7,-1.5,-1.5c0,-0.9,0.7,-1.6,1.5,-1.6Z" class="g2_4" />
<path fill-rule="evenodd" d="M244.1,601.1c0.9,0,1.6,0.7,1.6,1.7c0,0.9,-0.7,1.6,-1.6,1.6c-0.9,0,-1.6,-0.7,-1.6,-1.6c0,-1,0.7,-1.7,1.6,-1.7Zm0,0.5c-0.6,0,-1.1,0.5,-1.1,1.2c0,0.6,0.5,1.1,1.1,1.1c0.6,0,1.1,-0.5,1.1,-1.1c0,-0.7,-0.5,-1.2,-1.1,-1.2Z" class="g2_4" />
<path fill-rule="evenodd" d="M203.6,560.7c0.8,0,1.5,0.7,1.5,1.6c0,0.8,-0.7,1.5,-1.5,1.5c-0.8,0,-1.5,-0.7,-1.5,-1.5c0,-0.9,0.7,-1.6,1.5,-1.6Z" class="g2_4" />
<path fill-rule="evenodd" d="M203.6,560.6c0.9,0,1.6,0.8,1.6,1.7c0,0.9,-0.7,1.7,-1.6,1.7c-0.9,0,-1.6,-0.8,-1.6,-1.7c0,-0.9,0.7,-1.7,1.6,-1.7Zm0,0.5c-0.6,0,-1.1,0.5,-1.1,1.2c0,0.6,0.5,1.1,1.1,1.1c0.6,0,1.1,-0.5,1.1,-1.1c0,-0.7,-0.5,-1.2,-1.1,-1.2Z" class="g2_4" />
<path fill-rule="evenodd" d="M215.5,587.9c0.9,0,1.5,0.6,1.5,1.5c0,0.9,-0.6,1.5,-1.5,1.5c-0.8,0,-1.5,-0.6,-1.5,-1.5c0,-0.9,0.7,-1.5,1.5,-1.5Z" class="g2_4" />
<path fill-rule="evenodd" d="M215.5,587.7c0.9,0,1.6,0.8,1.6,1.7c0,0.9,-0.7,1.7,-1.6,1.7c-0.9,0,-1.6,-0.8,-1.6,-1.7c0,-0.9,0.7,-1.7,1.6,-1.7Zm0,0.5c-0.6,0,-1.1,0.6,-1.1,1.2c0,0.6,0.5,1.2,1.1,1.2c0.7,0,1.1,-0.6,1.1,-1.2c0,-0.6,-0.4,-1.2,-1.1,-1.2Z" class="g2_4" />
<path fill-rule="evenodd" d="M227,601.2c0.8,0,1.5,0.7,1.5,1.6c0,0.8,-0.7,1.5,-1.5,1.5c-0.9,0,-1.5,-0.7,-1.5,-1.5c0,-0.9,0.6,-1.6,1.5,-1.6Z" class="g2_4" />
<path fill-rule="evenodd" d="M227,601.1c0.9,0,1.6,0.7,1.6,1.7c0,0.9,-0.7,1.6,-1.6,1.6c-0.9,0,-1.7,-0.7,-1.7,-1.6c0,-1,0.8,-1.7,1.7,-1.7Zm0,0.5c-0.7,0,-1.2,0.5,-1.2,1.2c0,0.6,0.5,1.1,1.2,1.1c0.6,0,1.1,-0.5,1.1,-1.1c0,-0.7,-0.5,-1.2,-1.1,-1.2Z" class="g2_4" />
<path fill-rule="evenodd" d="M200,689.1c0.8,0,1.5,0.7,1.5,1.6c0,0.8,-0.7,1.5,-1.5,1.5c-0.8,0,-1.5,-0.7,-1.5,-1.5c0,-0.9,0.7,-1.6,1.5,-1.6Z" class="g2_4" />
<path fill-rule="evenodd" d="M200,689c0.9,0,1.6,0.7,1.6,1.7c0,0.9,-0.7,1.6,-1.6,1.6c-0.9,0,-1.6,-0.7,-1.6,-1.6c0,-1,0.7,-1.7,1.6,-1.7Zm0,0.5c-0.6,0,-1.1,0.5,-1.1,1.2c0,0.6,0.5,1.1,1.1,1.1c0.6,0,1.1,-0.5,1.1,-1.1c0,-0.7,-0.5,-1.2,-1.1,-1.2Z" class="g2_4" />
<path fill-rule="evenodd" d="M254.9,663.3c0.8,0,1.5,0.7,1.5,1.5c0,0.9,-0.7,1.6,-1.5,1.6c-0.8,0,-1.5,-0.7,-1.5,-1.6c0,-0.8,0.7,-1.5,1.5,-1.5Z" class="g2_4" />
<path fill-rule="evenodd" d="M254.9,663.2c0.9,0,1.6,0.7,1.6,1.6c0,1,-0.7,1.7,-1.6,1.7c-0.9,0,-1.6,-0.7,-1.6,-1.7c0,-0.9,0.7,-1.6,1.6,-1.6Zm0,0.5c-0.6,0,-1.1,0.5,-1.1,1.1c0,0.7,0.5,1.2,1.1,1.2c0.6,0,1.1,-0.5,1.1,-1.2c0,-0.6,-0.5,-1.1,-1.1,-1.1Z" class="g2_4" />
<path fill-rule="evenodd" d="M259.1,560.7c0.9,0,1.5,0.7,1.5,1.6c0,0.8,-0.6,1.5,-1.5,1.5c-0.8,0,-1.5,-0.7,-1.5,-1.5c0,-0.9,0.7,-1.6,1.5,-1.6Z" class="g2_4" />
<path fill-rule="evenodd" d="M259.1,560.6c0.9,0,1.7,0.8,1.7,1.7c0,0.9,-0.8,1.7,-1.7,1.7c-0.9,0,-1.6,-0.8,-1.6,-1.7c0,-0.9,0.7,-1.7,1.6,-1.7Zm0,0.5c-0.6,0,-1.1,0.5,-1.1,1.2c0,0.6,0.5,1.1,1.1,1.1c0.7,0,1.2,-0.5,1.2,-1.1c0,-0.7,-0.5,-1.2,-1.2,-1.2Z" class="g2_4" />
<path fill-rule="evenodd" d="M141.9,695.9c0.8,0,1.5,0.7,1.5,1.6c0,0.8,-0.7,1.5,-1.5,1.5c-0.9,0,-1.5,-0.7,-1.5,-1.5c0,-0.9,0.6,-1.6,1.5,-1.6Z" class="g2_4" />
<path fill-rule="evenodd" d="M141.9,695.8c0.9,0,1.6,0.7,1.6,1.7c0,0.9,-0.7,1.6,-1.6,1.6c-0.9,0,-1.7,-0.7,-1.7,-1.6c0,-1,0.8,-1.7,1.7,-1.7Zm0,0.5c-0.7,0,-1.2,0.5,-1.2,1.2c0,0.6,0.5,1.1,1.2,1.1c0.6,0,1.1,-0.5,1.1,-1.1c0,-0.7,-0.5,-1.2,-1.1,-1.2Z" class="g2_4" />
<path fill-rule="evenodd" d="M297.5,629.4c0.8,0,1.5,0.7,1.5,1.5c0,0.9,-0.7,1.6,-1.5,1.6c-0.8,0,-1.5,-0.7,-1.5,-1.6c0,-0.8,0.7,-1.5,1.5,-1.5Z" class="g2_4" />
<path fill-rule="evenodd" d="M297.5,629.2c0.9,0,1.6,0.8,1.6,1.7c0,0.9,-0.7,1.7,-1.6,1.7c-0.9,0,-1.6,-0.8,-1.6,-1.7c0,-0.9,0.7,-1.7,1.6,-1.7Zm0,0.6c-0.6,0,-1.1,0.5,-1.1,1.1c0,0.7,0.5,1.2,1.1,1.2c0.6,0,1.1,-0.5,1.1,-1.2c0,-0.6,-0.5,-1.1,-1.1,-1.1Z" class="g2_4" />
<path fill-rule="evenodd" d="M183.4,704.9c0.8,0,1.4,0.7,1.4,1.6c0,0.8,-0.6,1.5,-1.4,1.5c-0.9,0,-1.5,-0.7,-1.5,-1.5c0,-0.9,0.6,-1.6,1.5,-1.6Z" class="g2_4" />
<path fill-rule="evenodd" d="M183.4,704.8c0.9,0,1.6,0.7,1.6,1.7c0,0.9,-0.7,1.6,-1.6,1.6c-0.9,0,-1.7,-0.7,-1.7,-1.6c0,-1,0.8,-1.7,1.7,-1.7Zm0,0.5c-0.7,0,-1.2,0.5,-1.2,1.2c0,0.6,0.5,1.1,1.2,1.1c0.6,0,1.1,-0.5,1.1,-1.1c0,-0.7,-0.5,-1.2,-1.1,-1.2Z" class="g2_4" />
<path fill-rule="evenodd" d="M248.7,685.8c0.8,0,1.5,0.7,1.5,1.5c0,0.9,-0.7,1.6,-1.5,1.6c-0.8,0,-1.5,-0.7,-1.5,-1.6c0,-0.8,0.7,-1.5,1.5,-1.5Z" class="g2_4" />
<path fill-rule="evenodd" d="M248.7,685.7c0.9,0,1.6,0.7,1.6,1.6c0,1,-0.7,1.7,-1.6,1.7c-0.9,0,-1.6,-0.7,-1.6,-1.7c0,-0.9,0.7,-1.6,1.6,-1.6Zm0,0.5c-0.6,0,-1.1,0.5,-1.1,1.1c0,0.7,0.5,1.2,1.1,1.2c0.6,0,1.1,-0.5,1.1,-1.2c0,-0.6,-0.5,-1.1,-1.1,-1.1Z" class="g2_4" />
<path fill-rule="evenodd" d="M221.2,632.8c0.9,0,1.5,0.7,1.5,1.6c0,0.8,-0.6,1.5,-1.5,1.5c-0.8,0,-1.4,-0.7,-1.4,-1.5c0,-0.9,0.6,-1.6,1.4,-1.6Z" class="g2_4" />
<path fill-rule="evenodd" d="M221.2,632.7c0.9,0,1.7,0.8,1.7,1.7c0,0.9,-0.8,1.7,-1.7,1.7c-0.9,0,-1.6,-0.8,-1.6,-1.7c0,-0.9,0.7,-1.7,1.6,-1.7Zm0,0.5c-0.6,0,-1.1,0.5,-1.1,1.2c0,0.6,0.5,1.1,1.1,1.1c0.7,0,1.2,-0.5,1.2,-1.1c0,-0.7,-0.5,-1.2,-1.2,-1.2Z" class="g2_4" />
<path fill-rule="evenodd" d="M212.9,602.4c0.8,0,1.5,0.7,1.5,1.5c0,0.9,-0.7,1.6,-1.5,1.6c-0.8,0,-1.5,-0.7,-1.5,-1.6c0,-0.8,0.7,-1.5,1.5,-1.5Z" class="g2_4" />
<path fill-rule="evenodd" d="M212.9,602.3c0.9,0,1.6,0.7,1.6,1.6c0,1,-0.7,1.7,-1.6,1.7c-0.9,0,-1.6,-0.7,-1.6,-1.7c0,-0.9,0.7,-1.6,1.6,-1.6Zm0,0.5c-0.6,0,-1.1,0.5,-1.1,1.1c0,0.7,0.5,1.2,1.1,1.2c0.6,0,1.1,-0.5,1.1,-1.2c0,-0.6,-0.5,-1.1,-1.1,-1.1Z" class="g2_4" />
<path fill-rule="evenodd" d="M166.7,591.2c0.8,0,1.5,0.7,1.5,1.5c0,0.9,-0.7,1.6,-1.5,1.6c-0.8,0,-1.5,-0.7,-1.5,-1.6c0,-0.8,0.7,-1.5,1.5,-1.5Z" class="g2_4" />
<path fill-rule="evenodd" d="M166.7,591.1c0.9,0,1.6,0.7,1.6,1.6c0,1,-0.7,1.7,-1.6,1.7c-0.9,0,-1.6,-0.7,-1.6,-1.7c0,-0.9,0.7,-1.6,1.6,-1.6Zm0,0.5c-0.6,0,-1.1,0.5,-1.1,1.1c0,0.7,0.5,1.2,1.1,1.2c0.6,0,1.1,-0.5,1.1,-1.2c0,-0.6,-0.5,-1.1,-1.1,-1.1Z" class="g2_4" />
<path fill-rule="evenodd" d="M206.7,697c0.8,0,1.5,0.6,1.5,1.5c0,0.9,-0.7,1.5,-1.5,1.5c-0.8,0,-1.5,-0.6,-1.5,-1.5c0,-0.9,0.7,-1.5,1.5,-1.5Z" class="g2_4" />
<path fill-rule="evenodd" d="M206.7,696.8c0.9,0,1.6,0.8,1.6,1.7c0,0.9,-0.7,1.7,-1.6,1.7c-0.9,0,-1.6,-0.8,-1.6,-1.7c0,-0.9,0.7,-1.7,1.6,-1.7Zm0,0.5c-0.6,0,-1.1,0.6,-1.1,1.2c0,0.6,0.5,1.2,1.1,1.2c0.6,0,1.1,-0.6,1.1,-1.2c0,-0.6,-0.5,-1.2,-1.1,-1.2Z" class="g2_4" />
<path fill-rule="evenodd" d="M169.3,594.5c0.8,0,1.5,0.7,1.5,1.6c0,0.8,-0.7,1.5,-1.5,1.5c-0.8,0,-1.5,-0.7,-1.5,-1.5c0,-0.9,0.7,-1.6,1.5,-1.6Z" class="g2_4" />
<path fill-rule="evenodd" d="M169.3,594.4c0.9,0,1.6,0.8,1.6,1.7c0,0.9,-0.7,1.7,-1.6,1.7c-0.9,0,-1.6,-0.8,-1.6,-1.7c0,-0.9,0.7,-1.7,1.6,-1.7Zm0,0.5c-0.6,0,-1.1,0.5,-1.1,1.2c0,0.6,0.5,1.1,1.1,1.1c0.6,0,1.1,-0.5,1.1,-1.1c0,-0.7,-0.5,-1.2,-1.1,-1.2Z" class="g2_4" />
<path fill-rule="evenodd" d="M259.6,594.5c0.9,0,1.5,0.7,1.5,1.6c0,0.8,-0.6,1.5,-1.5,1.5c-0.8,0,-1.5,-0.7,-1.5,-1.5c0,-0.9,0.7,-1.6,1.5,-1.6Z" class="g2_4" />
<path fill-rule="evenodd" d="M259.6,594.4c0.9,0,1.6,0.8,1.6,1.7c0,0.9,-0.7,1.7,-1.6,1.7c-0.9,0,-1.6,-0.8,-1.6,-1.7c0,-0.9,0.7,-1.7,1.6,-1.7Zm0,0.5c-0.6,0,-1.1,0.5,-1.1,1.2c0,0.6,0.5,1.1,1.1,1.1c0.7,0,1.2,-0.5,1.2,-1.1c0,-0.7,-0.5,-1.2,-1.2,-1.2Z" class="g2_4" />
<path fill-rule="evenodd" d="M309,598.1c0.8,0,1.4,0.7,1.4,1.6c0,0.8,-0.6,1.5,-1.4,1.5c-0.9,0,-1.5,-0.7,-1.5,-1.5c0,-0.9,0.6,-1.6,1.5,-1.6Z" class="g2_4" />
<path fill-rule="evenodd" d="M309,598c0.8,0,1.6,0.8,1.6,1.7c0,0.9,-0.8,1.7,-1.6,1.7c-0.9,0,-1.7,-0.8,-1.7,-1.7c0,-0.9,0.8,-1.7,1.7,-1.7Zm0,0.5c-0.7,0,-1.2,0.5,-1.2,1.2c0,0.6,0.5,1.1,1.2,1.1c0.6,0,1.1,-0.5,1.1,-1.1c0,-0.7,-0.5,-1.2,-1.1,-1.2Z" class="g2_4" />
<path fill-rule="evenodd" d="M167.3,704.4c0.9,0,1.5,0.7,1.5,1.6c0,0.8,-0.6,1.5,-1.5,1.5c-0.8,0,-1.5,-0.7,-1.5,-1.5c0,-0.9,0.7,-1.6,1.5,-1.6Z" class="g2_4" />
<path fill-rule="evenodd" d="M167.3,704.3c0.9,0,1.6,0.7,1.6,1.7c0,0.9,-0.7,1.6,-1.6,1.6c-0.9,0,-1.6,-0.7,-1.6,-1.6c0,-1,0.7,-1.7,1.6,-1.7Zm0,0.5c-0.6,0,-1.1,0.5,-1.1,1.2c0,0.6,0.5,1.1,1.1,1.1c0.6,0,1.1,-0.5,1.1,-1.1c0,-0.7,-0.5,-1.2,-1.1,-1.2Z" class="g2_4" />
<path fill-rule="evenodd" d="M215,572.6c0.9,0,1.5,0.7,1.5,1.5c0,0.9,-0.6,1.6,-1.5,1.6c-0.8,0,-1.5,-0.7,-1.5,-1.6c0,-0.8,0.7,-1.5,1.5,-1.5Z" class="g2_4" />
<path fill-rule="evenodd" d="M215,572.4c0.9,0,1.6,0.8,1.6,1.7c0,0.9,-0.7,1.7,-1.6,1.7c-0.9,0,-1.6,-0.8,-1.6,-1.7c0,-0.9,0.7,-1.7,1.6,-1.7Zm0,0.6c-0.6,0,-1.1,0.5,-1.1,1.1c0,0.7,0.5,1.2,1.1,1.2c0.7,0,1.1,-0.5,1.1,-1.2c0,-0.6,-0.4,-1.1,-1.1,-1.1Z" class="g2_4" />
<path fill-rule="evenodd" d="M159,636.1c0.8,0,1.5,0.6,1.5,1.5c0,0.8,-0.7,1.5,-1.5,1.5c-0.8,0,-1.5,-0.7,-1.5,-1.5c0,-0.9,0.7,-1.5,1.5,-1.5Z" class="g2_4" />
<path fill-rule="evenodd" d="M159,635.9c0.9,0,1.6,0.8,1.6,1.7c0,0.9,-0.7,1.7,-1.6,1.7c-0.9,0,-1.6,-0.8,-1.6,-1.7c0,-0.9,0.7,-1.7,1.6,-1.7Zm0,0.5c-0.6,0,-1.1,0.6,-1.1,1.2c0,0.6,0.5,1.1,1.1,1.1c0.6,0,1.1,-0.5,1.1,-1.1c0,-0.6,-0.5,-1.2,-1.1,-1.2Z" class="g2_4" />
<path fill-rule="evenodd" d="M250.8,572.6c0.8,0,1.5,0.7,1.5,1.5c0,0.9,-0.7,1.6,-1.5,1.6c-0.8,0,-1.5,-0.7,-1.5,-1.6c0,-0.8,0.7,-1.5,1.5,-1.5Z" class="g2_4" />
<path fill-rule="evenodd" d="M250.8,572.4c0.9,0,1.6,0.8,1.6,1.7c0,0.9,-0.7,1.7,-1.6,1.7c-0.9,0,-1.6,-0.8,-1.6,-1.7c0,-0.9,0.7,-1.7,1.6,-1.7Zm0,0.6c-0.6,0,-1.1,0.5,-1.1,1.1c0,0.7,0.5,1.2,1.1,1.2c0.6,0,1.1,-0.5,1.1,-1.2c0,-0.6,-0.5,-1.1,-1.1,-1.1Z" class="g2_4" />
<path fill-rule="evenodd" d="M176.1,711.7c0.9,0,1.5,0.7,1.5,1.6c0,0.8,-0.6,1.5,-1.5,1.5c-0.8,0,-1.4,-0.7,-1.4,-1.5c0,-0.9,0.6,-1.6,1.4,-1.6Z" class="g2_4" />
<path fill-rule="evenodd" d="M176.1,711.6c0.9,0,1.7,0.8,1.7,1.7c0,0.9,-0.8,1.7,-1.7,1.7c-0.8,0,-1.6,-0.8,-1.6,-1.7c0,-0.9,0.8,-1.7,1.6,-1.7Zm0,0.5c-0.6,0,-1.1,0.5,-1.1,1.2c0,0.6,0.5,1.1,1.1,1.1c0.7,0,1.2,-0.5,1.2,-1.1c0,-0.7,-0.5,-1.2,-1.2,-1.2Z" class="g2_4" />
<path fill-rule="evenodd" d="M200,623.8c0.8,0,1.5,0.7,1.5,1.6c0,0.8,-0.7,1.5,-1.5,1.5c-0.8,0,-1.5,-0.7,-1.5,-1.5c0,-0.9,0.7,-1.6,1.5,-1.6Z" class="g2_4" />
<path fill-rule="evenodd" d="M200,623.7c0.9,0,1.6,0.8,1.6,1.7c0,0.9,-0.7,1.7,-1.6,1.7c-0.9,0,-1.6,-0.8,-1.6,-1.7c0,-0.9,0.7,-1.7,1.6,-1.7Zm0,0.5c-0.6,0,-1.1,0.5,-1.1,1.2c0,0.6,0.5,1.1,1.1,1.1c0.6,0,1.1,-0.5,1.1,-1.1c0,-0.7,-0.5,-1.2,-1.1,-1.2Z" class="g2_4" />
<path fill-rule="evenodd" d="M252.9,649.4c0.9,0,1.5,0.7,1.5,1.6c0,0.8,-0.6,1.5,-1.5,1.5c-0.8,0,-1.5,-0.7,-1.5,-1.5c0,-0.9,0.7,-1.6,1.5,-1.6Z" class="g2_4" />
<path fill-rule="evenodd" d="M252.9,649.3c0.9,0,1.6,0.7,1.6,1.7c0,0.9,-0.7,1.6,-1.6,1.6c-0.9,0,-1.6,-0.7,-1.6,-1.6c0,-1,0.7,-1.7,1.6,-1.7Zm0,0.5c-0.6,0,-1.1,0.5,-1.1,1.2c0,0.6,0.5,1.1,1.1,1.1c0.6,0,1.1,-0.5,1.1,-1.1c0,-0.7,-0.5,-1.2,-1.1,-1.2Z" class="g2_4" />
<path d="M442,159l366,0l0,-2l-366,0l0,2Z" class="g3_4" />
<path d="M442,334l366,0l0,-1l-366,0l0,1Z" class="g3_4" />
<path d="M442.5,191.5l366,0" class="g4_4" />
<path d="M842.6,90.4c-0.7,0,-1.2,0.3,-1.4,0.4c-0.1,0.2,-0.2,0.5,-0.2,1l0,2.7c0,0.5,0.2,0.7,0.5,0.9c0.3,0.2,0.8,0.4,1.2,0.4c1.3,0,2.1,-1.2,2.1,-2.9c0,-1.2,-0.8,-2.5,-2.2,-2.5Z" class="g2_4" />
<path d="M849.4,93.7c0.9,0,1.3,-0.7,1.3,-1.6c0,-1.1,-0.4,-2,-1.4,-2c-0.8,0,-1.3,0.7,-1.3,1.8c0,1.1,0.6,1.8,1.4,1.8Z" class="g2_4" />
<path d="M842.1,96.3c-0.3,0,-0.7,-0.1,-0.9,-0.1c-0.1,0,-0.2,0.1,-0.2,0.4l0,1.7c0,1.1,0.1,1.3,0.6,1.3l0.7,0.1c0.1,0.1,0,0.4,-0.1,0.4c-0.7,0,-1.2,0,-1.8,0c-0.6,0,-1,0,-1.5,0c-0.1,0,-0.1,-0.3,0,-0.4l0.3,0c0.6,-0.1,0.6,-0.3,0.6,-1.4l0,-6.7c0,-0.7,0,-0.7,-0.4,-1l-0.2,-0.1c0,-0.1,0,-0.2,0.1,-0.3c0.4,-0.2,1.1,-0.5,1.6,-0.8c0.1,0,0.1,0,0.2,0.1C841,89.7,841,90,841,90.2c0,0.1,0,0.2,0.1,0.2c0.2,-0.1,1.3,-0.7,2.3,-0.7c1.6,0,2.7,1.2,2.7,2.8c0,2.2,-1.7,3.8,-4,3.8m6.9,4c-1.9,0,-2.6,-1.1,-2.6,-1.8c0,-0.3,0,-0.5,0.1,-0.6c0.3,-0.3,0.8,-0.7,1.1,-1.1c0.2,-0.1,0.3,-0.3,0.2,-0.4c-0.7,-0.1,-1.2,-0.6,-1.2,-1.2c0,-0.1,0.1,-0.1,0.2,-0.3c0.3,-0.1,0.6,-0.4,0.9,-0.7c0.1,-0.1,0.2,-0.2,0.2,-0.3C847.3,93.6,846.6,93,846.6,92c0,-1.3,1.2,-2.3,2.7,-2.3c0.6,0,1.2,0.1,1.5,0.3c0.5,0.2,0.7,0.2,1,0.2l1.3,0c0.2,0.1,0.2,0.6,-0.1,0.7l-1.1,0c0,0.2,0,0.5,0,0.8c0,1,-0.7,2.5,-2.7,2.5c-0.3,0,-0.5,-0.1,-0.7,-0.1c-0.2,0.1,-0.7,0.4,-0.7,0.9c0,0.3,0.3,0.6,1.1,0.6c0.5,0,1.2,0,1.9,0c0.9,0,2.3,0.1,2.3,1.7c0,0.1,0,0.1,0,0.2c0.5,-1.2,0.7,-2.6,0.7,-4c0,-6.1,-5.1,-11,-11.4,-11c-6.3,0,-11.4,4.9,-11.4,11c0,0.8,0.1,1.5,0.3,2.3c0,-0.1,0,-0.1,0,-0.1l0.4,0c0.6,-0.1,0.6,-0.3,0.6,-1.4l0,-2.7c0,-0.7,0,-0.7,-0.5,-1l-0.1,-0.1c-0.1,-0.1,-0.1,-0.2,0,-0.3c0.4,-0.1,1.3,-0.5,1.6,-0.8c0.1,0,0.2,0.1,0.2,0.1c0,0.4,0,0.6,0,0.8c0,0.1,0,0.2,0.2,0.2c0.6,-0.5,1.4,-0.8,2.2,-0.8c1.4,0,1.9,0.8,1.9,1.9l0,2.7c0,1.1,0,1.3,0.6,1.4l0.4,0c0.1,0.1,0.1,0.4,-0.1,0.4c-0.4,0,-0.9,0,-1.5,0c-0.6,0,-1,0,-1.5,0c-0.1,0,-0.1,-0.3,0,-0.4l0.3,0c0.6,-0.1,0.6,-0.3,0.6,-1.4l0,-2.3c0,-0.9,-0.4,-1.6,-1.5,-1.6c-0.6,0,-1.2,0.3,-1.4,0.6c-0.2,0.2,-0.2,0.4,-0.2,0.9l0,2.4c0,1.1,0,1.3,0.6,1.4l0.3,0c0.1,0.1,0.1,0.4,-0.1,0.4c-0.4,0,-0.9,0,-1.4,0c-0.6,0,-1.1,0,-1.5,0c1.2,4.9,5.7,8.5,11,8.5c4.2,0,7.9,-2.2,9.9,-5.5c-0.8,0.7,-2,1.2,-3.3,1.2Z" class="g2_4" />
<path d="M849.7,96.6c-0.5,0,-1.1,0,-1.3,0.1C848,97,847.6,97.5,847.6,98c0,0.9,0.7,1.6,2.1,1.6c1.5,0,2.4,-0.8,2.4,-1.7c0,-0.9,-0.6,-1.3,-1.8,-1.3l-0.6,0Z" class="g2_4" />
<path d="M442.5,109.5l411,0" class="g4_4" />
<g clip-path="url(#c0_4)">
<path d="M95.5,1140.5l1462,0" class="g5_4" />
</g>
<path d="M442.5,1140.5l411,0" class="g4_4" />
</svg>