<?xml version="1.0" encoding="UTF-8" standalone="no"?>
<!DOCTYPE svg PUBLIC "-//W3C//DTD SVG 1.1//EN"
"http://www.w3.org/Graphics/SVG/1.1/DTD/svg11.dtd">
<svg version="1.1" xmlns="http://www.w3.org/2000/svg" xmlns:xlink="http://www.w3.org/1999/xlink">
<defs>
<clipPath id="c0_4"><path d="M0.5,1195.5L0.5,0.5l909,0l0,1195Z" /></clipPath>
<style type="text/css"><![CDATA[
.g4_4{
fill: #231F20;
stroke: #231F20;
stroke-width: 1;
stroke-linecap: round;
stroke-linejoin: round;
}
.g2_4{
fill: #8077B7;
}
.g5_4{
fill: #8077B7;
stroke: #8077B7;
stroke-width: 1;
stroke-linecap: round;
stroke-linejoin: round;
}
.g3_4{
fill: #FFFFFF;
stroke: #FFFFFF;
stroke-width: 1;
stroke-linecap: round;
stroke-linejoin: round;
}
.g1_4{
fill: #F0EEF6;
}
]]></style>
</defs>
<path d="M55,378l794,0l0,-244L55,134l0,244Z" class="g1_4" />
<path d="M55,207l99,0l0,-59l-99,0l0,59Z" class="g2_4" />
<path fill-rule="evenodd" d="M154,148l695,0l0,23l-695,0Z" class="g2_4" />
<path d="M154,194l481,0l0,-23l-481,0l0,23Z" class="g2_4" />
<path fill-rule="evenodd" d="M635,171l214,0l0,23l-214,0Z" class="g2_4" />
<path d="M154,207l481,0l0,-13l-481,0l0,13Z" class="g2_4" />
<path fill-rule="evenodd" d="M635,194l114,0l0,13l-114,0Z" class="g2_4" />
<path d="M749,207l100,0l0,-13l-100,0l0,13Z" class="g2_4" />
<path fill-rule="evenodd" d="M55.5,134.5l794,0l0,5l-794,0l0,-5Z" class="g3_4" />
<path fill-rule="evenodd" d="M55.5,139.5l794,0l0,2l-794,0" class="g4_4" />
<path fill-rule="evenodd" d="M55.5,141.5l794,0l0,7l-794,0" class="g5_4" />
<path fill-rule="evenodd" d="M849.5,378.5l-794,0l0,-1l794,0" class="g4_4" />
<path fill-rule="evenodd" d="M849.5,164.5l-695,0l0,-1l695,0" class="g4_4" />
<path fill-rule="evenodd" d="M368.5,187.5l-214,0l0,-1l214,0" class="g4_4" />
<path fill-rule="evenodd" d="M609.5,187.5l-215,0l0,-1l215,0" class="g4_4" />
<path fill-rule="evenodd" d="M849.5,187.5l-214,0l0,-1l214,0" class="g4_4" />
<path fill-rule="evenodd" d="M849.5,215.5l-794,0l0,-2l794,0" class="g4_4" />
<path fill-rule="evenodd" d="M849.5,213.5l-794,0l0,-6l794,0" class="g5_4" />
<path d="M55,403l794,0l0,-25L55,378l0,25Z" class="g1_4" />
<path d="M55,1049l794,0l0,-221L55,828l0,221Z" class="g1_4" />
<path d="M55,878l100,0l0,-36L55,842l0,36Z" class="g2_4" />
<path d="M155,865l694,0l0,-23l-694,0l0,23Z" class="g2_4" />
<path d="M155,878l486,0l0,-13l-486,0l0,13Z" class="g2_4" />
<path fill-rule="evenodd" d="M641,865l108,0l0,13l-108,0Z" class="g2_4" />
<path d="M749,878l100,0l0,-13l-100,0l0,13Z" class="g2_4" />
<path fill-rule="evenodd" d="M55.5,828.5l794,0l0,5l-794,0l0,-5Z" class="g3_4" />
<path fill-rule="evenodd" d="M55.5,833.5l794,0l0,1l-794,0" class="g4_4" />
<path fill-rule="evenodd" d="M55.5,834.5l794,0l0,8l-794,0" class="g5_4" />
<path fill-rule="evenodd" d="M849.5,1049.5l-794,0l0,-2l794,0" class="g4_4" />
<path fill-rule="evenodd" d="M377.5,857.5l-222,0l222,0" class="g4_4" />
<path fill-rule="evenodd" d="M613.5,857.5l-209,0l209,0" class="g4_4" />
<path fill-rule="evenodd" d="M849.5,857.5l-208,0l208,0" class="g4_4" />
<path fill-rule="evenodd" d="M849.5,885.5l-794,0l0,-1l794,0" class="g4_4" />
<path fill-rule="evenodd" d="M849.5,884.5l-794,0l0,-6l794,0" class="g5_4" />
<path d="M55,1086l794,0l0,-37l-794,0l0,37Z" class="g1_4" />
<g clip-path="url(#c0_4)">
<path fill-rule="evenodd" d="M874.8,831.8l0.3,-4l1.1,-3.9l1.7,-3.8c4.4,-7.3,11.8,-11.6,20.3,-11.6l22.5,0l4.1,0.3c8.1,1.4,15.2,7.3,17.9,15.1l1,3.9l0.4,4l0,31.2l-0.4,4.1c-1.3,8.1,-7.2,15.2,-15,17.9l-3.9,1.1l-4.1,0.3c-17.3,-1.2,-32.4,4.9,-42.8,-11.7L876.2,871l-1.1,-3.9L874.8,863Z" class="g2_4" />
<path fill-rule="evenodd" d="M898.5,808.5l22,0l0,13l-22,0" class="g5_4" />
<path fill-rule="evenodd" d="M920.5,886.5l-22,0l0,-13l22,0" class="g5_4" />
</g>
<path fill-rule="evenodd" d="M898.2,886.4l-4.1,-0.3c-9.6,-1.7,-17.3,-9.3,-19,-19L874.8,863l13,0l0.2,1.8c0.6,4.2,4.2,7.8,8.4,8.4l1.8,0.2" class="g5_4" />
<path fill-rule="evenodd" d="M874.5,863.5l0,-32l13,0l0,32" class="g5_4" />
<path fill-rule="evenodd" d="M874.8,831.8l0.3,-4c1.8,-9.7,9.3,-17.3,19,-19l4.1,-0.3l0,12.9l-1.8,0.2c-4.2,0.6,-7.8,4.3,-8.4,8.4l-0.2,1.8" class="g5_4" />
</svg>