<?xml version="1.0" encoding="UTF-8" standalone="no"?>
<!DOCTYPE svg PUBLIC "-//W3C//DTD SVG 1.1//EN"
"http://www.w3.org/Graphics/SVG/1.1/DTD/svg11.dtd">
<svg version="1.1" xmlns="http://www.w3.org/2000/svg" xmlns:xlink="http://www.w3.org/1999/xlink">
<defs>
<clipPath id="c0_1"><path d="M102.5,59.5l0,-45l728,0l0,45Z" /></clipPath>
<style type="text/css"><![CDATA[
.g5_1{
fill: #FFFFFF;
}
.g2_1{
fill: #5F6AB1;
}
.g3_1{
fill: #FEDA4A;
}
.g4_1{
fill: #FDC72A;
}
.g1_1{
fill: #22479D;
}
]]></style>
</defs>
<g clip-path="url(#c0_1)">
<path d="M102,59l728,0l0,-45L102,14l0,45Z" class="g1_1" />
<path d="M136.8,47c1.1,-0.9,3.9,-2.2,7.2,-3.1c5.2,-1.4,11.5,-2.3,13.1,-2.6c2.6,-0.5,5.4,-1.8,6,-4c0.4,-1.1,0.5,-1.6,0.3,-1.6c-0.1,0,-0.5,0.5,-1.4,1.7c-2.5,3.7,-12,2.9,-20.5,5.1c-4.8,1.3,-9.6,4.5,-11.6,9.7c-1,2.5,-1.4,5.1,-1.3,7.8l3.1,0c-0.3,-8.2,2.2,-10.8,5.1,-13Z" class="g2_1" />
<path d="M178.9,16.5c-0.5,0,-1.1,0.1,-1.8,0.3c-1.1,0.4,-3.2,2.1,-4.6,3.1c-4.1,2.9,-5.1,5.3,-4.7,8.2c0.4,2.2,-1.6,4.1,-1.9,6.7c-0.1,1,-0.2,2,-0.2,3c0,1.5,-0.1,3,0.6,7.6c0.6,4.5,2.1,7.5,2.3,12.7c0,0.5,-0.1,1.2,-0.2,1.9l3.1,0c0,-0.6,0,-1.2,0.1,-1.9c0.2,-4,-3.8,-15.8,-2.8,-19.5c0.2,-0.7,0.8,-1.4,1,-1.9c1,-1.9,2.1,-2.9,2.7,-3.9c0.8,-1.3,1.7,-1.6,2.8,-1.9c3.2,-0.8,4.2,-4,4.6,-5.6c0.5,-2.1,0.9,-3.7,1.1,-5.8c0.1,-2.2,-0.7,-3,-2.1,-3Z" class="g2_1" />
</g>
<path d="M140,33l3,0l0,-14l-3,0l0,14Z" class="g3_1" />
<path d="M145.5,23.2l2,0l0,1.2c0.6,-0.9,1.6,-1.5,2.8,-1.5c1.6,0,2.6,0.8,2.6,2.9l0,8.1l-2.1,0l0,-7.4c0,-1.3,-0.4,-1.9,-1.5,-1.9c-0.9,0,-1.7,0.7,-1.7,2.1l0,7.2l-2.1,0l0,-10.7Z" class="g3_1" />
<path d="M154.2,23.2l1.5,0l0,-3l2.1,0l0,3l1.8,0l0,1.6l-1.8,0l0,6.3c0,0.9,0.3,1.2,1,1.2c0.3,0,0.6,0,0.8,-0.1l0,1.6c-0.5,0.1,-1.1,0.2,-1.7,0.2c-1.5,0,-2.2,-0.4,-2.2,-2.6l0,-6.6l-1.5,0l0,-1.6Z" class="g3_1" />
<path d="M166.2,27.3l0,-0.5c0,-1.4,-0.5,-2.4,-1.7,-2.4c-1.4,0,-1.8,1.3,-1.8,2.7l0,0.2l3.5,0Zm-3.5,1.5l0,0.6c0,1.4,0.2,3.3,1.8,3.3c1.5,0,1.7,-1.8,1.7,-2.4l2,0c0,2.3,-1.4,3.8,-3.7,3.8c-1.7,0,-3.9,-0.5,-3.9,-5.4c0,-2.8,0.6,-5.8,3.9,-5.8c3,0,3.8,1.8,3.8,4.8l0,1.1l-5.6,0Z" class="g3_1" />
<path d="M170.3,23.2l2.1,0l0,1.7c0.5,-1.2,1.3,-2,2.5,-2c0.3,0,0.4,0.1,0.5,0.1l0,2.2c-0.1,-0.1,-0.5,-0.1,-0.9,-0.1c-0.9,0,-2.1,0.4,-2.1,2.4l0,6.4l-2.1,0l0,-10.7Z" class="g3_1" />
<path d="M176.9,23.2l2,0l0,1.2l0.1,0c0.5,-0.9,1.5,-1.5,2.7,-1.5c1.6,0,2.7,0.8,2.7,2.9l0,8.1l-2.2,0l0,-7.4c0,-1.3,-0.4,-1.9,-1.5,-1.9c-0.8,0,-1.7,0.7,-1.7,2.1l0,7.2l-2.1,0l0,-10.7Z" class="g3_1" />
<path d="M191.6,28.2c-0.6,0.5,-1.8,0.7,-2.4,1c-0.6,0.3,-0.9,1,-0.9,1.7c0,0.9,0.5,1.7,1.4,1.7c1.3,0,1.9,-1,1.9,-2.6l0,-1.8Zm2,3.4c0,0.4,0.3,0.8,0.6,0.8c0.1,0,0.2,0,0.3,-0.1l0,1.4c-0.2,0.1,-0.6,0.3,-1,0.3c-1,0,-1.8,-0.4,-1.8,-1.4l-0.1,0c-0.5,1,-1.4,1.5,-2.6,1.5c-1.7,0,-2.8,-0.9,-2.8,-3c0,-2.3,1,-2.8,2.5,-3.3l1.6,-0.5c0.8,-0.2,1.3,-0.4,1.3,-1.3c0,-1,-0.3,-1.6,-1.5,-1.6c-1.4,0,-1.6,1,-1.6,2l-2,0c0,-2.2,0.9,-3.5,3.7,-3.5c1.9,0,3.4,0.8,3.4,2.6l0,6.1Z" class="g3_1" />
<path d="M195,23.2l1.5,0l0,-3l2.1,0l0,3l1.8,0l0,1.6l-1.8,0l0,6.3c0,0.9,0.3,1.2,1,1.2c0.3,0,0.6,0,0.8,-0.1l0,1.6c-0.5,0.1,-1.1,0.2,-1.7,0.2c-1.5,0,-2.2,-0.4,-2.2,-2.6l0,-6.6l-1.5,0l0,-1.6Z" class="g3_1" />
<path d="M201,23l2,0l0,10l-2,0l0,-10Zm0,-4l2,0l0,2l-2,0l0,-2Z" class="g3_1" />
<path d="M209.8,32.6c1.6,0,1.9,-1.4,1.9,-4.1c0,-2.3,-0.3,-4,-1.9,-4c-1.5,0,-1.8,1.7,-1.8,4c0,2.7,0.3,4.1,1.8,4.1Zm0,-9.7c3.1,0,4,2.3,4,5.6c0,3.3,-1,5.6,-4,5.6c-2.9,0,-3.9,-2.3,-3.9,-5.6c0,-3.3,0.8,-5.6,3.9,-5.6Z" class="g3_1" />
<path d="M215.7,23.2l2,0l0,1.2c0.6,-0.9,1.6,-1.5,2.8,-1.5c1.6,0,2.6,0.8,2.6,2.9l0,8.1l-2.1,0l0,-7.4c0,-1.3,-0.4,-1.9,-1.5,-1.9c-0.9,0,-1.7,0.7,-1.7,2.1l0,7.2l-2.1,0l0,-10.7Z" class="g3_1" />
<path d="M230.4,28.2c-0.6,0.5,-1.8,0.7,-2.4,1c-0.6,0.3,-0.9,1,-0.9,1.7c0,0.9,0.4,1.7,1.3,1.7c1.3,0,2,-1,2,-2.6l0,-1.8Zm2,3.4c0,0.4,0.2,0.8,0.5,0.8c0.2,0,0.3,0,0.4,-0.1l0,1.4C233,33.8,232.6,34,232.2,34c-0.9,0,-1.7,-0.4,-1.8,-1.4c-0.6,1,-1.4,1.5,-2.7,1.5c-1.7,0,-2.7,-0.9,-2.7,-3c0,-2.3,1,-2.8,2.4,-3.3l1.7,-0.5c0.8,-0.2,1.3,-0.4,1.3,-1.3c0,-1,-0.4,-1.6,-1.5,-1.6c-1.4,0,-1.6,1,-1.6,2l-2.1,0c0,-2.2,1,-3.5,3.8,-3.5c1.9,0,3.4,0.8,3.4,2.6l0,6.1Z" class="g3_1" />
<path d="M234,33l2,0l0,-14l-2,0l0,14Z" class="g3_1" />
<path d="M245.3,29.6l0,0.7c0,1.2,0.3,2.1,1.5,2.1c1.5,0,1.5,-1.4,1.5,-2.8l0,-9.9l2.3,0l0,10.3c0,3.1,-1.6,4.2,-3.8,4.1c-2.9,0,-3.6,-1.7,-3.6,-3.6l0,-0.9l2.1,0Z" class="g3_1" />
<path d="M256.2,32.6c1.6,0,1.9,-1.4,1.9,-4.1c0,-2.3,-0.3,-4,-1.9,-4c-1.5,0,-1.8,1.7,-1.8,4c0,2.7,0.3,4.1,1.8,4.1Zm0,-9.7c3.1,0,4,2.3,4,5.6c0,3.3,-1,5.6,-4,5.6c-2.9,0,-3.9,-2.3,-3.9,-5.6c0,-3.3,0.8,-5.6,3.9,-5.6Z" class="g3_1" />
<path d="M267.3,32.6l-0.1,0c-0.5,1,-1.5,1.5,-2.7,1.5c-1.6,0,-2.6,-0.7,-2.6,-3.5l0,-7.4l2.1,0l0,7.6c0,1.2,0.5,1.6,1.4,1.6c1,0,1.8,-0.6,1.8,-1.8l0,-7.4l2.1,0l0,10.7l-2,0l0,-1.3Z" class="g3_1" />
<path d="M271.4,23.2l2.1,0l0,1.7l0.1,0c0.4,-1.2,1.2,-2,2.4,-2c0.3,0,0.4,0.1,0.6,0.1l0,2.2c-0.2,-0.1,-0.6,-0.1,-0.9,-0.1c-1,0,-2.2,0.4,-2.2,2.4l0,6.4l-2.1,0l0,-10.7Z" class="g3_1" />
<path d="M277.6,23.2l2,0l0,1.2l0.1,0c0.5,-0.9,1.5,-1.5,2.7,-1.5c1.7,0,2.7,0.8,2.7,2.9l0,8.1l-2.1,0l0,-7.4c0,-1.3,-0.5,-1.9,-1.5,-1.9c-0.9,0,-1.7,0.7,-1.7,2.1l0,7.2l-2.2,0l0,-10.7Z" class="g3_1" />
<path d="M292.1,28.2c-0.5,0.5,-1.7,0.7,-2.4,1c-0.6,0.3,-0.8,1,-0.8,1.7c0,0.9,0.4,1.7,1.3,1.7c1.3,0,1.9,-1,1.9,-2.6l0,-1.8Zm2,3.4c0,0.4,0.3,0.8,0.6,0.8c0.1,0,0.3,0,0.4,-0.1l0,1.4C294.8,33.8,294.4,34,294,34c-0.9,0,-1.7,-0.4,-1.8,-1.4c-0.6,1,-1.4,1.5,-2.7,1.5c-1.7,0,-2.8,-0.9,-2.8,-3c0,-2.3,1.1,-2.8,2.5,-3.3l1.7,-0.5c0.7,-0.2,1.2,-0.4,1.2,-1.3c0,-1,-0.3,-1.6,-1.4,-1.6c-1.5,0,-1.7,1,-1.7,2l-2,0c0,-2.2,0.9,-3.5,3.8,-3.5c1.8,0,3.3,0.8,3.3,2.6l0,6.1Z" class="g3_1" />
<path d="M296,33l2,0l0,-14l-2,0l0,14Z" class="g3_1" />
<path d="M309,32.6c1.6,0,1.9,-1.4,1.9,-4.1c0,-2.3,-0.3,-4,-1.9,-4c-1.5,0,-1.8,1.7,-1.8,4c0,2.7,0.3,4.1,1.8,4.1Zm0,-9.7c3.1,0,4,2.3,4,5.6c0,3.3,-1,5.6,-4,5.6c-2.9,0,-3.9,-2.3,-3.9,-5.6c0,-3.3,0.8,-5.6,3.9,-5.6Z" class="g3_1" />
<path d="M315.3,24.8l-1.5,0l0,-1.6l1.5,0l0,-1c0,-2,1,-2.6,2.7,-2.6c0.5,0,0.9,0,1.2,0l0,1.7l-0.6,0c-0.8,0,-1.2,0.3,-1.2,1l0,0.9l1.8,0l0,1.6l-1.8,0l0,9.1l-2.1,0l0,-9.1Z" class="g3_1" />
<path d="M146.7,47l-1.6,-7L145,40l-1.7,7l3.4,0Zm-3,-8.9l2.9,0l3.7,14.1l-2.4,0l-0.8,-3.4l-4.2,0L142,52.2l-2.3,0l4,-14.1Z" class="g3_1" />
<path d="M151.1,41.6l2.1,0l0,1.2c0.6,-0.9,1.6,-1.5,2.8,-1.5c1.6,0,2.6,0.7,2.6,2.9l0,8l-2.1,0l0,-7.3C156.5,43.5,156.1,43,155,43c-0.9,0,-1.7,0.7,-1.7,2.1l0,7.1l-2.2,0l0,-10.6Z" class="g3_1" />
<path d="M164.2,43c-1.2,0,-1.7,1,-1.7,3.9c0,2.4,0.3,3.9,1.8,3.9c1.5,0,1.8,-1.5,1.8,-3.8c0,-2.5,-0.3,-4,-1.9,-4Zm1.9,7.9l0,0c-0.3,0.7,-0.8,1.6,-2.4,1.6c-2.5,0,-3.4,-2.1,-3.4,-5.7c0,-4.8,1.6,-5.5,3.2,-5.5c1.2,0,2.1,0.6,2.5,1.5l0,-4.7l2.1,0l0,14.2l-2,0l0,-1.4Z" class="g3_1" />
<path d="M170.2,41.6l2.1,0l0,1.7l0.1,0c0.5,-1.2,1.2,-2,2.5,-2c0.2,0,0.3,0.1,0.5,0.1l0,2.2c-0.2,-0.1,-0.6,-0.1,-0.9,-0.1c-1,0,-2.2,0.4,-2.2,2.4l0,6.3l-2.1,0l0,-10.6Z" class="g3_1" />
<path d="M180,50.9c1.6,0,1.8,-1.3,1.8,-4c0,-2.3,-0.2,-4,-1.8,-4c-1.6,0,-1.8,1.7,-1.8,4c0,2.7,0.2,4,1.8,4Zm0,-9.6c3.1,0,4,2.3,4,5.6c0,3.3,-1,5.6,-4,5.6c-3,0,-4,-2.3,-4,-5.6c0,-3.3,0.9,-5.6,4,-5.6Z" class="g3_1" />
<path d="M185,52l2,0l0,-14l-2,0l0,14Z" class="g3_1" />
<path d="M193.6,50.9c1.5,0,1.8,-1.3,1.8,-4c0,-2.3,-0.3,-4,-1.8,-4c-1.6,0,-1.9,1.7,-1.9,4c0,2.7,0.3,4,1.9,4Zm0,-9.6c3.1,0,3.9,2.3,3.9,5.6c0,3.3,-1,5.6,-3.9,5.6c-3,0,-4,-2.3,-4,-5.6c0,-3.3,0.9,-5.6,4,-5.6Z" class="g3_1" />
<path d="M202.8,50.5c1.7,0,1.9,-2.1,1.9,-3.8C204.7,44.9,204.4,43,203,43c-1.6,0,-1.8,1.6,-1.8,3.6c0,1.8,0,3.9,1.6,3.9Zm-1.5,2.7c0,0.6,0.6,1.2,1.6,1.2c1.1,0,1.8,-0.7,1.8,-2l0,-1.7l-0.1,0c-0.4,0.9,-1.4,1.5,-2.4,1.5c-2.5,0,-3.2,-2.5,-3.2,-5.4c0,-2.3,0.4,-5.5,3.4,-5.5c1.3,0,2.1,0.8,2.3,1.6l0.1,0l0,-1.3l2,0l0,10.1c0,2.6,-1.1,4.2,-4,4.2c-3.2,0,-3.5,-1.9,-3.5,-2.7l2,0Z" class="g3_1" />
<path d="M210.1,41.6l1.9,8l1.7,-8l2.3,0l-3,11c-0.8,3,-1.5,3.3,-3.7,3.3c-0.3,0,-0.6,0,-0.9,-0.1l0,-1.7c0.3,0.1,0.5,0.1,0.7,0.1c0.8,0,1.2,-0.2,1.5,-0.8l0.3,-0.9L207.8,41.6l2.3,0Z" class="g3_1" />
<path d="M111,59l11,0l0,-45l-11,0l0,45Z" class="g3_1" />
<path d="M797.8,18.5c1.4,-0.5,2.4,-0.3,2.3,1.5c-0.1,1.3,-0.4,2.2,-0.7,3.5c-0.2,0.9,-0.8,2.8,-2.7,3.3C796,27,795.5,27.2,795,27.9c-0.3,0.6,-1,1.2,-1.5,2.3c-0.2,0.3,-0.5,0.8,-0.6,1.2c-0.6,2.2,1.7,9.2,1.6,11.6c-0.1,2.4,-0.3,4.3,-2.5,7.5c-1.2,1.7,-3.5,3.4,-6.9,4c-5.6,1,-10,-0.2,-12.7,-2.7c-1.2,-1.1,-2.4,-2.7,-2.9,-4.6c-0.7,-2.6,-0.7,-5.3,0.3,-7.7c1.2,-3.1,4,-5.1,6.8,-5.8c5.1,-1.3,10.7,-0.8,12.2,-3c1,-1.5,1.1,-1.3,0.7,-0.1c-0.4,1.3,-2,2.1,-3.6,2.4c-0.9,0.2,-4.7,0.7,-7.8,1.5c-1.9,0.6,-3.6,1.3,-4.3,1.9c-1.7,1.4,-3.3,3,-2.9,8.6c0.1,2.5,2.2,4.8,3.7,5.8c3.7,2.4,7.4,2,9.2,1.7c1.6,-0.2,4.2,-0.7,5.8,-2.1c1.8,-1.5,3.2,-5.5,3.1,-7.5c0,-3.1,-1,-4.8,-1.3,-7.5C791,32.7,791,31.8,791,30.9c0,-0.6,0.1,-1.2,0.1,-1.8c0.2,-1.5,1.4,-2.7,1.2,-4c-0.3,-1.7,0.3,-3.1,2.8,-4.8c0.8,-0.6,2,-1.6,2.7,-1.8Z" class="g4_1" />
<path d="M800,43.4c0.5,0,1.6,0,2.1,-0.1c0,0.2,0,0.3,0,0.5c0,0.2,0,0.3,0,0.4c-0.2,0,-0.5,0,-0.7,0c-0.5,-0.1,-1,-0.1,-1.4,-0.1l0,3.1c0.3,0,1.5,0,2.3,0c0,0.1,0,0.2,0,0.4c0,0.2,0,0.3,0,0.4c-0.5,0,-1.1,0,-1.8,0c-0.5,0,-1.2,0,-1.8,0c0,-0.5,0,-1,0.1,-1.6c0,-0.7,0,-2.3,0,-2.9c0,-0.5,0,-3,-0.1,-4.3c0.5,0.1,1.3,0.1,1.8,0.1c0.4,0,1.1,-0.1,1.8,-0.1c0,0.2,-0.1,0.3,-0.1,0.4c0,0.2,0.1,0.4,0.1,0.5L801.4,40c-0.4,0,-0.5,0,-1.4,0l0,3.4Z" class="g5_1" />
<path d="M808.5,41.3l-0.7,2.2c0.4,0,1,0.1,1.4,0.1l-0.7,-2.3Zm1.6,5.3l-0.9,-2.4c-0.4,0,-1.1,0,-1.5,0.1c-0.3,0.9,-1,2.5,-1.2,3.7c-0.1,0.2,-0.4,0,-0.5,0c-0.2,0,-0.3,0,-0.4,0l1.1,-3.3c1,-2.9,1.6,-4.6,1.8,-5.6c0.1,0,0.2,0.1,0.3,0.1c0.1,0,0.2,-0.1,0.3,-0.1c0.5,1.8,1.1,3.6,1.4,4.6c0.4,1.2,1.1,3.1,1.5,4.3c-0.1,0,-0.5,0,-0.8,0c-0.2,0,-0.5,0,-0.7,0l-0.4,-1.4Z" class="g5_1" />
<path d="M817.4,41.3l-0.6,2.2c0.4,0,1,0.1,1.3,0.1l-0.7,-2.3Zm1.7,5.3l-0.9,-2.4c-0.5,0,-1.1,0,-1.5,0.1c-0.3,0.9,-1,2.5,-1.3,3.7c0,0.2,-0.3,0,-0.4,0c-0.2,0,-0.3,0,-0.5,0l1.2,-3.3c1,-2.9,1.5,-4.6,1.8,-5.6c0.1,0,0.2,0.1,0.3,0.1c0.1,0,0.2,-0.1,0.3,-0.1c0.5,1.8,1.1,3.6,1.4,4.6c0.4,1.2,1,3.1,1.5,4.3c-0.2,0,-0.5,0,-0.8,0c-0.3,0,-0.5,0,-0.7,0l-0.4,-1.4Z" class="g5_1" />
<path d="M803.9,43.3l0.5,-0.6l0.5,0.6l0.7,0.5l-0.7,0.5L804.4,45l-0.5,-0.7l-0.6,-0.5l0.6,-0.5Z" class="g5_1" />
<path d="M812.7,43.2l0.5,-0.6l0.5,0.6l0.7,0.5l-0.7,0.5l-0.5,0.7l-0.5,-0.7l-0.6,-0.5l0.6,-0.5Z" class="g5_1" />
</svg>