<?xml version="1.0" encoding="UTF-8" standalone="no"?>
<!DOCTYPE svg PUBLIC "-//W3C//DTD SVG 1.1//EN"
"http://www.w3.org/Graphics/SVG/1.1/DTD/svg11.dtd">
<svg version="1.1" xmlns="http://www.w3.org/2000/svg" xmlns:xlink="http://www.w3.org/1999/xlink">
<defs>
<style type="text/css"><![CDATA[
.g5_8{
fill: none;
stroke: #000000;
stroke-width: 1;
stroke-linecap: butt;
stroke-linejoin: miter;
}
.g6_8{
fill: #231F20;
}
.g2_8{
fill: #A5A7A9;
}
.g4_8{
}
.g3_8{
fill: none;
stroke: #231F20;
stroke-width: 1;
stroke-linecap: butt;
stroke-linejoin: miter;
}
.g1_8{
fill: #58595B;
}
]]></style>
</defs>
<path d="M345,581l44,0l0,-12l-44,0l0,12Z" class="g1_8" />
<path d="M403,581l15,0l0,-12l-15,0l0,12Z" class="g1_8" />
<path d="M446,581l15,0l0,-12l-15,0l0,12Z" class="g1_8" />
<path d="M489,581l16,0l0,-12l-16,0l0,12Z" class="g1_8" />
<path d="M533,581l15,0l0,-12l-15,0l0,12Z" class="g1_8" />
<path d="M345,598l203,0l0,-12l-203,0l0,12Z" class="g2_8" />
<path d="M359.5,571.5l0,-2" class="g3_8" />
<path d="M359.5,580.5l0,-5" class="g3_8" />
<path d="M359.5,589.5l0,-5" class="g3_8" />
<path d="M359.5,598.5l0,-5" class="g3_8" />
<path d="M359.5,542.5l189,0" class="g3_8" />
<path d="M227.5,559.5l503,0" class="g3_8" />
<path d="M345,612l58,0l0,-12l-58,0l0,12Z" class="g2_8" />
<path d="M374,627l174,0l0,-12l-174,0l0,12Z" class="g2_8" />
<path d="M403,656l145,0l0,-12l-145,0l0,12Z" class="g2_8" />
<path d="M359.5,598.5l0,-1" class="g3_8" />
<path d="M359.5,607.5l0,-5" class="g3_8" />
<path d="M359.5,617.5l0,-6" class="g3_8" />
<path d="M359.5,626.5l0,-6" class="g3_8" />
<path d="M359.5,635.5l0,-6" class="g3_8" />
<path d="M359.5,644.5l0,-6" class="g3_8" />
<path d="M359.5,653.5l0,-6" class="g3_8" />
<image x="403" y="629" width="147" height="13" xlink:href="img/1.png" />
<image x="403" y="600" width="147" height="14" xlink:href="img/2.png" />
<path d="M100,145l758,0l0,-1l-758,0l0,1Z" class="g4_8" />
<path d="M100.5,476.5l758,0" class="g5_8" />
<path d="M100.5,191.5l758,0" class="g5_8" />
<path d="M66.3,90.4c-0.7,0,-1.2,0.3,-1.3,0.4c-0.2,0.2,-0.2,0.5,-0.2,1l0,2.7c0,0.5,0.1,0.7,0.5,0.9c0.3,0.2,0.8,0.4,1.1,0.4c1.3,0,2.1,-1.2,2.1,-2.9c0,-1.2,-0.7,-2.5,-2.2,-2.5Z" class="g6_8" />
<path d="M73.2,93.7c0.8,0,1.3,-0.7,1.3,-1.6c0,-1.1,-0.5,-2,-1.4,-2c-0.8,0,-1.4,0.7,-1.4,1.8c0,1.1,0.7,1.8,1.5,1.8Z" class="g6_8" />
<path d="M65.9,96.3c-0.3,0,-0.8,-0.1,-0.9,-0.1c-0.2,0,-0.2,0.1,-0.2,0.4l0,1.7c0,1.1,0,1.3,0.6,1.3L66,99.7c0.1,0.1,0.1,0.4,0,0.4c-0.8,0,-1.3,0,-1.8,0c-0.6,0,-1.1,0,-1.5,0c-0.2,0,-0.2,-0.3,-0.1,-0.4l0.4,0c0.6,-0.1,0.6,-0.3,0.6,-1.4l0,-6.7c0,-0.7,0,-0.7,-0.5,-1L63,90.5c-0.1,-0.1,-0.1,-0.2,0,-0.3c0.4,-0.2,1.2,-0.5,1.6,-0.8c0.1,0,0.2,0,0.2,0.1c0,0.2,-0.1,0.5,-0.1,0.7c0,0.1,0.1,0.2,0.2,0.2c0.2,-0.1,1.2,-0.7,2.2,-0.7c1.7,0,2.7,1.2,2.7,2.8c0,2.2,-1.6,3.8,-3.9,3.8m6.9,4c-2,0,-2.7,-1.1,-2.7,-1.8c0,-0.3,0.1,-0.5,0.2,-0.6c0.3,-0.3,0.7,-0.7,1.1,-1.1c0.1,-0.1,0.3,-0.3,0.1,-0.4C70.9,96.3,70.3,95.8,70.3,95.2c0,-0.1,0.1,-0.1,0.3,-0.3c0.3,-0.1,0.6,-0.4,0.8,-0.7c0.1,-0.1,0.2,-0.2,0.2,-0.3C71.1,93.6,70.4,93,70.4,92c0,-1.3,1.2,-2.3,2.6,-2.3c0.6,0,1.2,0.1,1.6,0.3c0.5,0.2,0.6,0.2,1,0.2l1.3,0c0.1,0.1,0.1,0.6,-0.1,0.7l-1.2,0c0,0.2,0,0.5,0,0.8c0,1,-0.6,2.5,-2.7,2.5c-0.3,0,-0.5,-0.1,-0.7,-0.1C72,94.2,71.5,94.5,71.5,95c0,0.3,0.4,0.6,1.1,0.6c0.6,0,1.2,0,2,0c0.9,0,2.2,0.1,2.2,1.7c0,0.1,0,0.1,0,0.2c0.5,-1.2,0.8,-2.6,0.8,-4c0,-6.1,-5.1,-11,-11.4,-11c-6.3,0,-11.4,4.9,-11.4,11c0,0.8,0.1,1.5,0.2,2.3c0,-0.1,0.1,-0.1,0.1,-0.1l0.3,0C56,95.6,56,95.4,56,94.3l0,-2.7c0,-0.7,0,-0.7,-0.4,-1L55.4,90.5c0,-0.1,0,-0.2,0.1,-0.3c0.3,-0.1,1.3,-0.5,1.6,-0.8c0,0,0.1,0.1,0.2,0.1c-0.1,0.4,-0.1,0.6,-0.1,0.8c0,0.1,0.1,0.2,0.2,0.2c0.7,-0.5,1.4,-0.8,2.3,-0.8c1.3,0,1.9,0.8,1.9,1.9l0,2.7c0,1.1,0,1.3,0.6,1.4l0.3,0c0.1,0.1,0.1,0.4,0,0.4c-0.5,0,-1,0,-1.5,0c-0.6,0,-1.1,0,-1.5,0c-0.1,0,-0.2,-0.3,-0.1,-0.4l0.3,0c0.6,-0.1,0.7,-0.3,0.7,-1.4l0,-2.3c0,-0.9,-0.5,-1.6,-1.6,-1.6c-0.6,0,-1.1,0.3,-1.3,0.6c-0.2,0.2,-0.3,0.4,-0.3,0.9l0,2.4c0,1.1,0.1,1.3,0.6,1.4l0.3,0c0.1,0.1,0.1,0.4,0,0.4c-0.4,0,-0.9,0,-1.5,0c-0.6,0,-1,0,-1.5,0c1.2,4.9,5.7,8.5,11.1,8.5c4.2,0,7.9,-2.2,9.8,-5.5c-0.7,0.7,-1.9,1.2,-3.2,1.2Z" class="g6_8" />
<path d="M73.5,96.6c-0.5,0,-1.2,0,-1.4,0.1C71.7,97,71.3,97.5,71.3,98c0,0.9,0.7,1.6,2.2,1.6c1.4,0,2.4,-0.8,2.4,-1.7C75.9,97,75.2,96.6,74,96.6l-0.5,0Z" class="g6_8" />
<path d="M54.5,109.5l411,0" class="g5_8" />
<path d="M54.5,1140.5l411,0" class="g5_8" />
</svg>