<?xml version="1.0" encoding="UTF-8" standalone="no"?>
<!DOCTYPE svg PUBLIC "-//W3C//DTD SVG 1.1//EN"
"http://www.w3.org/Graphics/SVG/1.1/DTD/svg11.dtd">
<svg version="1.1" xmlns="http://www.w3.org/2000/svg" xmlns:xlink="http://www.w3.org/1999/xlink">
<defs>
<clipPath id="c0_4"><path d="M756.5,166.5l0,-18l49,0l0,18Z" /></clipPath>
<clipPath id="c1_4"><path d="M756.5,891.5l0,-18l49,0l0,18Z" /></clipPath>
<style type="text/css"><![CDATA[
.g2_4{
fill: none;
stroke: #231F20;
stroke-width: 1;
stroke-linecap: round;
stroke-linejoin: round;
}
.g3_4{
fill: #231F20;
}
.g1_4{
fill: #4D4D4D;
stroke: #4D4D4D;
stroke-width: 1;
stroke-linecap: round;
stroke-linejoin: round;
}
]]></style>
</defs>
<path fill-rule="evenodd" d="M453.5,136.5l352,0l0,3l-352,0" class="g1_4" />
<path fill-rule="evenodd" d="M453.5,861.5l352,0l0,3l-352,0" class="g1_4" />
<path d="M769.5,164.5l0,-2" class="g2_4" />
<path d="M767.9,151.5c-0.3,-0.1,-0.6,-0.2,-0.9,-0.3c-0.6,-0.1,-1.1,-0.2,-1.7,-0.2c-0.9,0,-1.7,0.2,-2.5,0.5c-0.1,0,-0.3,0.1,-0.4,0.2c-0.3,0.1,-0.7,0.3,-1,0.5l0,11.8l3.9,-3.1c0,0,3.9,3.2,3.9,3.2l0,-11.8c-0.4,-0.3,-0.8,-0.6,-1.3,-0.8Z" class="g3_4" />
<path d="M779.1,160.7c-1.3,0,-2.3,-0.9,-2.3,-2.2c0,-1.3,1,-2.3,2.3,-2.3c0.4,0,0.7,0.1,1.1,0.3l0,-0.3l0.3,0l0,1.1l-0.3,0l0,-0.3c-0.4,-0.3,-0.7,-0.4,-1.1,-0.4c-1,0,-1.7,0.7,-1.7,1.8c0,1.1,0.8,2,1.8,2c0.3,0,0.6,-0.1,1,-0.4l0,-0.4l0.3,0l0,0.8c-0.5,0.2,-0.9,0.3,-1.4,0.3Z" class="g3_4" />
<path d="M782.7,158.3c-0.2,-0.2,-0.2,-0.2,-0.3,-0.2c-0.1,0,-0.2,0.1,-0.6,0.5l0,1.8l0.6,0l0,0.2l-1.6,0l0,-0.2l0.5,0l0,-2.4l-0.6,0l0,-0.2l1,-0.2l0.1,0l0,0.7c0.5,-0.6,0.6,-0.7,0.9,-0.7c0,0,0.1,0,0.2,0l0.2,0.2l-0.4,0.5Z" class="g3_4" />
<path d="M784.5,157.9c-0.5,0,-0.9,0.5,-0.9,1.2c0,0.8,0.4,1.3,0.9,1.3c0.5,0,0.9,-0.5,0.9,-1.3c0,-0.7,-0.4,-1.2,-0.9,-1.2Zm0,2.8c-0.8,0,-1.4,-0.7,-1.4,-1.6c0,-0.8,0.6,-1.5,1.4,-1.5c0.8,0,1.4,0.7,1.4,1.5c0,0.9,-0.6,1.6,-1.4,1.6Z" class="g3_4" />
<path d="M787.5,160.7c-0.4,0,-0.6,-0.1,-0.8,-0.3l0,0.3l-0.3,0l0,-1l0.3,0l0,0.2c0,0.3,0.4,0.6,0.8,0.6c0.3,0,0.6,-0.2,0.6,-0.5c0,-0.3,-0.2,-0.4,-0.8,-0.7c-0.7,-0.2,-0.9,-0.5,-0.9,-0.9c0,-0.5,0.4,-0.8,1,-0.8c0.3,0,0.5,0.1,0.7,0.2l0,-0.2l0.3,0l-0.1,0.9l-0.3,0c0,-0.1,0,-0.2,0,-0.2c0,-0.3,-0.3,-0.5,-0.6,-0.5c-0.4,0,-0.6,0.2,-0.6,0.5c0,0.3,0.1,0.3,0.9,0.6c0.6,0.3,0.8,0.5,0.8,0.9c0,0.5,-0.4,0.9,-1,0.9Z" class="g3_4" />
<path d="M790.1,160.7c-0.3,0,-0.6,-0.1,-0.8,-0.3l0,0.3l-0.2,0l0,-1l0.3,0l0,0.2c0,0.3,0.3,0.6,0.7,0.6c0.4,0,0.7,-0.2,0.7,-0.5c0,-0.3,-0.2,-0.4,-0.9,-0.7c-0.6,-0.2,-0.9,-0.5,-0.9,-0.9c0,-0.5,0.5,-0.8,1,-0.8c0.3,0,0.6,0.1,0.7,0.2l0.1,-0.2l0.3,0l-0.2,0.9l-0.3,0c0,-0.1,0.1,-0.2,0.1,-0.2c0,-0.3,-0.3,-0.5,-0.7,-0.5c-0.3,0,-0.5,0.2,-0.5,0.5c0,0.3,0,0.3,0.8,0.6c0.6,0.3,0.8,0.5,0.8,0.9c0,0.5,-0.4,0.9,-1,0.9Z" class="g3_4" />
<path d="M795.2,160.6l0,-0.2l0.5,0l0,-3.2l-1.6,3.5l-1.6,-3.6l0,3.3l0.5,0l0,0.2l-1.4,0l0,-0.2l0.5,0l0,-3.9l-0.5,0l0,-0.2l1.1,0l1.5,3.3l1.5,-3.3l1,0l0,0.2l-0.5,0l0,3.9l0.5,0l0,0.2l-1.5,0Z" class="g3_4" />
<path d="M798.7,159.3l-1.1,0.2l0,0.4c0,0.2,0.2,0.4,0.4,0.4c0.3,0,0.4,-0.1,0.7,-0.3l0,-0.7Zm0.6,1.3c-0.1,0.1,-0.2,0.1,-0.3,0.1c-0.2,0,-0.3,-0.2,-0.3,-0.4l0,-0.1c-0.3,0.4,-0.5,0.5,-0.8,0.5c-0.5,0,-0.8,-0.3,-0.8,-0.8c0,-0.3,0.2,-0.6,0.5,-0.6l1.1,-0.3l0,-0.7c0,-0.3,-0.2,-0.5,-0.4,-0.5c-0.2,0,-0.3,0,-0.4,0.1l0,0.4l-0.6,0.1c-0.1,-0.1,-0.1,-0.1,-0.1,-0.2c0,-0.3,0.5,-0.6,1.1,-0.6c0.5,0,0.9,0.3,0.9,0.7l0,2l0.5,0l0,0.2l-0.4,0.1Z" class="g3_4" />
<path d="M801.8,158.3c-0.1,-0.2,-0.2,-0.2,-0.2,-0.2c-0.2,0,-0.3,0.1,-0.6,0.5l0,1.8l0.6,0l0,0.2l-1.6,0l0,-0.2l0.5,0l0,-2.4l-0.6,0l0,-0.2l0.9,-0.2l0.2,0l0,0.7c0.4,-0.6,0.6,-0.7,0.8,-0.7c0.1,0,0.2,0,0.2,0l0.2,0.2l-0.4,0.5Z" class="g3_4" />
<g clip-path="url(#c0_4)">
<path d="M804.6,160.6L803.2,159l1.2,-1.1l-0.4,0l0,-0.2l1.3,0l0,0.2l-0.5,0l-1.1,1l1.3,1.5l0.4,0l0,0.2l-0.8,0Zm-2.4,0l0,-0.2l0.5,0l0,-4.2l-0.6,0l0,-0.1l0.9,-0.3l0.2,0l0,4.6l0.5,0l0,0.2l-1.5,0Z" class="g3_4" />
<path fill-rule="evenodd" d="M769.9,163.6l0,1.8l-1.3,-1c-1,0.5,-2.1,0.8,-3.3,0.8c-1.2,0,-2.3,-0.3,-3.4,-0.8c0.1,0,0.1,0,0.1,0l-1.2,0.9l0,-1.6c-1.7,-1.4,-2.9,-3.5,-2.9,-5.9c0,-3,1.7,-5.5,4.2,-6.7c1.6,-0.7,3.4,-0.9,5,-0.5c3.2,0.8,5.6,3.7,5.6,7.2c0,2.4,-1.1,4.5,-2.8,5.8Zm-4.6,-15c-5.1,0,-9.2,4.1,-9.2,9.2c0,5.1,4.1,9.2,9.2,9.2c5.1,0,9.2,-4.1,9.2,-9.2c0,-5.1,-4.1,-9.2,-9.2,-9.2Z" class="g3_4" />
</g>
<path d="M769.5,888.5l0,-1" class="g2_4" />
<path d="M767.9,876c-0.3,-0.1,-0.6,-0.2,-0.9,-0.3c-0.6,-0.1,-1.1,-0.2,-1.7,-0.2c-0.9,0,-1.7,0.2,-2.5,0.5c-0.1,0.1,-0.3,0.1,-0.4,0.2c-0.3,0.1,-0.7,0.3,-1,0.5l0,11.8l3.9,-3.1c0,0,3.9,3.2,3.9,3.2l0,-11.8c-0.4,-0.3,-0.8,-0.6,-1.3,-0.8Z" class="g3_4" />
<path d="M779.1,885.2c-1.3,0,-2.3,-0.9,-2.3,-2.2c0,-1.3,1,-2.2,2.3,-2.2c0.4,0,0.7,0,1.1,0.2l0,-0.3l0.3,0l0,1.1l-0.3,0l0,-0.3c-0.4,-0.3,-0.7,-0.4,-1.1,-0.4c-1,0,-1.7,0.8,-1.7,1.9c0,1,0.8,1.9,1.8,1.9c0.3,0,0.6,-0.1,1,-0.3l0,-0.5l0.3,0l0,0.9c-0.5,0.2,-0.9,0.2,-1.4,0.2Z" class="g3_4" />
<path d="M782.7,882.8c-0.2,-0.1,-0.2,-0.2,-0.3,-0.2c-0.1,0,-0.2,0.1,-0.6,0.6l0,1.7l0.6,0l0,0.2l-1.6,0l0,-0.2l0.5,0l0,-2.4l-0.6,0l0,-0.1l1,-0.3l0.1,0l0,0.8c0.5,-0.6,0.6,-0.8,0.9,-0.8c0,0,0.1,0,0.2,0.1l0.2,0.1l-0.4,0.5Z" class="g3_4" />
<path d="M784.5,882.4c-0.5,0,-0.9,0.5,-0.9,1.3c0,0.7,0.4,1.3,0.9,1.3c0.5,0,0.9,-0.6,0.9,-1.3c0,-0.8,-0.4,-1.3,-0.9,-1.3Zm0,2.8c-0.8,0,-1.4,-0.7,-1.4,-1.5c0,-0.9,0.6,-1.6,1.4,-1.6c0.8,0,1.4,0.7,1.4,1.6c0,0.8,-0.6,1.5,-1.4,1.5Z" class="g3_4" />
<path d="M787.5,885.2c-0.4,0,-0.6,-0.1,-0.8,-0.2l0,0.2l-0.3,0l0,-0.9l0.3,0l0,0.2c0,0.2,0.4,0.5,0.8,0.5c0.3,0,0.6,-0.2,0.6,-0.5c0,-0.2,-0.2,-0.4,-0.8,-0.6c-0.7,-0.3,-0.9,-0.5,-0.9,-0.9c0,-0.5,0.4,-0.9,1,-0.9c0.3,0,0.5,0.1,0.7,0.2l0,-0.2l0.3,0l-0.1,0.9l-0.3,0c0,0,0,-0.1,0,-0.2c0,-0.2,-0.3,-0.4,-0.6,-0.4c-0.4,0,-0.6,0.1,-0.6,0.4c0,0.3,0.1,0.3,0.9,0.7c0.6,0.2,0.8,0.4,0.8,0.8c0,0.6,-0.4,0.9,-1,0.9Z" class="g3_4" />
<path d="M790.1,885.2c-0.3,0,-0.6,-0.1,-0.8,-0.2l0,0.2l-0.2,0l0,-0.9l0.3,0l0,0.2c0,0.2,0.3,0.5,0.7,0.5c0.4,0,0.7,-0.2,0.7,-0.5c0,-0.2,-0.2,-0.4,-0.9,-0.6C789.3,883.6,789,883.4,789,883c0,-0.5,0.5,-0.9,1,-0.9c0.3,0,0.6,0.1,0.7,0.2l0.1,-0.2l0.3,0l-0.2,0.9l-0.3,0c0,0,0.1,-0.1,0.1,-0.2c0,-0.2,-0.3,-0.4,-0.7,-0.4c-0.3,0,-0.5,0.1,-0.5,0.4c0,0.3,0,0.3,0.8,0.7c0.6,0.2,0.8,0.4,0.8,0.8c0,0.6,-0.4,0.9,-1,0.9Z" class="g3_4" />
<path d="M795.2,885.1l0,-0.2l0.5,0l0,-3.2l-1.6,3.5l-1.6,-3.6l0,3.3l0.5,0l0,0.2l-1.4,0l0,-0.2l0.5,0l0,-3.8l-0.5,0l0,-0.3l1.1,0l1.5,3.4l1.5,-3.4l1,0l0,0.3l-0.5,0l0,3.8l0.5,0l0,0.2l-1.5,0Z" class="g3_4" />
<path d="M798.7,883.8l-1.1,0.3l0,0.3c0,0.3,0.2,0.4,0.4,0.4c0.3,0,0.4,0,0.7,-0.3l0,-0.7Zm0.6,1.4c-0.1,0,-0.2,0,-0.3,0c-0.2,0,-0.3,-0.1,-0.3,-0.4c-0.3,0.3,-0.5,0.4,-0.8,0.4c-0.5,0,-0.8,-0.3,-0.8,-0.7c0,-0.4,0.2,-0.6,0.5,-0.7l1.1,-0.3l0,-0.7c0,-0.3,-0.2,-0.4,-0.4,-0.4c-0.2,0,-0.3,0,-0.4,0.1l0,0.3l-0.6,0.1c-0.1,0,-0.1,-0.1,-0.1,-0.1c0,-0.4,0.5,-0.7,1.1,-0.7c0.5,0,0.9,0.3,0.9,0.7l0,2l0.5,0l0,0.2l-0.4,0.2Z" class="g3_4" />
<path d="M801.8,882.8c-0.1,-0.1,-0.2,-0.2,-0.2,-0.2c-0.2,0,-0.3,0.1,-0.6,0.6l0,1.7l0.6,0l0,0.2l-1.6,0l0,-0.2l0.5,0l0,-2.4l-0.6,0l0,-0.1l0.9,-0.3l0.2,0l0,0.8c0.4,-0.6,0.6,-0.8,0.8,-0.8c0.1,0,0.2,0,0.2,0.1l0.2,0.1l-0.4,0.5Z" class="g3_4" />
<g clip-path="url(#c1_4)">
<path d="M804.6,885.1l-1.4,-1.6l1.2,-1.1l-0.4,0l0,-0.2l1.3,0l0,0.2l-0.5,0l-1.1,1l1.3,1.5l0.4,0l0,0.2l-0.8,0Zm-2.4,0l0,-0.2l0.5,0l0,-4.1l-0.6,0l0,-0.2l0.9,-0.3l0.2,0l0,4.6l0.5,0l0,0.2l-1.5,0Z" class="g3_4" />
<path fill-rule="evenodd" d="M769.9,888.2l0,1.7l-1.3,-1c-1,0.5,-2.1,0.8,-3.3,0.8c-1.2,0,-2.3,-0.3,-3.4,-0.8c0.1,0,0.1,0,0.1,0l-1.2,0.9l0,-1.6c-1.7,-1.4,-2.9,-3.5,-2.9,-5.9c0,-2.9,1.7,-5.5,4.2,-6.7c1.6,-0.7,3.4,-0.9,5,-0.5c3.2,0.8,5.6,3.8,5.6,7.2c0,2.4,-1.1,4.5,-2.8,5.9Zm-4.6,-15c-5.1,0,-9.2,4.1,-9.2,9.1c0,5.1,4.1,9.2,9.2,9.2c5.1,0,9.2,-4.1,9.2,-9.2c0,-5,-4.1,-9.1,-9.2,-9.1Z" class="g3_4" />
</g>
</svg>