<?xml version="1.0" encoding="UTF-8" standalone="no"?>
<!DOCTYPE svg PUBLIC "-//W3C//DTD SVG 1.1//EN"
"http://www.w3.org/Graphics/SVG/1.1/DTD/svg11.dtd">
<svg version="1.1" xmlns="http://www.w3.org/2000/svg" xmlns:xlink="http://www.w3.org/1999/xlink">
<defs>
<style type="text/css"><![CDATA[
.g5_3{
stroke: #000000;
stroke-width: 1;
stroke-linecap: round;
stroke-linejoin: round;
}
.g6_3{
fill: none;
stroke: #000000;
stroke-width: 1;
stroke-linecap: round;
stroke-linejoin: round;
}
.g2_3{
fill: #FFFFFF;
stroke: #FFFFFF;
stroke-width: 1;
stroke-linecap: round;
stroke-linejoin: round;
}
.g3_3{
fill: #CD151D;
}
.g4_3{
fill: #CD151D;
stroke: #CD151D;
stroke-width: 1;
stroke-linecap: round;
stroke-linejoin: round;
}
.g1_3{
fill: #E7E8E9;
}
]]></style>
</defs>
<path d="M453,1120l361,0l0,-372l-361,0l0,372Z" class="g1_3" />
<path fill-rule="evenodd" d="M814.5,784.5l-361,0l0,-9l361,0l0,9Z" class="g2_3" />
<path d="M453,775l361,0l0,-27l-361,0l0,27Z" class="g3_3" />
<path d="M453,1120l361,0l0,-23l-361,0l0,23Z" class="g1_3" />
<path fill-rule="evenodd" d="M814.5,775.5l-361,0l0,-9l361,0l0,9Z" class="g4_3" />
<image x="463" y="790" width="343" height="222" xlink:href="img/1.png" />
<path fill-rule="evenodd" d="M65.5,1134.5l749,0l0,1l-749,0l0,-1Z" class="g5_3" />
<path d="M772.5,1159.5l0,-25" class="g6_3" />
</svg>