<?xml version="1.0" encoding="UTF-8" standalone="no"?>
<!DOCTYPE svg PUBLIC "-//W3C//DTD SVG 1.1//EN"
"http://www.w3.org/Graphics/SVG/1.1/DTD/svg11.dtd">
<svg version="1.1" xmlns="http://www.w3.org/2000/svg" xmlns:xlink="http://www.w3.org/1999/xlink">
<defs>
<clipPath id="c0_4"><path d="M324.5,1190.5l0,-16l260,0l0,16Z" /></clipPath>
<style type="text/css"><![CDATA[
.g2_4{
fill: none;
stroke: #231F20;
stroke-width: 1;
stroke-linecap: butt;
stroke-linejoin: miter;
}
.g3_4{
fill: none;
stroke: #57585A;
stroke-width: 1;
stroke-linecap: butt;
stroke-linejoin: miter;
}
.g4_4{
fill: #FFFFFF;
fill-opacity: 0.39999402;
}
.g1_4{
fill: #FFFFFF;
}
]]></style>
</defs>
<path fill-rule="evenodd" d="M67,1189l777,0l0,-30l-777,0l0,30Z" class="g1_4" />
<path d="M67.5,1156.5l777,0" class="g2_4" />
<path d="M601.5,596.5l81,0" class="g3_4" />
<path d="M625.5,877.5l148,0" class="g3_4" />
<path d="M625.5,890.5l114,0" class="g3_4" />
<g clip-path="url(#c0_4)">
<path d="M324.1,1182.6c0,4.2,3.5,7.7,7.7,7.7l245.4,0c4.2,0,7.6,-3.5,7.6,-7.7c0,-4.3,-3.4,-7.7,-7.6,-7.7l-245.4,0c-4.2,0,-7.7,3.4,-7.7,7.7c0,0,0,-4.3,0,0Z" class="g4_4" />
</g>
</svg>