<?xml version="1.0" encoding="UTF-8" standalone="no"?>
<!DOCTYPE svg PUBLIC "-//W3C//DTD SVG 1.1//EN"
"http://www.w3.org/Graphics/SVG/1.1/DTD/svg11.dtd">
<svg version="1.1" xmlns="http://www.w3.org/2000/svg" xmlns:xlink="http://www.w3.org/1999/xlink">
<defs>
<style type="text/css"><![CDATA[
.g5_4{
stroke: #000000;
stroke-width: 1;
stroke-linecap: round;
stroke-linejoin: round;
}
.g6_4{
fill: none;
stroke: #000000;
stroke-width: 1;
stroke-linecap: round;
stroke-linejoin: round;
}
.g2_4{
fill: #FFFFFF;
stroke: #FFFFFF;
stroke-width: 1;
stroke-linecap: round;
stroke-linejoin: round;
}
.g3_4{
fill: #CD151D;
}
.g4_4{
fill: #CD151D;
stroke: #CD151D;
stroke-width: 1;
stroke-linecap: round;
stroke-linejoin: round;
}
.g1_4{
fill: #E7E8E9;
}
]]></style>
</defs>
<path d="M65,562l361,0L426,95L65,95l0,467Z" class="g1_4" />
<path fill-rule="evenodd" d="M426.5,132.5l-361,0l0,-9l361,0l0,9Z" class="g2_4" />
<path d="M65,123l361,0l0,-28L65,95l0,28Z" class="g3_4" />
<path d="M65,562l361,0l0,-23L65,539l0,23Z" class="g1_4" />
<path fill-rule="evenodd" d="M426.5,123.5l-361,0l0,-9l361,0l0,9Z" class="g4_4" />
<image x="101" y="138" width="290" height="329" xlink:href="img/1.png" />
<path fill-rule="evenodd" d="M65.5,1134.5l749,0l0,1l-749,0l0,-1Z" class="g5_4" />
<path d="M772.5,1159.5l0,-25" class="g6_4" />
</svg>