<?xml version="1.0" encoding="UTF-8" standalone="no"?>
<!DOCTYPE svg PUBLIC "-//W3C//DTD SVG 1.1//EN"
"http://www.w3.org/Graphics/SVG/1.1/DTD/svg11.dtd">
<svg version="1.1" xmlns="http://www.w3.org/2000/svg" xmlns:xlink="http://www.w3.org/1999/xlink">
<defs>
<clipPath id="c0_6"><path d="M77.5,1135.5l0,-15l59,0l0,15Z" /></clipPath>
<style type="text/css"><![CDATA[
.g2_6{
fill: none;
stroke: #131413;
stroke-width: 1;
stroke-linecap: butt;
stroke-linejoin: miter;
}
.g1_6{
fill: #131413;
}
]]></style>
</defs>
<path d="M77,69l754,0l0,-2L77,67l0,2Z" class="g1_6" />
<path fill-rule="evenodd" d="M99.8,1129.9c0,-2.6,-3.7,-2.2,-3.7,-4.2c0,-0.7,0.4,-1.3,1.2,-1.3c1.1,0,1.4,1,1.6,1.7l0.5,0c-0.1,-0.9,-0.1,-1.4,-0.1,-1.9c-0.6,-0.2,-1.2,-0.3,-1.8,-0.3c-1.6,0,-2.6,1,-2.6,2.2c0,2.5,3.7,2,3.7,4.2c0,0.8,-0.6,1.4,-1.5,1.4c-1.2,0,-1.6,-1,-1.9,-2.1l-0.5,0.1c0,0.8,0.1,1.5,0.2,2.1c0.6,0.2,1.3,0.4,2.1,0.4c1.6,0,2.8,-1.1,2.8,-2.3Z" class="g1_6" />
<path fill-rule="evenodd" d="M104.8,1129.4c0,1.6,-0.8,2.1,-1.4,2.1c-0.5,0,-0.9,-0.2,-1.1,-0.5l0,-3.1c0.3,-0.2,0.7,-0.4,1.1,-0.4c0.8,0,1.4,0.6,1.4,1.9ZM106,1129c0,-1.1,-0.8,-2.3,-2.1,-2.3c-0.2,0,-0.3,0,-0.5,0.1l-1.1,0.6l0,-0.8c-0.6,0.2,-1.2,0.4,-1.9,0.5l0,0.4c0.7,0.1,0.8,0.1,0.8,0.8l0,5.7c0,0.7,-0.1,0.8,-0.9,0.9l0,0.4l3.1,0l0,-0.4c-1,-0.1,-1.1,-0.2,-1.1,-0.9l0,-2c0.2,0.1,0.4,0.1,0.8,0.2c1.6,-0.2,2.9,-1.5,2.9,-3.2Z" class="g1_6" />
<path fill-rule="evenodd" d="M110.8,1127.4c0,-0.4,-0.3,-0.7,-0.7,-0.7c-0.5,0,-1.1,0.6,-1.4,1.3l-0.1,-1.3c-0.5,0.2,-1.1,0.3,-1.8,0.4l0,0.4c0.7,0.1,0.7,0.1,0.7,0.9l0,2.4c0,0.7,0,0.8,-0.8,0.8l0,0.4l2.9,0l0,-0.4c-0.9,0,-1,-0.1,-1,-0.8l0,-2c0.3,-0.7,0.6,-1,0.9,-1c0.2,0,0.4,0,0.5,0.2c0.3,0.3,0.8,-0.2,0.8,-0.6Z" class="g1_6" />
<path fill-rule="evenodd" d="M114.1,1132l0,-0.4c-0.8,0,-0.8,-0.1,-0.8,-0.9l0,-4c-0.6,0.2,-1.2,0.3,-1.9,0.4l0,0.4c0.7,0.1,0.8,0.1,0.8,0.9l0,2.3c0,0.8,-0.1,0.9,-0.9,0.9l0,0.4l2.8,0Z" class="g1_6" />
<path fill-rule="evenodd" d="M113.4,1124.8c0,-0.4,-0.3,-0.7,-0.7,-0.7c-0.4,0,-0.8,0.3,-0.8,0.7c0,0.4,0.4,0.7,0.8,0.7c0.4,0,0.7,-0.3,0.7,-0.7Z" class="g1_6" />
<path fill-rule="evenodd" d="M120.6,1132l0,-0.4c-0.7,0,-0.8,-0.1,-0.8,-0.8l0,-2.5c0,-0.9,-0.6,-1.6,-1.5,-1.6c-0.6,0,-1.4,0.6,-1.7,0.8l0,-0.8c-0.6,0.2,-1.2,0.3,-1.8,0.4l0,0.4c0.6,0.1,0.7,0.1,0.7,0.9l0,2.4c0,0.7,-0.1,0.8,-0.9,0.8l0,0.4l2.6,0l0,-0.4c-0.6,0,-0.6,-0.1,-0.6,-0.8l0,-2.7c0.3,-0.3,0.8,-0.6,1.2,-0.6c0.6,0,1,0.5,1,1.2l0,2.1c0,0.7,-0.1,0.8,-0.7,0.8l0,0.4l2.5,0Z" class="g1_6" />
<path fill-rule="evenodd" d="M125.5,1133.6c0,0.7,-0.6,1.4,-1.6,1.4c-1,0,-1.6,-0.5,-1.6,-1.2c0,-0.6,0.4,-1.2,1.3,-1.2c0.7,0,1.1,0,1.4,0.1c0.3,0.1,0.5,0.5,0.5,0.9Zm-0.8,-4.9c0,1,-0.5,1.4,-0.9,1.4c-0.7,0,-1.2,-0.6,-1.2,-1.5c0,-0.9,0.6,-1.4,1,-1.4c0.7,0,1.1,0.7,1.1,1.5Zm2,-1.7l-0.1,-0.2c-0.5,0.1,-1.1,0.2,-1.7,0.2c-0.3,-0.2,-0.7,-0.3,-1.2,-0.3c-1,0,-2.2,0.7,-2.2,2.1c0,0.8,0.5,1.5,1.1,1.7c-0.2,0.2,-0.7,0.6,-1.2,0.8c0,0.7,0.6,1,1,1.2c-1,0.7,-1.2,1.1,-1.2,1.6c0,0.7,0.7,1.6,2.2,1.6c1.6,0,3.1,-1.2,3.1,-2.5c0,-1.2,-1,-1.6,-1.8,-1.6l-1.3,0c-0.5,0,-0.7,-0.2,-0.7,-0.4c0,-0.2,0.2,-0.5,0.5,-0.6c0.2,0,0.3,0,0.4,0c1,0,2.2,-0.7,2.2,-2c0,-0.3,-0.1,-0.8,-0.3,-1l0.6,0c0.2,-0.1,0.5,-0.4,0.6,-0.6Z" class="g1_6" />
<path fill-rule="evenodd" d="M130.3,1128.4c0,0.2,0,0.2,-0.3,0.2l-1.8,0.1c0.1,-0.9,0.6,-1.5,1.1,-1.5c0.6,0,1,0.6,1,1.2Zm1.1,0.2c0,-1,-0.8,-1.9,-1.9,-1.9c-1.2,0,-2.5,1.3,-2.5,3c0,1.3,0.9,2.5,2.4,2.5c0.4,0,1.2,-0.2,1.9,-1.1l-0.2,-0.4c-0.5,0.4,-0.8,0.6,-1.3,0.6c-0.8,0,-1.6,-0.6,-1.7,-2c1.4,-0.1,2.8,-0.2,3,-0.2c0.3,-0.1,0.3,-0.2,0.3,-0.5Z" class="g1_6" />
<path fill-rule="evenodd" d="M136.2,1127.4c0,-0.4,-0.3,-0.7,-0.7,-0.7c-0.5,0,-1,0.6,-1.4,1.3l0,-1.3c-0.6,0.2,-1.2,0.3,-1.9,0.4l0,0.4c0.7,0.1,0.8,0.1,0.8,0.9l0,2.4c0,0.7,-0.1,0.8,-0.9,0.8l0,0.4l3,0l0,-0.4c-0.9,0,-1,-0.1,-1,-0.8l0,-2c0.2,-0.7,0.6,-1,0.9,-1c0.1,0,0.3,0.1,0.5,0.2c0.2,0.3,0.7,-0.2,0.7,-0.6Z" class="g1_6" />
<path d="M80.5,1135.5l10,0" class="g2_6" />
<path d="M80.5,1135.5l10,0" class="g2_6" />
<g clip-path="url(#c0_6)">
<path fill-rule="evenodd" d="M82.3,1124.4L82.2,1124l-1,0.1l0.1,0.8l1,-0.5Zm6.4,7.1l-7,0c0,-0.8,0.5,-1.4,1.1,-2c1.5,-1.5,2.7,-2.4,2.7,-4.9l-0.6,0c0,0.8,-0.2,1.4,-0.4,1.9c0,0,-1.6,0,-1.6,0L82.4,1126l-0.4,0.4l0.3,0.3c-0.6,0.5,-1.2,1.3,-1.4,2.1l-0.4,0l0,-1.1l-0.2,-0.1l-0.9,0.7l-0.7,-0.9l2,-2.7l0.3,-0.9l1.1,-0.4L82,1122.9l0.3,-0.5l-0.1,-1.1c0.3,0.2,0.5,0.4,0.5,0.9l0.6,0.1c0.2,-0.7,0.2,-1.5,0.2,-1.5c0.5,0.3,0.4,1.8,0.4,2l0.6,0.1c0,0,0.1,-0.2,0.1,-0.5c0,-0.2,0,-0.3,-0.1,-0.5c4,0.4,5.4,4.5,4.2,9.6Zm1.5,0.6l0,-0.7l-0.9,0c0.1,-0.4,0.2,-0.9,0.3,-1.4c0.2,0,0.4,-0.1,0.4,-0.3c0,-0.2,-0.2,-0.3,-0.3,-0.3c0,-0.5,0,-1,0,-1.4c0.2,-0.1,0.4,-0.2,0.4,-0.4c0,-0.2,-0.2,-0.3,-0.4,-0.3c0,-0.5,-0.1,-0.9,-0.2,-1.4c0.1,0,0.3,-0.1,0.3,-0.3c0,-0.2,-0.2,-0.3,-0.4,-0.3c-0.2,-0.4,-0.4,-0.9,-0.6,-1.2c0.1,-0.1,0.2,-0.2,0.2,-0.3c0,-0.2,-0.1,-0.3,-0.3,-0.3c-0.1,0,-0.1,0,-0.2,0c-0.3,-0.4,-0.6,-0.7,-0.9,-1c0,-0.1,0,-0.1,0,-0.2c0,-0.2,-0.1,-0.3,-0.3,-0.3c-0.1,0,-0.2,0,-0.2,0.1c-0.4,-0.3,-0.8,-0.5,-1.3,-0.6c0,-0.3,-0.1,-0.4,-0.3,-0.4c-0.2,0,-0.3,0.1,-0.3,0.2c-0.3,0,-0.5,-0.1,-0.8,-0.1c-0.2,-0.6,-0.5,-1.2,-1.5,-1.1c0,0,0,0.5,0,0.9c-0.3,-0.3,-0.9,-0.5,-1.4,-0.2l0.2,1.4l-0.6,0.9l-0.6,0.2l-0.4,1.1l-2.1,2.9c0,0,0,0.1,0,0.1c0,0.1,0,0.2,0,0.2l1.4,1.6l0.5,-0.5l0,0.7l1.5,0c0,-0.8,0.9,-2.1,1.5,-2.3l1.3,0c-1.1,1.6,-3,2.3,-3.2,4.3l-0.8,0l0,0.7l10,0Zm-10.4,-5.3l-0.4,-0.1c0,0.3,-0.1,0.6,-0.2,0.8l0.4,0.2c0.2,-0.2,0.2,-0.7,0.2,-0.9Z" class="g1_6" />
</g>
</svg>