<?xml version="1.0" encoding="UTF-8" standalone="no"?>
<!DOCTYPE svg PUBLIC "-//W3C//DTD SVG 1.1//EN"
"http://www.w3.org/Graphics/SVG/1.1/DTD/svg11.dtd">
<svg version="1.1" xmlns="http://www.w3.org/2000/svg" xmlns:xlink="http://www.w3.org/1999/xlink">
<defs>
<style type="text/css"><![CDATA[
.g2_3{
stroke: #000000;
stroke-width: 1;
stroke-linecap: round;
stroke-linejoin: round;
}
.g1_3{
fill: #C3102F;
stroke: #C3102F;
stroke-width: 1;
stroke-linecap: round;
stroke-linejoin: round;
}
]]></style>
</defs>
<path fill-rule="evenodd" d="M57.5,759.5l366,0l0,2l-366,0" class="g1_3" />
<path fill-rule="evenodd" d="M423.5,1125.5l-366,0l0,-1l366,0" class="g1_3" />
<path fill-rule="evenodd" d="M217.5,799.5l-160,0l0,-1l160,0" class="g1_3" />
<path fill-rule="evenodd" d="M288.5,799.5l-79,0l0,-1l79,0" class="g1_3" />
<path fill-rule="evenodd" d="M364.5,799.5l-84,0l0,-1l84,0" class="g1_3" />
<path fill-rule="evenodd" d="M423.5,799.5l-67,0l0,-1l67,0" class="g1_3" />
<path fill-rule="evenodd" d="M459.5,504.5l365,0l0,1l-365,0l0,-1" class="g1_3" />
<image x="460" y="108" width="365" height="337" xlink:href="img/1.png" />
<path fill-rule="evenodd" d="M459.5,967.5l365,0l0,1l-365,0" class="g1_3" />
<path fill-rule="evenodd" d="M824.5,1140.5l-365,0l0,-1l365,0" class="g1_3" />
<path fill-rule="evenodd" d="M673.5,1006.5l-214,0l0,-1l214,0" class="g1_3" />
<path fill-rule="evenodd" d="M759.5,1006.5l-120,0l0,-1l120,0" class="g1_3" />
<path fill-rule="evenodd" d="M824.5,1006.5l-99,0l0,-1l99,0" class="g1_3" />
<path fill-rule="evenodd" d="M824.5,56.5l-767,0l0,-1l767,0l0,1Z" class="g2_3" />
</svg>