<?xml version="1.0" encoding="UTF-8" standalone="no"?>
<!DOCTYPE svg PUBLIC "-//W3C//DTD SVG 1.1//EN"
"http://www.w3.org/Graphics/SVG/1.1/DTD/svg11.dtd">
<svg version="1.1" xmlns="http://www.w3.org/2000/svg" xmlns:xlink="http://www.w3.org/1999/xlink">
<defs>
<clipPath id="c0_5"><path d="M770.5,1140.5l0,-15l58,0l0,15Z" /></clipPath>
<style type="text/css"><![CDATA[
.g2_5{
fill: none;
stroke: #131413;
stroke-width: 1;
stroke-linecap: butt;
stroke-linejoin: miter;
}
.g1_5{
fill: #131413;
}
]]></style>
</defs>
<path d="M77,69l754,0l0,-2L77,67l0,2Z" class="g1_5" />
<path fill-rule="evenodd" d="M791.9,1135.2c0,-2.7,-3.7,-2.2,-3.7,-4.3c0,-0.6,0.4,-1.2,1.2,-1.2c1.1,0,1.4,0.9,1.7,1.7l0.4,0c0,-0.9,-0.1,-1.4,-0.1,-1.9c-0.6,-0.2,-1.2,-0.3,-1.7,-0.3c-1.7,0,-2.6,1,-2.6,2.1c0,2.6,3.6,2.1,3.6,4.3c0,0.8,-0.5,1.4,-1.4,1.4c-1.3,0,-1.7,-1.1,-2,-2.1l-0.5,0.1c0.1,0.8,0.1,1.5,0.3,2.1c0.6,0.2,1.2,0.4,2,0.4c1.7,0,2.8,-1.1,2.8,-2.3Z" class="g1_5" />
<path fill-rule="evenodd" d="M796.9,1134.7c0,1.6,-0.8,2.1,-1.4,2.1c-0.5,0,-0.8,-0.2,-1.1,-0.5l0,-3.1c0.3,-0.2,0.7,-0.4,1.1,-0.4c0.8,0,1.4,0.6,1.4,1.9Zm1.2,-0.5c0,-1.1,-0.8,-2.2,-2.1,-2.2c-0.1,0,-0.3,0,-0.4,0.1l-1.2,0.6l0,-0.8c-0.6,0.2,-1.2,0.4,-1.9,0.5l0,0.4c0.8,0,0.8,0.1,0.8,0.8l0,5.7c0,0.7,-0.1,0.8,-0.8,0.9l0,0.4l3,0l0,-0.4c-1,-0.1,-1.1,-0.2,-1.1,-0.9l0,-2c0.2,0.1,0.5,0.1,0.8,0.1c1.6,-0.2,2.9,-1.4,2.9,-3.2Z" class="g1_5" />
<path fill-rule="evenodd" d="M802.9,1132.6c0,-0.3,-0.3,-0.6,-0.7,-0.6c-0.5,0,-1,0.5,-1.4,1.2l0,-1.2c-0.6,0.2,-1.2,0.3,-1.8,0.4l0,0.4c0.6,0.1,0.7,0.1,0.7,0.8l0,2.4c0,0.8,-0.1,0.8,-0.8,0.9l0,0.4l2.9,0l0,-0.4c-0.9,-0.1,-1,-0.1,-1,-0.9l0,-1.9c0.2,-0.7,0.5,-1,0.8,-1c0.2,0,0.4,0,0.5,0.2c0.3,0.3,0.8,-0.2,0.8,-0.7Z" class="g1_5" />
<path fill-rule="evenodd" d="M806.2,1137.3l0,-0.4c-0.7,-0.1,-0.8,-0.1,-0.8,-0.9l0,-4c-0.5,0.2,-1.2,0.3,-1.9,0.4l0,0.4c0.7,0.1,0.8,0.1,0.8,0.9l0,2.3c0,0.8,-0.1,0.8,-0.8,0.9l0,0.4l2.7,0Z" class="g1_5" />
<path fill-rule="evenodd" d="M805.5,1130.1c0,-0.4,-0.3,-0.7,-0.7,-0.7c-0.4,0,-0.7,0.3,-0.7,0.7c0,0.4,0.3,0.7,0.7,0.7c0.4,0,0.7,-0.3,0.7,-0.7Z" class="g1_5" />
<path fill-rule="evenodd" d="M812.7,1137.3l0,-0.4c-0.6,-0.1,-0.7,-0.1,-0.7,-0.8l0,-2.5c0,-1,-0.6,-1.6,-1.6,-1.6c-0.6,0,-1.4,0.6,-1.7,0.8l0,-0.8c-0.5,0.2,-1.1,0.3,-1.8,0.4l0,0.4c0.7,0.1,0.7,0.1,0.7,0.8l0,2.5c0,0.7,-0.1,0.7,-0.8,0.8l0,0.4l2.6,0l0,-0.4c-0.6,-0.1,-0.7,-0.1,-0.7,-0.8l0,-2.7c0.3,-0.3,0.8,-0.6,1.2,-0.6c0.6,0,1,0.4,1,1.2l0,2.1c0,0.7,-0.1,0.7,-0.7,0.8l0,0.4l2.5,0Z" class="g1_5" />
<path fill-rule="evenodd" d="M817.7,1138.9c0,0.7,-0.6,1.4,-1.7,1.4c-0.9,0,-1.6,-0.5,-1.6,-1.3c0,-0.5,0.4,-1.2,1.3,-1.2c0.7,0,1.1,0.1,1.4,0.2c0.3,0.1,0.6,0.5,0.6,0.9Zm-0.9,-4.9c0,1,-0.4,1.4,-0.9,1.4c-0.6,0,-1.1,-0.6,-1.1,-1.5c0,-0.9,0.5,-1.4,0.9,-1.4c0.7,0,1.1,0.7,1.1,1.5Zm2,-1.7l-0.1,-0.2c-0.5,0.1,-1.1,0.2,-1.6,0.2c-0.4,-0.2,-0.8,-0.3,-1.3,-0.3c-1,0,-2.2,0.7,-2.2,2.1c0,0.8,0.5,1.5,1.1,1.7c-0.2,0.2,-0.6,0.6,-1.1,0.8c-0.1,0.7,0.6,1,0.9,1.2c-1,0.7,-1.2,1.1,-1.2,1.6c0,0.7,0.8,1.6,2.2,1.6c1.7,0,3.1,-1.2,3.1,-2.5c0,-1.2,-1,-1.6,-1.8,-1.6l-1.2,0c-0.5,0,-0.7,-0.2,-0.7,-0.4c0,-0.2,0.2,-0.5,0.4,-0.6c0.2,0,0.4,0,0.4,0c1.1,0,2.3,-0.7,2.3,-2c0,-0.3,-0.2,-0.8,-0.3,-1l0.6,0c0.2,-0.1,0.4,-0.4,0.5,-0.6Z" class="g1_5" />
<path fill-rule="evenodd" d="M822.4,1133.6c0,0.3,0,0.3,-0.2,0.3l-1.9,0.1c0.2,-1,0.7,-1.5,1.1,-1.5c0.6,0,1,0.6,1,1.1Zm1.2,0.3c0,-1,-0.9,-1.9,-1.9,-1.9c-1.3,0,-2.5,1.3,-2.5,2.9c0,1.4,0.8,2.6,2.4,2.6c0.3,0,1.2,-0.3,1.9,-1.1l-0.3,-0.4c-0.4,0.4,-0.8,0.5,-1.2,0.5c-0.9,0,-1.7,-0.6,-1.7,-2c1.3,0,2.8,-0.1,3,-0.1c0.2,-0.1,0.3,-0.2,0.3,-0.5Z" class="g1_5" />
<path fill-rule="evenodd" d="M828.4,1132.6c0,-0.3,-0.3,-0.6,-0.8,-0.6c-0.5,0,-1,0.5,-1.4,1.2l0,-1.2c-0.5,0.2,-1.1,0.3,-1.8,0.4l0,0.4c0.7,0.1,0.7,0.1,0.7,0.8l0,2.4c0,0.8,-0.1,0.8,-0.8,0.9l0,0.4l2.9,0l0,-0.4c-0.9,-0.1,-1,-0.1,-1,-0.9l0,-1.9c0.3,-0.7,0.6,-1,0.9,-1c0.2,0,0.4,0.1,0.5,0.2c0.2,0.3,0.8,-0.2,0.8,-0.7Z" class="g1_5" />
<path d="M772.5,1140.5l10,0" class="g2_5" />
<path d="M772.5,1140.5l10,0" class="g2_5" />
<g clip-path="url(#c0_5)">
<path fill-rule="evenodd" d="M774.4,1129.7l0,-0.4l-1,0.1l0,0.8l1,-0.5Zm6.4,7.1l-7,0c0.1,-0.9,0.5,-1.5,1.1,-2c1.5,-1.5,2.7,-2.5,2.7,-4.9l-0.6,0c0,0.7,-0.1,1.4,-0.4,1.9c0,0,-1.6,0,-1.6,0l-0.4,-0.6l-0.5,0.4l0.3,0.4c-0.5,0.5,-1.2,1.3,-1.4,2.1l-0.4,0l0,-1.1l-0.2,-0.1l-0.8,0.7l-0.8,-0.9l2,-2.7l0.3,-0.9l1.2,-0.4l-0.2,-0.5l0.4,-0.5l-0.2,-1.1c0.3,0.2,0.6,0.4,0.6,0.9l0.5,0.1c0.2,-0.7,0.2,-1.5,0.2,-1.5c0.5,0.3,0.5,1.8,0.5,2l0.6,0.1c0,0,0,-0.2,0,-0.5c0,-0.2,0,-0.3,0,-0.6c3.9,0.5,5.4,4.6,4.1,9.7Zm1.6,0.6l0,-0.7l-0.9,0c0.1,-0.5,0.2,-0.9,0.2,-1.4c0.2,0,0.4,-0.1,0.4,-0.3c0,-0.2,-0.1,-0.3,-0.3,-0.4c0,-0.4,0.1,-0.9,0.1,-1.4c0.1,0,0.3,-0.1,0.3,-0.3c0,-0.2,-0.2,-0.3,-0.4,-0.3c0,-0.5,-0.1,-0.9,-0.1,-1.4c0.1,0,0.2,-0.1,0.2,-0.3c0,-0.2,-0.1,-0.3,-0.3,-0.3c-0.2,-0.4,-0.4,-0.9,-0.6,-1.3c0.1,0,0.1,-0.1,0.1,-0.2c0,-0.2,-0.1,-0.4,-0.3,-0.4c0,0,-0.1,0.1,-0.1,0.1c-0.3,-0.4,-0.6,-0.8,-1,-1.1c0.1,0,0.1,-0.1,0.1,-0.1c0,-0.2,-0.2,-0.4,-0.3,-0.4c-0.2,0,-0.2,0.1,-0.3,0.2c-0.4,-0.3,-0.8,-0.5,-1.3,-0.6c0,-0.3,-0.1,-0.4,-0.3,-0.4c-0.1,0,-0.3,0.1,-0.3,0.2c-0.2,0,-0.5,-0.1,-0.8,-0.1c-0.1,-0.6,-0.5,-1.2,-1.5,-1.1c0,0,0,0.5,0,0.9c-0.3,-0.3,-0.8,-0.5,-1.4,-0.3l0.2,1.5l-0.6,0.8l-0.6,0.3l-0.3,1.1l-2.2,2.9c0,0,0,0.1,0,0.1c0,0.1,0,0.2,0,0.2l1.4,1.6L772,1134l0,0.7l1.6,0c0,-0.8,0.9,-2.1,1.4,-2.3l1.3,0c-1.1,1.6,-3,2.3,-3.1,4.3l-0.9,0l0,0.7l10.1,0ZM771.9,1132l-0.3,0c0,0.3,-0.1,0.6,-0.3,0.8l0.5,0.2c0.1,-0.2,0.2,-0.7,0.1,-1Z" class="g1_5" />
</g>
<image x="497" y="332" width="13" height="14" xlink:href="img/1.png" />
<image x="814" y="699" width="17" height="13" xlink:href="img/2.png" />
<image x="107" y="851" width="40" height="14" xlink:href="img/3.png" />
<image x="496" y="424" width="41" height="13" xlink:href="img/4.png" />
<image x="780" y="195" width="51" height="13" xlink:href="img/5.png" />
<image x="768" y="409" width="63" height="13" xlink:href="img/6.png" />
<image x="375" y="867" width="67" height="13" xlink:href="img/7.png" />
<image x="496" y="210" width="81" height="13" xlink:href="img/8.png" />
<image x="580" y="500" width="107" height="13" xlink:href="img/9.png" />
<image x="696" y="790" width="109" height="13" xlink:href="img/10.png" />
<image x="638" y="668" width="120" height="13" xlink:href="img/11.png" />
<image x="296" y="836" width="146" height="13" xlink:href="img/12.png" />
<image x="288" y="149" width="132" height="13" xlink:href="img/13.png" />
<image x="646" y="271" width="140" height="13" xlink:href="img/14.png" />
<image x="657" y="317" width="174" height="13" xlink:href="img/15.png" />
<image x="496" y="714" width="178" height="13" xlink:href="img/16.png" />
<image x="619" y="622" width="188" height="14" xlink:href="img/17.png" />
<image x="109" y="882" width="199" height="13" xlink:href="img/18.png" />
</svg>