<?xml version="1.0" encoding="UTF-8" standalone="no"?>
<!DOCTYPE svg PUBLIC "-//W3C//DTD SVG 1.1//EN"
"http://www.w3.org/Graphics/SVG/1.1/DTD/svg11.dtd">
<svg version="1.1" xmlns="http://www.w3.org/2000/svg" xmlns:xlink="http://www.w3.org/1999/xlink">
<defs>
<clipPath id="c0_2"><path d="M442.5,1162.5l0,-27l411,0l0,27Z" /></clipPath>
<style type="text/css"><![CDATA[
.g4_2{
fill: none;
stroke: #000000;
stroke-width: 1;
stroke-linecap: round;
stroke-linejoin: round;
}
.g2_2{
fill: none;
stroke: #000000;
stroke-width: 1;
stroke-linecap: butt;
stroke-linejoin: miter;
}
.g3_2{
fill: #231F20;
}
.g1_2{
}
]]></style>
</defs>
<path d="M442,343l366,0l0,-2l-366,0l0,2Z" class="g1_2" />
<path d="M442.5,1066.5l366,0" class="g2_2" />
<path d="M442.5,375.5l366,0" class="g2_2" />
<path d="M842.6,90.4c-0.7,0,-1.2,0.3,-1.4,0.4c-0.1,0.2,-0.2,0.5,-0.2,1l0,2.7c0,0.5,0.2,0.7,0.5,0.9c0.3,0.2,0.8,0.4,1.2,0.4c1.3,0,2.1,-1.2,2.1,-2.9c0,-1.2,-0.8,-2.5,-2.2,-2.5Z" class="g3_2" />
<path d="M849.4,93.7c0.9,0,1.3,-0.7,1.3,-1.6c0,-1.1,-0.4,-2,-1.4,-2c-0.8,0,-1.3,0.7,-1.3,1.8c0,1.1,0.6,1.8,1.4,1.8Z" class="g3_2" />
<path d="M842.1,96.3c-0.3,0,-0.7,-0.1,-0.9,-0.1c-0.1,0,-0.2,0.1,-0.2,0.4l0,1.7c0,1.1,0.1,1.3,0.6,1.3l0.7,0.1c0.1,0.1,0,0.4,-0.1,0.4c-0.7,0,-1.2,0,-1.8,0c-0.6,0,-1,0,-1.5,0c-0.1,0,-0.1,-0.3,0,-0.4l0.3,0c0.6,-0.1,0.6,-0.3,0.6,-1.4l0,-6.7c0,-0.7,0,-0.7,-0.4,-1l-0.2,-0.1c0,-0.1,0,-0.2,0.1,-0.3c0.4,-0.2,1.1,-0.5,1.6,-0.8c0.1,0,0.1,0,0.2,0.1C841,89.7,841,90,841,90.2c0,0.1,0,0.2,0.1,0.2c0.2,-0.1,1.3,-0.7,2.3,-0.7c1.6,0,2.7,1.2,2.7,2.8c0,2.2,-1.7,3.8,-4,3.8m6.9,4c-1.9,0,-2.6,-1.1,-2.6,-1.8c0,-0.3,0,-0.5,0.1,-0.6c0.3,-0.3,0.8,-0.7,1.1,-1.1c0.2,-0.1,0.3,-0.3,0.2,-0.4c-0.7,-0.1,-1.2,-0.6,-1.2,-1.2c0,-0.1,0.1,-0.1,0.2,-0.3c0.3,-0.1,0.6,-0.4,0.9,-0.7c0.1,-0.1,0.2,-0.2,0.2,-0.3C847.3,93.6,846.6,93,846.6,92c0,-1.3,1.2,-2.3,2.7,-2.3c0.6,0,1.2,0.1,1.5,0.3c0.5,0.2,0.7,0.2,1,0.2l1.3,0c0.2,0.1,0.2,0.6,-0.1,0.7l-1.1,0c0,0.2,0,0.5,0,0.8c0,1,-0.7,2.5,-2.7,2.5c-0.3,0,-0.5,-0.1,-0.7,-0.1c-0.2,0.1,-0.7,0.4,-0.7,0.9c0,0.3,0.3,0.6,1.1,0.6c0.5,0,1.2,0,1.9,0c0.9,0,2.3,0.1,2.3,1.7c0,0.1,0,0.1,0,0.2c0.5,-1.2,0.7,-2.6,0.7,-4c0,-6.1,-5.1,-11,-11.4,-11c-6.3,0,-11.4,4.9,-11.4,11c0,0.8,0.1,1.5,0.3,2.3c0,-0.1,0,-0.1,0,-0.1l0.4,0c0.6,-0.1,0.6,-0.3,0.6,-1.4l0,-2.7c0,-0.7,0,-0.7,-0.5,-1l-0.1,-0.1c-0.1,-0.1,-0.1,-0.2,0,-0.3c0.4,-0.1,1.3,-0.5,1.6,-0.8c0.1,0,0.2,0.1,0.2,0.1c0,0.4,0,0.6,0,0.8c0,0.1,0,0.2,0.2,0.2c0.6,-0.5,1.4,-0.8,2.2,-0.8c1.4,0,1.9,0.8,1.9,1.9l0,2.7c0,1.1,0,1.3,0.6,1.4l0.4,0c0.1,0.1,0.1,0.4,-0.1,0.4c-0.4,0,-0.9,0,-1.5,0c-0.6,0,-1,0,-1.5,0c-0.1,0,-0.1,-0.3,0,-0.4l0.3,0c0.6,-0.1,0.6,-0.3,0.6,-1.4l0,-2.3c0,-0.9,-0.4,-1.6,-1.5,-1.6c-0.6,0,-1.2,0.3,-1.4,0.6c-0.2,0.2,-0.2,0.4,-0.2,0.9l0,2.4c0,1.1,0,1.3,0.6,1.4l0.3,0c0.1,0.1,0.1,0.4,-0.1,0.4c-0.4,0,-0.9,0,-1.4,0c-0.6,0,-1.1,0,-1.5,0c1.2,4.9,5.7,8.5,11,8.5c4.2,0,7.9,-2.2,9.9,-5.5c-0.8,0.7,-2,1.2,-3.3,1.2Z" class="g3_2" />
<path d="M849.7,96.6c-0.5,0,-1.1,0,-1.3,0.1C848,97,847.6,97.5,847.6,98c0,0.9,0.7,1.6,2.1,1.6c1.5,0,2.4,-0.8,2.4,-1.7c0,-0.9,-0.6,-1.3,-1.8,-1.3l-0.6,0Z" class="g3_2" />
<path d="M442.5,109.5l411,0" class="g2_2" />
<g clip-path="url(#c0_2)">
<path d="M95.5,1140.5l1462,0" class="g4_2" />
</g>
<path d="M442.5,1140.5l411,0" class="g2_2" />
</svg>