<?xml version="1.0" encoding="UTF-8" standalone="no"?>
<!DOCTYPE svg PUBLIC "-//W3C//DTD SVG 1.1//EN"
"http://www.w3.org/Graphics/SVG/1.1/DTD/svg11.dtd">
<svg version="1.1" xmlns="http://www.w3.org/2000/svg" xmlns:xlink="http://www.w3.org/1999/xlink">
<defs>
<style type="text/css"><![CDATA[
.g2_1{
fill: #FFFFFF;
}
.g1_1{
fill: #100D75;
}
]]></style>
</defs>
<path d="M828.4,73.5c0,0,-723.2,0,-723.2,0c0,0,0,-58.5,0,-58.5c0,0,723.2,0,723.2,0c0,0,0,58.5,0,58.5Z" class="g1_1" />
<path d="M112.5,20.1c0,0,4.5,0,4.5,0c0,0,0,1.2,0,1.2c0,0,-2.7,0,-2.7,0c0,0,0,1.5,0,1.5c0,0,2.5,0,2.5,0c0,0,0,1.3,0,1.3c0,0,-2.5,0,-2.5,0c0,0,0,2.4,0,2.4c0,0,-1.8,0,-1.8,0c0,0,0,-6.4,0,-6.4Z" class="g2_1" />
<path d="M118.6,22.1c0,0,1.6,0,1.6,0c0,0,0,4.4,0,4.4c0,0,-1.6,0,-1.6,0c0,0,0,-4.4,0,-4.4Zm-0.1,-2c0,0,1.8,0,1.8,0c0,0,0,1.2,0,1.2c0,0,-1.8,0,-1.8,0c0,0,0,-1.2,0,-1.2Z" class="g2_1" />
<path d="M122.2,23c0,0,-0.1,-0.9,-0.1,-0.9c0,0,1.7,0,1.7,0c0,0,0,0.9,0,0.9c0.4,-1,1.2,-1,1.6,-1c0,0,0,1.5,0,1.5c-0.2,-0.1,-0.3,-0.1,-0.4,-0.1c-1,0,-1.2,0.8,-1.2,1.2c0,0,0,1.9,0,1.9c0,0,-1.6,0,-1.6,0c0,0,0,-3.5,0,-3.5Z" class="g2_1" />
<path d="M128.3,25.1c0,0.1,0,0.2,0.1,0.4c0,0.1,0.2,0.3,0.5,0.3c0.3,0,0.5,-0.3,0.5,-0.5c0,-0.3,-0.3,-0.4,-0.7,-0.5c0,0,-0.9,-0.3,-0.9,-0.3c-0.3,0,-1.1,-0.2,-1.1,-1.2c0,-0.4,0.3,-0.8,0.6,-1c0.4,-0.3,0.9,-0.4,1.6,-0.4c0.9,0,1.9,0.3,2,1.5c0,0,-1.6,0,-1.6,0c0,-0.1,0,-0.3,0,-0.4c-0.1,-0.1,-0.2,-0.2,-0.5,-0.2c-0.3,0,-0.5,0.1,-0.5,0.4c0,0.2,0.2,0.3,0.4,0.4c0,0,1.2,0.3,1.2,0.3c0.5,0.1,1.1,0.4,1.1,1.2c0,1.6,-1.8,1.6,-2.2,1.6c-0.9,0,-2.2,-0.2,-2.2,-1.6c0,0,1.7,0,1.7,0Z" class="g2_1" />
<path d="M135.7,22.1c0,0,0,1,0,1c0,0,-1.1,0,-1.1,0c0,0,0,1.6,0,1.6c0,0.6,0,0.8,0.6,0.8c0.2,0,0.3,0,0.5,0c0,0,0,1,0,1c-0.3,0.1,-0.6,0.1,-1.1,0.1c-1.4,0,-1.6,-0.4,-1.6,-1.3c0,0,0,-2.2,0,-2.2c0,0,-0.9,0,-0.9,0c0,0,0,-1,0,-1c0,0,0.9,0,0.9,0c0,0,0,-0.7,0,-0.7c0,0,1.6,-0.7,1.6,-0.7c0,0,0,1.4,0,1.4c0,0,1.1,0,1.1,0Z" class="g2_1" />
<path d="M140.8,26.5c0,0,1.8,0,1.8,0c0,0,0,-6.4,0,-6.4c0,0,-1.8,0,-1.8,0c0,0,0,6.4,0,6.4Z" class="g2_1" />
<path d="M144.4,23c0,0,0,-0.9,0,-0.9c0,0,1.7,0,1.7,0c0,0,0,0.6,0,0.6c0.2,-0.3,0.6,-0.7,1.5,-0.7c1.6,0,1.6,1.2,1.6,1.8c0,0,0,2.7,0,2.7c0,0,-1.7,0,-1.7,0c0,0,0,-2.5,0,-2.5c0,-0.3,0,-1,-0.6,-1c-0.8,0,-0.8,0.8,-0.8,1c0,0,0,2.5,0,2.5c0,0,-1.7,0,-1.7,0c0,0,0,-3.5,0,-3.5Z" class="g2_1" />
<path d="M154.2,22.1c0,0,0,1,0,1c0,0,-1.1,0,-1.1,0c0,0,0,1.6,0,1.6c0,0.6,0,0.8,0.6,0.8c0.2,0,0.2,0,0.4,0c0,0,0,1,0,1c-0.2,0.1,-0.5,0.1,-1,0.1c-1.4,0,-1.7,-0.4,-1.7,-1.3c0,0,0,-2.2,0,-2.2c0,0,-0.8,0,-0.8,0c0,0,0,-1,0,-1c0,0,0.9,0,0.9,0c0,0,0,-0.7,0,-0.7c0,0,1.6,-0.7,1.6,-0.7c0,0,0,1.4,0,1.4c0,0,1.1,0,1.1,0Z" class="g2_1" />
<path d="M158.6,23.7c0,-0.2,-0.1,-0.9,-0.8,-0.9c-0.7,0,-0.8,0.7,-0.8,0.9c0,0,1.6,0,1.6,0M157,24.6c0,0.3,0,1.1,0.8,1.1c0.5,0,0.8,-0.2,0.8,-0.6c0,0,1.6,0,1.6,0c-0.1,1.1,-1.2,1.5,-2.4,1.5c-1.5,0,-2.4,-0.7,-2.4,-2.2c0,-1.5,0.8,-2.5,2.4,-2.5c1.3,0,1.8,0.5,2.2,1.1c0.1,0.4,0.2,0.8,0.2,1.6c0,0,-3.2,0,-3.2,0Z" class="g2_1" />
<path d="M161.8,23c0,0,0,-0.9,0,-0.9c0,0,1.6,0,1.6,0c0,0,0,0.9,0,0.9c0.4,-1,1.2,-1,1.6,-1c0,0,0,1.5,0,1.5c-0.2,-0.1,-0.2,-0.1,-0.4,-0.1c-1,0,-1.1,0.8,-1.1,1.2c0,0,0,1.9,0,1.9c0,0,-1.7,0,-1.7,0c0,0,0,-3.5,0,-3.5Z" class="g2_1" />
<path d="M166.4,23c0,0,0,-0.9,0,-0.9c0,0,1.6,0,1.6,0c0,0,0.1,0.6,0.1,0.6c0.2,-0.3,0.5,-0.7,1.4,-0.7c1.7,0,1.7,1.2,1.7,1.8c0,0,0,2.7,0,2.7c0,0,-1.7,0,-1.7,0c0,0,0,-2.5,0,-2.5c0,-0.3,0,-1,-0.7,-1c-0.7,0,-0.7,0.8,-0.7,1c0,0,0,2.5,0,2.5c0,0,-1.7,0,-1.7,0c0,0,0,-3.5,0,-3.5Z" class="g2_1" />
<path d="M174.4,25.1c0,0.3,0.2,0.6,0.6,0.6c0.2,0,0.5,-0.1,0.7,-0.4c0.1,-0.3,0.1,-0.7,0.1,-0.9c-0.7,0,-1.4,0,-1.4,0.7m1.4,1.4c0,-0.1,0,-0.3,0,-0.6c-0.2,0.3,-0.6,0.7,-1.5,0.7c-1.1,0,-1.6,-0.6,-1.6,-1.4c0,-1.2,1.2,-1.6,3.1,-1.6c0,-0.4,-0.1,-0.9,-0.6,-0.9c-0.3,0,-0.6,0.2,-0.6,0.7c0,0,-1.6,0,-1.6,0c0,-0.2,0,-0.6,0.4,-0.9c0.3,-0.4,1,-0.6,1.8,-0.6c0.4,0,1.3,0,1.8,0.5c0.3,0.3,0.4,0.7,0.4,1.2c0,0,0,2.1,0,2.1c0,0.3,0,0.4,0,0.8c0,0,-1.6,0,-1.6,0Z" class="g2_1" />
<path d="M182.2,22.1c0,0,0,1,0,1c0,0,-1.1,0,-1.1,0c0,0,0,1.6,0,1.6c0.1,0.6,0.1,0.8,0.7,0.8c0.1,0,0.2,0,0.4,0c0,0,0,1,0,1c-0.2,0.1,-0.5,0.1,-1.1,0.1c-1.3,0,-1.6,-0.4,-1.6,-1.3c0,0,0,-2.2,0,-2.2c0,0,-0.8,0,-0.8,0c0,0,0,-1,0,-1c0,0,0.8,0,0.8,0c0,0,0,-0.7,0,-0.7c0,0,1.7,-0.7,1.7,-0.7c0,0,0,1.4,0,1.4c0,0,1,0,1,0Z" class="g2_1" />
<path d="M183.8,22.1c0,0,1.7,0,1.7,0c0,0,0,4.4,0,4.4c0,0,-1.7,0,-1.7,0c0,0,0,-4.4,0,-4.4Zm0,-2c0,0,1.7,0,1.7,0c0,0,0,1.2,0,1.2c0,0,-1.7,0,-1.7,0c0,0,0,-1.2,0,-1.2Z" class="g2_1" />
<path d="M189.1,25.4c0.2,0.3,0.5,0.3,0.6,0.3c0.8,0,0.9,-0.8,0.9,-1.4c0,-0.8,-0.2,-1.4,-0.8,-1.4c-0.8,0,-0.9,0.7,-0.9,1.4c0,0.3,0,0.7,0.2,1.1m0.7,-3.5c1.4,0,2.6,0.7,2.6,2.3c0,0.7,-0.2,1.3,-0.7,1.8c-0.4,0.4,-0.9,0.7,-1.8,0.7c-1,0,-1.7,-0.3,-2.1,-0.7c-0.5,-0.5,-0.7,-1.2,-0.7,-1.7c0,-1.4,0.9,-2.4,2.7,-2.4Z" class="g2_1" />
<path d="M194,23c0,0,-0.1,-0.9,-0.1,-0.9c0,0,1.7,0,1.7,0c0,0,0,0.6,0,0.6c0.2,-0.3,0.6,-0.7,1.5,-0.7c1.7,0,1.7,1.2,1.7,1.8c0,0,0,2.7,0,2.7c0,0,-1.7,0,-1.7,0c0,0,0,-2.5,0,-2.5c0,-0.3,0,-1,-0.7,-1c-0.7,0,-0.7,0.8,-0.7,1c0,0,0,2.5,0,2.5c0,0,-1.7,0,-1.7,0c0,0,0,-3.5,0,-3.5Z" class="g2_1" />
<path d="M202,25.1c0,0.3,0.2,0.6,0.6,0.6c0.2,0,0.5,-0.1,0.6,-0.4c0.2,-0.3,0.2,-0.7,0.2,-0.9c-0.7,0,-1.4,0,-1.4,0.7m1.4,1.4c0,-0.1,0,-0.3,0,-0.6c-0.2,0.3,-0.6,0.7,-1.5,0.7c-1.1,0,-1.6,-0.6,-1.6,-1.4c0,-1.2,1.1,-1.6,3.1,-1.6c0,-0.4,-0.1,-0.9,-0.6,-0.9c-0.3,0,-0.6,0.2,-0.6,0.7c0,0,-1.6,0,-1.6,0c0,-0.2,0,-0.6,0.4,-0.9c0.3,-0.4,1,-0.6,1.8,-0.6c0.4,0,1.3,0,1.7,0.5c0.3,0.3,0.4,0.7,0.4,1.2c0,0,0,2.1,0,2.1c0,0.3,0.1,0.4,0.1,0.8c0,0,-1.6,0,-1.6,0Z" class="g2_1" />
<path d="M206.8,26.5c0,0,1.6,0,1.6,0c0,0,0,-6.4,0,-6.4c0,0,-1.6,0,-1.6,0c0,0,0,6.4,0,6.4Z" class="g2_1" />
<path d="M215.2,24.5c0,0.2,0,0.9,0.6,0.9c0.7,0,0.7,-0.6,0.7,-1c0,0,0,-4.3,0,-4.3c0,0,1.8,0,1.8,0c0,0,0,4.3,0,4.3c0,0.2,0,1,-0.5,1.5c-0.5,0.7,-1.4,0.8,-2,0.8c-0.8,0,-1.6,-0.2,-2.1,-0.9c-0.3,-0.4,-0.3,-1,-0.3,-1.3c0,0,1.8,0,1.8,0Z" class="g2_1" />
<path d="M221.8,25.4c0.2,0.3,0.5,0.3,0.6,0.3c0.8,0,0.9,-0.8,0.9,-1.4c0,-0.8,-0.2,-1.4,-0.8,-1.4c-0.8,0,-0.9,0.7,-0.9,1.4c0,0.3,0,0.7,0.2,1.1m0.7,-3.5c1.4,0,2.6,0.7,2.6,2.3c0,0.7,-0.2,1.3,-0.7,1.8c-0.4,0.4,-0.9,0.7,-1.8,0.7c-1,0,-1.7,-0.3,-2.1,-0.7c-0.5,-0.5,-0.7,-1.2,-0.7,-1.7c0,-1.4,0.9,-2.4,2.7,-2.4Z" class="g2_1" />
<path d="M228.4,22.1c0,0,0,2.6,0,2.6c0,0.2,0,0.8,0.6,0.8c0.7,0,0.7,-0.6,0.7,-0.8c0,0,0,-2.6,0,-2.6c0,0,1.7,0,1.7,0c0,0,0,3.7,0,3.7c0,0.3,0,0.4,0,0.7c0,0,-1.6,0,-1.6,0c0,0,0,-0.7,0,-0.7c-0.5,0.8,-1.1,0.8,-1.5,0.8c-1.5,0,-1.6,-1.2,-1.6,-2c0,0,0,-2.5,0,-2.5c0,0,1.7,0,1.7,0Z" class="g2_1" />
<path d="M233.3,23c0,0,0,-0.9,0,-0.9c0,0,1.6,0,1.6,0c0,0,0,0.9,0,0.9c0.4,-1,1.2,-1,1.6,-1c0,0,0,1.5,0,1.5c-0.2,-0.1,-0.2,-0.1,-0.3,-0.1c-1.1,0,-1.2,0.8,-1.2,1.2c0,0,0,1.9,0,1.9c0,0,-1.7,0,-1.7,0c0,0,0,-3.5,0,-3.5Z" class="g2_1" />
<path d="M237.9,23c0,0,0,-0.9,0,-0.9c0,0,1.7,0,1.7,0c0,0,0,0.6,0,0.6c0.2,-0.3,0.5,-0.7,1.5,-0.7c1.6,0,1.6,1.2,1.6,1.8c0,0,0,2.7,0,2.7c0,0,-1.7,0,-1.7,0c0,0,0,-2.5,0,-2.5c0,-0.3,0,-1,-0.7,-1c-0.7,0,-0.7,0.8,-0.7,1c0,0,0,2.5,0,2.5c0,0,-1.7,0,-1.7,0c0,0,0,-3.5,0,-3.5Z" class="g2_1" />
<path d="M245.9,25.1c0,0.3,0.2,0.6,0.6,0.6c0.2,0,0.5,-0.1,0.7,-0.4c0.1,-0.3,0.1,-0.7,0.1,-0.9c-0.7,0,-1.4,0,-1.4,0.7m1.5,1.4c-0.1,-0.1,-0.1,-0.3,-0.1,-0.6c-0.2,0.3,-0.6,0.7,-1.5,0.7c-1.1,0,-1.6,-0.6,-1.6,-1.4c0,-1.2,1.2,-1.6,3.1,-1.6c0,-0.4,0,-0.9,-0.6,-0.9c-0.3,0,-0.6,0.2,-0.6,0.7c0,0,-1.6,0,-1.6,0c0,-0.2,0,-0.6,0.4,-0.9c0.3,-0.4,1,-0.6,1.8,-0.6c0.5,0,1.3,0,1.8,0.5c0.3,0.3,0.4,0.7,0.4,1.2c0,0,0,2.1,0,2.1c0,0.3,0,0.4,0.1,0.8c0,0,-1.6,0,-1.6,0Z" class="g2_1" />
<path d="M250.7,26.5c0,0,1.7,0,1.7,0c0,0,0,-6.4,0,-6.4c0,0,-1.7,0,-1.7,0c0,0,0,6.4,0,6.4Z" class="g2_1" />
<path d="M259.6,25.4c0.2,0.3,0.5,0.3,0.7,0.3c0.7,0,0.8,-0.8,0.8,-1.4c0,-0.8,-0.1,-1.4,-0.8,-1.4c-0.8,0,-0.9,0.7,-0.9,1.4c0,0.3,0,0.7,0.2,1.1m0.7,-3.5c1.4,0,2.6,0.7,2.6,2.3c0,0.7,-0.2,1.3,-0.7,1.8c-0.3,0.4,-0.9,0.7,-1.8,0.7c-1,0,-1.7,-0.3,-2.1,-0.7c-0.5,-0.5,-0.6,-1.2,-0.6,-1.7c0,-1.4,0.8,-2.4,2.6,-2.4Z" class="g2_1" />
<path d="M267.8,21.2c-0.1,0,-0.3,-0.1,-0.5,-0.1c-0.7,0,-0.7,0.6,-0.7,1c0,0,1.1,0,1.1,0c0,0,0,1.1,0,1.1c0,0,-1.1,0,-1.1,0c0,0,0,3.3,0,3.3c0,0,-1.6,0,-1.6,0c0,0,0,-3.3,0,-3.3c0,0,-0.9,0,-0.9,0c0,0,0,-1.1,0,-1.1c0,0,0.9,0,0.9,0c0,-1.1,0,-2,1.8,-2c0.4,0,0.8,0,1,0c0,0,0,1.1,0,1.1Z" class="g2_1" />
<path d="M276,24.1c0,0,-0.9,-2.8,-0.9,-2.8c0,0,-0.9,2.8,-0.9,2.8c0,0,1.8,0,1.8,0m-1.9,-4c0,0,2.2,0,2.2,0c0,0,2.6,6.4,2.6,6.4c0,0,-2.1,0,-2.1,0c0,0,-0.4,-1.3,-0.4,-1.3c0,0,-2.6,0,-2.6,0c0,0,-0.4,1.3,-0.4,1.3c0,0,-1.8,0,-1.8,0c0,0,2.5,-6.4,2.5,-6.4Z" class="g2_1" />
<path d="M280.2,23c0,0,-0.1,-0.9,-0.1,-0.9c0,0,1.7,0,1.7,0c0,0,0,0.6,0,0.6C282,22.4,282.4,22,283.3,22c1.7,0,1.7,1.2,1.7,1.8c0,0,0,2.7,0,2.7c0,0,-1.7,0,-1.7,0c0,0,0,-2.5,0,-2.5c0,-0.3,0,-1,-0.7,-1c-0.8,0,-0.8,0.8,-0.8,1c0,0,0,2.5,0,2.5c0,0,-1.6,0,-1.6,0c0,0,0,-3.5,0,-3.5Z" class="g2_1" />
<path d="M289.9,24.3c0,-0.8,-0.2,-1.4,-0.8,-1.4c-0.7,0,-0.8,1,-0.8,1.4c0,0.4,0.1,1.4,0.8,1.4c0.6,0,0.8,-0.7,0.8,-1.4m1.7,-4.2c0,0,0,5.3,0,5.3c0,0.4,0,0.8,0.1,1.1c0,0,-1.6,0,-1.6,0c0,0,-0.1,-0.6,-0.1,-0.6c-0.2,0.2,-0.5,0.8,-1.5,0.8c-1.5,0,-2,-1.3,-2,-2.4c0,-1,0.3,-1.4,0.6,-1.7C287.5,22.1,288,22,288.6,22c0.7,0,1,0.3,1.3,0.6c0,0,0,-2.5,0,-2.5c0,0,1.7,0,1.7,0Z" class="g2_1" />
<path d="M293.4,23c0,0,0,-0.9,0,-0.9c0,0,1.6,0,1.6,0c0,0,0,0.9,0,0.9c0.4,-1,1.2,-1,1.6,-1c0,0,0,1.5,0,1.5c-0.2,-0.1,-0.2,-0.1,-0.3,-0.1c-1.1,0,-1.2,0.8,-1.2,1.2c0,0,0,1.9,0,1.9c0,0,-1.7,0,-1.7,0c0,0,0,-3.5,0,-3.5Z" class="g2_1" />
<path d="M299.6,25.4c0.2,0.3,0.5,0.3,0.6,0.3c0.8,0,0.9,-0.8,0.9,-1.4c0,-0.8,-0.2,-1.4,-0.9,-1.4c-0.7,0,-0.8,0.7,-0.8,1.4c0,0.3,0,0.7,0.2,1.1m0.6,-3.5c1.5,0,2.6,0.7,2.6,2.3c0,0.7,-0.2,1.3,-0.6,1.8c-0.4,0.4,-0.9,0.7,-1.9,0.7c-1,0,-1.6,-0.3,-2,-0.7c-0.6,-0.5,-0.7,-1.2,-0.7,-1.7c0,-1.4,0.9,-2.4,2.6,-2.4Z" class="g2_1" />
<path d="M304.5,26.5c0,0,1.7,0,1.7,0c0,0,0,-6.4,0,-6.4c0,0,-1.7,0,-1.7,0c0,0,0,6.4,0,6.4Z" class="g2_1" />
<path d="M309.8,25.4c0.2,0.3,0.5,0.3,0.7,0.3c0.7,0,0.8,-0.8,0.8,-1.4c0,-0.8,-0.1,-1.4,-0.8,-1.4c-0.8,0,-0.9,0.7,-0.9,1.4c0,0.3,0,0.7,0.2,1.1m0.7,-3.5c1.4,0,2.6,0.7,2.6,2.3c0,0.7,-0.2,1.3,-0.7,1.8c-0.4,0.4,-0.9,0.7,-1.8,0.7c-1,0,-1.7,-0.3,-2.1,-0.7c-0.5,-0.5,-0.7,-1.2,-0.7,-1.7c0,-1.4,0.9,-2.4,2.7,-2.4Z" class="g2_1" />
<path d="M317.1,22.9c-0.6,0,-0.9,0.5,-0.9,1.3c0,0.4,0.1,1.2,0.8,1.2c0.8,0,0.9,-0.9,0.9,-1.3c0,-0.2,0,-1.2,-0.8,-1.2M319.5,22c0,0,0,4.2,0,4.2c0,0.5,-0.1,1.2,-0.7,1.6c-0.4,0.3,-0.9,0.5,-1.8,0.5c-0.5,0,-1.4,-0.1,-1.9,-0.5c-0.4,-0.4,-0.4,-0.8,-0.4,-1c0,0,1.6,0,1.6,0c0,0.3,0.2,0.6,0.7,0.6c0.8,0,0.9,-0.7,0.9,-1.1c0,0,0,-0.6,0,-0.6c-0.5,0.7,-1.2,0.7,-1.5,0.7c-0.9,0,-1.9,-0.6,-1.9,-2.2c0,-1.2,0.6,-2.3,2,-2.3c0.8,0,1.2,0.4,1.5,0.8c0,0,0,-0.7,0,-0.7c0,0,1.5,0,1.5,0Z" class="g2_1" />
<path d="M323.6,28.2c0,0,-1.5,0,-1.5,0c0,0,0.6,-1.5,0.6,-1.5c0,0,-1.9,-4.6,-1.9,-4.6c0,0,1.8,0,1.8,0c0,0,0.9,3.1,0.9,3.1c0,0,1,-3.1,1,-3.1c0,0,1.6,0,1.6,0c0,0,-2.5,6.1,-2.5,6.1Z" class="g2_1" />
<path d="M118.7,58c0,2.2,1.5,4.7,4.6,4.7c1.8,0,3.2,-0.9,4.1,-1.9c1.6,-2.1,1.8,-4.6,1.8,-8c-6.1,-0.6,-10.5,1.4,-10.5,5.2m11.7,10.1c-0.3,-2,-0.3,-3.5,-0.3,-4.5c-3.6,5.3,-7.9,5.3,-9.8,5.3c-4.7,0,-6.8,-1.4,-8.1,-2.6c-1.9,-1.9,-2.8,-4.6,-2.8,-7.2c0,-2.5,0.9,-7.3,6.9,-10.1c4,-1.8,9.7,-1.8,12.9,-1.8c0,-2.1,-0.1,-3.1,-0.5,-4.3c-0.8,-2.4,-3.3,-2.7,-4.2,-2.7c-1.4,0,-2.8,0.6,-3.6,1.8c-0.7,1.1,-0.7,2.1,-0.7,2.9c0,0,-9.4,0,-9.4,0c0.1,-1.7,0.3,-5.2,3.7,-7.7c3,-2.1,6.8,-2.6,9.8,-2.6c2.8,0,8.4,0.4,11.6,4.2c2.2,2.6,2.3,6.5,2.3,8c0,0,0.1,13,0.1,13c0,2.8,0.2,5.6,0.7,8.3c0,0,-8.6,0,-8.6,0Z" class="g2_1" />
<path d="M146.9,35.1c0,0,12.6,0,12.6,0c0,0,11.1,24.6,11.1,24.6c0,0,-0.1,-24.6,-0.1,-24.6c0,0,8,0,8,0c0,0,0,33,0,33c0,0,-12.3,0,-12.3,0c0,0,-11.4,-25.6,-11.4,-25.6c0,0,0.1,25.6,0.1,25.6c0,0,-8,0,-8,0c0,0,0,-33,0,-33Z" class="g2_1" />
<path d="M196.3,61.7c0,0,4,0,4,0c6,0,9.9,-2.6,9.9,-10.3c0,-10,-7.5,-10,-10.3,-10c0,0,-3.6,0,-3.6,0c0,0,0,20.3,0,20.3M187,35.1c0,0,13.9,0,13.9,0c3.9,0,9.1,0.4,12.6,2.8c4.8,3.3,6.2,8.7,6.2,13.6c0,7.3,-2.4,12.7,-9,15.3c-3.4,1.3,-7.4,1.3,-9.7,1.3c0,0,-14,0,-14,0c0,0,0,-33,0,-33Z" class="g2_1" />
<path d="M235.6,49.3c0,0,3.5,0,3.5,0c2,0,3,0,3.8,-0.3c2,-0.6,2.4,-2.7,2.4,-3.7c0,-4.1,-3.6,-4.1,-6.2,-4.1c0,0,-3.5,0,-3.5,0c0,0,0,8.1,0,8.1M226.5,35.1c0,0,15.2,0,15.2,0c5.9,0,8.2,0.4,10.1,2.4c1.1,1,2.3,2.8,2.3,6.4c0,3.6,-1.4,5.2,-3,6.1c-2.1,1.3,-4.1,1.6,-5,1.7c0,0,0,0.2,0,0.2c6.4,0.2,6.8,3,7.5,8.1c0.3,2.2,0.8,5.8,1.5,8.1c0,0,-9.9,0,-9.9,0c-0.5,-2,-0.7,-4.5,-1.1,-7.5c-0.4,-3.9,-0.5,-5.4,-4.6,-5.4c0,0,-3.9,0,-3.9,0c0,0,0,12.9,0,12.9c0,0,-9.1,0,-9.1,0c0,0,0,-33,0,-33Z" class="g2_1" />
<path d="M276.2,62.2c6.5,0,7.6,-6.1,7.6,-10.6c0,-4.6,-1.1,-6.9,-2.1,-8.4c-1.3,-1.8,-3.4,-2.4,-5.4,-2.4c-6.1,0,-7.7,5.2,-7.7,10.9c0,5.3,1.5,10.5,7.6,10.5M263.7,38.8c4.2,-4.2,10.5,-4.6,12.9,-4.6c13.1,0,16.7,9.5,16.7,17.5c0,13.1,-9.3,17.2,-17.2,17.2c-8.7,0,-16.9,-4.9,-16.9,-17.2c0,-2.1,0.4,-8.7,4.5,-12.9Z" class="g2_1" />
<path d="M299.4,35.1c0,0,9.2,0,9.2,0c0,0,0,26.5,0,26.5c0,0,14.8,0,14.8,0c0,0,0,6.5,0,6.5c0,0,-24,0,-24,0c0,0,0,-33,0,-33Z" class="g2_1" />
<path d="M342.1,62.2c6.6,0,7.7,-6.1,7.7,-10.6c0,-4.6,-1.1,-6.9,-2.1,-8.4c-1.4,-1.8,-3.5,-2.4,-5.5,-2.4c-6,0,-7.7,5.2,-7.7,10.9c0,5.3,1.6,10.5,7.6,10.5M329.6,38.8c4.2,-4.2,10.5,-4.6,12.9,-4.6c13.1,0,16.7,9.5,16.7,17.5c0,13.1,-9.3,17.2,-17.2,17.2c-8.7,0,-16.9,-4.9,-16.9,-17.2c0,-2.1,0.4,-8.7,4.5,-12.9Z" class="g2_1" />
<path d="M388.7,45c-0.5,-3.4,-3.2,-4.4,-5.7,-4.4c-6.2,0,-8.5,5.5,-8.5,11c0,7.7,4.2,11,9.8,11c1.7,0,3.3,-0.3,5,-0.6c0,0,0,-6.4,0,-6.4c0,0,-7,0,-7,0c0,0,0,-6.2,0,-6.2c0,0,15.6,0,15.6,0c0,0,0,17.6,0,17.6c-4.8,1.1,-9.7,1.8,-14.6,1.8c-3.5,0,-8.4,-0.5,-12.3,-3.4C366.8,62.2,364.9,57,364.9,51.8c0,-4,1.2,-9.5,4.9,-13.1c4,-3.7,9.7,-4.4,13.7,-4.4c5.1,0,9.4,1.1,12,3.8c2.4,2.6,2.5,5.3,2.5,6.9c0,0,-9.3,0,-9.3,0Z" class="g2_1" />
<path d="M404.8,68.1c0,0,9.4,0,9.4,0c0,0,0,-33,0,-33c0,0,-9.4,0,-9.4,0c0,0,0,33,0,33Z" class="g2_1" />
<path d="M430.2,58c0,2.2,1.4,4.7,4.6,4.7c1.7,0,3.2,-0.9,4.1,-1.9c1.6,-2.1,1.8,-4.6,1.8,-8c-6.2,-0.6,-10.5,1.4,-10.5,5.2m11.7,10.1c-0.3,-2,-0.3,-3.5,-0.3,-4.5c-3.6,5.3,-8,5.3,-9.8,5.3c-4.7,0,-6.8,-1.4,-8.1,-2.6c-1.9,-1.9,-2.8,-4.6,-2.8,-7.2c0,-2.5,0.9,-7.3,6.9,-10.1c4,-1.8,9.7,-1.8,12.9,-1.8c0,-2.1,-0.1,-3.1,-0.5,-4.3c-0.8,-2.4,-3.3,-2.7,-4.2,-2.7c-1.4,0,-2.8,0.6,-3.6,1.8c-0.8,1.1,-0.8,2.1,-0.8,2.9c0,0,-9.3,0,-9.3,0c0.1,-1.7,0.3,-5.2,3.7,-7.7c2.9,-2.1,6.7,-2.6,9.8,-2.6c2.7,0,8.4,0.4,11.6,4.2c2.2,2.6,2.3,6.5,2.3,8c0,0,0.1,13,0.1,13c0,2.8,0.1,5.6,0.7,8.3c0,0,-8.6,0,-8.6,0Z" class="g2_1" />
</svg>