<?xml version="1.0" encoding="UTF-8" standalone="no"?>
<!DOCTYPE svg PUBLIC "-//W3C//DTD SVG 1.1//EN"
"http://www.w3.org/Graphics/SVG/1.1/DTD/svg11.dtd">
<svg version="1.1" xmlns="http://www.w3.org/2000/svg" xmlns:xlink="http://www.w3.org/1999/xlink">
<defs>
<clipPath id="c0_6"><path d="M756.5,330.5l0,-19l49,0l0,19Z" /></clipPath>
<style type="text/css"><![CDATA[
.g2_6{
fill: none;
stroke: #231F20;
stroke-width: 1;
stroke-linecap: round;
stroke-linejoin: round;
}
.g3_6{
fill: #231F20;
}
.g1_6{
fill: #4D4D4D;
stroke: #4D4D4D;
stroke-width: 1;
stroke-linecap: round;
stroke-linejoin: round;
}
]]></style>
</defs>
<path fill-rule="evenodd" d="M453.5,299.5l352,0l0,3l-352,0" class="g1_6" />
<path d="M769.5,327.5l0,-2" class="g2_6" />
<path d="M767.9,314.9c-0.3,-0.2,-0.6,-0.3,-0.9,-0.3c-0.6,-0.2,-1.1,-0.2,-1.7,-0.2c-0.9,0,-1.7,0.1,-2.5,0.4c-0.1,0.1,-0.3,0.1,-0.4,0.2c-0.3,0.2,-0.7,0.4,-1,0.6l0,11.8l3.9,-3.2c0,0,3.9,3.2,3.9,3.2l0,-11.8c-0.4,-0.3,-0.8,-0.5,-1.3,-0.7Z" class="g3_6" />
<path d="M779.1,324.1c-1.3,0,-2.3,-1,-2.3,-2.3c0,-1.2,1,-2.2,2.3,-2.2c0.4,0,0.7,0.1,1.1,0.2l0,-0.3l0.3,0l0,1.1l-0.3,0l0,-0.3c-0.4,-0.3,-0.7,-0.4,-1.1,-0.4c-1,0,-1.7,0.8,-1.7,1.9c0,1.1,0.8,1.9,1.8,1.9c0.3,0,0.6,-0.1,1,-0.3l0,-0.5l0.3,0l0,0.9c-0.5,0.2,-0.9,0.3,-1.4,0.3Z" class="g3_6" />
<path d="M782.7,321.6c-0.2,-0.1,-0.2,-0.2,-0.3,-0.2c-0.1,0,-0.2,0.2,-0.6,0.6l0,1.7l0.6,0l0,0.3l-1.6,0l0,-0.3l0.5,0l0,-2.3l-0.6,0l0,-0.2l1,-0.3l0.1,0l0,0.8c0.5,-0.6,0.6,-0.8,0.9,-0.8c0,0,0.1,0.1,0.2,0.1l0.2,0.2l-0.4,0.4Z" class="g3_6" />
<path d="M784.5,321.2c-0.5,0,-0.9,0.6,-0.9,1.3c0,0.7,0.4,1.3,0.9,1.3c0.5,0,0.9,-0.6,0.9,-1.3c0,-0.7,-0.4,-1.3,-0.9,-1.3Zm0,2.9c-0.8,0,-1.4,-0.7,-1.4,-1.6c0,-0.9,0.6,-1.6,1.4,-1.6c0.8,0,1.4,0.7,1.4,1.6c0,0.9,-0.6,1.6,-1.4,1.6Z" class="g3_6" />
<path d="M787.5,324.1c-0.4,0,-0.6,-0.1,-0.8,-0.3l0,0.2l-0.3,0l0,-0.9l0.3,0l0,0.2c0,0.3,0.4,0.5,0.8,0.5c0.3,0,0.6,-0.2,0.6,-0.4c0,-0.3,-0.2,-0.4,-0.8,-0.7c-0.7,-0.3,-0.9,-0.5,-0.9,-0.9c0,-0.5,0.4,-0.9,1,-0.9c0.3,0,0.5,0.1,0.7,0.3l0,-0.3l0.3,0l-0.1,1l-0.3,0c0,-0.1,0,-0.2,0,-0.3c0,-0.2,-0.3,-0.4,-0.6,-0.4c-0.4,0,-0.6,0.2,-0.6,0.4c0,0.3,0.1,0.4,0.9,0.7c0.6,0.2,0.8,0.4,0.8,0.9c0,0.5,-0.4,0.9,-1,0.9Z" class="g3_6" />
<path d="M790.1,324.1c-0.3,0,-0.6,-0.1,-0.8,-0.3l0,0.2l-0.2,0l0,-0.9l0.3,0l0,0.2c0,0.3,0.3,0.5,0.7,0.5c0.4,0,0.7,-0.2,0.7,-0.4c0,-0.3,-0.2,-0.4,-0.9,-0.7c-0.6,-0.3,-0.9,-0.5,-0.9,-0.9c0,-0.5,0.5,-0.9,1,-0.9c0.3,0,0.6,0.1,0.7,0.3l0.1,-0.3l0.3,0l-0.2,1l-0.3,0c0,-0.1,0.1,-0.2,0.1,-0.3c0,-0.2,-0.3,-0.4,-0.7,-0.4c-0.3,0,-0.5,0.2,-0.5,0.4c0,0.3,0,0.4,0.8,0.7c0.6,0.2,0.8,0.4,0.8,0.9c0,0.5,-0.4,0.9,-1,0.9Z" class="g3_6" />
<path d="M795.2,324l0,-0.3l0.5,0l0,-3.2l-1.6,3.5l-1.6,-3.6l0,3.3l0.5,0l0,0.3l-1.4,0l0,-0.3l0.5,0l0,-3.8l-0.5,0l0,-0.2l1.1,0l1.5,3.3l1.5,-3.3l1,0l0,0.2l-0.5,0l0,3.8l0.5,0l0,0.3l-1.5,0Z" class="g3_6" />
<path d="M798.7,322.6l-1.1,0.3l0,0.3c0,0.3,0.2,0.5,0.4,0.5c0.3,0,0.4,-0.1,0.7,-0.4l0,-0.7Zm0.6,1.4c-0.1,0,-0.2,0,-0.3,0c-0.2,0,-0.3,-0.1,-0.3,-0.4c-0.3,0.3,-0.5,0.5,-0.8,0.5c-0.5,0,-0.8,-0.4,-0.8,-0.8c0,-0.3,0.2,-0.6,0.5,-0.7l1.1,-0.2l0,-0.8c0,-0.2,-0.2,-0.4,-0.4,-0.4c-0.2,0,-0.3,0,-0.4,0.1l0,0.3l-0.6,0.2c-0.1,-0.1,-0.1,-0.1,-0.1,-0.2c0,-0.4,0.5,-0.7,1.1,-0.7c0.5,0,0.9,0.3,0.9,0.8l0,2l0.5,0l0,0.1l-0.4,0.2Z" class="g3_6" />
<path d="M801.8,321.6c-0.1,-0.1,-0.2,-0.2,-0.2,-0.2c-0.2,0,-0.3,0.2,-0.6,0.6l0,1.7l0.6,0l0,0.3l-1.6,0l0,-0.3l0.5,0l0,-2.3l-0.6,0l0,-0.2l0.9,-0.3l0.2,0l0,0.8c0.4,-0.6,0.6,-0.8,0.8,-0.8c0.1,0,0.2,0.1,0.2,0.1l0.2,0.2l-0.4,0.4Z" class="g3_6" />
<g clip-path="url(#c0_6)">
<path d="M804.6,324l-1.4,-1.6l1.2,-1.1l-0.4,0l0,-0.3l1.3,0l0,0.3l-0.5,0l-1.1,0.9l1.3,1.5l0.4,0l0,0.3l-0.8,0Zm-2.4,0l0,-0.3l0.5,0l0,-4.1l-0.6,0l0,-0.2l0.9,-0.2l0.2,0l0,4.5l0.5,0l0,0.3l-1.5,0Z" class="g3_6" />
<path fill-rule="evenodd" d="M769.9,327l0,1.8l-1.3,-1c-1,0.5,-2.1,0.8,-3.3,0.8c-1.2,0,-2.3,-0.3,-3.4,-0.9c0.1,0,0.1,0,0.1,0l-1.2,1l0,-1.7c-1.7,-1.3,-2.9,-3.5,-2.9,-5.8c0,-3,1.7,-5.6,4.2,-6.8c1.6,-0.7,3.4,-0.8,5,-0.4c3.2,0.8,5.6,3.7,5.6,7.2c0,2.3,-1.1,4.4,-2.8,5.8Zm-4.6,-15c-5.1,0,-9.2,4.1,-9.2,9.2c0,5,4.1,9.1,9.2,9.1c5.1,0,9.2,-4.1,9.2,-9.1c0,-5.1,-4.1,-9.2,-9.2,-9.2Z" class="g3_6" />
</g>
</svg>