<?xml version="1.0" encoding="UTF-8" standalone="no"?>
<!DOCTYPE svg PUBLIC "-//W3C//DTD SVG 1.1//EN"
"http://www.w3.org/Graphics/SVG/1.1/DTD/svg11.dtd">
<svg version="1.1" xmlns="http://www.w3.org/2000/svg" xmlns:xlink="http://www.w3.org/1999/xlink">
<defs>
<clipPath id="c0_1"><path d="M69.5,1092.5l0,-42l785,0l0,42Z" /></clipPath>
<clipPath id="c1_1"><path d="M35.5,60.5l0,-22l23,0l0,22Z" /></clipPath>
<style type="text/css"><![CDATA[
.g2_1{
fill: #E8E8E9;
}
.g5_1{
fill: #231F20;
}
.g3_1{
fill: none;
stroke: #231F20;
stroke-width: 1;
stroke-linecap: round;
stroke-linejoin: round;
}
.g4_1{
fill: none;
stroke: #231F20;
stroke-width: 1;
stroke-linecap: butt;
stroke-linejoin: miter;
}
.g1_1{
fill: #E6E7E8;
}
]]></style>
</defs>
<path d="M69,483l785,0l0,-219L69,264l0,219Z" class="g1_1" />
<path d="M69,546l785,0l0,-79L69,467l0,79Z" class="g1_1" />
<path d="M69,273l785,0l0,-9L69,264l0,9Z" class="g1_1" />
<path d="M69,290l18,0l0,-17l-18,0l0,17Z" class="g1_1" />
<path d="M836,290l18,0l0,-17l-18,0l0,17Z" class="g1_1" />
<path d="M69,307l18,0l0,-17l-18,0l0,17Z" class="g1_1" />
<path d="M836,307l18,0l0,-17l-18,0l0,17Z" class="g1_1" />
<path d="M69,324l18,0l0,-17l-18,0l0,17Z" class="g1_1" />
<path d="M836,324l18,0l0,-17l-18,0l0,17Z" class="g1_1" />
<path d="M69,340l18,0l0,-16l-18,0l0,16Z" class="g1_1" />
<path d="M836,340l18,0l0,-16l-18,0l0,16Z" class="g1_1" />
<path d="M69,357l18,0l0,-17l-18,0l0,17Z" class="g1_1" />
<path d="M836,357l18,0l0,-17l-18,0l0,17Z" class="g1_1" />
<path d="M69,374l18,0l0,-17l-18,0l0,17Z" class="g1_1" />
<path d="M836,374l18,0l0,-17l-18,0l0,17Z" class="g1_1" />
<path d="M69,391l18,0l0,-17l-18,0l0,17Z" class="g1_1" />
<path d="M836,391l18,0l0,-17l-18,0l0,17Z" class="g1_1" />
<path d="M69,407l18,0l0,-16l-18,0l0,16Z" class="g1_1" />
<path d="M836,407l18,0l0,-16l-18,0l0,16Z" class="g1_1" />
<path d="M69,424l18,0l0,-17l-18,0l0,17Z" class="g1_1" />
<path d="M836,424l18,0l0,-17l-18,0l0,17Z" class="g1_1" />
<path d="M69,441l18,0l0,-17l-18,0l0,17Z" class="g1_1" />
<path d="M836,441l18,0l0,-17l-18,0l0,17Z" class="g1_1" />
<path d="M69,458l18,0l0,-17l-18,0l0,17Z" class="g1_1" />
<path d="M836,458l18,0l0,-17l-18,0l0,17Z" class="g1_1" />
<path d="M69,483l785,0l0,-9L69,474l0,9Z" class="g1_1" />
<path d="M69,474l18,0l0,-16l-18,0l0,16Z" class="g1_1" />
<path d="M836,474l18,0l0,-16l-18,0l0,16Z" class="g1_1" />
<path d="M69,491l785,0l0,-24L69,467l0,24Z" class="g1_1" />
<path d="M69,508l18,0l0,-17l-18,0l0,17Z" class="g1_1" />
<path d="M836,508l18,0l0,-17l-18,0l0,17Z" class="g1_1" />
<path d="M69,517l785,0l0,-9L69,508l0,9Z" class="g2_1" />
<path d="M69,546l785,0l0,-12L69,534l0,12Z" class="g2_1" />
<path d="M69,534l18,0l0,-17l-18,0l0,17Z" class="g2_1" />
<path d="M836,534l18,0l0,-17l-18,0l0,17Z" class="g2_1" />
<g clip-path="url(#c0_1)">
<path d="M69.5,1050.5l785,0" class="g3_1" />
</g>
<path d="M35.5,69.5l412,0" class="g4_1" />
<path d="M47.4,46.3c-0.7,0,-1.2,0.3,-1.4,0.5c-0.1,0.1,-0.2,0.4,-0.2,0.9l0,2.7c0,0.5,0.2,0.7,0.5,0.9c0.3,0.3,0.8,0.4,1.2,0.4c1.3,0,2.1,-1.2,2.1,-2.8c0,-1.3,-0.8,-2.6,-2.2,-2.6Z" class="g5_1" />
<path d="M54.2,49.6c0.9,0,1.4,-0.7,1.4,-1.6c0,-1.1,-0.5,-2,-1.5,-2c-0.8,0,-1.3,0.7,-1.3,1.8c0,1.1,0.7,1.8,1.4,1.8Z" class="g5_1" />
<g clip-path="url(#c1_1)">
<path d="M46.9,52.2c-0.2,0,-0.7,0,-0.8,-0.1c-0.2,0.1,-0.3,0.1,-0.3,0.5l0,1.6c0,1.1,0.1,1.3,0.6,1.3l0.7,0.1C47.2,55.7,47.2,56,47,56c-0.7,0,-1.2,0,-1.8,0c-0.6,0,-1,0,-1.5,0c-0.1,0,-0.1,-0.3,0,-0.4l0.3,0c0.6,-0.1,0.6,-0.3,0.6,-1.4l0,-6.7c0,-0.6,0,-0.7,-0.4,-1L44.1,46.4C44,46.3,44,46.2,44.1,46.1c0.4,-0.2,1.1,-0.5,1.6,-0.8c0.1,0,0.1,0,0.2,0.1c-0.1,0.3,-0.1,0.5,-0.1,0.7c0,0.1,0,0.2,0.1,0.2c0.3,-0.1,1.3,-0.7,2.3,-0.7c1.6,0,2.7,1.3,2.7,2.8c0,2.2,-1.7,3.8,-4,3.8m7,4c-2,0,-2.7,-1,-2.7,-1.8c0,-0.3,0,-0.5,0.2,-0.6c0.2,-0.3,0.7,-0.7,1.1,-1.1c0.1,-0.1,0.2,-0.2,0.1,-0.3C52,52.2,51.4,51.7,51.4,51.1c0,-0.1,0.1,-0.1,0.2,-0.2c0.3,-0.2,0.6,-0.5,0.9,-0.8c0.1,-0.1,0.2,-0.2,0.2,-0.3C52.1,49.6,51.4,48.9,51.4,47.9c0,-1.3,1.2,-2.3,2.7,-2.3c0.6,0,1.2,0.1,1.5,0.3c0.6,0.2,0.7,0.2,1,0.2l1.3,0c0.2,0.1,0.2,0.6,-0.1,0.7l-1.1,0c0,0.2,0,0.5,0,0.8c0,1.1,-0.7,2.5,-2.7,2.5C53.7,50.1,53.5,50,53.3,50c-0.2,0.1,-0.7,0.4,-0.7,0.9c0,0.3,0.3,0.6,1.1,0.6c0.5,0,1.2,0,1.9,0c0.9,0,2.3,0.2,2.3,1.7c0,0.1,0,0.2,0,0.2c0.5,-1.2,0.7,-2.6,0.7,-4c0,-6.1,-5.1,-11,-11.4,-11c-6.2,0,-11.3,4.9,-11.3,11c0,0.8,0,1.6,0.2,2.3c0,0,0,-0.1,0,-0.1l0.4,0c0.6,-0.1,0.6,-0.3,0.6,-1.4l0,-2.7c0,-0.6,0,-0.7,-0.4,-1L36.5,46.4c-0.1,-0.1,-0.1,-0.2,0,-0.3c0.4,-0.1,1.3,-0.5,1.6,-0.7c0.1,0,0.2,0,0.2,0.1c0,0.3,0,0.6,0,0.7c0,0.1,0,0.2,0.2,0.2c0.6,-0.4,1.4,-0.8,2.2,-0.8c1.4,0,1.9,0.9,1.9,1.9l0,2.7c0,1.1,0,1.3,0.6,1.4l0.4,0c0.1,0.1,0.1,0.4,0,0.4c-0.5,0,-1,0,-1.6,0c-0.5,0,-1,0,-1.5,0c-0.1,0,-0.1,-0.3,0,-0.4l0.3,0c0.6,-0.1,0.6,-0.3,0.6,-1.4l0,-2.3C41.4,47,41,46.3,39.9,46.3c-0.6,0,-1.1,0.3,-1.4,0.6c-0.2,0.2,-0.2,0.5,-0.2,0.9l0,2.4c0,1.1,0,1.3,0.6,1.4l0.3,0c0.1,0.1,0.1,0.4,0,0.4c-0.5,0,-0.9,0,-1.5,0c-0.6,0,-1.1,0,-1.5,0c1.2,4.9,5.7,8.5,11,8.5c4.3,0,7.9,-2.2,9.9,-5.5c-0.8,0.7,-2,1.2,-3.2,1.2Z" class="g5_1" />
</g>
<path d="M54.6,52.5c-0.6,0,-1.2,0,-1.4,0.1c-0.4,0.3,-0.8,0.8,-0.8,1.4c0,0.8,0.7,1.5,2.2,1.5c1.4,0,2.3,-0.8,2.3,-1.7c0,-0.9,-0.6,-1.3,-1.8,-1.3l-0.5,0Z" class="g5_1" />
</svg>