<?xml version="1.0" encoding="UTF-8" standalone="no"?>
<!DOCTYPE svg PUBLIC "-//W3C//DTD SVG 1.1//EN"
"http://www.w3.org/Graphics/SVG/1.1/DTD/svg11.dtd">
<svg version="1.1" xmlns="http://www.w3.org/2000/svg" xmlns:xlink="http://www.w3.org/1999/xlink">
<defs>
<style type="text/css"><![CDATA[
.g2_3{
stroke: #000000;
stroke-width: 1;
stroke-linecap: round;
stroke-linejoin: round;
}
.g1_3{
fill: #C3102F;
stroke: #C3102F;
stroke-width: 1;
stroke-linecap: round;
stroke-linejoin: round;
}
]]></style>
</defs>
<path fill-rule="evenodd" d="M68.5,912.5l767,0l0,1l-767,0" class="g1_3" />
<path fill-rule="evenodd" d="M835.5,1140.5l-767,0l0,-1l767,0" class="g1_3" />
<path fill-rule="evenodd" d="M226.5,938.5l-158,0l0,-1l158,0" class="g1_3" />
<path fill-rule="evenodd" d="M334.5,938.5l-149,0l0,-1l149,0" class="g1_3" />
<path fill-rule="evenodd" d="M441.5,938.5l-149,0l0,-1l149,0" class="g1_3" />
<path fill-rule="evenodd" d="M554.5,938.5l-155,0l0,-1l155,0" class="g1_3" />
<path fill-rule="evenodd" d="M653.5,938.5l-140,0l0,-1l140,0" class="g1_3" />
<path fill-rule="evenodd" d="M769.5,938.5l-157,0l0,-1l157,0" class="g1_3" />
<path fill-rule="evenodd" d="M835.5,938.5l-108,0l0,-1l108,0" class="g1_3" />
<path fill-rule="evenodd" d="M68.5,123.5l767,0l0,2l-767,0" class="g1_3" />
<path fill-rule="evenodd" d="M835.5,376.5l-767,0l0,-1l767,0" class="g1_3" />
<path fill-rule="evenodd" d="M203.5,174.5l-135,0l0,-1l135,0" class="g1_3" />
<path fill-rule="evenodd" d="M380.5,174.5l-241,0l0,-1l241,0" class="g1_3" />
<path fill-rule="evenodd" d="M835.5,149.5l-455,0l455,0" class="g1_3" />
<path fill-rule="evenodd" d="M556.5,174.5l-240,0l0,-1l240,0" class="g1_3" />
<path fill-rule="evenodd" d="M732.5,174.5l-240,0l0,-1l240,0" class="g1_3" />
<path fill-rule="evenodd" d="M835.5,174.5l-167,0l0,-1l167,0" class="g1_3" />
<path fill-rule="evenodd" d="M835.5,56.5l-767,0l0,-1l767,0l0,1Z" class="g2_3" />
</svg>