<?xml version="1.0" encoding="UTF-8" standalone="no"?>
<!DOCTYPE svg PUBLIC "-//W3C//DTD SVG 1.1//EN"
"http://www.w3.org/Graphics/SVG/1.1/DTD/svg11.dtd">
<svg version="1.1" xmlns="http://www.w3.org/2000/svg" xmlns:xlink="http://www.w3.org/1999/xlink">
<defs>
<clipPath id="c0_7"><path d="M377.5,665.5l0,-19l49,0l0,19Z" /></clipPath>
<style type="text/css"><![CDATA[
.g2_7{
fill: none;
stroke: #231F20;
stroke-width: 1;
stroke-linecap: round;
stroke-linejoin: round;
}
.g3_7{
fill: #231F20;
}
.g1_7{
fill: #4D4D4D;
stroke: #4D4D4D;
stroke-width: 1;
stroke-linecap: round;
stroke-linejoin: round;
}
]]></style>
</defs>
<path fill-rule="evenodd" d="M74.5,634.5l352,0l0,3l-352,0" class="g1_7" />
<path d="M390.5,662.5l0,-2" class="g2_7" />
<path d="M388.9,649.7c-0.3,-0.1,-0.6,-0.2,-1,-0.3c-0.5,-0.1,-1.1,-0.2,-1.6,-0.2c-0.9,0,-1.7,0.2,-2.5,0.5c-0.2,0,-0.3,0.1,-0.4,0.2c-0.4,0.1,-0.7,0.3,-1,0.5l0,11.8l3.9,-3.1c0,0,3.9,3.2,3.9,3.2l0,-11.8c-0.4,-0.3,-0.9,-0.6,-1.3,-0.8Z" class="g3_7" />
<path d="M400.1,658.9c-1.3,0,-2.3,-0.9,-2.3,-2.2c0,-1.3,1,-2.3,2.2,-2.3c0.5,0,0.8,0.1,1.2,0.3l0,-0.3l0.3,0l0,1.1l-0.3,0l0,-0.3c-0.4,-0.3,-0.7,-0.4,-1.1,-0.4c-1,0,-1.7,0.7,-1.7,1.8c0,1.1,0.8,2,1.7,2c0.4,0,0.6,-0.1,1.1,-0.4l0,-0.4l0.3,0l0,0.8c-0.6,0.2,-0.9,0.3,-1.4,0.3Z" class="g3_7" />
<path d="M403.7,656.5c-0.2,-0.1,-0.3,-0.2,-0.3,-0.2c-0.2,0,-0.3,0.1,-0.6,0.5l0,1.8l0.6,0l0,0.2l-1.6,0l0,-0.2l0.5,0l0,-2.4l-0.6,0l0,-0.1l1,-0.3l0.1,0l0,0.7c0.4,-0.6,0.6,-0.7,0.8,-0.7c0.1,0,0.2,0,0.2,0L404,656l-0.3,0.5Z" class="g3_7" />
<path d="M405.5,656.1c-0.5,0,-0.9,0.5,-0.9,1.2c0,0.8,0.4,1.3,0.9,1.3c0.5,0,0.9,-0.5,0.9,-1.3c0,-0.7,-0.4,-1.2,-0.9,-1.2Zm0,2.8c-0.8,0,-1.4,-0.7,-1.4,-1.6c0,-0.8,0.6,-1.5,1.4,-1.5c0.8,0,1.4,0.7,1.4,1.5c0,0.9,-0.6,1.6,-1.4,1.6Z" class="g3_7" />
<path d="M408.5,658.9c-0.4,0,-0.7,-0.1,-0.8,-0.3l0,0.3l-0.3,0l0,-0.9l0.3,0l0,0.1c0,0.3,0.4,0.6,0.8,0.6c0.3,0,0.6,-0.2,0.6,-0.5c0,-0.3,-0.2,-0.4,-0.9,-0.7c-0.6,-0.2,-0.8,-0.5,-0.8,-0.9c0,-0.5,0.4,-0.8,1,-0.8c0.3,0,0.5,0.1,0.7,0.2l0,-0.2l0.3,0l-0.2,0.9l-0.2,0c0,-0.1,0,-0.1,0,-0.2c0,-0.3,-0.3,-0.5,-0.6,-0.5c-0.4,0,-0.6,0.2,-0.6,0.5c0,0.3,0,0.3,0.8,0.6c0.7,0.3,0.9,0.5,0.9,0.9c0,0.5,-0.4,0.9,-1,0.9Z" class="g3_7" />
<path d="M411.1,658.9c-0.3,0,-0.6,-0.1,-0.8,-0.3l0,0.3l-0.3,0l0,-0.9l0.3,0l0,0.1c0,0.3,0.4,0.6,0.8,0.6c0.4,0,0.6,-0.2,0.6,-0.5c0,-0.3,-0.2,-0.4,-0.8,-0.7C410.2,657.3,410,657,410,656.6c0,-0.5,0.4,-0.8,1,-0.8c0.3,0,0.5,0.1,0.7,0.2l0.1,-0.2l0.2,0l-0.1,0.9l-0.3,0c0,-0.1,0,-0.1,0,-0.2c0,-0.3,-0.3,-0.5,-0.6,-0.5c-0.3,0,-0.6,0.2,-0.6,0.5c0,0.3,0.1,0.3,0.9,0.6c0.6,0.3,0.8,0.5,0.8,0.9c0,0.5,-0.4,0.9,-1,0.9Z" class="g3_7" />
<path d="M416.2,658.8l0,-0.2l0.4,0l0,-3.2l-1.6,3.5l-1.6,-3.6l0,3.3l0.5,0l0,0.2l-1.3,0l0,-0.2l0.5,0l0,-3.8l-0.5,0l0,-0.3l1.1,0l1.5,3.3l1.5,-3.3l1,0l0,0.3l-0.5,0l0,3.8l0.5,0l0,0.2l-1.5,0Z" class="g3_7" />
<path d="M419.7,657.5l-1.1,0.2l0,0.4c0,0.2,0.2,0.4,0.4,0.4c0.2,0,0.4,-0.1,0.7,-0.3l0,-0.7Zm0.5,1.3c0,0.1,-0.1,0.1,-0.2,0.1c-0.2,0,-0.3,-0.2,-0.3,-0.4l0,-0.1c-0.3,0.4,-0.5,0.5,-0.9,0.5c-0.4,0,-0.7,-0.3,-0.7,-0.7c0,-0.4,0.2,-0.7,0.5,-0.7l1.1,-0.3l0,-0.7c0,-0.3,-0.2,-0.5,-0.5,-0.5c-0.1,0,-0.2,0.1,-0.4,0.1l0,0.4l-0.5,0.1c-0.1,-0.1,-0.1,-0.1,-0.1,-0.2c0,-0.3,0.4,-0.6,1,-0.6c0.6,0,1,0.3,1,0.7l0,2l0.5,0l0,0.2l-0.5,0.1Z" class="g3_7" />
<path d="M422.8,656.5c-0.1,-0.1,-0.2,-0.2,-0.3,-0.2c-0.1,0,-0.2,0.1,-0.6,0.5l0,1.8l0.7,0l0,0.2l-1.6,0l0,-0.2l0.4,0l0,-2.4l-0.5,0l0,-0.1l0.9,-0.3l0.1,0l0,0.7c0.5,-0.6,0.7,-0.7,0.9,-0.7c0.1,0,0.2,0,0.2,0l0.2,0.2l-0.4,0.5Z" class="g3_7" />
<g clip-path="url(#c0_7)">
<path d="M425.5,658.8l-1.3,-1.6l1.2,-1.1l-0.5,0l0,-0.2l1.3,0l0,0.2l-0.5,0l-1,1l1.3,1.5l0.3,0l0,0.2l-0.8,0Zm-2.3,0l0,-0.2l0.5,0l0,-4.2l-0.6,0l0,-0.1L424,654l0.1,0l0,4.6l0.5,0l0,0.2l-1.4,0Z" class="g3_7" />
<path fill-rule="evenodd" d="M390.8,661.8l0,1.8l-1.2,-1c-1,0.5,-2.1,0.8,-3.3,0.8c-1.2,0,-2.4,-0.3,-3.4,-0.8l-1.1,0.9l0,-1.6c-1.8,-1.4,-2.9,-3.5,-2.9,-5.9c0,-3,1.7,-5.5,4.2,-6.7c1.5,-0.7,3.3,-0.9,5,-0.5c3.2,0.8,5.6,3.7,5.6,7.2c0,2.4,-1.1,4.5,-2.9,5.8Zm-4.5,-15c-5.1,0,-9.2,4.1,-9.2,9.2c0,5.1,4.1,9.2,9.2,9.2c5,0,9.2,-4.1,9.2,-9.2c0,-5.1,-4.2,-9.2,-9.2,-9.2Z" class="g3_7" />
</g>
</svg>