<?xml version="1.0" encoding="UTF-8" standalone="no"?>
<!DOCTYPE svg PUBLIC "-//W3C//DTD SVG 1.1//EN"
"http://www.w3.org/Graphics/SVG/1.1/DTD/svg11.dtd">
<svg version="1.1" xmlns="http://www.w3.org/2000/svg" xmlns:xlink="http://www.w3.org/1999/xlink">
<defs>
<style type="text/css"><![CDATA[
.g1_1{
stroke: #000000;
stroke-width: 1;
stroke-linecap: round;
stroke-linejoin: round;
}
]]></style>
</defs>
<path fill-rule="evenodd" d="M263.5,322.5l566,0l0,1l-566,0" class="g1_1" />
<path fill-rule="evenodd" d="M263.5,837.5l566,0l0,1l-566,0" class="g1_1" />
<path fill-rule="evenodd" d="M829.5,893.5l-566,0l566,0Z" class="g1_1" />
<path fill-rule="evenodd" d="M235.8,322.4l0,178.1L235,499.7l0,-177.3" class="g1_1" />
<path fill-rule="evenodd" d="M235.8,500.5l-191.9,0l0.8,-0.8l190.3,0" class="g1_1" />
<path fill-rule="evenodd" d="M43.5,500.5l0,-178l1,0l0,177" class="g1_1" />
<path fill-rule="evenodd" d="M44.5,322.5l190,0l0,1l-190,0l0,-1Z" class="g1_1" />
<path fill-rule="evenodd" d="M210.5,589.5l-59,0l59,0Z" class="g1_1" />
</svg>