<?xml version="1.0" encoding="UTF-8" standalone="no"?>
<!DOCTYPE svg PUBLIC "-//W3C//DTD SVG 1.1//EN"
"http://www.w3.org/Graphics/SVG/1.1/DTD/svg11.dtd">
<svg version="1.1" xmlns="http://www.w3.org/2000/svg" xmlns:xlink="http://www.w3.org/1999/xlink">
<defs>
<clipPath id="c0_1"><path d="M0.5,122.5l0,-89l209,0l0,89Z" /></clipPath>
<style type="text/css"><![CDATA[
.g2_1{
fill: none;
stroke: #8077B7;
stroke-width: 1;
stroke-linecap: butt;
stroke-linejoin: miter;
}
.g3_1{
fill: #231F20;
}
.g4_1{
fill: #FFFFFF;
}
.g1_1{
fill: #8077B7;
}
]]></style>
</defs>
<path fill-rule="evenodd" d="M909,384l-795,0l0,-2l795,0Z" class="g1_1" />
<path d="M114.5,770.5l795,0" class="g2_1" />
<path d="M7.3,924.1l54.6,0c15.3,0,27.7,12.4,27.7,27.7l0,16.8c0,15.3,-12.4,27.7,-27.7,27.7l-109.1,0c-15.3,0,-27.7,-12.4,-27.7,-27.7l0,-16.8c0,-15.3,12.4,-27.7,27.7,-27.7Z" class="g1_1" />
<path d="M114,120l905,0l0,-84L114,36l0,84Z" class="g1_1" />
<path d="M801.4,103.1l11.8,0c4.2,0,6.6,-0.3,9.1,-1.9c3.7,-1.9,5.8,-5.3,5.9,-9.9c0,-2,-0.6,-8.5,-8.2,-10.9c2.8,-1.5,5.7,-4,5.7,-9.1c0,-3.3,-1.2,-6.9,-4.6,-8.8c-1.9,-1.4,-4.6,-2.1,-8.5,-2.1l-11.2,0l0,42.7Zm4.7,-38.4l6.2,0c2.8,0,4.2,0.4,5.3,0.9c1.8,0.8,3.5,3,3.5,6.1c0,2.6,-0.8,4.8,-3.5,6.3c-1.3,0.7,-3.1,0.9,-5,0.9l-6.5,0l0,-14.2Zm0,18.2l6.9,0c2.6,0,4.1,0.1,6,0.9c2.7,1.2,4.5,3.8,4.5,7.2c0,3.8,-1.9,6,-4.5,7.1c-1.5,0.7,-3.4,0.8,-5.2,0.8l-7.7,0l0,-16ZM854.6,60.4l-4.8,0l0,29.9c0,2,-0.1,3.7,-0.8,5.4c-0.7,2,-2.7,3.9,-6.2,4c-2,0,-5.6,-1.1,-6.9,-5.7c-0.1,-0.3,-0.1,-0.6,-0.1,-0.8l-5.2,0c0.1,0.6,0.2,1.3,0.4,2c1.6,7,8.3,8.7,11.5,8.7c2.4,0,5.2,-0.7,7.4,-2.3c1.6,-1.1,2.8,-2.6,3.5,-4.2c1,-2.3,1.2,-4.9,1.2,-8.1l0,-28.9Zm8.3,0l0,27.1c0,4.7,0.4,9.5,4.9,13.2c2.6,2.3,6.4,3.2,9.4,3.2c3.7,0,6.9,-1.2,9.2,-3.2c4.3,-3.3,4.9,-8.2,4.9,-13.2l0,-27.1l-4.8,0l0,27.1c0,3.3,0,5.8,-2,8.7c-1.4,2.1,-4.2,3.5,-7.3,3.5c-3.1,0,-5.9,-1.5,-7.4,-3.6c-2.1,-2.9,-2.1,-5.4,-2.1,-8.6l0,-27.1l-4.8,0Zm36.9,42.7l4.7,0l0,-42.7l-4.7,0l0,42.7Z" class="g3_1" />
<path d="M801.4,116.5l2.7,0c1.2,0,1.7,-0.1,2.4,-0.5c0.7,-0.4,1.1,-1.2,1.2,-2.2c0,-0.4,-0.1,-1.8,-1.8,-2.3c0.7,-0.4,1.2,-1,1.2,-2c0,-0.7,-0.2,-1.5,-0.9,-1.9c-0.5,-0.3,-1.1,-0.5,-2,-0.5l-2.8,0l0,9.4Zm1.5,-8.1l1.2,0c0.4,0,0.7,0.1,1,0.2c0.3,0.1,0.6,0.5,0.6,1.1c0,0.5,-0.2,0.9,-0.6,1.2c-0.3,0.1,-0.7,0.1,-1,0.1l-1.2,0l0,-2.6Zm0,3.9l1.4,0c0.4,0,0.7,0,1.1,0.1c0.5,0.2,0.8,0.7,0.8,1.3c0,0.8,-0.4,1.1,-0.8,1.4c-0.3,0.1,-0.7,0.1,-1,0.1l-1.5,0l0,-2.9Zm10.9,-5.2l-1.5,0l0,6.5c0,0.4,0,0.7,-0.1,1c-0.1,0.4,-0.5,0.8,-1.1,0.8c-0.5,0,-1.1,-0.3,-1.3,-1.1c0,-0.1,0,-0.2,0,-0.3l-1.6,0c0,0.2,0,0.4,0,0.6c0.4,1.9,2.2,2.1,2.8,2.1c0.6,0,1.2,-0.2,1.7,-0.5c0.4,-0.3,0.7,-0.6,0.9,-1c0.2,-0.5,0.2,-1.1,0.2,-1.9l0,-6.2Zm1.9,0l0,5.9c-0.1,1.1,0.1,2.1,1,2.9c0.6,0.6,1.6,0.8,2.3,0.8c0.9,0,1.7,-0.3,2.2,-0.8c0.8,-0.7,1.1,-1.7,1,-2.9l0,-5.9l-1.5,0l0,5.9c0,0.6,0,1.1,-0.3,1.7c-0.3,0.4,-0.8,0.7,-1.4,0.7c-0.7,0,-1.2,-0.3,-1.5,-0.8c-0.3,-0.5,-0.3,-1,-0.3,-1.6l0,-5.9l-1.5,0Zm12.1,9.4l1.5,0l0,-9.4l-1.5,0l0,9.4Zm3.3,0l1.3,0l0,-3.8c0,-1.2,0.6,-2.1,1.9,-2.1c1.4,0,1.9,0.9,1.9,2.2l0,3.7l1.3,0l0,-4c0,-1.5,-0.6,-3.1,-2.8,-3.1c-1.2,0,-2,0.5,-2.4,1.3l0,-1.1l-1.2,0l0,6.9Zm8.6,0l1.3,0l0,-5.9l1.4,0l0,-1l-1.4,0l0,-2.5l-1.3,0l0,2.5l-1.2,0l0,1l1.2,0l0,5.9Zm10.1,-3c0.1,-1.2,-0.2,-2.3,-1,-3.1c-0.7,-0.6,-1.6,-1,-2.6,-1c-2.1,0,-3.7,1.7,-3.7,3.7c0,1.8,1.5,3.6,3.7,3.6c0.7,0,1.4,-0.2,2,-0.5c0.6,-0.4,1.1,-1,1.4,-1.8l-1.4,0c-0.4,0.8,-1,1.2,-2,1.2c-1,0,-2.2,-0.7,-2.3,-2.1l5.9,0Zm-5.9,-1.1c0.1,-0.9,1,-1.9,2.3,-1.9c1.3,0,2.2,1,2.3,1.9l-4.6,0Zm7.2,4.1l1.4,0l0,-3.7c0,-1.4,0.6,-2.1,1.9,-2.1l0,-1.3c-0.9,0,-1.6,0.4,-2,1.2l0,-1l-1.3,0l0,6.9Zm4.4,0l1.3,0l0,-3.8c0,-1.2,0.6,-2.1,1.9,-2.1c1.4,0,1.9,0.9,1.9,2.2l0,3.7l1.3,0l0,-4c0,-1.5,-0.6,-3.1,-2.8,-3.1c-1.2,0,-2,0.5,-2.4,1.3l0,-1.1l-1.2,0l0,6.9Zm15.2,-6.9l-1.3,0l0,1.2c-0.4,-0.6,-1.2,-1.4,-2.6,-1.4c-2,0,-3.6,1.5,-3.6,3.7c0,1.9,1.3,3.6,3.6,3.6c1.1,0,2.1,-0.4,2.6,-1.4l0,1.2l1.3,0l0,-6.9Zm-6.2,3.5c0,-1.3,1,-2.5,2.4,-2.5c1.2,0,1.9,0.6,2.3,1.5c0.1,0.3,0.2,0.6,0.2,1c0,0.3,-0.1,0.7,-0.3,1c-0.3,0.8,-1.1,1.4,-2.1,1.4c-1.7,0,-2.4,-1.4,-2.5,-2.4Zm8.4,3.4l1.4,0l0,-5.9l1.3,0l0,-1l-1.3,0l0,-2.5l-1.4,0l0,2.5l-1.2,0l0,1l1.2,0l0,5.9Zm3.7,-8l1.3,0l0,-1.4l-1.3,0l0,1.4Zm0,8l1.3,0l0,-6.9l-1.3,0l0,6.9Zm2.7,-3.4c0,1.8,1.3,3.6,3.7,3.6c2.3,0,3.7,-1.8,3.7,-3.6c0,-1.9,-1.4,-3.7,-3.7,-3.7c-2.4,0,-3.7,1.8,-3.7,3.6l0,0.1Zm1.3,0c0,-1.4,1,-2.5,2.4,-2.5c1.3,0,2.3,1.1,2.3,2.5c0,1.4,-1,2.4,-2.3,2.4c-1.4,0,-2.4,-1,-2.4,-2.4Zm7.4,3.4l1.3,0l0,-3.8c0,-1.2,0.6,-2.1,1.9,-2.1c1.4,0,1.9,0.9,1.9,2.2l0,3.7l1.3,0l0,-4c0,-1.5,-0.6,-3.1,-2.8,-3.1c-1.2,0,-2,0.5,-2.3,1.3l0,-1.1l-1.3,0l0,6.9Zm15.2,-6.9l-1.3,0l0,1.2c-0.3,-0.6,-1.2,-1.4,-2.6,-1.4c-2,0,-3.6,1.5,-3.6,3.7c0,1.9,1.4,3.6,3.6,3.6c1.1,0,2.1,-0.4,2.6,-1.4l0,1.2l1.3,0l0,-6.9Zm-6.1,3.5c0,-1.3,0.9,-2.5,2.4,-2.5c1.1,0,1.9,0.6,2.2,1.5c0.1,0.3,0.2,0.6,0.2,1c0,0.3,-0.1,0.7,-0.2,1c-0.4,0.8,-1.1,1.4,-2.2,1.4c-1.7,0,-2.4,-1.4,-2.4,-2.4Zm7.9,3.4l1.3,0l0,-9.4l-1.3,0l0,9.4Z" class="g3_1" />
<g clip-path="url(#c0_1)">
<path d="M-31.4,121.1l170,-0.2c-13.5,0,-24.4,-10.9,-24.4,-24.3l0,-16.8c0,-11.7,8.2,-21.5,19.2,-23.9c1.7,-0.3,67.3,-18.8,69.1,-18.8L-31.4,36.9l0,84.2Z" class="g4_1" />
</g>
</svg>