<?xml version="1.0" encoding="UTF-8" standalone="no"?>
<!DOCTYPE svg PUBLIC "-//W3C//DTD SVG 1.1//EN"
"http://www.w3.org/Graphics/SVG/1.1/DTD/svg11.dtd">
<svg version="1.1" xmlns="http://www.w3.org/2000/svg" xmlns:xlink="http://www.w3.org/1999/xlink">
<defs>
<clipPath id="c0_3"><path d="M197.5,1086.5l0,-266l513,0l0,266Z" /></clipPath>
<clipPath id="c1_3"><path d="M0.5,1195.5L0.5,0.5l909,0l0,1195Z" /></clipPath>
<style type="text/css"><![CDATA[
.g6_3{
fill: none;
stroke: #000000;
stroke-width: 1;
stroke-linecap: butt;
stroke-linejoin: miter;
}
.g7_3{
fill: #8077B7;
}
.g2_3{
fill: #008A7D;
}
.g8_3{
fill: #8077B7;
stroke: #8077B7;
stroke-width: 1;
stroke-linecap: round;
stroke-linejoin: round;
}
.g4_3{
fill: #7CCCBF;
}
.g3_3{
fill: none;
stroke: #231F20;
stroke-width: 1;
stroke-linecap: butt;
stroke-linejoin: miter;
}
.g5_3{
fill: none;
stroke: #000000;
stroke-width: 1;
stroke-linecap: butt;
stroke-linejoin: round;
}
.g1_3{
fill: #FFFFFF;
}
]]></style>
</defs>
<path d="M59,1086l795,0l0,-308L59,778l0,308Z" class="g1_3" />
<path d="M354,1069l28,0l0,-170l-28,0l0,170Zm-100,0l29,0l0,-164l-29,0l0,164Z" class="g2_3" />
<path d="M354.5,1069.5l28,0l0,-170l-28,0l0,170Z" class="g3_3" />
<path d="M254.5,1069.5l29,0l0,-164l-29,0l0,164Z" class="g3_3" />
<path d="M382,1069l29,0l0,-113l-29,0l0,113Zm-99,0l28,0l0,-83l-28,0l0,83Z" class="g4_3" />
<path d="M283.5,986.5l28,0l0,83l-28,0l0,-83Z" class="g5_3" />
<path d="M382.5,956.5l29,0l0,113l-29,0l0,-113Z" class="g5_3" />
<path d="M233.5,1069.5l0,-243" class="g5_3" />
<path d="M233.5,1045.5l3,0" class="g5_3" />
<path d="M233.5,1020.5l3,0" class="g5_3" />
<path d="M233.5,996.5l3,0" class="g5_3" />
<path d="M233.5,972.5l3,0" class="g5_3" />
<path d="M233.5,948.5l3,0" class="g5_3" />
<path d="M233.5,923.5l3,0" class="g5_3" />
<path d="M233.5,899.5l3,0" class="g5_3" />
<path d="M233.5,875.5l3,0" class="g5_3" />
<path d="M233.5,851.5l3,0" class="g5_3" />
<path d="M233.5,826.5l3,0" class="g5_3" />
<path d="M233.5,1069.5l199,0" class="g5_3" />
<path d="M332.5,1065.5l0,4" class="g5_3" />
<path d="M432.5,1065.5l0,4" class="g5_3" />
<path d="M243,836l6,0l0,-5l-6,0l0,5Z" class="g2_3" />
<path d="M243.5,831.5l6,0l0,5l-6,0l0,-5Z" class="g3_3" />
<path d="M243,854l6,0l0,-5l-6,0l0,5Z" class="g1_3" />
<path d="M243,854l6,0l0,-5l-6,0l0,5Z" class="g4_3" />
<path d="M243.5,849.5l6,0l0,5l-6,0l0,-5Z" class="g5_3" />
<path d="M519,836l5,0l0,-5l-5,0l0,5Z" class="g2_3" />
<path d="M519.5,831.5l5,0l0,5l-5,0l0,-5Z" class="g3_3" />
<path d="M519,854l5,0l0,-5l-5,0l0,5Z" class="g1_3" />
<path d="M519,854l5,0l0,-5l-5,0l0,5Z" class="g4_3" />
<path d="M519.5,849.5l5,0l0,5l-5,0l0,-5Z" class="g5_3" />
<path d="M524,896l30,0l0,173l-30,0l0,-173Zm104,24l30,0l0,149l-30,0l0,-149Z" class="g2_3" />
<path d="M524.5,896.5l30,0l0,173l-30,0l0,-173Z" class="g6_3" />
<path d="M628.5,920.5l30,0l0,149l-30,0l0,-149Z" class="g6_3" />
<path d="M554,956l29,0l0,113l-29,0l0,-113Zm104,41l29,0l0,72l-29,0l0,-72Z" class="g4_3" />
<path d="M554.5,956.5l29,0l0,113l-29,0l0,-113Z" class="g5_3" />
<path d="M658.5,997.5l29,0l0,72l-29,0l0,-72Z" class="g5_3" />
<path d="M501.5,1069.5l0,-239" class="g5_3" />
<path d="M502.5,1039.5l3,0" class="g5_3" />
<path d="M502.5,1009.5l3,0" class="g5_3" />
<path d="M502.5,979.5l3,0" class="g5_3" />
<path d="M502.5,950.5l3,0" class="g5_3" />
<path d="M502.5,920.5l3,0" class="g5_3" />
<path d="M502.5,890.5l3,0" class="g5_3" />
<path d="M502.5,860.5l3,0" class="g5_3" />
<path d="M502.5,830.5l3,0" class="g5_3" />
<path d="M501.5,1069.5l209,0" class="g5_3" />
<path d="M606.5,1065.5l0,4" class="g5_3" />
<g clip-path="url(#c0_3)">
<path d="M709.5,1065.5l0,4" class="g5_3" />
</g>
<g clip-path="url(#c1_3)">
<path fill-rule="evenodd" d="M-34.5,831.8l0.3,-4l1,-3.9l1.8,-3.8c4.3,-7.3,11.7,-11.6,20.2,-11.6l22.5,0l4,0.3c8.2,1.4,15.2,7.3,18,15.1l1,3.9l0.3,4l0,31.2l-0.3,4.1C32.9,875.2,27,882.3,19.2,885l-3.9,1.1l-4,0.3C-5.9,885.2,-21,891.3,-31.4,874.7L-33.2,871l-1,-3.9L-34.5,863Z" class="g7_3" />
<path fill-rule="evenodd" d="M-10.5,808.5l22,0l0,13l-22,0" class="g8_3" />
</g>
<path fill-rule="evenodd" d="M11.3,808.5l4,0.3c9.7,1.7,17.3,9.3,19,19l0.3,4l-12.9,0L21.5,830c-0.6,-4.1,-4.3,-7.8,-8.4,-8.4l-1.8,-0.2" class="g8_3" />
<path fill-rule="evenodd" d="M34.5,831.5l0,32l-13,0l0,-32" class="g8_3" />
<path fill-rule="evenodd" d="M34.6,863l-0.3,4.1c-1.7,9.6,-9.3,17.3,-19,19l-4,0.3l0,-13l1.8,-0.2c4.1,-0.6,7.8,-4.2,8.4,-8.4L21.7,863" class="g8_3" />
<g clip-path="url(#c1_3)">
<path fill-rule="evenodd" d="M11.5,886.5l-22,0l0,-13l22,0" class="g8_3" />
</g>
</svg>