<?xml version="1.0" encoding="UTF-8" standalone="no"?>
<!DOCTYPE svg PUBLIC "-//W3C//DTD SVG 1.1//EN"
"http://www.w3.org/Graphics/SVG/1.1/DTD/svg11.dtd">
<svg version="1.1" xmlns="http://www.w3.org/2000/svg" xmlns:xlink="http://www.w3.org/1999/xlink">
<defs>
<style type="text/css"><![CDATA[
.g5_6{
fill: none;
stroke: #000000;
stroke-width: 1;
stroke-linecap: round;
stroke-linejoin: round;
}
.g2_6{
fill: #CD151D;
}
.g3_6{
fill: #CD151D;
stroke: #CD151D;
stroke-width: 1;
stroke-linecap: round;
stroke-linejoin: round;
}
.g4_6{
stroke: #000000;
stroke-width: 1;
stroke-linecap: round;
stroke-linejoin: round;
}
.g1_6{
fill: #E7E8E9;
}
]]></style>
</defs>
<path d="M65,1096l749,0l0,-272L65,824l0,272Z" class="g1_6" />
<path d="M65,795l749,0l0,-27L65,768l0,27Z" class="g2_6" />
<path d="M65,824l749,0l0,-20L65,804l0,20Z" class="g1_6" />
<path d="M65,1120l749,0l0,-24l-749,0l0,24Z" class="g1_6" />
<path fill-rule="evenodd" d="M814.5,795.5l-749,0l0,-9l749,0l0,9Z" class="g3_6" />
<path fill-rule="evenodd" d="M65.5,1134.5l749,0l0,1l-749,0l0,-1Z" class="g4_6" />
<path d="M106.5,1158.5l0,-24" class="g5_6" />
</svg>