<?xml version="1.0" encoding="UTF-8" standalone="no"?>
<!DOCTYPE svg PUBLIC "-//W3C//DTD SVG 1.1//EN"
"http://www.w3.org/Graphics/SVG/1.1/DTD/svg11.dtd">
<svg version="1.1" xmlns="http://www.w3.org/2000/svg" xmlns:xlink="http://www.w3.org/1999/xlink">
<defs>
<clipPath id="c0_2"><path d="M73.5,93.5l0,-55l209,0l0,55Z" /></clipPath>
<clipPath id="c1_2"><path d="M720.5,93.5l0,-52l141,0l0,52Z" /></clipPath>
<style type="text/css"><![CDATA[
.g2_2{
fill: #231F20;
}
.g1_2{
fill: none;
stroke: #231F20;
stroke-width: 1;
stroke-linecap: butt;
stroke-linejoin: miter;
}
]]></style>
</defs>
<path d="M73.5,1100.5l788,0" class="g1_2" />
<path d="M73.5,112.5l788,0" class="g1_2" />
<path d="M102.8,61.4c-0.6,0,-1.9,-0.1,-2.7,-1.5C99.4,58.6,99.3,56.8,99.3,55.7c0,-2.7,0.6,-5.8,3.6,-5.8c2.7,0,3.4,2.6,3.4,5.8c0,2.5,-0.6,5.7,-3.5,5.7ZM83.6,50.4l-3.3,0l0,-6.9l3.2,0c2.1,0,4.7,0.2,4.7,3.4c0,3.5,-2.9,3.5,-4.6,3.5ZM102.9,46c-3.3,0,-5.7,0.9,-7.5,2.3c0.1,-0.4,0.1,-0.8,0.1,-1.2C95.5,43.7,94,41.4,91.8,40C89.7,38.7,87.1,38.7,85.1,38.7l-12,0l0,26l7.2,0l0,-9.3L85,55.3c1.4,0,4.6,0,6.6,-1.1c0.2,-0.1,0.5,-0.3,0.8,-0.5c-0.1,0.6,-0.1,1.2,-0.1,1.9c0,2.2,0.5,4.9,2.5,6.9c1.8,1.7,4.4,2.7,8.4,2.7c3.7,0,6,-1.1,7.5,-2.6c1.8,-1.9,2.6,-4.6,2.6,-7.2C113.3,49,108.7,46,102.9,46Z" class="g2_2" />
<path d="M143.1,51l0,-4.3l-4.3,0l0,-5.4l-6.5,2.6l0,2.8l-3.5,0l0,1.8c-1.6,-1.9,-4.3,-2.4,-6.9,-2.4c-2.7,0,-4.8,0.5,-6.4,1.6c-1.2,0.8,-2.2,2.3,-2.2,4.1c0,3.7,3.3,4.6,4.4,4.9l3.7,1c1.5,0.4,2.6,0.8,2.6,2.1c0,0.8,-0.5,1.8,-2.1,1.8c-1.2,0,-1.7,-0.5,-2,-1.1c-0.3,-0.6,-0.3,-1.3,-0.3,-1.6l-6.7,0c0,5.8,5.3,6.3,8.9,6.3c1.6,0,8.7,0,8.7,-6.1c0,-3.5,-2.5,-4.5,-4.2,-5l-4.9,-1.3c-1,-0.3,-1.8,-0.7,-1.8,-1.7c0,-1.1,1,-1.6,2,-1.6c1.1,0,1.6,0.4,1.9,1c0.2,0.5,0.2,1.2,0.2,1.7l6.5,0C130.1,51.8,130.1,51.4,130,51l2.2,0l0,8.7c0,3.5,1.1,5.3,6.5,5.3c2.3,0,3.5,-0.2,4.4,-0.3l0,-4.3c-0.8,0.2,-1.2,0.2,-1.7,0.2c-2.6,0,-2.6,-1.1,-2.6,-3.3l0,-6.3l4.3,0Z" class="g2_2" />
<path d="M175.4,58.9c0,1.3,0.9,2.5,2.5,2.5c0.7,0,2,-0.3,2.7,-1.8c0.5,-1.1,0.5,-2.6,0.5,-3.4c-2.9,0.1,-5.7,0.1,-5.7,2.7Zm5.9,5.9c-0.2,-0.7,-0.2,-1.5,-0.2,-2.6c-0.9,1.2,-2.3,2.9,-6,2.9c-4.4,0,-6.4,-2.4,-6.4,-5.6c0,-4.9,4.6,-6.7,12.4,-6.4c0,-1.9,-0.2,-3.7,-2.3,-3.7c-1.2,0,-2.4,0.6,-2.4,2.7l-6.5,0c0.1,-0.8,0.1,-2.4,1.4,-3.8c1.4,-1.4,4.3,-2.3,7.5,-2.3c1.7,0,5.1,0.3,7,2.1c1.2,1.1,1.6,2.8,1.6,4.8l0,8.4c0,1.3,0,1.7,0.4,3.5l-6.5,0Z" class="g2_2" />
<path d="M201.7,55.6c0,-3,-1,-5.4,-3.3,-5.4c-3.1,0,-3.5,3.8,-3.5,5.5c0,1.8,0.4,5.5,3.4,5.5c2.4,0,3.4,-2.5,3.4,-5.6Zm6.7,-16.9l0,21.5c0,1.5,0.1,3,0.2,4.5l-6.4,0L202,62.1c-0.7,1,-2.1,3.1,-6.1,3.1c-6.2,0,-8,-5.1,-8,-9.5c0,-3.9,1,-5.7,2.3,-7c1.6,-1.8,3.7,-2.4,5.9,-2.4c3,0,4.3,1.2,5.5,2.5l0,-10.1l6.8,0Z" class="g2_2" />
<path d="M216.9,46.6l0,10.6c0,1,0,3.5,2.7,3.5c2.9,0,2.9,-2.6,2.9,-3.6l0,-10.5l6.7,0l0,15c0.1,1.6,0.1,1.7,0.1,3.1l-6.6,0l-0.2,-2.8c-1.8,2.9,-4.1,3.2,-5.7,3.2c-6.2,0,-6.6,-4.8,-6.6,-8.3l0,-10.2l6.7,0Z" class="g2_2" />
<path d="M236.6,59.4c0,1.4,0.9,2.5,2.5,2.5c0.7,0,2,-0.3,2.7,-1.8c0.5,-1.1,0.5,-2.6,0.5,-3.3c-2.9,0,-5.7,0,-5.7,2.6Zm5.9,5.9c-0.2,-0.6,-0.2,-1.4,-0.2,-2.6c-0.9,1.2,-2.3,3,-6,3c-4.4,0,-6.4,-2.5,-6.4,-5.7c0,-4.9,4.6,-6.7,12.4,-6.4c0,-1.9,-0.2,-3.7,-2.3,-3.7c-1.2,0,-2.4,0.7,-2.4,2.7l-6.5,0c0.1,-0.8,0.1,-2.4,1.4,-3.8c1.4,-1.4,4.2,-2.2,7.5,-2.2c1.6,0,5.1,0.2,7,2.1c1.2,1.1,1.6,2.8,1.6,4.7l0,8.4c0,1.3,0,1.7,0.4,3.5l-6.5,0Z" class="g2_2" />
<path d="M263.4,46.7l0,4.3l-4.3,0l0,6.3c0,2.2,0,3.3,2.6,3.3c0.5,0,0.9,0,1.7,-0.2l0,4.3C262.5,64.8,261.3,65,259,65c-5.4,0,-6.5,-1.8,-6.5,-5.3l0,-8.7l-3.4,0l0,-4.3l3.5,0l0,-2.8l6.5,-2.6l0,5.4l4.3,0Z" class="g2_2" />
<g clip-path="url(#c0_2)">
<path d="M276.3,53.4c0,-1.1,-0.3,-3.8,-3.2,-3.8c-3,0,-3.2,2.9,-3.3,3.8l6.5,0Zm-6.6,3.7c0,0.9,0,4.4,3.5,4.4c1.8,0,2.9,-1,3.1,-2.7l6.3,0c-0.5,4.6,-4.8,6.3,-9.4,6.3c-6.3,0,-9.7,-3.1,-9.7,-9.1c0,-6.1,2.9,-10,9.6,-10c5,0,7.4,2.1,8.6,4.6c0.8,1.6,1,3.3,1,6.5l-13,0Z" class="g2_2" />
</g>
<path d="M74.1,67.3l12.5,0l4.8,17.6L95.9,67.3l12.5,-0.1l0.1,26.1l-7.6,0l0.4,-21.9L94.5,93.3l-7.2,0l-6.6,-22l0.2,22l-6.8,0l0,-26Z" class="g2_2" />
<g clip-path="url(#c0_2)">
<path d="M123.2,81.9c-0.1,-1,-0.3,-3.8,-3.2,-3.8c-3,0,-3.2,3,-3.3,3.8l6.5,0Zm-6.6,3.7c0,1,0,4.4,3.5,4.4c1.8,0,2.9,-0.9,3.1,-2.6l6.3,0c-0.5,4.5,-4.8,6.3,-9.5,6.3c-6.3,0,-9.7,-3.2,-9.7,-9.2c0,-6,3,-10,9.7,-10c5,0,7.4,2.1,8.6,4.7c0.8,1.5,1,3.2,1,6.4l-13,0Z" class="g2_2" />
<path d="M140.7,89.7c-3,0,-3.3,-3.7,-3.3,-5.4c0,-1.7,0.3,-5.5,3.4,-5.5c2.4,0,3.3,2.3,3.3,5.4c0,3.1,-0.9,5.5,-3.4,5.5ZM153.4,60.2c-3,0,-3.5,-3.2,-3.5,-5.1c0,-3,1.3,-5.1,3.5,-5.1c3.3,0,3.3,4.1,3.3,5c0,1.3,-0.1,5.2,-3.3,5.2Zm10.1,-9.8l-0.1,-3.8l0,-0.1l-6.4,0l0,2.8c-0.9,-1.5,-2.5,-3.1,-6,-3.1c-5.5,0,-8.1,4.1,-8.1,9c0,6.6,4.3,9,8.1,9c1,0,4,-0.2,5.8,-3l0,2.4c0,2,-0.2,4.4,-3.6,4.4c-1.9,0,-2.9,-0.9,-2.9,-2.3l-6.4,0c0,0.4,0,1,0.2,1.6l0,10c-1.2,-1.2,-2.5,-2.5,-5.6,-2.5c-2.2,0,-4.2,0.7,-5.9,2.4c-1.2,1.4,-2.3,3.2,-2.3,7c0,4.5,1.8,9.5,8,9.5c4,0,5.4,-2,6.2,-3.1l0.1,2.7l6.4,0c-0.1,-1.5,-0.2,-3,-0.2,-4.5l0,-17c0.9,0,1.6,0.1,2.3,0.1c3.7,0,5.9,-0.9,7.4,-2c2.5,-1.8,2.9,-4.3,2.9,-6.5l0,-7.9c0.5,-1.6,1.9,-3.3,5.1,-3.3c0.4,0,0.6,0,1.4,0.1l0,-5.8c-1.5,0,-4.8,-0.1,-6.4,3.9Z" class="g2_2" />
</g>
<path d="M153,93l7,0l0,-18l-7,0l0,18Z" class="g2_2" />
<g clip-path="url(#c0_2)">
<path d="M173.8,81.5c0,-1.7,-0.6,-3.1,-2.4,-3.1c-2.5,0,-3,2.6,-3,5.7c0,4.7,1.3,5.8,3,5.8c2.3,0,2.4,-2.3,2.4,-3.7l6.8,0c0.1,4.6,-3.6,7.5,-9.1,7.5c-5.7,0,-10.1,-3,-10.1,-9.6c0,-7.1,5,-9.5,10.1,-9.5c1.9,0,5.2,0.3,7.3,2.6c1.5,1.6,1.7,3.3,1.7,4.3l-6.7,0Z" class="g2_2" />
</g>
<path d="M181,93l7,0l0,-18l-7,0l0,18Z" class="g2_2" />
<path d="M191,79l-0.2,-3.8l6.8,0l0,2.8c0.9,-1.4,2.3,-3.2,6.1,-3.2c6.6,0,6.6,5,6.6,7.5l0,11l-6.8,0l0,-10.4c0,-1.3,0,-3.8,-2.8,-3.8c-3,0,-3,3.2,-3,3.8l0,10.4l-6.7,0L191,79Z" class="g2_2" />
<g clip-path="url(#c0_2)">
<path d="M224.9,81.9c-0.1,-1,-0.3,-3.8,-3.3,-3.8c-2.9,0,-3.2,3,-3.3,3.8l6.6,0Zm-6.6,3.7c0,1,0,4.4,3.4,4.4c1.8,0,2.9,-0.9,3.1,-2.6l6.3,0c-0.5,4.5,-4.7,6.3,-9.4,6.3c-6.3,0,-9.7,-3.2,-9.7,-9.2c0,-6,2.9,-10,9.6,-10c5.1,0,7.4,2.1,8.6,4.7c0.8,1.5,1,3.2,1,6.4l-12.9,0Z" class="g2_2" />
</g>
<path d="M726.4,70l-5.3,0l0,-20.4l5.3,0l0,20.4ZM723.8,47.1c-1.6,0,-2.9,-1.3,-2.9,-2.9c0,-1.5,1.3,-2.8,2.9,-2.8c1.5,0,2.8,1.3,2.8,2.8c0,1.6,-1.3,2.9,-2.8,2.9Z" class="g2_2" />
<path d="M744.7,70l0,-12.3c0,-2.2,-0.2,-4.6,-3,-4.6c-1.5,0,-3.6,0.6,-4.9,1.4l0,15.5l-5.4,0l0,-20.4l5.4,0l0,2.1c1.8,-1.4,4.8,-2.7,7.1,-2.7c4.3,0,6.2,3.1,6.2,7.1l0,13.9l-5.4,0Z" class="g2_2" />
<path d="M764.9,45.3c-3,0,-3.6,1.8,-3.6,4.3l5.7,0l0,3.2l-5.6,0l0,17.2l-5.5,0l0,-17.2l-3.3,0l0,-3.2l3.3,0c0,-4.3,2,-7.6,6.7,-7.6c1.7,0,3.2,0.5,4.6,1.3l0,2.2c-0.7,-0.1,-1.5,-0.2,-2.3,-0.2Z" class="g2_2" />
<path d="M778.9,52.6c-3.9,0,-5.2,3.7,-5.2,7.1c0,3.3,1.1,7.4,5.2,7.4c4.1,0,5.2,-4.1,5.2,-7.4c0,-3.4,-1.3,-7.1,-5.2,-7.1Zm0,17.9c-6.9,0,-10.6,-4.2,-10.6,-10.9C768.3,52.7,772,49,778.9,49c6.6,0,10.5,3.9,10.5,10.6c0,6.8,-3.6,10.9,-10.5,10.9Z" class="g2_2" />
<path d="M803.1,53.2c-1.6,0.1,-3.7,1.1,-4.8,2.3l0,14.5L793,70l0,-20.4l5.3,0l0.1,2.7c1,-1.9,4.3,-3.3,6.3,-3.3c0.2,0,0.5,0,0.7,0l0,4.8c-0.6,-0.4,-1.6,-0.6,-2.3,-0.6Z" class="g2_2" />
<path d="M834,70l0,-12.3c0,-2.3,-0.5,-4.6,-3.2,-4.6c-1.4,0,-3,0.6,-4.2,1.4c0.1,0.5,0.1,1.1,0.1,1.6l0,13.9l-5.3,0l0,-12.3c0,-2.2,-0.3,-4.6,-3.1,-4.6c-1.4,0,-3.1,0.6,-4.2,1.4l0,15.5l-5.4,0l0,-20.4l5.4,0l0,2.1c1.7,-1.4,4.5,-2.7,6.6,-2.7c2.3,0,4.1,0.9,5.2,3c1.9,-1.3,4.9,-3,7.3,-3c4.3,0,6.2,3.1,6.2,7.1l0,13.9L834,70Z" class="g2_2" />
<g clip-path="url(#c1_2)">
<path d="M847.6,64c0,1.8,1.2,3.1,3,3.1c2.3,0,4.3,-1.9,4.3,-4.2l0,-2.9c-2.4,0.1,-7.3,0.9,-7.3,4Zm9.8,6.2c-2,0,-1.9,-1.8,-2.2,-3.2c-1.4,1.9,-4.1,3.5,-6.6,3.5c-3.3,0,-6.2,-2.2,-6.2,-5.8c0,-6.6,7.3,-7.3,12.5,-7.5l0,-1.3c0,-2.3,-1.9,-3.4,-4.1,-3.4c-2,0,-4.2,0.2,-6.1,0.9l0,-2.3c2.1,-1.3,4.6,-2.1,7.2,-2.1c4,0,8.2,1.7,8.2,6.4l0,7.7c0,0.7,-0.2,4.4,0.4,4.9c0.2,0.2,0.6,0.1,0.8,0.1l0,1.9c-1.3,0,-2.6,0.2,-3.9,0.2Z" class="g2_2" />
</g>
<path d="M728.1,93.3l0,-6.3c0,-1.4,-0.4,-2.4,-2,-2.4c-0.9,0,-2.1,0.4,-2.9,1l0,7.7l-1.5,0l0,-13.4l1.5,0l0,4.5c0.9,-0.4,2.4,-1,3.5,-1c2.2,0,2.8,1.7,2.8,3.7l0,6.2l-1.4,0Z" class="g2_2" />
<path d="M735.8,84.4c-1.7,0,-2.8,1.8,-2.8,3.4l5.3,0c0,-1.5,-0.8,-3.4,-2.5,-3.4ZM733,88.7c0,1.9,1,3.7,3.1,3.7c1,0,2.1,-0.2,3,-0.5l0,1.1c-1,0.4,-2.1,0.5,-3.1,0.5c-3.1,0,-4.5,-2,-4.5,-4.9c0,-2.8,1.3,-5.2,4.4,-5.2c2.6,0,3.7,2.2,3.7,4.6l0,0.7l-6.6,0Z" class="g2_2" />
<path d="M746.3,88.2c-1.4,0,-4,0.4,-4,2.3c0,1.2,0.5,1.9,1.7,1.9c2,0,2.3,-1.7,2.3,-3.4l0,-0.8Zm1,5.2c-0.7,0,-1,-0.6,-0.9,-1.3c-0.8,1.1,-1.6,1.4,-3,1.4c-1.4,0,-2.6,-1.1,-2.6,-2.6c0,-2.9,3.2,-3.6,5.6,-3.7l0,-0.6c0,-1.2,-0.7,-2.2,-1.9,-2.2c-0.8,0,-1.8,0.3,-2.5,0.6l0,-0.7c0.8,-0.5,1.9,-0.9,2.9,-0.9c1.7,0,2.9,1.2,2.9,2.9l0,4.5c0,0.3,0,1.5,0.1,1.7c0.2,0.2,0.4,0.1,0.6,0.1l0,0.7c-0.4,0.1,-0.8,0.1,-1.2,0.1Z" class="g2_2" />
<path d="M750.5,93.5l0,-14" class="g1_2" />
<path d="M757.9,93.5c-2.1,0,-2.6,-1,-2.6,-3l0,-5.8l-1.4,0l0,-0.7c1.3,-0.4,1.8,-1.1,2.1,-2.4l0.7,-0.1l0,2.2l3,0l0,1l-3,0l0,5.8c0,1,0.1,2,1.4,2c0.6,0,1.2,-0.1,1.8,-0.2l0,0.6c-0.5,0.3,-1.4,0.6,-2,0.6Z" class="g2_2" />
<path d="M767.7,93.3l0,-6.3c0,-1.4,-0.3,-2.4,-2,-2.4c-0.9,0,-2.1,0.4,-2.9,1l0,7.7l-1.4,0l0,-13.4l1.4,0l0,4.5c1,-0.4,2.5,-1,3.5,-1c2.3,0,2.9,1.7,2.9,3.7l0,6.2l-1.5,0Z" class="g2_2" />
<path d="M775.6,93.5c-2.9,0,-4.4,-2.1,-4.4,-4.9c0,-3,1.4,-5.2,4.6,-5.2c1,0,2.2,0.4,2.8,0.8l0,1c-0.6,-0.5,-2,-0.8,-2.8,-0.8c-2.4,0,-3.2,2.1,-3.2,4.2c0,2,0.9,3.8,3.2,3.8c1,0,2,-0.2,3,-0.5l0,1.2c-1,0.3,-2.2,0.4,-3.2,0.4Z" class="g2_2" />
<path d="M785.1,88.2c-1.4,0,-4.1,0.4,-4.1,2.3c0,1.2,0.6,1.9,1.8,1.9c2,0,2.3,-1.7,2.3,-3.4l0,-0.8Zm1,5.2c-0.8,0,-1,-0.6,-0.9,-1.3c-0.8,1.1,-1.7,1.4,-3,1.4c-1.5,0,-2.6,-1.1,-2.6,-2.6c0,-2.9,3.2,-3.6,5.5,-3.7l0,-0.6c0,-1.2,-0.6,-2.2,-1.9,-2.2c-0.7,0,-1.7,0.3,-2.5,0.6l0,-0.7c0.8,-0.5,2,-0.9,2.9,-0.9c1.8,0,3,1.2,3,2.9l0,4.5c0,0.3,0,1.5,0.1,1.7c0.1,0.2,0.4,0.1,0.6,0.1l0,0.7c-0.4,0.1,-0.8,0.1,-1.2,0.1Z" class="g2_2" />
<path d="M790.8,86.4l0,6.9l-1.4,0l0,-9.6l1.4,0l0,1.5c0.4,-1.2,1.8,-1.8,2.9,-1.8l0,1.4c-1,0,-2.4,0.5,-2.9,1.6Z" class="g2_2" />
<path d="M799.4,84.4c-1.7,0,-2.8,1.8,-2.8,3.4l5.3,0c0,-1.5,-0.8,-3.4,-2.5,-3.4Zm-2.9,4.3c0,1.9,1.1,3.7,3.2,3.7c1,0,2,-0.2,3,-0.5l0,1.1c-1,0.4,-2.1,0.5,-3.1,0.5c-3.1,0,-4.5,-2,-4.5,-4.9c0,-2.8,1.3,-5.2,4.4,-5.2c2.6,0,3.7,2.2,3.7,4.6l0,0.7l-6.7,0Z" class="g2_2" />
</svg>