<?xml version="1.0" encoding="UTF-8" standalone="no"?>
<!DOCTYPE svg PUBLIC "-//W3C//DTD SVG 1.1//EN"
"http://www.w3.org/Graphics/SVG/1.1/DTD/svg11.dtd">
<svg version="1.1" xmlns="http://www.w3.org/2000/svg" xmlns:xlink="http://www.w3.org/1999/xlink">
<defs>
<clipPath id="c0_1"><path d="M764.5,154.5l0,-44l41,0l0,44Z" /></clipPath>
<clipPath id="c1_1"><path d="M74.5,1103.5l0,-180l352,0l0,180Z" /></clipPath>
<style type="text/css"><![CDATA[
.g4_1{
fill: #231F20;
}
.g3_1{
fill: none;
stroke: #231F20;
stroke-width: 1;
stroke-linecap: round;
stroke-linejoin: round;
}
.g5_1{
fill: #4D4D4D;
}
.g2_1{
stroke: #000000;
stroke-width: 1;
stroke-linecap: round;
stroke-linejoin: round;
}
.g1_1{
fill: #4D4D4D;
stroke: #4D4D4D;
stroke-width: 1;
stroke-linecap: round;
stroke-linejoin: round;
}
]]></style>
</defs>
<path fill-rule="evenodd" d="M74.5,89.5l731,0l0,4l-731,0" class="g1_1" />
<path fill-rule="evenodd" d="M805.5,203.5l-731,0l0,-2l731,0l0,2Z" class="g2_1" />
<path d="M792.5,140.5l0,-2" class="g3_1" />
<path d="M790.1,116.3c-0.6,-0.2,-1.1,-0.4,-1.7,-0.5c-1.1,-0.3,-2.1,-0.4,-3.2,-0.4c-1.6,0,-3.2,0.3,-4.7,0.9c-0.3,0.1,-0.5,0.2,-0.8,0.3c-0.6,0.3,-1.2,0.7,-1.8,1l0,22.4l7.3,-5.9c0,0,7.5,6,7.5,6l0,-22.3c-0.8,-0.6,-1.7,-1.1,-2.6,-1.5Z" class="g4_1" />
<path fill-rule="evenodd" d="M793.9,139.3l0,3.4l-2.4,-1.9c-1.9,0.9,-4,1.5,-6.3,1.5c-2.3,0,-4.4,-0.6,-6.3,-1.6l-2.2,1.8l0,-3.1c-3.3,-2.6,-5.5,-6.6,-5.5,-11.2c0,-5.6,3.2,-10.4,8,-12.7c2.9,-1.3,6.3,-1.7,9.5,-0.9c6.1,1.6,10.6,7.1,10.6,13.6c0,4.5,-2.1,8.5,-5.4,11.1Zm-8.7,-28.4c-9.6,0,-17.3,7.7,-17.3,17.3c0,9.6,7.7,17.4,17.3,17.4c9.6,0,17.4,-7.8,17.4,-17.4c0,-9.6,-7.8,-17.3,-17.4,-17.3Z" class="g4_1" />
<g clip-path="url(#c0_1)">
<path d="M767.8,154.6c-2,0,-3.4,-1.4,-3.4,-3.3c0,-1.8,1.4,-3.3,3.3,-3.3c0.6,0,1.1,0.1,1.6,0.4l0,-0.4l0.5,0l0,1.6l-0.5,0l0,-0.5c-0.6,-0.4,-1,-0.6,-1.6,-0.6c-1.4,0,-2.4,1.1,-2.4,2.8c0,1.5,1.1,2.8,2.5,2.8c0.5,0,0.9,-0.2,1.5,-0.5l0,-0.7l0.5,0l0,1.3c-0.8,0.3,-1.4,0.4,-2,0.4Z" class="g4_1" />
</g>
<path d="M772.9,151c-0.2,-0.2,-0.3,-0.2,-0.4,-0.2c-0.2,0,-0.3,0.1,-0.8,0.8l0,2.5l0.9,0l0,0.3l-2.4,0l0,-0.3l0.7,0l0,-3.4l-0.8,0l0,-0.3l1.4,-0.4l0.2,0l0,1.1c0.6,-0.9,0.9,-1.1,1.2,-1.1c0.1,0,0.2,0,0.3,0.1l0.3,0.3l-0.6,0.6Z" class="g4_1" />
<g clip-path="url(#c0_1)">
<path d="M775.6,150.4c-0.7,0,-1.3,0.8,-1.3,1.9c0,1,0.6,1.9,1.3,1.9c0.7,0,1.3,-0.9,1.3,-1.9c0,-1.1,-0.6,-1.9,-1.3,-1.9Zm0,4.2c-1.2,0,-2.1,-1.1,-2.1,-2.3c0,-1.3,0.9,-2.3,2.1,-2.3c1.1,0,2.1,1,2.1,2.3c0,1.2,-1,2.3,-2.1,2.3Z" class="g4_1" />
<path d="M780,154.6c-0.6,0,-1,-0.2,-1.2,-0.4l0,0.3l-0.4,0l0,-1.3l0.4,0l0,0.2c0,0.4,0.6,0.8,1.2,0.8c0.5,0,0.9,-0.3,0.9,-0.7c0,-0.3,-0.3,-0.6,-1.3,-0.9c-0.9,-0.4,-1.2,-0.7,-1.2,-1.3c0,-0.8,0.6,-1.3,1.4,-1.3c0.5,0,0.8,0.1,1,0.3l0.1,-0.3l0.4,0l-0.2,1.4l-0.4,0c0,-0.1,0,-0.3,0,-0.4c0,-0.3,-0.4,-0.6,-0.9,-0.6c-0.5,0,-0.8,0.2,-0.8,0.6c0,0.5,0,0.5,1.2,1c0.9,0.3,1.2,0.7,1.2,1.3c0,0.7,-0.6,1.3,-1.4,1.3Z" class="g4_1" />
<path d="M783.8,154.6c-0.5,0,-0.9,-0.2,-1.2,-0.4l0,0.3l-0.4,0l0,-1.3l0.5,0l0,0.2c0,0.4,0.5,0.8,1.1,0.8c0.5,0,0.9,-0.3,0.9,-0.7c0,-0.3,-0.3,-0.6,-1.3,-0.9c-0.9,-0.4,-1.2,-0.7,-1.2,-1.3c0,-0.8,0.6,-1.3,1.5,-1.3c0.4,0,0.7,0.1,1,0.3l0,-0.3l0.5,0l-0.3,1.4l-0.4,0c0.1,-0.1,0.1,-0.3,0.1,-0.4c0,-0.3,-0.5,-0.6,-1,-0.6c-0.5,0,-0.8,0.2,-0.8,0.6c0,0.5,0.1,0.5,1.2,1c1,0.3,1.3,0.7,1.3,1.3c0,0.7,-0.6,1.3,-1.5,1.3Z" class="g4_1" />
</g>
<path d="M791.2,154.4l0,-0.3l0.7,0l0,-4.7l-2.4,5.1l-2.3,-5.2l0,4.8l0.7,0l0,0.3l-1.9,0l0,-0.3l0.7,0l0,-5.6l-0.7,0l0,-0.3l1.5,0l2.2,4.8l2.2,-4.8l1.5,0l0,0.3l-0.7,0l0,5.6l0.7,0l0,0.3l-2.2,0Z" class="g4_1" />
<g clip-path="url(#c0_1)">
<path d="M796.3,152.5l-1.6,0.4l0,0.4c0,0.4,0.2,0.7,0.6,0.7c0.3,0,0.6,-0.1,1,-0.5l0,-1Zm0.8,2c-0.1,0,-0.2,0,-0.3,0c-0.3,0,-0.5,-0.2,-0.5,-0.5l0,-0.1c-0.4,0.5,-0.7,0.7,-1.2,0.7c-0.7,0,-1.2,-0.5,-1.2,-1.1c0,-0.5,0.3,-0.9,0.8,-1l1.6,-0.4l0,-1.1c0,-0.4,-0.3,-0.6,-0.7,-0.6c-0.1,0,-0.3,0,-0.5,0.1l0,0.5l-0.9,0.2c-0.1,-0.1,-0.1,-0.1,-0.1,-0.2c0,-0.6,0.7,-1,1.5,-1c0.9,0,1.4,0.4,1.4,1.1l0,2.9l0.8,0l0,0.3l-0.7,0.2Z" class="g4_1" />
</g>
<path d="M800.9,151c-0.2,-0.2,-0.4,-0.2,-0.5,-0.2c-0.1,0,-0.3,0.1,-0.8,0.8l0,2.5l0.9,0l0,0.3l-2.4,0l0,-0.3l0.8,0l0,-3.4l-0.9,0l0,-0.3l1.4,-0.4l0.2,0l0,1.1c0.7,-0.9,0.9,-1.1,1.2,-1.1c0.2,0,0.3,0,0.3,0.1l0.3,0.3l-0.5,0.6Z" class="g4_1" />
<g clip-path="url(#c0_1)">
<path d="M804.8,154.4l-1.9,-2.3l1.7,-1.6l-0.6,0l0,-0.4l1.8,0l0,0.4l-0.7,0l-1.5,1.4l1.9,2.2l0.5,0l0,0.3l-1.2,0Zm-3.4,0l0,-0.3l0.7,0l0,-6.1l-0.9,0l0,-0.2l1.4,-0.4l0.2,0l0,6.7l0.7,0l0,0.3l-2.1,0Z" class="g4_1" />
</g>
<g clip-path="url(#c1_1)">
<path fill-rule="evenodd" d="M74.7,923.1l351.5,0l0.6,0.1l0.5,0.4l0.3,0.4l0.1,0.6l-0.1,0.6l-0.3,0.4l-0.5,0.4l-0.6,0.2l-351.5,0L74.1,926l-0.6,-0.4l-0.3,-0.4l-0.1,-0.6L73.2,924l0.3,-0.4l0.6,-0.4Z" class="g5_1" />
</g>
</svg>