<?xml version="1.0" encoding="UTF-8" standalone="no"?>
<!DOCTYPE svg PUBLIC "-//W3C//DTD SVG 1.1//EN"
"http://www.w3.org/Graphics/SVG/1.1/DTD/svg11.dtd">
<svg version="1.1" xmlns="http://www.w3.org/2000/svg" xmlns:xlink="http://www.w3.org/1999/xlink">
<defs>
<clipPath id="c0_2"><path d="M770.5,766.5l0,-25l65,0l0,25Z" /></clipPath>
<style type="text/css"><![CDATA[
.g2_2{
fill: #231F20;
}
.g3_2{
fill: #8A8786;
}
.g1_2{
fill: none;
stroke: #000000;
stroke-width: 1;
stroke-linecap: butt;
stroke-linejoin: miter;
}
]]></style>
</defs>
<path d="M79.5,779.5l758,0" class="g1_2" />
<path d="M801,758.1c-1.8,0,-3.1,-1.2,-3.1,-3c0,-1.6,1.3,-3,3,-3c0.6,0,1,0.1,1.5,0.4l0,-0.4l0.4,0l0,1.5l-0.4,0l0,-0.5c-0.5,-0.4,-0.9,-0.5,-1.5,-0.5c-1.3,0,-2.2,1,-2.2,2.5c0,1.4,1,2.6,2.3,2.6c0.5,0,0.8,-0.2,1.4,-0.5l0,-0.6l0.4,0l0,1.1c-0.7,0.3,-1.2,0.4,-1.8,0.4Z" class="g2_2" />
<path d="M805.7,754.9c-0.2,-0.2,-0.3,-0.3,-0.4,-0.3c-0.1,0,-0.3,0.2,-0.8,0.8l0,2.3l0.9,0l0,0.3l-2.2,0l0,-0.3l0.7,0l0,-3.2l-0.8,0l0,-0.2l1.3,-0.3l0.1,0l0,0.9c0.7,-0.8,0.9,-1,1.2,-1l0.2,0.1l0.3,0.3l-0.5,0.6Z" class="g2_2" />
<path d="M808.2,754.3c-0.7,0,-1.2,0.8,-1.2,1.7c0,1,0.5,1.7,1.2,1.7c0.6,0,1.1,-0.7,1.1,-1.7c0,-0.9,-0.5,-1.7,-1.1,-1.7Zm0,3.8c-1.1,0,-2,-0.9,-2,-2.1c0,-1.1,0.9,-2.1,2,-2.1c1,0,1.9,1,1.9,2.1c0,1.2,-0.9,2.1,-1.9,2.1Z" class="g2_2" />
<path d="M812.2,758.1c-0.5,0,-0.9,-0.1,-1.1,-0.3l0,0.3l-0.4,0l0,-1.3l0.4,0l0,0.3c0,0.3,0.5,0.7,1,0.7c0.5,0,0.9,-0.3,0.9,-0.6c0,-0.4,-0.3,-0.6,-1.2,-0.9c-0.8,-0.3,-1.1,-0.7,-1.1,-1.2c0,-0.7,0.5,-1.2,1.3,-1.2c0.4,0,0.7,0.1,0.9,0.3l0.1,-0.3l0.4,0l-0.2,1.3l-0.4,0l0,-0.3c0,-0.3,-0.3,-0.6,-0.8,-0.6c-0.5,0,-0.8,0.2,-0.8,0.6c0,0.4,0.1,0.4,1.1,0.8c0.9,0.4,1.2,0.7,1.2,1.2c0,0.7,-0.6,1.2,-1.3,1.2Z" class="g2_2" />
<path d="M815.7,758.1c-0.5,0,-0.9,-0.1,-1.1,-0.3l0,0.3l-0.4,0l0,-1.3l0.4,0l0,0.3c0,0.3,0.5,0.7,1,0.7c0.5,0,0.9,-0.3,0.9,-0.6c0,-0.4,-0.3,-0.6,-1.2,-0.9c-0.8,-0.3,-1.1,-0.7,-1.1,-1.2c0,-0.7,0.5,-1.2,1.3,-1.2c0.4,0,0.7,0.1,1,0.3l0,-0.3l0.4,0l-0.2,1.3l-0.4,0l0.1,-0.3c0,-0.3,-0.4,-0.6,-0.9,-0.6c-0.5,0,-0.7,0.2,-0.7,0.6c0,0.4,0,0.4,1.1,0.8c0.8,0.4,1.1,0.7,1.1,1.2c0,0.7,-0.6,1.2,-1.3,1.2Z" class="g2_2" />
<path d="M822.4,758l0,-0.3l0.6,0l0,-4.3l-2.1,4.7l-2.1,-4.8l0,4.4l0.6,0l0,0.3l-1.7,0l0,-0.3l0.6,0l0,-5.1l-0.6,0l0,-0.3l1.4,0l2,4.4l2,-4.4l1.4,0l0,0.3l-0.7,0l0,5.1l0.7,0l0,0.3l-2.1,0Z" class="g2_2" />
<path d="M827.1,756.2l-1.5,0.4l0,0.4c0,0.4,0.2,0.6,0.6,0.6c0.3,0,0.5,-0.1,0.9,-0.5l0,-0.9Zm0.7,1.8l-0.3,0.1c-0.2,0,-0.4,-0.2,-0.4,-0.5l0,-0.1c-0.4,0.4,-0.7,0.6,-1.1,0.6c-0.6,0,-1.1,-0.4,-1.1,-1c0,-0.4,0.3,-0.8,0.7,-0.9l1.5,-0.3l0,-1c0,-0.4,-0.3,-0.6,-0.6,-0.6c-0.2,0,-0.3,0,-0.5,0.1l0,0.4l-0.8,0.3l-0.1,-0.3c0,-0.5,0.6,-0.9,1.4,-0.9c0.8,0,1.3,0.4,1.3,1l0,2.7l0.6,0l0,0.2l-0.6,0.2Z" class="g2_2" />
<path d="M831.3,754.9c-0.2,-0.2,-0.3,-0.3,-0.4,-0.3c-0.2,0,-0.3,0.2,-0.8,0.8l0,2.3l0.8,0l0,0.3l-2.1,0l0,-0.3l0.6,0l0,-3.2l-0.7,0l0,-0.2l1.2,-0.3l0.2,0l0,0.9c0.6,-0.8,0.8,-1,1.2,-1l0.2,0.1l0.3,0.3l-0.5,0.6Z" class="g2_2" />
<path d="M834.9,758l-1.8,-2.1l1.6,-1.5l-0.6,0l0,-0.3l1.7,0l0,0.3l-0.6,0l-1.4,1.3l1.7,2l0.5,0l0,0.3l-1.1,0Zm-3.2,0l0,-0.3l0.7,0l0,-5.5l-0.8,0l0,-0.3l1.3,-0.3l0.1,0l0,6.1l0.7,0l0,0.3l-2,0Z" class="g2_2" />
<g clip-path="url(#c0_2)">
<path fill-rule="evenodd" d="M782.4,766.4c-6.7,0,-12.2,-5.5,-12.2,-12.2c0,-6.8,5.5,-12.2,12.2,-12.2c6.8,0,12.2,5.4,12.2,12.2c0,6.7,-5.4,12.2,-12.2,12.2Zm0,-24.6c-6.8,0,-12.4,5.5,-12.4,12.4c0,6.8,5.6,12.4,12.4,12.4c6.9,0,12.4,-5.6,12.4,-12.4c0,-6.9,-5.5,-12.4,-12.4,-12.4Z" class="g3_2" />
</g>
<image x="769" y="741" width="27" height="27" xlink:href="img/1.png" />
<path d="M79.5,77.5l758,0" class="g1_2" />
</svg>