<?xml version="1.0" encoding="UTF-8" standalone="no"?>
<!DOCTYPE svg PUBLIC "-//W3C//DTD SVG 1.1//EN"
"http://www.w3.org/Graphics/SVG/1.1/DTD/svg11.dtd">
<svg version="1.1" xmlns="http://www.w3.org/2000/svg" xmlns:xlink="http://www.w3.org/1999/xlink">
<defs>
<style type="text/css"><![CDATA[
.g3_4{
fill: none;
stroke: #231F20;
stroke-width: 1;
stroke-linecap: round;
stroke-linejoin: round;
}
.g2_4{
fill: #231F20;
}
.g1_4{
fill: #4D4D4D;
stroke: #4D4D4D;
stroke-width: 1;
stroke-linecap: round;
stroke-linejoin: round;
}
]]></style>
</defs>
<path fill-rule="evenodd" d="M805.5,460.5l-731,0l0,-3l731,0l0,3Z" class="g1_4" />
<path d="M194.3,83.5l459.2,0.1c0.2,0,0.4,-0.2,0.4,-0.4c0,-0.2,-0.2,-0.4,-0.4,-0.4L194.3,82.7c-0.2,0,-0.4,0.2,-0.4,0.4c0,0.2,0.2,0.4,0.4,0.4Z" class="g2_4" />
<path fill-rule="evenodd" d="M476,284.6l7,-2l7,2l-7,2.1l-7,-2.1Z" class="g2_4" />
<path d="M476.1,285l6.9,-2.1l5.7,1.7l-5.7,1.7l-6.9,-2c-0.2,-0.1,-0.4,0,-0.4,0.2c-0.1,0.2,0,0.4,0.2,0.5l7,2.1l0.2,0l7,-2.1c0.2,-0.1,0.3,-0.2,0.3,-0.4c0,-0.1,-0.1,-0.3,-0.3,-0.3l-7,-2.1l-0.2,0l-7,2.1c-0.2,0,-0.3,0.3,-0.2,0.4c0,0.2,0.2,0.4,0.4,0.3Z" class="g2_4" />
<image x="194" y="280" width="128" height="15" xlink:href="img/1.png" />
<path d="M415.7,308.2l149.4,0c0.2,0,0.3,-0.2,0.3,-0.4c0,-0.2,-0.1,-0.3,-0.3,-0.3l-149.4,0c-0.2,0,-0.4,0.1,-0.4,0.3c0,0.2,0.2,0.4,0.4,0.4Z" class="g2_4" />
<path d="M415.3,307.8l0,6.4c0,0.2,0.2,0.4,0.4,0.4c0.2,0,0.3,-0.2,0.3,-0.4l0,-6.4c0,-0.2,-0.1,-0.3,-0.3,-0.3c-0.2,0,-0.4,0.1,-0.4,0.3Z" class="g2_4" />
<path d="M440.4,307.8l0,6.4c0,0.2,0.2,0.4,0.4,0.4c0.2,0,0.4,-0.2,0.4,-0.4l0,-6.4c0,-0.2,-0.2,-0.3,-0.4,-0.3c-0.2,0,-0.4,0.1,-0.4,0.3Z" class="g2_4" />
<path d="M465.1,307.8l0,6.4c0,0.2,0.2,0.4,0.4,0.4c0.2,0,0.3,-0.2,0.3,-0.4l0,-6.4c0,-0.2,-0.1,-0.3,-0.3,-0.3c-0.2,0,-0.4,0.1,-0.4,0.3Z" class="g2_4" />
<path d="M489.6,307.8l0,6.4c0,0.2,0.2,0.4,0.4,0.4c0.2,0,0.4,-0.2,0.4,-0.4l0,-6.4c0,-0.2,-0.2,-0.3,-0.4,-0.3c-0.2,0,-0.4,0.1,-0.4,0.3Z" class="g2_4" />
<path d="M514.9,307.8l0,6.4c0,0.2,0.2,0.4,0.4,0.4c0.2,0,0.3,-0.2,0.3,-0.4l0,-6.4c0,-0.2,-0.1,-0.3,-0.3,-0.3c-0.2,0,-0.4,0.1,-0.4,0.3Z" class="g2_4" />
<path d="M539.4,307.8l0,6.4c0,0.2,0.2,0.4,0.4,0.4c0.2,0,0.4,-0.2,0.4,-0.4l0,-6.4c0,-0.2,-0.2,-0.3,-0.4,-0.3c-0.2,0,-0.4,0.1,-0.4,0.3Z" class="g2_4" />
<path d="M564.7,307.8l0,6.4c0,0.2,0.2,0.4,0.4,0.4c0.2,0,0.3,-0.2,0.3,-0.4l0,-6.4c0,-0.2,-0.1,-0.3,-0.3,-0.3c-0.2,0,-0.4,0.1,-0.4,0.3Z" class="g2_4" />
<image x="402" y="324" width="29" height="15" xlink:href="img/2.png" />
<image x="454" y="324" width="24" height="15" xlink:href="img/3.png" />
<image x="478" y="324" width="25" height="15" xlink:href="img/4.png" />
<image x="503" y="324" width="25" height="15" xlink:href="img/5.png" />
<image x="528" y="324" width="25" height="15" xlink:href="img/6.png" />
<image x="553" y="324" width="25" height="15" xlink:href="img/7.png" />
<image x="455" y="344" width="84" height="16" xlink:href="img/8.png" />
<path d="M436.6,234.4l106,0c0.2,0,0.4,-0.2,0.4,-0.4c0,-0.2,-0.2,-0.4,-0.4,-0.4l-106,0c-0.2,0,-0.3,0.2,-0.3,0.4c0,0.2,0.1,0.4,0.3,0.4Z" class="g2_4" />
<path d="M437,235.3l0,-2.8c0,-0.2,-0.2,-0.4,-0.4,-0.4c-0.2,0,-0.3,0.2,-0.3,0.4l0,2.8c0,0.2,0.1,0.4,0.3,0.4c0.2,0,0.4,-0.2,0.4,-0.4Z" class="g2_4" />
<path d="M543,235.3l0,-2.8c0,-0.2,-0.2,-0.4,-0.4,-0.4c-0.2,0,-0.4,0.2,-0.4,0.4l0,2.8c0,0.2,0.2,0.4,0.4,0.4c0.2,0,0.4,-0.2,0.4,-0.4Z" class="g2_4" />
<path d="M471.7,209.7l14.7,0c0.2,0,0.4,-0.2,0.4,-0.4c0,-0.2,-0.2,-0.3,-0.4,-0.3l-14.7,0c-0.2,0,-0.4,0.1,-0.4,0.3c0,0.2,0.2,0.4,0.4,0.4Z" class="g2_4" />
<path d="M472.1,210.7l0,-2.9c0,-0.2,-0.2,-0.3,-0.4,-0.3c-0.2,0,-0.4,0.1,-0.4,0.3l0,2.9c0,0.2,0.2,0.3,0.4,0.3c0.2,0,0.4,-0.1,0.4,-0.3Z" class="g2_4" />
<path d="M486.8,210.7l0,-2.9c0,-0.2,-0.2,-0.3,-0.4,-0.3c-0.2,0,-0.3,0.1,-0.3,0.3l0,2.9c0,0.2,0.1,0.3,0.3,0.3c0.2,0,0.4,-0.1,0.4,-0.3Z" class="g2_4" />
<path d="M430.4,184.3l98.8,0c0.2,0,0.4,-0.2,0.4,-0.4c0,-0.2,-0.2,-0.3,-0.4,-0.3l-98.8,0c-0.2,0,-0.4,0.1,-0.4,0.3c0,0.2,0.2,0.4,0.4,0.4Z" class="g2_4" />
<path d="M430.7,185.3l0,-2.7c0,-0.2,-0.1,-0.4,-0.3,-0.4c-0.2,0,-0.4,0.2,-0.4,0.4l0,2.7c0,0.2,0.2,0.3,0.4,0.3c0.2,0,0.3,-0.1,0.3,-0.3Z" class="g2_4" />
<path d="M529.6,185.3l0,-2.7c0,-0.2,-0.2,-0.4,-0.4,-0.4c-0.2,0,-0.3,0.2,-0.3,0.4l0,2.7c0,0.2,0.1,0.3,0.3,0.3c0.2,0,0.4,-0.1,0.4,-0.3Z" class="g2_4" />
<path d="M436.6,158.9l82.1,0c0.2,0,0.4,-0.2,0.4,-0.4c0,-0.2,-0.2,-0.3,-0.4,-0.3l-82.1,0c-0.2,0,-0.3,0.1,-0.3,0.3c0,0.2,0.1,0.4,0.3,0.4Z" class="g2_4" />
<path d="M437,160l0,-2.8c0,-0.2,-0.2,-0.4,-0.4,-0.4c-0.2,0,-0.3,0.2,-0.3,0.4l0,2.8c0,0.2,0.1,0.4,0.3,0.4c0.2,0,0.4,-0.2,0.4,-0.4Z" class="g2_4" />
<path d="M519.1,160l0,-2.8c0,-0.2,-0.2,-0.4,-0.4,-0.4c-0.2,0,-0.4,0.2,-0.4,0.4l0,2.8c0,0.2,0.2,0.4,0.4,0.4c0.2,0,0.4,-0.2,0.4,-0.4Z" class="g2_4" />
<path d="M417,134.3l100.3,0c0.3,0,0.4,-0.2,0.4,-0.4c0,-0.2,-0.1,-0.4,-0.4,-0.4l-100.3,0c-0.2,0,-0.4,0.2,-0.4,0.4c0,0.2,0.2,0.4,0.4,0.4Z" class="g2_4" />
<path d="M417.4,135.4l0,-2.9c0,-0.2,-0.2,-0.3,-0.4,-0.3c-0.2,0,-0.4,0.1,-0.4,0.3l0,2.9c0,0.2,0.2,0.3,0.4,0.3c0.2,0,0.4,-0.1,0.4,-0.3Z" class="g2_4" />
<path d="M517.7,135.4l0,-2.9c0,-0.2,-0.2,-0.3,-0.4,-0.3c-0.2,0,-0.3,0.1,-0.3,0.3l0,2.9c0,0.2,0.1,0.3,0.3,0.3c0.2,0,0.4,-0.1,0.4,-0.3Z" class="g2_4" />
<path d="M480.9,109l13.3,0c0.2,0,0.3,-0.2,0.3,-0.4c0,-0.2,-0.1,-0.4,-0.3,-0.4l-13.3,0c-0.2,0,-0.3,0.2,-0.3,0.4c0,0.2,0.1,0.4,0.3,0.4Z" class="g2_4" />
<path d="M481.3,110l0,-2.9c0,-0.2,-0.2,-0.3,-0.4,-0.3c-0.2,0,-0.3,0.1,-0.3,0.3l0,2.9c0,0.2,0.1,0.3,0.3,0.3c0.2,0,0.4,-0.1,0.4,-0.3Z" class="g2_4" />
<path d="M494.5,110l0,-2.9c0,-0.2,-0.1,-0.3,-0.3,-0.3c-0.2,0,-0.4,0.1,-0.4,0.3l0,2.9c0,0.2,0.2,0.3,0.4,0.3c0.2,0,0.3,-0.1,0.3,-0.3Z" class="g2_4" />
<image x="194" y="229" width="65" height="15" xlink:href="img/9.png" />
<image x="194" y="204" width="71" height="15" xlink:href="img/10.png" />
<image x="194" y="179" width="74" height="15" xlink:href="img/11.png" />
<image x="194" y="154" width="75" height="15" xlink:href="img/12.png" />
<image x="194" y="129" width="83" height="15" xlink:href="img/13.png" />
<image x="194" y="104" width="67" height="15" xlink:href="img/14.png" />
<image x="299" y="230" width="15" height="15" xlink:href="img/15.png" />
<image x="296" y="205" width="22" height="15" xlink:href="img/16.png" />
<image x="299" y="180" width="15" height="15" xlink:href="img/17.png" />
<image x="299" y="154" width="15" height="15" xlink:href="img/18.png" />
<image x="302" y="130" width="8" height="15" xlink:href="img/19.png" />
<image x="296" y="104" width="22" height="15" xlink:href="img/20.png" />
<image x="321" y="230" width="8" height="15" xlink:href="img/21.png" />
<image x="318" y="205" width="15" height="15" xlink:href="img/22.png" />
<image x="321" y="180" width="8" height="15" xlink:href="img/23.png" />
<image x="321" y="154" width="8" height="15" xlink:href="img/24.png" />
<image x="321" y="130" width="8" height="15" xlink:href="img/25.png" />
<image x="318" y="104" width="15" height="15" xlink:href="img/26.png" />
<image x="357" y="230" width="8" height="15" xlink:href="img/27.png" />
<image x="354" y="205" width="15" height="15" xlink:href="img/28.png" />
<image x="357" y="180" width="8" height="15" xlink:href="img/29.png" />
<image x="357" y="154" width="8" height="15" xlink:href="img/30.png" />
<image x="357" y="130" width="8" height="15" xlink:href="img/31.png" />
<image x="354" y="104" width="15" height="15" xlink:href="img/32.png" />
<image x="333.333" y="230" width="8" height="15" xlink:href="img/33.png" transform="scale(1.125 , 1)" />
<image x="372" y="205" width="15" height="15" xlink:href="img/34.png" />
<image x="333.333" y="180" width="8" height="15" xlink:href="img/35.png" transform="scale(1.125 , 1)" />
<image x="333.333" y="154" width="8" height="15" xlink:href="img/36.png" transform="scale(1.125 , 1)" />
<image x="333.333" y="130" width="8" height="15" xlink:href="img/37.png" transform="scale(1.125 , 1)" />
<image x="372" y="104" width="15" height="15" xlink:href="img/38.png" />
<path d="M465.8,307.7l0,-0.6c0,-0.2,-0.1,-0.3,-0.3,-0.3c-0.2,0,-0.4,0.1,-0.4,0.3l0,0.6c0,0.2,0.2,0.4,0.4,0.4c0.2,0,0.3,-0.2,0.3,-0.4m0,-2.2l0,-0.5c0,-0.2,-0.1,-0.4,-0.3,-0.4c-0.2,0,-0.4,0.2,-0.4,0.4l0,0.5c0,0.2,0.2,0.4,0.4,0.4c0.2,0,0.3,-0.2,0.3,-0.4m0,-2.2l0,-0.5c0,-0.2,-0.1,-0.4,-0.3,-0.4c-0.2,0,-0.4,0.2,-0.4,0.4l0,0.5c0,0.2,0.2,0.4,0.4,0.4c0.2,0,0.3,-0.2,0.3,-0.4m0,-2.1l0,-0.6c0,-0.2,-0.1,-0.4,-0.3,-0.4c-0.2,0,-0.4,0.2,-0.4,0.4l0,0.6c0,0.2,0.2,0.3,0.4,0.3c0.2,0,0.3,-0.1,0.3,-0.3m0,-2.2l0,-0.6c0,-0.2,-0.1,-0.3,-0.3,-0.3c-0.2,0,-0.4,0.1,-0.4,0.3l0,0.6c0,0.2,0.2,0.3,0.4,0.3c0.2,0,0.3,-0.1,0.3,-0.3m0,-2.2l0,-0.6c0,-0.2,-0.1,-0.3,-0.3,-0.3c-0.2,0,-0.4,0.1,-0.4,0.3l0,0.6c0,0.2,0.2,0.4,0.4,0.4c0.2,0,0.3,-0.2,0.3,-0.4m0,-2.2l0,-0.5c0,-0.2,-0.1,-0.4,-0.3,-0.4c-0.2,0,-0.4,0.2,-0.4,0.4l0,0.5c0,0.2,0.2,0.4,0.4,0.4c0.2,0,0.3,-0.2,0.3,-0.4m0,-2.2l0,-0.5c0,-0.2,-0.1,-0.4,-0.3,-0.4c-0.2,0,-0.4,0.2,-0.4,0.4l0,0.5c0,0.2,0.2,0.4,0.4,0.4c0.2,0,0.3,-0.2,0.3,-0.4m0,-2.1l0,-0.6c0,-0.2,-0.1,-0.4,-0.3,-0.4c-0.2,0,-0.4,0.2,-0.4,0.4l0,0.6c0,0.2,0.2,0.3,0.4,0.3c0.2,0,0.3,-0.1,0.3,-0.3m0,-2.2l0,-0.6c0,-0.2,-0.1,-0.3,-0.3,-0.3c-0.2,0,-0.4,0.1,-0.4,0.3l0,0.6c0,0.2,0.2,0.3,0.4,0.3c0.2,0,0.3,-0.1,0.3,-0.3m0,-2.2l0,-0.5c0,-0.2,-0.1,-0.4,-0.3,-0.4c-0.2,0,-0.4,0.2,-0.4,0.4l0,0.5c0,0.2,0.2,0.4,0.4,0.4c0.2,0,0.3,-0.2,0.3,-0.4m0,-2.2l0,-0.5c0,-0.2,-0.1,-0.4,-0.3,-0.4c-0.2,0,-0.4,0.2,-0.4,0.4l0,0.5c0,0.2,0.2,0.4,0.4,0.4c0.2,0,0.3,-0.2,0.3,-0.4m0,-2.2l0,-0.5c0,-0.2,-0.1,-0.4,-0.3,-0.4c-0.2,0,-0.4,0.2,-0.4,0.4l0,0.5c0,0.2,0.2,0.4,0.4,0.4c0.2,0,0.3,-0.2,0.3,-0.4m0,-2.1l0,-0.6c0,-0.2,-0.1,-0.4,-0.3,-0.4c-0.2,0,-0.4,0.2,-0.4,0.4l0,0.6c0,0.2,0.2,0.3,0.4,0.3c0.2,0,0.3,-0.1,0.3,-0.3m0,-2.2l0,-0.6c0,-0.2,-0.1,-0.3,-0.3,-0.3c-0.2,0,-0.4,0.1,-0.4,0.3l0,0.6c0,0.2,0.2,0.3,0.4,0.3c0.2,0,0.3,-0.1,0.3,-0.3m0,-2.2l0,-0.5c0,-0.3,-0.1,-0.4,-0.3,-0.4c-0.2,0,-0.4,0.1,-0.4,0.4l0,0.5c0,0.2,0.2,0.4,0.4,0.4c0.2,0,0.3,-0.2,0.3,-0.4m0,-2.2l0,-0.5c0,-0.2,-0.1,-0.4,-0.3,-0.4c-0.2,0,-0.4,0.2,-0.4,0.4l0,0.5c0,0.2,0.2,0.4,0.4,0.4c0.2,0,0.3,-0.2,0.3,-0.4m0,-2.2l0,-0.5c0,-0.2,-0.1,-0.4,-0.3,-0.4c-0.2,0,-0.4,0.2,-0.4,0.4l0,0.5c0,0.2,0.2,0.4,0.4,0.4c0.2,0,0.3,-0.2,0.3,-0.4m0,-2.1l0,-0.6c0,-0.2,-0.1,-0.4,-0.3,-0.4c-0.2,0,-0.4,0.2,-0.4,0.4l0,0.6c0,0.2,0.2,0.3,0.4,0.3c0.2,0,0.3,-0.1,0.3,-0.3m0,-2.2l0,-0.6c0,-0.2,-0.1,-0.3,-0.3,-0.3c-0.2,0,-0.4,0.1,-0.4,0.3l0,0.6c0,0.2,0.2,0.3,0.4,0.3c0.2,0,0.3,-0.1,0.3,-0.3m0,-2.2l0,-0.5c0,-0.2,-0.1,-0.4,-0.3,-0.4c-0.2,0,-0.4,0.2,-0.4,0.4l0,0.5c0,0.2,0.2,0.4,0.4,0.4c0.2,0,0.3,-0.2,0.3,-0.4m0,-2.2l0,-0.5c0,-0.2,-0.1,-0.4,-0.3,-0.4c-0.2,0,-0.4,0.2,-0.4,0.4l0,0.5c0,0.2,0.2,0.4,0.4,0.4c0.2,0,0.3,-0.2,0.3,-0.4m0,-2.2l0,-0.5c0,-0.2,-0.1,-0.4,-0.3,-0.4c-0.2,0,-0.4,0.2,-0.4,0.4l0,0.5c0,0.2,0.2,0.4,0.4,0.4c0.2,0,0.3,-0.2,0.3,-0.4m0,-2.1l0,-0.6c0,-0.2,-0.1,-0.3,-0.3,-0.3c-0.2,0,-0.4,0.1,-0.4,0.3l0,0.6c0,0.2,0.2,0.3,0.4,0.3c0.2,0,0.3,-0.1,0.3,-0.3m0,-2.2l0,-0.6c0,-0.2,-0.1,-0.3,-0.3,-0.3c-0.2,0,-0.4,0.1,-0.4,0.3l0,0.6c0,0.2,0.2,0.4,0.4,0.4c0.2,0,0.3,-0.2,0.3,-0.4m0,-2.2l0,-0.5c0,-0.2,-0.1,-0.4,-0.3,-0.4c-0.2,0,-0.4,0.2,-0.4,0.4l0,0.5c0,0.2,0.2,0.4,0.4,0.4c0.2,0,0.3,-0.2,0.3,-0.4m0,-2.2l0,-0.5c0,-0.2,-0.1,-0.4,-0.3,-0.4c-0.2,0,-0.4,0.2,-0.4,0.4l0,0.5c0,0.2,0.2,0.4,0.4,0.4c0.2,0,0.3,-0.2,0.3,-0.4m0,-2.2l0,-0.5c0,-0.2,-0.1,-0.4,-0.3,-0.4c-0.2,0,-0.4,0.2,-0.4,0.4l0,0.5c0,0.3,0.2,0.4,0.4,0.4c0.2,0,0.3,-0.1,0.3,-0.4m0,-2.1l0,-0.6c0,-0.2,-0.1,-0.3,-0.3,-0.3c-0.2,0,-0.4,0.1,-0.4,0.3l0,0.6c0,0.2,0.2,0.3,0.4,0.3c0.2,0,0.3,-0.1,0.3,-0.3m0,-2.2l0,-0.6c0,-0.2,-0.1,-0.3,-0.3,-0.3c-0.2,0,-0.4,0.1,-0.4,0.3l0,0.6c0,0.2,0.2,0.4,0.4,0.4c0.2,0,0.3,-0.2,0.3,-0.4m0,-2.2l0,-0.5c0,-0.2,-0.1,-0.4,-0.3,-0.4c-0.2,0,-0.4,0.2,-0.4,0.4l0,0.5c0,0.2,0.2,0.4,0.4,0.4c0.2,0,0.3,-0.2,0.3,-0.4m0,-2.2l0,-0.5c0,-0.2,-0.1,-0.4,-0.3,-0.4c-0.2,0,-0.4,0.2,-0.4,0.4l0,0.5c0,0.2,0.2,0.4,0.4,0.4c0.2,0,0.3,-0.2,0.3,-0.4m0,-2.1l0,-0.6c0,-0.2,-0.1,-0.4,-0.3,-0.4c-0.2,0,-0.4,0.2,-0.4,0.4l0,0.6c0,0.2,0.2,0.3,0.4,0.3c0.2,0,0.3,-0.1,0.3,-0.3m0,-2.2l0,-0.6c0,-0.2,-0.1,-0.3,-0.3,-0.3c-0.2,0,-0.4,0.1,-0.4,0.3l0,0.6c0,0.2,0.2,0.3,0.4,0.3c0.2,0,0.3,-0.1,0.3,-0.3m0,-2.2l0,-0.6c0,-0.2,-0.1,-0.3,-0.3,-0.3c-0.2,0,-0.4,0.1,-0.4,0.3l0,0.6c0,0.2,0.2,0.4,0.4,0.4c0.2,0,0.3,-0.2,0.3,-0.4m0,-2.2l0,-0.5c0,-0.2,-0.1,-0.4,-0.3,-0.4c-0.2,0,-0.4,0.2,-0.4,0.4l0,0.5c0,0.2,0.2,0.4,0.4,0.4c0.2,0,0.3,-0.2,0.3,-0.4m0,-2.2l0,-0.5c0,-0.2,-0.1,-0.4,-0.3,-0.4c-0.2,0,-0.4,0.2,-0.4,0.4l0,0.5c0,0.2,0.2,0.4,0.4,0.4c0.2,0,0.3,-0.2,0.3,-0.4m0,-2.1l0,-0.6c0,-0.2,-0.1,-0.4,-0.3,-0.4c-0.2,0,-0.4,0.2,-0.4,0.4l0,0.6c0,0.2,0.2,0.3,0.4,0.3c0.2,0,0.3,-0.1,0.3,-0.3m0,-2.2l0,-0.6c0,-0.2,-0.1,-0.3,-0.3,-0.3c-0.2,0,-0.4,0.1,-0.4,0.3l0,0.6c0,0.2,0.2,0.3,0.4,0.3c0.2,0,0.3,-0.1,0.3,-0.3m0,-2.2l0,-0.5c0,-0.2,-0.1,-0.4,-0.3,-0.4c-0.2,0,-0.4,0.2,-0.4,0.4l0,0.5c0,0.2,0.2,0.4,0.4,0.4c0.2,0,0.3,-0.2,0.3,-0.4m0,-2.2l0,-0.5c0,-0.2,-0.1,-0.4,-0.3,-0.4c-0.2,0,-0.4,0.2,-0.4,0.4l0,0.5c0,0.2,0.2,0.4,0.4,0.4c0.2,0,0.3,-0.2,0.3,-0.4m0,-2.2l0,-0.5c0,-0.2,-0.1,-0.4,-0.3,-0.4c-0.2,0,-0.4,0.2,-0.4,0.4l0,0.5c0,0.2,0.2,0.4,0.4,0.4c0.2,0,0.3,-0.2,0.3,-0.4m0,-2.1l0,-0.6c0,-0.2,-0.1,-0.4,-0.3,-0.4c-0.2,0,-0.4,0.2,-0.4,0.4l0,0.6c0,0.2,0.2,0.3,0.4,0.3c0.2,0,0.3,-0.1,0.3,-0.3m0,-2.2l0,-0.6c0,-0.2,-0.1,-0.3,-0.3,-0.3c-0.2,0,-0.4,0.1,-0.4,0.3l0,0.6c0,0.2,0.2,0.4,0.4,0.4c0.2,0,0.3,-0.2,0.3,-0.4m0,-2.2l0,-0.5c0,-0.2,-0.1,-0.4,-0.3,-0.4c-0.2,0,-0.4,0.2,-0.4,0.4l0,0.5c0,0.2,0.2,0.4,0.4,0.4c0.2,0,0.3,-0.2,0.3,-0.4m0,-2.2l0,-0.5c0,-0.2,-0.1,-0.4,-0.3,-0.4c-0.2,0,-0.4,0.2,-0.4,0.4l0,0.5c0,0.2,0.2,0.4,0.4,0.4c0.2,0,0.3,-0.2,0.3,-0.4m0,-2.2l0,-0.5c0,-0.2,-0.1,-0.4,-0.3,-0.4c-0.2,0,-0.4,0.2,-0.4,0.4l0,0.5c0,0.2,0.2,0.4,0.4,0.4c0.2,0,0.3,-0.2,0.3,-0.4m0,-2.1l0,-0.6c0,-0.2,-0.1,-0.3,-0.3,-0.3c-0.2,0,-0.4,0.1,-0.4,0.3l0,0.6c0,0.2,0.2,0.3,0.4,0.3c0.2,0,0.3,-0.1,0.3,-0.3m0,-2.2l0,-0.6c0,-0.2,-0.1,-0.3,-0.3,-0.3c-0.2,0,-0.4,0.1,-0.4,0.3l0,0.6c0,0.2,0.2,0.3,0.4,0.3c0.2,0,0.3,-0.1,0.3,-0.3m0,-2.2l0,-0.5c0,-0.2,-0.1,-0.4,-0.3,-0.4c-0.2,0,-0.4,0.2,-0.4,0.4l0,0.5c0,0.2,0.2,0.4,0.4,0.4c0.2,0,0.3,-0.2,0.3,-0.4m0,-2.2l0,-0.5c0,-0.2,-0.1,-0.4,-0.3,-0.4c-0.2,0,-0.4,0.2,-0.4,0.4l0,0.5c0,0.2,0.2,0.4,0.4,0.4c0.2,0,0.3,-0.2,0.3,-0.4m0,-2.2l0,-0.5c0,-0.2,-0.1,-0.4,-0.3,-0.4c-0.2,0,-0.4,0.2,-0.4,0.4l0,0.5c0,0.2,0.2,0.4,0.4,0.4c0.2,0,0.3,-0.2,0.3,-0.4m0,-2.1l0,-0.6c0,-0.2,-0.1,-0.3,-0.3,-0.3c-0.2,0,-0.4,0.1,-0.4,0.3l0,0.6c0,0.2,0.2,0.3,0.4,0.3c0.2,0,0.3,-0.1,0.3,-0.3m0,-2.2l0,-0.6c0,-0.2,-0.1,-0.3,-0.3,-0.3c-0.2,0,-0.4,0.1,-0.4,0.3l0,0.6c0,0.2,0.2,0.4,0.4,0.4c0.2,0,0.3,-0.2,0.3,-0.4m0,-2.2l0,-0.5c0,-0.2,-0.1,-0.4,-0.3,-0.4c-0.2,0,-0.4,0.2,-0.4,0.4l0,0.5c0,0.2,0.2,0.4,0.4,0.4c0.2,0,0.3,-0.2,0.3,-0.4m0,-2.2l0,-0.5c0,-0.2,-0.1,-0.4,-0.3,-0.4c-0.2,0,-0.4,0.2,-0.4,0.4l0,0.5c0,0.2,0.2,0.4,0.4,0.4c0.2,0,0.3,-0.2,0.3,-0.4m0,-2.1l0,-0.6c0,-0.2,-0.1,-0.4,-0.3,-0.4c-0.2,0,-0.4,0.2,-0.4,0.4l0,0.6c0,0.2,0.2,0.3,0.4,0.3c0.2,0,0.3,-0.1,0.3,-0.3m0,-2.2l0,-0.6c0,-0.2,-0.1,-0.3,-0.3,-0.3c-0.2,0,-0.4,0.1,-0.4,0.3l0,0.6c0,0.2,0.2,0.3,0.4,0.3c0.2,0,0.3,-0.1,0.3,-0.3m0,-2.2l0,-0.6c0,-0.2,-0.1,-0.3,-0.3,-0.3c-0.2,0,-0.4,0.1,-0.4,0.3l0,0.6c0,0.2,0.2,0.4,0.4,0.4c0.2,0,0.3,-0.2,0.3,-0.4m0,-2.2l0,-0.5c0,-0.2,-0.1,-0.4,-0.3,-0.4c-0.2,0,-0.4,0.2,-0.4,0.4l0,0.5c0,0.2,0.2,0.4,0.4,0.4c0.2,0,0.3,-0.2,0.3,-0.4m0,-2.2l0,-0.5c0,-0.2,-0.1,-0.4,-0.3,-0.4c-0.2,0,-0.4,0.2,-0.4,0.4l0,0.5c0,0.2,0.2,0.4,0.4,0.4c0.2,0,0.3,-0.2,0.3,-0.4m0,-2.2l0,-0.5c0,-0.2,-0.1,-0.4,-0.3,-0.4c-0.2,0,-0.4,0.2,-0.4,0.4l0,0.5c0,0.3,0.2,0.4,0.4,0.4c0.2,0,0.3,-0.1,0.3,-0.4m0,-2.1l0,-0.6c0,-0.2,-0.1,-0.3,-0.3,-0.3c-0.2,0,-0.4,0.1,-0.4,0.3l0,0.6c0,0.2,0.2,0.3,0.4,0.3c0.2,0,0.3,-0.1,0.3,-0.3m0,-2.2l0,-0.5c0,-0.3,-0.1,-0.4,-0.3,-0.4c-0.2,0,-0.4,0.1,-0.4,0.4l0,0.5c0,0.2,0.2,0.4,0.4,0.4c0.2,0,0.3,-0.2,0.3,-0.4m0,-2.2l0,-0.5c0,-0.2,-0.1,-0.4,-0.3,-0.4c-0.2,0,-0.4,0.2,-0.4,0.4l0,0.5c0,0.2,0.2,0.4,0.4,0.4c0.2,0,0.3,-0.2,0.3,-0.4m0,-2.2l0,-0.5c0,-0.2,-0.1,-0.4,-0.3,-0.4c-0.2,0,-0.4,0.2,-0.4,0.4l0,0.5c0,0.2,0.2,0.4,0.4,0.4c0.2,0,0.3,-0.2,0.3,-0.4m0,-2.1l0,-0.6c0,-0.2,-0.1,-0.4,-0.3,-0.4c-0.2,0,-0.4,0.2,-0.4,0.4l0,0.6c0,0.2,0.2,0.3,0.4,0.3c0.2,0,0.3,-0.1,0.3,-0.3m0,-2.2l0,-0.6c0,-0.2,-0.1,-0.3,-0.3,-0.3c-0.2,0,-0.4,0.1,-0.4,0.3l0,0.6c0,0.2,0.2,0.3,0.4,0.3c0.2,0,0.3,-0.1,0.3,-0.3m0,-2.2l0,-0.6c0,-0.2,-0.1,-0.3,-0.3,-0.3c-0.2,0,-0.4,0.1,-0.4,0.3l0,0.6c0,0.2,0.2,0.4,0.4,0.4c0.2,0,0.3,-0.2,0.3,-0.4m0,-2.2l0,-0.5c0,-0.2,-0.1,-0.4,-0.3,-0.4c-0.2,0,-0.4,0.2,-0.4,0.4l0,0.5c0,0.2,0.2,0.4,0.4,0.4c0.2,0,0.3,-0.2,0.3,-0.4m0,-2.2l0,-0.5c0,-0.2,-0.1,-0.4,-0.3,-0.4c-0.2,0,-0.4,0.2,-0.4,0.4l0,0.5c0,0.2,0.2,0.4,0.4,0.4c0.2,0,0.3,-0.2,0.3,-0.4m0,-2.1l0,-0.6c0,-0.2,-0.1,-0.4,-0.3,-0.4c-0.2,0,-0.4,0.2,-0.4,0.4l0,0.6c0,0.2,0.2,0.3,0.4,0.3c0.2,0,0.3,-0.1,0.3,-0.3m0,-2.2l0,-0.6c0,-0.2,-0.1,-0.3,-0.3,-0.3c-0.2,0,-0.4,0.1,-0.4,0.3l0,0.6c0,0.2,0.2,0.4,0.4,0.4c0.2,0,0.3,-0.2,0.3,-0.4m0,-2.2l0,-0.5c0,-0.2,-0.1,-0.4,-0.3,-0.4c-0.2,0,-0.4,0.2,-0.4,0.4l0,0.5c0,0.2,0.2,0.4,0.4,0.4c0.2,0,0.3,-0.2,0.3,-0.4m0,-2.2l0,-0.5c0,-0.2,-0.1,-0.4,-0.3,-0.4c-0.2,0,-0.4,0.2,-0.4,0.4l0,0.5c0,0.2,0.2,0.4,0.4,0.4c0.2,0,0.3,-0.2,0.3,-0.4m0,-2.2l0,-0.5c0,-0.2,-0.1,-0.4,-0.3,-0.4c-0.2,0,-0.4,0.2,-0.4,0.4l0,0.5c0,0.2,0.2,0.4,0.4,0.4c0.2,0,0.3,-0.2,0.3,-0.4m0,-2.1l0,-0.6c0,-0.2,-0.1,-0.3,-0.3,-0.3c-0.2,0,-0.4,0.1,-0.4,0.3l0,0.6c0,0.2,0.2,0.3,0.4,0.3c0.2,0,0.3,-0.1,0.3,-0.3m0,-2.2l0,-0.6c0,-0.2,-0.1,-0.3,-0.3,-0.3c-0.2,0,-0.4,0.1,-0.4,0.3l0,0.6c0,0.2,0.2,0.3,0.4,0.3c0.2,0,0.3,-0.1,0.3,-0.3m0,-2.2l0,-0.5c0,-0.2,-0.1,-0.4,-0.3,-0.4c-0.2,0,-0.4,0.2,-0.4,0.4l0,0.5c0,0.2,0.2,0.4,0.4,0.4c0.2,0,0.3,-0.2,0.3,-0.4m0,-2.2l0,-0.5c0,-0.2,-0.1,-0.4,-0.3,-0.4c-0.2,0,-0.4,0.2,-0.4,0.4l0,0.5c0,0.2,0.2,0.4,0.4,0.4c0.2,0,0.3,-0.2,0.3,-0.4m0,-2.2l0,-0.5c0,-0.2,-0.1,-0.4,-0.3,-0.4c-0.2,0,-0.4,0.2,-0.4,0.4l0,0.5c0,0.2,0.2,0.4,0.4,0.4c0.2,0,0.3,-0.2,0.3,-0.4m0,-2.1l0,-0.6c0,-0.2,-0.1,-0.3,-0.3,-0.3c-0.2,0,-0.4,0.1,-0.4,0.3l0,0.6c0,0.2,0.2,0.3,0.4,0.3c0.2,0,0.3,-0.1,0.3,-0.3m0,-2.2l0,-0.6c0,-0.2,-0.1,-0.3,-0.3,-0.3c-0.2,0,-0.4,0.1,-0.4,0.3l0,0.6c0,0.2,0.2,0.4,0.4,0.4c0.2,0,0.3,-0.2,0.3,-0.4m0,-2.2l0,-0.5c0,-0.2,-0.1,-0.4,-0.3,-0.4c-0.2,0,-0.4,0.2,-0.4,0.4l0,0.5c0,0.2,0.2,0.4,0.4,0.4c0.2,0,0.3,-0.2,0.3,-0.4m0,-2.2l0,-0.5c0,-0.2,-0.1,-0.4,-0.3,-0.4c-0.2,0,-0.4,0.2,-0.4,0.4l0,0.5c0,0.2,0.2,0.4,0.4,0.4c0.2,0,0.3,-0.2,0.3,-0.4m0,-2.1l0,-0.6c0,-0.2,-0.1,-0.4,-0.3,-0.4c-0.2,0,-0.4,0.2,-0.4,0.4l0,0.6c0,0.2,0.2,0.3,0.4,0.3c0.2,0,0.3,-0.1,0.3,-0.3m0,-2.2l0,-0.6c0,-0.2,-0.1,-0.3,-0.3,-0.3c-0.2,0,-0.4,0.1,-0.4,0.3l0,0.6c0,0.2,0.2,0.3,0.4,0.3c0.2,0,0.3,-0.1,0.3,-0.3m0,-2.2l0,-0.6c0,-0.2,-0.1,-0.3,-0.3,-0.3c-0.2,0,-0.4,0.1,-0.4,0.3l0,0.6c0,0.2,0.2,0.4,0.4,0.4c0.2,0,0.3,-0.2,0.3,-0.4m0,-2.2l0,-0.5c0,-0.2,-0.1,-0.4,-0.3,-0.4c-0.2,0,-0.4,0.2,-0.4,0.4l0,0.5c0,0.2,0.2,0.4,0.4,0.4c0.2,0,0.3,-0.2,0.3,-0.4m0,-2.2l0,-0.5c0,-0.2,-0.1,-0.4,-0.3,-0.4c-0.2,0,-0.4,0.2,-0.4,0.4l0,0.5c0,0.2,0.2,0.4,0.4,0.4c0.2,0,0.3,-0.2,0.3,-0.4m0,-2.1l0,-0.6c0,-0.2,-0.1,-0.4,-0.3,-0.4c-0.2,0,-0.4,0.2,-0.4,0.4l0,0.6c0,0.2,0.2,0.3,0.4,0.3c0.2,0,0.3,-0.1,0.3,-0.3m0,-2.2l0,-0.6c0,-0.2,-0.1,-0.3,-0.3,-0.3c-0.2,0,-0.4,0.1,-0.4,0.3l0,0.6c0,0.2,0.2,0.3,0.4,0.3c0.2,0,0.3,-0.1,0.3,-0.3m0,-2.2l0,-0.5c0,-0.3,-0.1,-0.4,-0.3,-0.4c-0.2,0,-0.4,0.1,-0.4,0.4l0,0.5c0,0.2,0.2,0.4,0.4,0.4c0.2,0,0.3,-0.2,0.3,-0.4m0,-2.2l0,-0.5c0,-0.2,-0.1,-0.4,-0.3,-0.4c-0.2,0,-0.4,0.2,-0.4,0.4l0,0.5c0,0.2,0.2,0.4,0.4,0.4c0.2,0,0.3,-0.2,0.3,-0.4m0,-2.2l0,-0.5c0,-0.2,-0.1,-0.4,-0.3,-0.4c-0.2,0,-0.4,0.2,-0.4,0.4l0,0.5c0,0.2,0.2,0.4,0.4,0.4c0.2,0,0.3,-0.2,0.3,-0.4m0,-2.1l0,-0.6c0,-0.2,-0.1,-0.4,-0.3,-0.4c-0.2,0,-0.4,0.2,-0.4,0.4l0,0.6c0,0.2,0.2,0.3,0.4,0.3c0.2,0,0.3,-0.1,0.3,-0.3m0,-2.2l0,-0.6c0,-0.2,-0.1,-0.3,-0.3,-0.3c-0.2,0,-0.4,0.1,-0.4,0.3l0,0.6c0,0.2,0.2,0.3,0.4,0.3c0.2,0,0.3,-0.1,0.3,-0.3m0,-2.2l0,-0.6c0,-0.2,-0.1,-0.3,-0.3,-0.3c-0.2,0,-0.4,0.1,-0.4,0.3l0,0.6c0,0.2,0.2,0.4,0.4,0.4c0.2,0,0.3,-0.2,0.3,-0.4m0,-2.2l0,-0.5c0,-0.2,-0.1,-0.4,-0.3,-0.4c-0.2,0,-0.4,0.2,-0.4,0.4l0,0.5c0,0.2,0.2,0.4,0.4,0.4c0.2,0,0.3,-0.2,0.3,-0.4m0,-2.2l0,-0.5c0,-0.2,-0.1,-0.4,-0.3,-0.4c-0.2,0,-0.4,0.2,-0.4,0.4l0,0.5c0,0.2,0.2,0.4,0.4,0.4c0.2,0,0.3,-0.2,0.3,-0.4m0,-2.1l0,-0.6c0,-0.2,-0.1,-0.4,-0.3,-0.4c-0.2,0,-0.4,0.2,-0.4,0.4l0,0.6c0,0.2,0.2,0.3,0.4,0.3c0.2,0,0.3,-0.1,0.3,-0.3m0,-2.2l0,-0.6c0,-0.2,-0.1,-0.3,-0.3,-0.3c-0.2,0,-0.4,0.1,-0.4,0.3l0,0.6c0,0.2,0.2,0.4,0.4,0.4c0.2,0,0.3,-0.2,0.3,-0.4m0,-2.2l0,-0.5c0,-0.2,-0.1,-0.4,-0.3,-0.4c-0.2,0,-0.4,0.2,-0.4,0.4l0,0.5c0,0.2,0.2,0.4,0.4,0.4c0.2,0,0.3,-0.2,0.3,-0.4Z" class="g2_4" />
<image x="465" y="86" width="16" height="221" xlink:href="img/39.png" />
<image x="477" y="283" width="4" height="3" xlink:href="img/40.png" />
<image x="475" y="225.6" width="6" height="4" xlink:href="img/41.png" transform="scale(1 , 1.25)" />
<image x="475" y="283" width="6" height="4" xlink:href="img/42.png" />
<image x="465" y="233" width="16" height="2" xlink:href="img/43.png" />
<image x="423.9" y="208" width="9" height="2" xlink:href="img/44.png" transform="scale(1.111 , 1)" />
<image x="471" y="207" width="2" height="5" xlink:href="img/45.png" />
<image x="471" y="208" width="2" height="2" xlink:href="img/46.png" />
<image x="465" y="183" width="16" height="2" xlink:href="img/47.png" />
<image x="465" y="104.666" width="16" height="2" xlink:href="img/48.png" transform="scale(1 , 1.5)" />
<image x="465" y="133" width="16" height="2" xlink:href="img/49.png" />
<image x="232.5" y="86" width="1" height="220" xlink:href="img/50.png" transform="scale(2 , 1)" />
<image x="465" y="233" width="2" height="2" xlink:href="img/51.png" />
<image x="465" y="158" width="2" height="2" xlink:href="img/52.png" />
<image x="585" y="229" width="101" height="15" xlink:href="img/53.png" />
<image x="586" y="204" width="100" height="15" xlink:href="img/54.png" />
<image x="585" y="179" width="101" height="15" xlink:href="img/55.png" />
<image x="585" y="154" width="101" height="15" xlink:href="img/56.png" />
<image x="585" y="129" width="101" height="15" xlink:href="img/57.png" />
<image x="586" y="104" width="100" height="15" xlink:href="img/58.png" />
<image x="586" y="280" width="101" height="15" xlink:href="img/59.png" />
<path d="M488,235l2,0l0,-2l-2,0l0,2Z" class="g2_4" />
<path d="M476,211l5,0l0,-5l-5,0l0,5Z" class="g2_4" />
<path d="M478.5,184.5l2,0" class="g3_4" />
<path d="M476,160l2,0l0,-3l-2,0l0,3Z" class="g2_4" />
<path d="M466,134l2,0l0,-2l-2,0l0,2Z" class="g2_4" />
<path d="M484,111l5,0l0,-6l-5,0l0,6Z" class="g2_4" />
<path d="M194.3,257.2l459.2,0.1c0.2,0,0.4,-0.2,0.4,-0.4c0,-0.2,-0.2,-0.3,-0.4,-0.3L194.3,256.5c-0.2,0,-0.4,0.1,-0.4,0.3c0,0.2,0.2,0.4,0.4,0.4Z" class="g2_4" />
<path d="M289.5,64.5l47,0" class="g3_4" />
<path d="M345.5,64.5l47,0" class="g3_4" />
<path fill-rule="evenodd" d="M426.5,845.5l-352,0l0,-3l352,0l0,3Z" class="g1_4" />
<image x="82" y="490" width="337" height="306" xlink:href="img/60.png" />
</svg>