<?xml version="1.0" encoding="UTF-8" standalone="no"?>
<!DOCTYPE svg PUBLIC "-//W3C//DTD SVG 1.1//EN"
"http://www.w3.org/Graphics/SVG/1.1/DTD/svg11.dtd">
<svg version="1.1" xmlns="http://www.w3.org/2000/svg" xmlns:xlink="http://www.w3.org/1999/xlink">
<defs>
<clipPath id="c0_2"><path d="M77.5,1140.5l0,-15l59,0l0,15Z" /></clipPath>
<style type="text/css"><![CDATA[
.g2_2{
fill: none;
stroke: #131413;
stroke-width: 1;
stroke-linecap: butt;
stroke-linejoin: miter;
}
.g1_2{
fill: #131413;
}
]]></style>
</defs>
<path d="M77,69l754,0l0,-2L77,67l0,2Z" class="g1_2" />
<path fill-rule="evenodd" d="M99.8,1135.2c0,-2.7,-3.7,-2.2,-3.7,-4.3c0,-0.6,0.4,-1.2,1.2,-1.2c1.1,0,1.4,0.9,1.6,1.7l0.5,0c-0.1,-0.9,-0.1,-1.4,-0.1,-1.9c-0.6,-0.2,-1.2,-0.3,-1.8,-0.3c-1.6,0,-2.6,1,-2.6,2.1c0,2.6,3.7,2.1,3.7,4.3c0,0.8,-0.6,1.4,-1.5,1.4c-1.2,0,-1.6,-1.1,-1.9,-2.1l-0.5,0.1c0,0.8,0.1,1.5,0.2,2.1c0.6,0.2,1.3,0.4,2.1,0.4c1.6,0,2.8,-1.1,2.8,-2.3Z" class="g1_2" />
<path fill-rule="evenodd" d="M104.8,1134.7c0,1.6,-0.8,2.1,-1.4,2.1c-0.5,0,-0.9,-0.2,-1.1,-0.5l0,-3.1c0.3,-0.2,0.7,-0.4,1.1,-0.4c0.8,0,1.4,0.6,1.4,1.9Zm1.2,-0.5c0,-1.1,-0.8,-2.2,-2.1,-2.2c-0.2,0,-0.3,0,-0.5,0.1l-1.1,0.6l0,-0.8c-0.6,0.2,-1.2,0.4,-1.9,0.5l0,0.4c0.7,0,0.8,0.1,0.8,0.8l0,5.7c0,0.7,-0.1,0.8,-0.9,0.9l0,0.4l3.1,0l0,-0.4c-1,-0.1,-1.1,-0.2,-1.1,-0.9l0,-2c0.2,0.1,0.4,0.1,0.8,0.1c1.6,-0.2,2.9,-1.4,2.9,-3.2Z" class="g1_2" />
<path fill-rule="evenodd" d="M110.8,1132.6c0,-0.3,-0.3,-0.6,-0.7,-0.6c-0.5,0,-1.1,0.5,-1.4,1.2l-0.1,-1.2c-0.5,0.2,-1.1,0.3,-1.8,0.4l0,0.4c0.7,0.1,0.7,0.1,0.7,0.8l0,2.4c0,0.8,0,0.8,-0.8,0.9l0,0.4l2.9,0l0,-0.4c-0.9,-0.1,-1,-0.1,-1,-0.9l0,-1.9c0.3,-0.7,0.6,-1,0.9,-1c0.2,0,0.4,0,0.5,0.2c0.3,0.3,0.8,-0.2,0.8,-0.7Z" class="g1_2" />
<path fill-rule="evenodd" d="M114.1,1137.3l0,-0.4c-0.8,-0.1,-0.8,-0.1,-0.8,-0.9l0,-4c-0.6,0.2,-1.2,0.3,-1.9,0.4l0,0.4c0.7,0.1,0.8,0.1,0.8,0.9l0,2.3c0,0.8,-0.1,0.8,-0.9,0.9l0,0.4l2.8,0Z" class="g1_2" />
<path fill-rule="evenodd" d="M113.4,1130.1c0,-0.4,-0.3,-0.7,-0.7,-0.7c-0.4,0,-0.8,0.3,-0.8,0.7c0,0.4,0.4,0.7,0.8,0.7c0.4,0,0.7,-0.3,0.7,-0.7Z" class="g1_2" />
<path fill-rule="evenodd" d="M120.6,1137.3l0,-0.4c-0.7,-0.1,-0.8,-0.1,-0.8,-0.8l0,-2.5c0,-1,-0.6,-1.6,-1.5,-1.6c-0.6,0,-1.4,0.6,-1.7,0.8l0,-0.8c-0.6,0.2,-1.2,0.3,-1.8,0.4l0,0.4c0.6,0.1,0.7,0.1,0.7,0.8l0,2.5c0,0.7,-0.1,0.7,-0.9,0.8l0,0.4l2.6,0l0,-0.4c-0.6,-0.1,-0.6,-0.1,-0.6,-0.8l0,-2.7c0.3,-0.3,0.8,-0.6,1.2,-0.6c0.6,0,1,0.4,1,1.2l0,2.1c0,0.7,-0.1,0.7,-0.7,0.8l0,0.4l2.5,0Z" class="g1_2" />
<path fill-rule="evenodd" d="M125.5,1138.9c0,0.7,-0.6,1.4,-1.6,1.4c-1,0,-1.6,-0.5,-1.6,-1.3c0,-0.5,0.4,-1.2,1.3,-1.2c0.7,0,1.1,0.1,1.4,0.2c0.3,0.1,0.5,0.5,0.5,0.9Zm-0.8,-4.9c0,1,-0.5,1.4,-0.9,1.4c-0.7,0,-1.2,-0.6,-1.2,-1.5c0,-0.9,0.6,-1.4,1,-1.4c0.7,0,1.1,0.7,1.1,1.5Zm2,-1.7l-0.1,-0.2c-0.5,0.1,-1.1,0.2,-1.7,0.2c-0.3,-0.2,-0.7,-0.3,-1.2,-0.3c-1,0,-2.2,0.7,-2.2,2.1c0,0.8,0.5,1.5,1.1,1.7c-0.2,0.2,-0.7,0.6,-1.2,0.8c0,0.7,0.6,1,1,1.2c-1,0.7,-1.2,1.1,-1.2,1.6c0,0.7,0.7,1.6,2.2,1.6c1.6,0,3.1,-1.2,3.1,-2.5c0,-1.2,-1,-1.6,-1.8,-1.6l-1.3,0c-0.5,0,-0.7,-0.2,-0.7,-0.4c0,-0.2,0.2,-0.5,0.5,-0.6c0.2,0,0.3,0,0.4,0c1,0,2.2,-0.7,2.2,-2c0,-0.3,-0.1,-0.8,-0.3,-1l0.6,0c0.2,-0.1,0.5,-0.4,0.6,-0.6Z" class="g1_2" />
<path fill-rule="evenodd" d="M130.3,1133.6c0,0.3,0,0.3,-0.3,0.3l-1.8,0.1c0.1,-1,0.6,-1.5,1.1,-1.5c0.6,0,1,0.6,1,1.1Zm1.1,0.3c0,-1,-0.8,-1.9,-1.9,-1.9c-1.2,0,-2.5,1.3,-2.5,2.9c0,1.4,0.9,2.6,2.4,2.6c0.4,0,1.2,-0.3,1.9,-1.1l-0.2,-0.4c-0.5,0.4,-0.8,0.5,-1.3,0.5c-0.8,0,-1.6,-0.6,-1.7,-2c1.4,0,2.8,-0.1,3,-0.1c0.3,-0.1,0.3,-0.2,0.3,-0.5Z" class="g1_2" />
<path fill-rule="evenodd" d="M136.2,1132.6c0,-0.3,-0.3,-0.6,-0.7,-0.6c-0.5,0,-1,0.5,-1.4,1.2l0,-1.2c-0.6,0.2,-1.2,0.3,-1.9,0.4l0,0.4c0.7,0.1,0.8,0.1,0.8,0.8l0,2.4c0,0.8,-0.1,0.8,-0.9,0.9l0,0.4l3,0l0,-0.4c-0.9,-0.1,-1,-0.1,-1,-0.9l0,-1.9c0.2,-0.7,0.6,-1,0.9,-1c0.1,0,0.3,0.1,0.5,0.2c0.2,0.3,0.7,-0.2,0.7,-0.7Z" class="g1_2" />
<path d="M80.5,1140.5l10,0" class="g2_2" />
<path d="M80.5,1140.5l10,0" class="g2_2" />
<g clip-path="url(#c0_2)">
<path fill-rule="evenodd" d="M82.3,1129.7l-0.1,-0.4l-1,0.1l0.1,0.8l1,-0.5Zm6.4,7.1l-7,0c0,-0.9,0.5,-1.5,1.1,-2c1.5,-1.5,2.7,-2.5,2.7,-4.9l-0.6,0c0,0.7,-0.2,1.4,-0.4,1.9c0,0,-1.6,0,-1.6,0l-0.5,-0.6l-0.4,0.4l0.3,0.4c-0.6,0.5,-1.2,1.3,-1.4,2.1l-0.4,0l0,-1.1l-0.2,-0.1l-0.9,0.7l-0.7,-0.9l2,-2.7l0.3,-0.9l1.1,-0.4L82,1128.2l0.3,-0.5l-0.1,-1.1c0.3,0.2,0.5,0.4,0.5,0.9l0.6,0.1c0.2,-0.7,0.2,-1.5,0.2,-1.5c0.5,0.3,0.4,1.8,0.4,2l0.6,0.1c0,0,0.1,-0.2,0.1,-0.5c0,-0.2,0,-0.3,-0.1,-0.6c4,0.5,5.4,4.6,4.2,9.7Zm1.5,0.6l0,-0.7l-0.9,0c0.1,-0.5,0.2,-0.9,0.3,-1.4c0.2,0,0.4,-0.1,0.4,-0.3c0,-0.2,-0.2,-0.3,-0.3,-0.4c0,-0.4,0,-0.9,0,-1.4c0.2,0,0.4,-0.1,0.4,-0.3c0,-0.2,-0.2,-0.3,-0.4,-0.3c0,-0.5,-0.1,-0.9,-0.2,-1.4c0.1,0,0.3,-0.1,0.3,-0.3c0,-0.2,-0.2,-0.3,-0.4,-0.3c-0.2,-0.4,-0.4,-0.9,-0.6,-1.3c0.1,0,0.2,-0.1,0.2,-0.2c0,-0.2,-0.1,-0.4,-0.3,-0.4c-0.1,0,-0.1,0.1,-0.2,0.1c-0.3,-0.4,-0.6,-0.8,-0.9,-1.1c0,0,0,-0.1,0,-0.1c0,-0.2,-0.1,-0.4,-0.3,-0.4c-0.1,0,-0.2,0.1,-0.2,0.2c-0.4,-0.3,-0.8,-0.5,-1.3,-0.6c0,-0.3,-0.1,-0.4,-0.3,-0.4c-0.2,0,-0.3,0.1,-0.3,0.2c-0.3,0,-0.5,-0.1,-0.8,-0.1c-0.2,-0.6,-0.5,-1.2,-1.5,-1.1c0,0,0,0.5,0,0.9C82.6,1126,82,1125.8,81.5,1126l0.2,1.5l-0.6,0.8l-0.6,0.3l-0.4,1.1l-2.1,2.9c0,0,0,0.1,0,0.1c0,0.1,0,0.2,0,0.2l1.4,1.6l0.5,-0.5l0,0.7l1.5,0c0,-0.8,0.9,-2.1,1.5,-2.3l1.3,0c-1.1,1.6,-3,2.3,-3.2,4.3l-0.8,0l0,0.7l10,0ZM79.8,1132l-0.4,0c0,0.3,-0.1,0.6,-0.2,0.8l0.4,0.2c0.2,-0.2,0.2,-0.7,0.2,-1Z" class="g1_2" />
</g>
<image x="284" y="395" width="7" height="15" xlink:href="img/1.png" />
<image x="328" y="186" width="7" height="15" xlink:href="img/2.png" />
<image x="425" y="110" width="7" height="15" xlink:href="img/3.png" />
<image x="425" y="547" width="7" height="15" xlink:href="img/4.png" />
<image x="257" y="700" width="14" height="14" xlink:href="img/5.png" />
<image x="597" y="624" width="15" height="14" xlink:href="img/6.png" />
<image x="585" y="1004" width="15" height="15" xlink:href="img/7.png" />
<image x="265" y="890" width="15" height="15" xlink:href="img/8.png" />
<image x="563" y="1004" width="15" height="15" xlink:href="img/9.png" />
<image x="153" y="776" width="15" height="14" xlink:href="img/10.png" />
<image x="622" y="148" width="15" height="15" xlink:href="img/11.png" />
<image x="673" y="91" width="15" height="15" xlink:href="img/12.png" />
<image x="645" y="148" width="15" height="15" xlink:href="img/13.png" />
<image x="537" y="300" width="14" height="15" xlink:href="img/14.png" />
<image x="245" y="1061" width="14" height="15" xlink:href="img/15.png" />
<image x="133" y="1023" width="15" height="15" xlink:href="img/16.png" />
<image x="232" y="700" width="15" height="14" xlink:href="img/17.png" />
<image x="564" y="814" width="15" height="15" xlink:href="img/18.png" />
<image x="708" y="909" width="14" height="15" xlink:href="img/19.png" />
<image x="627" y="700" width="15" height="14" xlink:href="img/20.png" />
<image x="228" y="947" width="15" height="15" xlink:href="img/21.png" />
<image x="712" y="376" width="15" height="15" xlink:href="img/22.png" />
</svg>