<?xml version="1.0" encoding="UTF-8" standalone="no"?>
<!DOCTYPE svg PUBLIC "-//W3C//DTD SVG 1.1//EN"
"http://www.w3.org/Graphics/SVG/1.1/DTD/svg11.dtd">
<svg version="1.1" xmlns="http://www.w3.org/2000/svg" xmlns:xlink="http://www.w3.org/1999/xlink">
<defs>
<clipPath id="c0_1"><path d="M63.5,1070.5l0,-144l567,0l0,144Z" /></clipPath>
<style type="text/css"><![CDATA[
.g2_1{
fill: none;
stroke: #000000;
stroke-width: 1;
stroke-linecap: round;
stroke-linejoin: round;
}
.g1_1{
stroke: #000000;
stroke-width: 1;
stroke-linecap: round;
stroke-linejoin: round;
}
]]></style>
</defs>
<path fill-rule="evenodd" d="M63.5,427.5l567,0l0,1l-567,0" class="g1_1" />
<path fill-rule="evenodd" d="M63.5,851.5l567,0l0,1l-567,0" class="g1_1" />
<path fill-rule="evenodd" d="M630.5,907.5l-567,0l0,-1l567,0l0,1Z" class="g1_1" />
<g clip-path="url(#c0_1)">
<path d="M-450.5,927.5l1085,0" class="g2_1" />
</g>
<path fill-rule="evenodd" d="M275.5,1073.5l-71,0l71,0Z" class="g1_1" />
<path fill-rule="evenodd" d="M849.3,427.4l0,374.1l-0.7,-0.8l0,-373.3" class="g1_1" />
<path fill-rule="evenodd" d="M849.3,801.5l-191.7,0l0.7,-0.8l190.3,0" class="g1_1" />
<path fill-rule="evenodd" d="M657.5,801.5l0,-374l1,0l0,373" class="g1_1" />
<path fill-rule="evenodd" d="M658.5,427.5l190,0l0,1l-190,0l0,-1" class="g1_1" />
</svg>