<?xml version="1.0" encoding="UTF-8" standalone="no"?>
<!DOCTYPE svg PUBLIC "-//W3C//DTD SVG 1.1//EN"
"http://www.w3.org/Graphics/SVG/1.1/DTD/svg11.dtd">
<svg version="1.1" xmlns="http://www.w3.org/2000/svg" xmlns:xlink="http://www.w3.org/1999/xlink">
<defs>
<style type="text/css"><![CDATA[
.g1_5{
fill: none;
stroke: #231F20;
stroke-width: 1;
stroke-linecap: butt;
stroke-linejoin: miter;
}
]]></style>
</defs>
<path d="M96.5,81.5l724,0" class="g1_5" />
<path d="M96.5,124.5l724,0" class="g1_5" />
<path d="M96.5,1101.5l145,0" class="g1_5" />
<path d="M241.5,1101.5l132,0" class="g1_5" />
<path d="M373.5,1101.5l157,0" class="g1_5" />
<path d="M530.5,1101.5l158,0" class="g1_5" />
<path d="M688.5,1101.5l132,0" class="g1_5" />
<path d="M96.5,149.5l145,0" class="g1_5" />
<path d="M241.5,149.5l132,0" class="g1_5" />
<path d="M373.5,149.5l157,0" class="g1_5" />
<path d="M530.5,149.5l158,0" class="g1_5" />
<path d="M688.5,149.5l132,0" class="g1_5" />
<path d="M96.5,174.5l145,0" class="g1_5" />
<path d="M241.5,174.5l132,0" class="g1_5" />
<path d="M373.5,174.5l157,0" class="g1_5" />
<path d="M530.5,174.5l158,0" class="g1_5" />
<path d="M688.5,174.5l132,0" class="g1_5" />
<path d="M96.5,312.5l145,0" class="g1_5" />
<path d="M241.5,312.5l132,0" class="g1_5" />
<path d="M373.5,312.5l157,0" class="g1_5" />
<path d="M530.5,312.5l158,0" class="g1_5" />
<path d="M688.5,312.5l132,0" class="g1_5" />
<path d="M96.5,337.5l145,0" class="g1_5" />
<path d="M241.5,337.5l132,0" class="g1_5" />
<path d="M373.5,337.5l157,0" class="g1_5" />
<path d="M530.5,337.5l158,0" class="g1_5" />
<path d="M688.5,337.5l132,0" class="g1_5" />
<path d="M96.5,434.5l145,0" class="g1_5" />
<path d="M241.5,434.5l132,0" class="g1_5" />
<path d="M373.5,434.5l157,0" class="g1_5" />
<path d="M530.5,434.5l158,0" class="g1_5" />
<path d="M688.5,434.5l132,0" class="g1_5" />
<path d="M96.5,459.5l145,0" class="g1_5" />
<path d="M241.5,459.5l132,0" class="g1_5" />
<path d="M373.5,459.5l157,0" class="g1_5" />
<path d="M530.5,459.5l158,0" class="g1_5" />
<path d="M688.5,459.5l132,0" class="g1_5" />
<path d="M96.5,641.5l145,0" class="g1_5" />
<path d="M241.5,641.5l132,0" class="g1_5" />
<path d="M373.5,641.5l157,0" class="g1_5" />
<path d="M530.5,641.5l158,0" class="g1_5" />
<path d="M688.5,641.5l132,0" class="g1_5" />
<path d="M96.5,666.5l145,0" class="g1_5" />
<path d="M241.5,666.5l132,0" class="g1_5" />
<path d="M373.5,666.5l157,0" class="g1_5" />
<path d="M530.5,666.5l158,0" class="g1_5" />
<path d="M688.5,666.5l132,0" class="g1_5" />
<path d="M96.5,733.5l145,0" class="g1_5" />
<path d="M241.5,733.5l132,0" class="g1_5" />
<path d="M373.5,733.5l157,0" class="g1_5" />
<path d="M530.5,733.5l158,0" class="g1_5" />
<path d="M688.5,733.5l132,0" class="g1_5" />
<path d="M96.5,765.5l145,0" class="g1_5" />
<path d="M241.5,765.5l132,0" class="g1_5" />
<path d="M373.5,765.5l157,0" class="g1_5" />
<path d="M530.5,765.5l158,0" class="g1_5" />
<path d="M688.5,765.5l132,0" class="g1_5" />
<path d="M96.5,816.5l145,0" class="g1_5" />
<path d="M241.5,816.5l132,0" class="g1_5" />
<path d="M373.5,816.5l157,0" class="g1_5" />
<path d="M530.5,816.5l158,0" class="g1_5" />
<path d="M688.5,816.5l132,0" class="g1_5" />
<path d="M96.5,883.5l145,0" class="g1_5" />
<path d="M241.5,883.5l132,0" class="g1_5" />
<path d="M373.5,883.5l157,0" class="g1_5" />
<path d="M530.5,883.5l158,0" class="g1_5" />
<path d="M688.5,883.5l132,0" class="g1_5" />
<path d="M96.5,908.5l145,0" class="g1_5" />
<path d="M241.5,908.5l132,0" class="g1_5" />
<path d="M373.5,908.5l157,0" class="g1_5" />
<path d="M530.5,908.5l158,0" class="g1_5" />
<path d="M688.5,908.5l132,0" class="g1_5" />
</svg>