<?xml version="1.0" encoding="UTF-8" standalone="no"?>
<!DOCTYPE svg PUBLIC "-//W3C//DTD SVG 1.1//EN"
"http://www.w3.org/Graphics/SVG/1.1/DTD/svg11.dtd">
<svg version="1.1" xmlns="http://www.w3.org/2000/svg" xmlns:xlink="http://www.w3.org/1999/xlink">
<defs>
<clipPath id="c0_7"><path d="M0.5,1195.5L0.5,0.5l909,0l0,1195Z" /></clipPath>
<style type="text/css"><![CDATA[
.g2_7{
fill: #8077B7;
stroke: #8077B7;
stroke-width: 1;
stroke-linecap: round;
stroke-linejoin: round;
}
.g1_7{
fill: #8077B7;
}
]]></style>
</defs>
<g clip-path="url(#c0_7)">
<path fill-rule="evenodd" d="M-34.5,831.8l0.3,-4l1,-3.9l1.8,-3.8c4.3,-7.3,11.7,-11.6,20.2,-11.6l22.5,0l4,0.3c8.2,1.4,15.2,7.3,18,15.1l1,3.9l0.3,4l0,31.2l-0.3,4.1C32.9,875.2,27,882.3,19.2,885l-3.9,1.1l-4,0.3C-5.9,885.2,-21,891.3,-31.4,874.7L-33.2,871l-1,-3.9L-34.5,863Z" class="g1_7" />
<path fill-rule="evenodd" d="M-10.5,808.5l22,0l0,13l-22,0" class="g2_7" />
</g>
<path fill-rule="evenodd" d="M11.3,808.5l4,0.3c9.7,1.7,17.3,9.3,19,19l0.3,4l-12.9,0L21.5,830c-0.6,-4.1,-4.3,-7.8,-8.4,-8.4l-1.8,-0.2" class="g2_7" />
<path fill-rule="evenodd" d="M34.5,831.5l0,32l-13,0l0,-32" class="g2_7" />
<path fill-rule="evenodd" d="M34.6,863l-0.3,4.1c-1.7,9.6,-9.3,17.3,-19,19l-4,0.3l0,-13l1.8,-0.2c4.1,-0.6,7.8,-4.2,8.4,-8.4L21.7,863" class="g2_7" />
<g clip-path="url(#c0_7)">
<path fill-rule="evenodd" d="M11.5,886.5l-22,0l0,-13l22,0" class="g2_7" />
</g>
</svg>