<?xml version="1.0" encoding="UTF-8" standalone="no"?>
<!DOCTYPE svg PUBLIC "-//W3C//DTD SVG 1.1//EN"
"http://www.w3.org/Graphics/SVG/1.1/DTD/svg11.dtd">
<svg version="1.1" xmlns="http://www.w3.org/2000/svg" xmlns:xlink="http://www.w3.org/1999/xlink">
<defs>
<clipPath id="c0_1"><path d="M100.5,1094.5l0,-69l365,0l0,69Z" /></clipPath>
<style type="text/css"><![CDATA[
.g2_1{
fill: #231F20;
}
.g3_1{
fill: none;
stroke: #000000;
stroke-width: 1;
stroke-linecap: butt;
stroke-linejoin: miter;
}
.g1_1{
fill: none;
stroke: #000000;
stroke-width: 1;
stroke-linecap: round;
stroke-linejoin: round;
}
]]></style>
</defs>
<g clip-path="url(#c0_1)">
<path d="M100.5,1025.5l1461,0" class="g1_1" />
</g>
<path d="M66.3,90.2c-0.7,0,-1.2,0.2,-1.3,0.4c-0.2,0.2,-0.2,0.4,-0.2,0.9l0,2.7c0,0.5,0.1,0.7,0.5,1c0.3,0.2,0.8,0.3,1.1,0.3c1.3,0,2.1,-1.2,2.1,-2.8c0,-1.3,-0.7,-2.5,-2.2,-2.5Z" class="g2_1" />
<path d="M73.2,93.5c0.8,0,1.3,-0.7,1.3,-1.7c0,-1,-0.5,-1.9,-1.4,-1.9c-0.8,0,-1.4,0.7,-1.4,1.7c0,1.1,0.7,1.9,1.5,1.9Z" class="g2_1" />
<path d="M65.9,96c-0.3,0,-0.8,0,-0.9,0c-0.2,0,-0.2,0.1,-0.2,0.4l0,1.7c0,1.1,0,1.2,0.6,1.3L66,99.5c0.1,0.1,0.1,0.3,0,0.4C65.2,99.8,64.7,99.8,64.2,99.8c-0.6,0,-1.1,0,-1.5,0.1C62.5,99.8,62.5,99.6,62.6,99.5L63,99.4c0.6,0,0.6,-0.2,0.6,-1.3l0,-6.8c0,-0.6,0,-0.7,-0.5,-1l-0.1,0C62.9,90.2,62.9,90,63,90c0.4,-0.2,1.2,-0.6,1.6,-0.9c0.1,0,0.2,0.1,0.2,0.1c0,0.3,-0.1,0.6,-0.1,0.8c0,0.1,0.1,0.2,0.2,0.2c0.2,-0.1,1.2,-0.8,2.2,-0.8c1.7,0,2.7,1.3,2.7,2.9c0,2.2,-1.6,3.7,-3.9,3.7m6.9,4c-2,0,-2.7,-1,-2.7,-1.8c0,-0.2,0.1,-0.4,0.2,-0.6c0.3,-0.2,0.7,-0.6,1.1,-1c0.1,-0.1,0.3,-0.3,0.1,-0.4C70.9,96.1,70.3,95.5,70.3,95c0,-0.1,0.1,-0.2,0.3,-0.3c0.3,-0.2,0.6,-0.4,0.8,-0.7c0.1,-0.1,0.2,-0.2,0.2,-0.3C71.1,93.4,70.4,92.8,70.4,91.8c0,-1.4,1.2,-2.4,2.6,-2.4c0.6,0,1.2,0.2,1.6,0.3c0.5,0.3,0.6,0.3,1,0.3l1.3,0c0.1,0.1,0.1,0.6,-0.1,0.6l-1.2,0c0,0.3,0,0.6,0,0.8c0,1.1,-0.6,2.5,-2.7,2.5c-0.3,0,-0.5,0,-0.7,0C72,94,71.5,94.3,71.5,94.7c0,0.4,0.4,0.7,1.1,0.7c0.6,0,1.2,0,2,0c0.9,0,2.2,0.1,2.2,1.7c0,0,0,0.1,0,0.2c0.5,-1.3,0.8,-2.6,0.8,-4C77.6,87.2,72.5,82.2,66.2,82.2c-6.3,0,-11.4,5,-11.4,11.1c0,0.8,0.1,1.5,0.2,2.2c0,0,0.1,0,0.1,0l0.3,-0.1C56,95.4,56,95.2,56,94.1l0,-2.8c0,-0.6,0,-0.7,-0.4,-1l-0.2,0c0,-0.1,0,-0.3,0.1,-0.3c0.3,-0.2,1.3,-0.6,1.6,-0.8c0,0,0.1,0,0.2,0.1c-0.1,0.4,-0.1,0.6,-0.1,0.8c0,0,0.1,0.1,0.2,0.1c0.7,-0.4,1.4,-0.8,2.3,-0.8c1.3,0,1.9,0.9,1.9,2l0,2.7c0,1.1,0,1.3,0.6,1.3l0.3,0.1c0.1,0.1,0.1,0.3,0,0.4C62,95.8,61.5,95.8,61,95.8c-0.6,0,-1.1,0,-1.5,0.1C59.4,95.8,59.3,95.6,59.4,95.5l0.3,-0.1c0.6,-0.1,0.7,-0.2,0.7,-1.3l0,-2.4c0,-0.9,-0.5,-1.5,-1.6,-1.5c-0.6,0,-1.1,0.2,-1.3,0.5c-0.2,0.3,-0.3,0.5,-0.3,1l0,2.4c0,1.1,0.1,1.2,0.6,1.3l0.3,0.1c0.1,0.1,0.1,0.3,0,0.4C57.7,95.8,57.2,95.8,56.6,95.8c-0.6,0,-1,0,-1.5,0.1c1.2,4.8,5.7,8.5,11.1,8.5c4.2,0,7.9,-2.3,9.8,-5.6c-0.7,0.8,-1.9,1.2,-3.2,1.2Z" class="g2_1" />
<path d="M73.5,96.3c-0.5,0,-1.2,0.1,-1.4,0.2c-0.4,0.2,-0.8,0.7,-0.8,1.3c0,0.9,0.7,1.6,2.2,1.6c1.4,0,2.4,-0.8,2.4,-1.7c0,-1,-0.7,-1.4,-1.9,-1.4l-0.5,0Z" class="g2_1" />
<path d="M54.5,109.5l411,0" class="g3_1" />
</svg>