<?xml version="1.0" encoding="UTF-8" standalone="no"?>
<!DOCTYPE svg PUBLIC "-//W3C//DTD SVG 1.1//EN"
"http://www.w3.org/Graphics/SVG/1.1/DTD/svg11.dtd">
<svg version="1.1" xmlns="http://www.w3.org/2000/svg" xmlns:xlink="http://www.w3.org/1999/xlink">
<defs>
<clipPath id="c0_1"><path d="M0.5,173.5l0,-39l252,0l0,39Z" /></clipPath>
<clipPath id="c1_1"><path d="M729.5,53.5l0,-33l37,0l0,33Z" /></clipPath>
<style type="text/css"><![CDATA[
.g4_1{
fill: #FFFFFF;
}
.g8_1{
fill: #6695CB;
}
.g5_1{
fill: #0D4C8F;
}
.g2_1{
fill: #808285;
}
.g6_1{
fill: none;
stroke: #0D4C8F;
stroke-width: 1;
stroke-linecap: round;
stroke-linejoin: round;
}
.g7_1{
fill: #EE4036;
}
.g3_1{
fill: #1F2C61;
}
.g1_1{
fill: #A8A9AD;
stroke: #A8A9AD;
stroke-width: 1;
stroke-linecap: round;
stroke-linejoin: round;
}
]]></style>
</defs>
<path fill-rule="evenodd" d="M64.5,848.5l780,0l0,1l-780,0" class="g1_1" />
<g clip-path="url(#c0_1)">
<path d="M-250.1,173.9l0,-39.7l479.8,0l22.9,39.7l-502.7,0Z" class="g2_1" />
</g>
<path fill-rule="evenodd" d="M844.5,94.5l-780,0l780,0Z" class="g1_1" />
<path d="M91,60l727,0l0,-42L91,18l0,42Z" class="g3_1" />
<g clip-path="url(#c1_1)">
<path d="M761.3,37.1c0,8.8,-7.2,16,-16.1,16c-8.8,0,-16,-7.2,-16,-16c0,-8.9,7.2,-16.1,16,-16.1c8.9,0,16.1,7.2,16.1,16.1Z" class="g4_1" />
</g>
<path d="M735.2,28.6l-0.8,1.8l1.5,0Zm-1,2.2l-0.5,1.3l-0.6,0l2.1,-4.7l2,4.7l-0.5,0l-0.6,-1.3Z" class="g5_1" />
<path d="M738.1,29.6c0.1,-0.2,0.4,-0.3,0.6,-0.3c0.4,0,0.7,0.1,0.8,0.4c0.2,-0.3,0.5,-0.4,0.8,-0.4c0.8,0,0.9,0.5,0.9,1.1l0,1.7l-0.4,0l0,-1.6c0,-0.4,-0.1,-0.8,-0.6,-0.8c-0.5,0,-0.6,0.5,-0.6,0.9l0,1.5l-0.4,0l0,-1.6c0,-0.3,-0.1,-0.8,-0.5,-0.8c-0.6,0,-0.6,0.6,-0.6,1l0,1.4l-0.5,0l0,-2.8l0.5,0l0,0.3Z" class="g5_1" />
<path d="M743.8,30.4C743.7,30,743.4,29.7,743,29.7c-0.4,0,-0.8,0.3,-0.9,0.7Zm-1.7,0.4c0,0.5,0.4,1,0.9,1c0.4,0,0.7,-0.3,0.9,-0.6l0.4,0.2c-0.3,0.5,-0.7,0.8,-1.3,0.8c-0.8,0,-1.4,-0.6,-1.4,-1.4c0,-0.9,0.5,-1.5,1.4,-1.5c0.9,0,1.3,0.7,1.3,1.5l-2.2,0Z" class="g5_1" />
<path d="M745.3,29.6c0.2,-0.2,0.3,-0.3,0.6,-0.3c0.2,0,0.3,0,0.4,0.1l-0.2,0.4c-0.1,0,-0.1,-0.1,-0.3,-0.1c-0.5,0,-0.5,0.7,-0.5,1l0,1.4l-0.5,0l0,-2.8l0.5,0l0,0.3Z" class="g5_1" />
<path d="M747.3,32.1l-0.5,0l0,-2.8l0.5,0l0,2.8Zm0.1,-3.8c0,0.2,-0.2,0.3,-0.4,0.3c-0.2,0,-0.3,-0.1,-0.3,-0.3c0,-0.2,0.1,-0.4,0.3,-0.4c0.2,0,0.4,0.2,0.4,0.4Z" class="g5_1" />
<path d="M750.2,30.2c-0.2,-0.3,-0.5,-0.5,-0.9,-0.5c-0.5,0,-1,0.5,-1,1c0,0.6,0.4,1.1,1,1.1c0.4,0,0.7,-0.2,0.9,-0.5l0,0.6c-0.2,0.2,-0.5,0.3,-0.9,0.3c-0.8,0,-1.4,-0.6,-1.4,-1.5c0,-0.8,0.6,-1.4,1.4,-1.4c0.4,0,0.7,0.1,0.9,0.2l0,0.7Z" class="g5_1" />
<path d="M751.1,30.7c0,0.5,0.3,1.1,0.9,1.1c0.6,0,0.9,-0.5,0.9,-1.1c0,-0.6,-0.3,-1,-0.9,-1c-0.6,0,-0.9,0.5,-0.9,1m2.3,1.4l-0.5,0l0,-0.4c-0.2,0.3,-0.6,0.5,-1,0.5c-0.8,0,-1.3,-0.7,-1.3,-1.5c0,-0.8,0.5,-1.4,1.3,-1.4c0.4,0,0.8,0.1,1,0.4l0,-0.4l0.5,0l0,2.8Z" class="g5_1" />
<path d="M754.6,29.7c0.2,-0.3,0.4,-0.4,0.8,-0.4c0.7,0,0.9,0.5,0.9,1.2l0,1.6l-0.5,0l0,-1.6c0,-0.4,0,-0.8,-0.5,-0.8c-0.7,0,-0.7,0.6,-0.7,1.1l0,1.3l-0.5,0l0,-2.8l0.5,0l0,0.4Z" class="g5_1" />
<path d="M733.8,34.8c-0.2,-0.3,-0.4,-0.5,-0.8,-0.5c-0.4,0,-0.7,0.3,-0.7,0.7c0,0.4,0.4,0.6,0.7,0.7l0.3,0.2c0.5,0.2,1,0.5,1,1.2c0,0.8,-0.6,1.4,-1.4,1.4c-0.7,0,-1.2,-0.5,-1.4,-1.2L732,37.2c0.1,0.5,0.4,0.8,0.9,0.8c0.5,0,0.9,-0.3,0.9,-0.8c0,-0.6,-0.4,-0.7,-0.8,-0.9l-0.3,-0.1c-0.5,-0.3,-0.9,-0.5,-0.9,-1.2c0,-0.7,0.6,-1.1,1.2,-1.1c0.5,0,0.9,0.2,1.2,0.7l-0.4,0.2Z" class="g5_1" />
<path d="M735.2,37c0,0.6,0.4,1.1,1,1.1c0.6,0,1,-0.5,1,-1.1c0,-0.5,-0.4,-1,-1,-1c-0.6,0,-1,0.5,-1,1m-0.5,0c0,-0.8,0.6,-1.4,1.5,-1.4c0.8,0,1.4,0.6,1.4,1.4c0,0.9,-0.6,1.5,-1.4,1.5c-0.8,0,-1.5,-0.6,-1.5,-1.5Z" class="g5_1" />
<path d="M740.2,36.5C740,36.2,739.7,36,739.4,36c-0.6,0,-1,0.5,-1,1c0,0.6,0.4,1.1,0.9,1.1c0.4,0,0.7,-0.2,0.9,-0.5l0.1,0l0,0.6c-0.3,0.2,-0.6,0.3,-0.9,0.3c-0.9,0,-1.5,-0.6,-1.5,-1.5c0,-0.8,0.7,-1.4,1.5,-1.4c0.3,0,0.6,0.1,0.8,0.2l0,0.7Z" class="g5_1" />
<path d="M741.3,38.4l-0.5,0l0,-2.8l0.5,0l0,2.8Zm0.1,-3.8c0,0.2,-0.1,0.3,-0.3,0.3c-0.2,0,-0.4,-0.1,-0.4,-0.3c0,-0.2,0.2,-0.3,0.4,-0.3c0.2,0,0.3,0.1,0.3,0.3Z" class="g5_1" />
<path d="M744,36.7C743.9,36.3,743.6,36,743.2,36c-0.4,0,-0.8,0.3,-0.9,0.7Zm-1.7,0.4c0,0.5,0.4,1,0.9,1c0.4,0,0.7,-0.3,0.9,-0.6l0.4,0.2c-0.3,0.5,-0.7,0.8,-1.3,0.8c-0.8,0,-1.4,-0.6,-1.4,-1.4c0,-0.9,0.5,-1.5,1.4,-1.5c0.9,0,1.4,0.7,1.3,1.5l-2.2,0Z" class="g5_1" />
<path d="M744.5,38.5l0,-4" class="g6_1" />
<path d="M746.3,35.6l0.5,0l1,2l0.9,-2l0.5,0l-1.8,4l-0.5,0l0.6,-1.4Z" class="g5_1" />
<path d="M751,37.1c-0.7,0.7,-1.2,1.3,-0.9,1.5c0.3,0.2,1.1,-0.5,2.2,-1.6c0.4,-0.4,1.1,-1.3,0.9,-1.5C753,35.3,752,36,751,37.1m1.4,0.2c-1,1,-1.9,1.6,-2.4,1.5c-0.6,-0.2,-0.4,-1.2,0.6,-2.1c0.9,-1,2.2,-1.6,2.7,-1.3c0.3,0.2,0.1,0.9,-0.9,1.9Z" class="g7_1" />
<path d="M735.4,41.4l-0.8,1.8l1.5,0Zm-1,2.3l-0.5,1.2l-0.6,0l2.1,-4.7l2,4.7l-0.6,0l-0.5,-1.2Z" class="g5_1" />
<path d="M738.2,42.5c0.2,-0.3,0.4,-0.4,0.8,-0.4c0.8,0,0.9,0.5,0.9,1.2l0,1.6l-0.4,0l0,-1.5c0,-0.5,-0.1,-0.9,-0.6,-0.9c-0.7,0,-0.7,0.6,-0.7,1.1l0,1.3l-0.5,0l0,-2.8l0.5,0l0,0.4Z" class="g5_1" />
<path d="M740.8,43.5c0,0.5,0.3,1.1,0.9,1.1c0.6,0,0.9,-0.5,0.9,-1.1c0,-0.6,-0.3,-1,-0.9,-1c-0.6,0,-0.9,0.5,-0.9,1m1.8,1c-0.3,0.3,-0.6,0.5,-1,0.5c-0.8,0,-1.3,-0.7,-1.3,-1.5c0,-0.8,0.5,-1.4,1.3,-1.4c0.4,0,0.7,0.1,1,0.4l0,-2.5l0.5,0l0,4.9l-0.5,0l0,-0.4Z" class="g5_1" />
<path d="M744.2,42.4c0.1,-0.2,0.3,-0.3,0.6,-0.3c0.1,0,0.3,0,0.4,0.1L745,42.6c-0.1,0,-0.2,-0.1,-0.3,-0.1c-0.5,0,-0.5,0.7,-0.5,1l0,1.4l-0.5,0l0,-2.8l0.5,0l0,0.3Z" class="g5_1" />
<path d="M745.6,43.5c0,0.6,0.4,1.1,1,1.1c0.6,0,1,-0.5,1,-1.1c0,-0.5,-0.4,-1,-1,-1c-0.6,0,-1,0.5,-1,1m-0.4,0c0,-0.8,0.6,-1.4,1.4,-1.4c0.8,0,1.5,0.6,1.5,1.4c0,0.9,-0.7,1.5,-1.5,1.5c-0.8,0,-1.4,-0.6,-1.4,-1.5Z" class="g5_1" />
<path d="M748.5,44.5l0,-4" class="g6_1" />
<path d="M749.9,43.5c0,0.6,0.4,1.1,0.9,1.1c0.6,0,1,-0.5,1,-1.1c0,-0.5,-0.4,-1,-1,-1c-0.5,0,-0.9,0.5,-0.9,1m-0.5,0c0,-0.8,0.6,-1.4,1.4,-1.4c0.9,0,1.5,0.6,1.5,1.4c0,0.9,-0.6,1.5,-1.5,1.5c-0.8,0,-1.4,-0.6,-1.4,-1.5Z" class="g5_1" />
<path d="M753.1,43.5c0,0.5,0.3,1.1,0.9,1.1c0.6,0,1,-0.5,1,-1.1c0,-0.6,-0.4,-1,-1,-1c-0.5,0,-0.9,0.5,-0.9,1m2.3,1.3c0,0.4,0,0.8,-0.3,1.2c-0.2,0.3,-0.6,0.5,-1,0.5c-0.8,0,-1.4,-0.5,-1.4,-1.3l0.5,0c0,0.5,0.3,0.8,0.8,0.8c0.8,0,0.9,-0.5,0.9,-1.1l0,-0.4C754.7,44.8,754.3,45,754,45c-0.8,0,-1.4,-0.7,-1.4,-1.5c0,-0.7,0.6,-1.4,1.4,-1.4c0.4,0,0.7,0.1,0.9,0.4l0,-0.4l0.5,0l0,2.7Z" class="g5_1" />
<path d="M755.7,42.1l0.6,0l0.9,2l0.9,-2l0.6,0l-2.1,4.4l-0.5,0L757,44.7Z" class="g5_1" />
<g clip-path="url(#c1_1)">
<path d="M765,26.9c0.1,-0.1,0.2,-0.1,0.4,-0.1c0.8,-0.1,1.5,0.3,1.5,0.8c0.1,0.5,-0.5,1,-1.4,1c-0.8,0.1,-1.5,-0.2,-1.6,-0.8c0,0,0,-0.1,0.1,-0.2l-0.1,0c-2,1,-3.7,2.9,-5.2,4.7c-0.6,0.8,-1.2,1.7,-2.4,3.1l-0.2,0.3c0,0,0,0.1,-0.1,0.1l1.5,0c0.1,0,0.1,0.1,0.1,0.1c0,0.1,0,0.2,-0.1,0.2l-1.7,0c-0.7,0.8,-1.9,2.3,-3,3.3c-1.3,1.1,-2.9,2,-4.3,2.1c-0.8,0.1,-1.9,0,-2.2,-0.7c0,-0.1,0,-0.2,0.1,-0.3c0.1,0,0.3,0.2,0.4,0.3c0.3,0.2,0.9,0.5,1.8,0.4c1.6,-0.1,2.5,-0.9,3.8,-2.1c0.7,-0.7,1.8,-2,2.5,-3l-0.5,0c-0.1,0,-0.2,-0.1,-0.2,-0.2c0,0,0.1,-0.1,0.2,-0.1l0.8,0l0.2,-0.3c0.8,-1.1,1.4,-1.9,2.4,-3.2c2,-2.6,4.3,-4.7,7.2,-5.4Z" class="g7_1" />
</g>
<path d="M107.8,26.9L98.9,48.7l3.8,0L105,42.8l7.7,0l2.1,5.9l4.9,0L111.5,26.9Zm-1.7,13.2c1.1,-2.9,2.1,-5.6,3,-8.9l0.1,0c1,3.3,1.9,6,2.9,8.9ZM141.6,26.9l-3.5,0l0,15.6l-0.1,0C133.9,36.8,129.7,31.9,125.5,26.9l-3.2,0l0,21.8l3.5,0l0,-15.7l0.1,0c4.1,5.7,8.3,10.7,12.5,15.7l3.2,0Zm5.2,0l0,21.8l7.1,0c7.8,0,12.4,-4.3,12.4,-11.5c0,-5.3,-3,-10.3,-11.9,-10.3Zm4.4,2.9l3.2,0c4.6,0,7.2,2.8,7.2,7.3c0,6.1,-2.7,8.7,-7.7,8.7l-2.7,0Zm23.5,0l2.3,0c1.8,0,3.5,0.8,3.5,3.3c0,1.6,-1,3.9,-4,3.9l-1.8,0Zm-4.4,18.9l4.4,0l0,-8.7l2.7,0l4.4,9.1l4.6,-0.8l-5.2,-9.4c2.1,-1.2,3.7,-3.1,3.7,-6.3c0,-3.7,-2.8,-5.7,-7,-5.7l-7.6,0Zm28.8,0.4C205.9,49.1,210,44,210,37.5c0,-6.1,-4.6,-11,-10.9,-11c-6.2,0,-10.9,4.9,-10.9,11c0,6.5,4.2,11.6,10.9,11.6m0,-3.1c-4.6,0,-6.2,-4.3,-6.2,-8.5c0,-4,1.9,-7.9,6.2,-7.9c4.4,0,6.3,3.9,6.3,7.9c0,4.2,-1.7,8.5,-6.3,8.5M214,48.7l13.1,0l0,-2.9l-8.6,0l0,-18.9l-4.5,0Zm26,0.4c6.7,0,10.9,-5.1,10.9,-11.6c0,-6.1,-4.6,-11,-10.9,-11c-6.3,0,-10.9,4.9,-10.9,11c0,6.5,4.2,11.6,10.9,11.6M240,46c-4.6,0,-6.2,-4.3,-6.2,-8.5c0,-4,1.8,-7.9,6.2,-7.9c4.4,0,6.2,3.9,6.2,7.9c0,4.2,-1.6,8.5,-6.2,8.5m29,-7.3l0,6.8c-1,0.4,-1.9,0.5,-3.1,0.5c-3.8,0,-7.5,-3.1,-7.5,-8.3c0,-4.9,3.2,-8.1,7.9,-8.1c1.7,0,3.5,0.5,4.7,1.2l1.4,-2.6c-1.4,-1,-3.8,-1.7,-6.2,-1.7c-7.7,0,-12.5,5.2,-12.5,11.2c0,6.4,4.8,11.4,12.4,11.4c2.5,0,4.9,-0.6,7.3,-1.3l0,-9.1Zm19,10l0,-9.1l7.1,-12.4l-3.6,-0.7c-1.7,3.2,-3.4,6.4,-5.1,10.1c-1.6,-3.7,-3.1,-6.9,-4.6,-10.1l-4.9,0.7l6.7,12.4l0,9.1Z" class="g4_1" />
<path d="M91,61l727,0l0,-6L91,55l0,6Z" class="g8_1" />
<path d="M788.1,37.1c0.6,0,1.7,0,2.2,-0.1c0,0.2,0,0.3,0,0.5c0,0.2,0,0.4,0,0.5c-0.2,-0.1,-0.5,-0.1,-0.8,-0.1c-0.4,0,-0.9,0,-1.4,0l0,3.2c0.3,0,1.6,-0.1,2.5,-0.1c-0.1,0.1,-0.1,0.2,-0.1,0.4c0,0.2,0,0.3,0.1,0.5c-0.6,-0.1,-1.3,-0.1,-1.9,-0.1c-0.6,0,-1.2,0,-1.9,0.1c0,-0.6,0.1,-1.1,0.1,-1.7c0,-0.7,0,-2.3,0,-2.9c0,-0.6,0,-3.1,-0.1,-4.5c0.5,0.1,1.3,0.1,1.8,0.1c0.5,0,1.2,0,1.9,-0.1c0,0.2,-0.1,0.3,-0.1,0.5c0,0.2,0.1,0.3,0.1,0.5l-1,-0.1c-0.3,0,-0.4,0,-1.4,0l0,3.4Z" class="g4_1" />
<path d="M798.5,40.4L797.6,38c-0.5,-0.1,-1.1,0,-1.5,0c-0.3,1,-1.1,2.6,-1.3,3.9c0,0.1,-0.3,-0.1,-0.5,-0.1c-0.2,0,-0.3,0.1,-0.5,0.1L795,38.5c1,-3,1.6,-4.7,1.9,-5.8c0.1,0,0.2,0.1,0.3,0.1c0.1,0,0.2,-0.1,0.3,-0.1c0.5,1.8,1.1,3.7,1.5,4.8c0.3,1.1,1,3.1,1.5,4.4c-0.2,0,-0.5,-0.1,-0.8,-0.1c-0.3,0,-0.6,0.1,-0.8,0.1l-0.4,-1.5M796.8,35l-0.6,2.2c0.3,0,1,0.1,1.3,0.1Z" class="g4_1" />
<path d="M807.7,40.4L806.8,38c-0.5,-0.1,-1.1,0,-1.5,0c-0.3,1,-1.1,2.6,-1.3,3.9c0,0.1,-0.3,-0.1,-0.5,-0.1c-0.2,0,-0.3,0.1,-0.5,0.1l1.2,-3.4c1,-3,1.6,-4.7,1.9,-5.8c0.1,0,0.2,0.1,0.3,0.1c0.1,0,0.2,-0.1,0.3,-0.1c0.5,1.8,1.1,3.7,1.5,4.8c0.3,1.1,1,3.1,1.5,4.4c-0.2,0,-0.5,-0.1,-0.8,-0.1c-0.3,0,-0.6,0.1,-0.8,0.1l-0.4,-1.5M806,35l-0.6,2.2c0.3,0,1,0.1,1.3,0.1Z" class="g4_1" />
<path d="M792.2,37l0.5,-0.6l0.5,0.7l0.7,0.5l-0.7,0.5l-0.5,0.7L792.1,38l-0.6,-0.4Z" class="g4_1" />
<path d="M801.2,36.9l0.5,-0.6l0.5,0.6l0.7,0.5L802.2,38l-0.5,0.6l-0.6,-0.7l-0.6,-0.5Z" class="g4_1" />
<path d="M786.2,25.9c0.8,-0.3,1.4,-0.2,1.3,0.9c-0.1,0.7,-0.2,1.2,-0.4,2c-0.1,0.5,-0.5,1.6,-1.6,1.9c-0.4,0.1,-0.7,0.2,-0.9,0.7c-0.3,0.3,-0.6,0.7,-1,1.3c-0.1,0.2,-0.3,0.4,-0.3,0.7c-0.4,1.2,1,5.3,0.9,6.7c0,1.4,-0.1,2.5,-1.4,4.4c-0.7,1,-2.1,2,-4,2.3c-3.3,0.6,-5.8,-0.1,-7.4,-1.5c-0.7,-0.7,-1.4,-1.6,-1.7,-2.7c-0.4,-1.5,-0.4,-3.1,0.1,-4.5c0.8,-1.8,2.4,-2.9,4.1,-3.4c2.9,-0.8,6.2,-0.5,7,-1.7c0.6,-0.9,0.6,-0.8,0.4,-0.1c-0.2,0.8,-1.1,1.2,-2.1,1.4c-0.5,0.1,-2.7,0.4,-4.5,0.9c-1.1,0.3,-2.1,0.8,-2.5,1.1c-1,0.8,-1.9,1.7,-1.7,5c0.1,1.4,1.3,2.8,2.2,3.4c2.1,1.3,4.2,1.1,5.3,1c0.9,-0.2,2.4,-0.5,3.4,-1.3c1.1,-0.8,1.8,-3.2,1.8,-4.3c0,-1.8,-0.6,-2.8,-0.8,-4.4c-0.2,-1.6,-0.2,-2.1,-0.2,-2.6c0,-0.4,0.1,-0.7,0.1,-1c0.1,-0.9,0.8,-1.6,0.7,-2.4c-0.2,-1,0.1,-1.8,1.6,-2.8c0.5,-0.3,1.2,-0.9,1.6,-1Z" class="g4_1" />
</svg>